G04 #@! TF.GenerationSoftware,KiCad,Pcbnew,8.0.4*
G04 #@! TF.CreationDate,2024-08-16T14:11:01+09:00*
G04 #@! TF.ProjectId,TrueStrike42,54727565-5374-4726-996b-6534322e6b69,rev?*
G04 #@! TF.SameCoordinates,Original*
G04 #@! TF.FileFunction,Paste,Bot*
G04 #@! TF.FilePolarity,Positive*
%FSLAX46Y46*%
G04 Gerber Fmt 4.6, Leading zero omitted, Abs format (unit mm)*
G04 Created by KiCad (PCBNEW 8.0.4) date 2024-08-16 14:11:01*
%MOMM*%
%LPD*%
G01*
G04 APERTURE LIST*
G04 Aperture macros list*
%AMRoundRect*
0 Rectangle with rounded corners*
0 $1 Rounding radius*
0 $2 $3 $4 $5 $6 $7 $8 $9 X,Y pos of 4 corners*
0 Add a 4 corners polygon primitive as box body*
4,1,4,$2,$3,$4,$5,$6,$7,$8,$9,$2,$3,0*
0 Add four circle primitives for the rounded corners*
1,1,$1+$1,$2,$3*
1,1,$1+$1,$4,$5*
1,1,$1+$1,$6,$7*
1,1,$1+$1,$8,$9*
0 Add four rect primitives between the rounded corners*
20,1,$1+$1,$2,$3,$4,$5,0*
20,1,$1+$1,$4,$5,$6,$7,0*
20,1,$1+$1,$6,$7,$8,$9,0*
20,1,$1+$1,$8,$9,$2,$3,0*%
%AMRotRect*
0 Rectangle, with rotation*
0 The origin of the aperture is its center*
0 $1 length*
0 $2 width*
0 $3 Rotation angle, in degrees counterclockwise*
0 Add horizontal line*
21,1,$1,$2,0,0,$3*%
G04 Aperture macros list end*
%ADD10RoundRect,0.150000X-0.528659X-0.296945X0.606304X0.007167X0.528659X0.296945X-0.606304X-0.007167X0*%
%ADD11RoundRect,0.150000X-0.606304X0.007167X0.528659X-0.296945X0.606304X-0.007167X-0.528659X0.296945X0*%
%ADD12RoundRect,0.150000X-0.587500X-0.150000X0.587500X-0.150000X0.587500X0.150000X-0.587500X0.150000X0*%
%ADD13RoundRect,0.150000X-0.433790X-0.423654X0.583790X0.163846X0.433790X0.423654X-0.583790X-0.163846X0*%
%ADD14RoundRect,0.150000X-0.583790X0.163846X0.433790X-0.423654X0.583790X-0.163846X-0.433790X0.423654X0*%
%ADD15RotRect,1.250000X0.900000X15.000000*%
%ADD16RotRect,1.240000X0.900000X15.000000*%
%ADD17RoundRect,0.250000X-0.546166X0.203061X-0.371463X-0.448939X0.546166X-0.203061X0.371463X0.448939X0*%
%ADD18RoundRect,0.250000X-0.475000X0.337500X-0.475000X-0.337500X0.475000X-0.337500X0.475000X0.337500X0*%
%ADD19RoundRect,0.150000X0.758066X0.358415X-0.835712X-0.068637X-0.758066X-0.358415X0.835712X0.068637X0*%
%ADD20RoundRect,0.250000X-0.371463X0.448939X-0.546166X-0.203061X0.371463X-0.448939X0.546166X0.203061X0*%
%ADD21RotRect,1.250000X0.900000X165.000000*%
%ADD22RoundRect,0.250000X-0.448939X-0.371463X0.203061X-0.546166X0.448939X0.371463X-0.203061X0.546166X0*%
%ADD23RoundRect,0.250000X0.337500X0.475000X-0.337500X0.475000X-0.337500X-0.475000X0.337500X-0.475000X0*%
%ADD24RotRect,1.250000X0.900000X195.000000*%
%ADD25RoundRect,0.250000X-0.203061X-0.546166X0.448939X-0.371463X0.203061X0.546166X-0.448939X0.371463X0*%
%ADD26RotRect,1.250000X0.900000X345.000000*%
%ADD27RotRect,1.240000X0.900000X345.000000*%
%ADD28RoundRect,0.150000X0.825000X0.150000X-0.825000X0.150000X-0.825000X-0.150000X0.825000X-0.150000X0*%
%ADD29RoundRect,0.250000X-0.580112X0.054784X-0.242612X-0.529784X0.580112X-0.054784X0.242612X0.529784X0*%
%ADD30RoundRect,0.150000X0.835712X-0.068637X-0.758066X0.358415X-0.835712X0.068637X0.758066X-0.358415X0*%
%ADD31RoundRect,0.250000X0.242612X-0.529784X0.580112X0.054784X-0.242612X0.529784X-0.580112X-0.054784X0*%
%ADD32RotRect,1.250000X0.900000X30.000000*%
%ADD33RotRect,1.240000X0.900000X30.000000*%
%ADD34R,1.250000X1.000000*%
%ADD35R,1.250000X0.900000*%
%ADD36R,1.240000X0.900000*%
%ADD37RoundRect,0.250000X-0.242612X0.529784X-0.580112X-0.054784X0.242612X-0.529784X0.580112X0.054784X0*%
%ADD38RotRect,1.250000X0.900000X330.000000*%
%ADD39RotRect,1.240000X0.900000X330.000000*%
G04 APERTURE END LIST*
D10*
X274808447Y-83139148D03*
X275300204Y-84974407D03*
X273243215Y-84542063D03*
D11*
X33805120Y-46822664D03*
X33313363Y-48657923D03*
X31748131Y-47255008D03*
D10*
X264947426Y-46337379D03*
X265439183Y-48172638D03*
X263382194Y-47740294D03*
D12*
X224428645Y-106370407D03*
X224428645Y-108270407D03*
X222553645Y-107320407D03*
D11*
X84077281Y-80015071D03*
X83585524Y-81850330D03*
X82020292Y-80447415D03*
D10*
X245313918Y-46667664D03*
X245805675Y-48502923D03*
X243748686Y-48070579D03*
X250244424Y-65068547D03*
X250736181Y-66903806D03*
X248679192Y-66471462D03*
D11*
X129096556Y-59207936D03*
X128604799Y-61043195D03*
X127039567Y-59640280D03*
D10*
X174586492Y-77123529D03*
X175078249Y-78958788D03*
X173021260Y-78526444D03*
D11*
X43577623Y-83954722D03*
X43085866Y-85789981D03*
X41520634Y-84387066D03*
D10*
X192987392Y-72193027D03*
X193479149Y-74028286D03*
X191422160Y-73595942D03*
X197917889Y-90593906D03*
X198409646Y-92429165D03*
X196352657Y-91996821D03*
D11*
X95904162Y-109480082D03*
X95412405Y-111315341D03*
X93847173Y-109912426D03*
D10*
X204814271Y-42728012D03*
X205306028Y-44563271D03*
X203249039Y-44130927D03*
D11*
X23944110Y-83624451D03*
X23452353Y-85459710D03*
X21887121Y-84056795D03*
X69374263Y-61283915D03*
X68882506Y-63119174D03*
X67317274Y-61716259D03*
X110695678Y-54277425D03*
X110203921Y-56112684D03*
X108638689Y-54709769D03*
X105765164Y-72678308D03*
X105273407Y-74513567D03*
X103708175Y-73110652D03*
D13*
X174328054Y-121828923D03*
X175278059Y-123474368D03*
X173179257Y-123589147D03*
D14*
X124137198Y-122766425D03*
X123187200Y-124411870D03*
X122038402Y-122651649D03*
D11*
X93938267Y-43213286D03*
X93446510Y-45048545D03*
X91881278Y-43645630D03*
D10*
X169655996Y-58722641D03*
X170147753Y-60557900D03*
X168090764Y-60125556D03*
D11*
X64443777Y-79684790D03*
X63952020Y-81520049D03*
X62386788Y-80117134D03*
X100834666Y-91079204D03*
X100342909Y-92914463D03*
X98777677Y-91511548D03*
D10*
X229378278Y-60798601D03*
X229870035Y-62633860D03*
X227813046Y-62201516D03*
D11*
X119235554Y-96009698D03*
X118743797Y-97844957D03*
X117178565Y-96442042D03*
D12*
X74287797Y-106370404D03*
X74287797Y-108270404D03*
X72412797Y-107320404D03*
D10*
X224447775Y-42397716D03*
X224939532Y-44232975D03*
X222882543Y-43800631D03*
X188056878Y-53792133D03*
X188548635Y-55627392D03*
X186491646Y-55195048D03*
D11*
X124166058Y-77608825D03*
X123674301Y-79444084D03*
X122109069Y-78041169D03*
D10*
X234308780Y-79199497D03*
X234800537Y-81034756D03*
X232743548Y-80602412D03*
X269877931Y-64738270D03*
X270369688Y-66573529D03*
X268312699Y-66141185D03*
X179517004Y-95524407D03*
X180008761Y-97359666D03*
X177951772Y-96927322D03*
X202848399Y-108994796D03*
X203340156Y-110830055D03*
X201283167Y-110397711D03*
D11*
X28874616Y-65223559D03*
X28382859Y-67058818D03*
X26817627Y-65655903D03*
D10*
X214675271Y-79529781D03*
X215167028Y-81365040D03*
X213110039Y-80932696D03*
D11*
X48508129Y-65553835D03*
X48016372Y-67389094D03*
X46451140Y-65986179D03*
D10*
X255174924Y-83469434D03*
X255666681Y-85304693D03*
X253609692Y-84872349D03*
D11*
X89007775Y-61614174D03*
X88516018Y-63449433D03*
X86950786Y-62046518D03*
X53438624Y-47152945D03*
X52946867Y-48988204D03*
X51381635Y-47585289D03*
X74304764Y-42883011D03*
X73813007Y-44718270D03*
X72247775Y-43315355D03*
D10*
X209744766Y-61128892D03*
X210236523Y-62964151D03*
X208179534Y-62531807D03*
D15*
X196628088Y-77907966D03*
X196239860Y-76459079D03*
D16*
X190487771Y-78000346D03*
D15*
X190880828Y-79447941D03*
D17*
X167801110Y-74918412D03*
X168338160Y-76922708D03*
D18*
X78359332Y-102679444D03*
X78359328Y-104754448D03*
D19*
X181811683Y-61708252D03*
X182140381Y-62934981D03*
X182469082Y-64161703D03*
X182797783Y-65388429D03*
X183126483Y-66615154D03*
X183455183Y-67841885D03*
X183783883Y-69068607D03*
X184112583Y-70295332D03*
X179331249Y-71576486D03*
X179002551Y-70349757D03*
X178673850Y-69123035D03*
X178345149Y-67896309D03*
X178016449Y-66669584D03*
X177687749Y-65442853D03*
X177359049Y-64216131D03*
X177030349Y-62989406D03*
D17*
X181306832Y-51525778D03*
X181843882Y-53530074D03*
D20*
X38841353Y-44017703D03*
X38304303Y-46021999D03*
D17*
X217597914Y-40145184D03*
X218134964Y-42149480D03*
D20*
X79292470Y-40259150D03*
X78755420Y-42263446D03*
D21*
X28741535Y-50603449D03*
X28353306Y-52052336D03*
X34100567Y-53592311D03*
X34488796Y-52143424D03*
X114171973Y-99790469D03*
X113783744Y-101239356D03*
X119531005Y-102779331D03*
X119919234Y-101330444D03*
D22*
X117742530Y-57149138D03*
X119746826Y-57686188D03*
D20*
X115680120Y-51665644D03*
X115143070Y-53669940D03*
D23*
X145957500Y-121979986D03*
X143882492Y-121979986D03*
D20*
X129141033Y-74839207D03*
X128603983Y-76843503D03*
D23*
X152657826Y-86669520D03*
X150582818Y-86669520D03*
D20*
X104685893Y-88060241D03*
X104148843Y-90064537D03*
D24*
X185562087Y-59598182D03*
X185950315Y-61047069D03*
X191697575Y-59507094D03*
X191309347Y-58058207D03*
D25*
X182125118Y-76087077D03*
X184129414Y-75550027D03*
D20*
X123897872Y-101819477D03*
X123360822Y-103823773D03*
D21*
X95771093Y-94859974D03*
X95382864Y-96308861D03*
X101130125Y-97848836D03*
X101518354Y-96399949D03*
D17*
X267961807Y-80898683D03*
X268498857Y-82902979D03*
D26*
X48803584Y-72323486D03*
X49191813Y-70874599D03*
D27*
X43439723Y-69333330D03*
D26*
X43056323Y-70783511D03*
D24*
X221952985Y-48203768D03*
X222341213Y-49652655D03*
X228088473Y-48112680D03*
X227700245Y-46663793D03*
D20*
X109436168Y-69559299D03*
X108899118Y-71563595D03*
D21*
X59380182Y-83465565D03*
X58991953Y-84914452D03*
X64739214Y-86454427D03*
X65127443Y-85005540D03*
D17*
X163093427Y-65076498D03*
X163630477Y-67080794D03*
D19*
X186832732Y-80084870D03*
X187161430Y-81311599D03*
X187490131Y-82538321D03*
X187818832Y-83765047D03*
X188147532Y-84991772D03*
X188476232Y-86218503D03*
X188804932Y-87445225D03*
X189133632Y-88671950D03*
X184352298Y-89953104D03*
X184023600Y-88726375D03*
X183694899Y-87499653D03*
X183366198Y-86272927D03*
X183037498Y-85046202D03*
X182708798Y-83819471D03*
X182380098Y-82592749D03*
X182051398Y-81366024D03*
D28*
X160895329Y-86624511D03*
X160895324Y-87894513D03*
X160895329Y-89164509D03*
X160895329Y-90434510D03*
X160895329Y-91704510D03*
X160895329Y-92974511D03*
X160895324Y-94244507D03*
X160895329Y-95514509D03*
X155945329Y-95514509D03*
X155945334Y-94244507D03*
X155945329Y-92974511D03*
X155945329Y-91704510D03*
X155945329Y-90434510D03*
X155945329Y-89164509D03*
X155945334Y-87894513D03*
X155945329Y-86624511D03*
D29*
X175933655Y-116380490D03*
X176971157Y-118177492D03*
D21*
X18880540Y-87405228D03*
X18492311Y-88854115D03*
X24239572Y-90394090D03*
X24627801Y-88945203D03*
D15*
X233018981Y-66513562D03*
X232630753Y-65064675D03*
D16*
X226878664Y-66605942D03*
D15*
X227271721Y-68053537D03*
D24*
X177022203Y-101330445D03*
X177410431Y-102779332D03*
X183157691Y-101239357D03*
X182769463Y-99790470D03*
D26*
X96199612Y-116249722D03*
X96587841Y-114800835D03*
D27*
X90835751Y-113259566D03*
D26*
X90452351Y-114709747D03*
D17*
X238454110Y-44184839D03*
X238991160Y-46189135D03*
D15*
X273518631Y-70453220D03*
X273130403Y-69004333D03*
D16*
X267378314Y-70545600D03*
D15*
X267771371Y-71993195D03*
D17*
X263121898Y-62835854D03*
X263658948Y-64840150D03*
D20*
X93969826Y-58892861D03*
X93432776Y-60897157D03*
D18*
X218434438Y-102487269D03*
X218434438Y-104562277D03*
D25*
X187055613Y-94487950D03*
X189059909Y-93950900D03*
D30*
X109959540Y-99766920D03*
X109630840Y-100993646D03*
X109302140Y-102220370D03*
X108973440Y-103447098D03*
X108644740Y-104673823D03*
X108316039Y-105900549D03*
X107987338Y-107127271D03*
X107658640Y-108354000D03*
X102877306Y-107072846D03*
X103206006Y-105846120D03*
X103534706Y-104619396D03*
X103863406Y-103392668D03*
X104192106Y-102165943D03*
X104520807Y-100939217D03*
X104849508Y-99712495D03*
X105178206Y-98485766D03*
D17*
X243501089Y-63020399D03*
X244038139Y-65024695D03*
X248366890Y-81179798D03*
X248903940Y-83184094D03*
D20*
X69431472Y-77060921D03*
X68894422Y-79065217D03*
D31*
X124143921Y-132632629D03*
X125181419Y-130835623D03*
D17*
X172622082Y-93296874D03*
X173159132Y-95301170D03*
D30*
X114890039Y-81366029D03*
X114561339Y-82592755D03*
X114232639Y-83819479D03*
X113903939Y-85046207D03*
X113575239Y-86272932D03*
X113246538Y-87499658D03*
X112917837Y-88726380D03*
X112589139Y-89953109D03*
X107807805Y-88671955D03*
X108136505Y-87445229D03*
X108465205Y-86218505D03*
X108793905Y-84991777D03*
X109122605Y-83765052D03*
X109451306Y-82538326D03*
X109780007Y-81311604D03*
X110108705Y-80084875D03*
D20*
X124197602Y-93288395D03*
X123660552Y-95292691D03*
D24*
X195423105Y-96399953D03*
X195811333Y-97848840D03*
X201558593Y-96308865D03*
X201170365Y-94859978D03*
X212180482Y-85335815D03*
X212568710Y-86784702D03*
X218315970Y-85244727D03*
X217927742Y-83795840D03*
D20*
X98939164Y-40347098D03*
X98402114Y-42351394D03*
D17*
X202998195Y-59068661D03*
X203535245Y-61072957D03*
X205829157Y-104172695D03*
X206366207Y-106176999D03*
D15*
X206489080Y-114709756D03*
X206100852Y-113260869D03*
D16*
X200348763Y-114802136D03*
D15*
X200741820Y-116249731D03*
D32*
X179323819Y-126406875D03*
X178573819Y-125107839D03*
D33*
X173416636Y-128085339D03*
D32*
X174170965Y-129381877D03*
D26*
X29170078Y-71993188D03*
X29558307Y-70544301D03*
D27*
X23806217Y-69003032D03*
D26*
X23422817Y-70453213D03*
D17*
X222541361Y-58594366D03*
X223078411Y-60598662D03*
D30*
X119820550Y-62965150D03*
X119491850Y-64191876D03*
X119163150Y-65418600D03*
X118834450Y-66645328D03*
X118505750Y-67872053D03*
X118177049Y-69098779D03*
X117848348Y-70325501D03*
X117519650Y-71552230D03*
X112738316Y-70271076D03*
X113067016Y-69044350D03*
X113395716Y-67817626D03*
X113724416Y-66590898D03*
X114053116Y-65364173D03*
X114381817Y-64137447D03*
X114710518Y-62910725D03*
X115039216Y-61683996D03*
D34*
X152414757Y-102997877D03*
X144664757Y-102997875D03*
D28*
X140822879Y-87157245D03*
X140822885Y-88427243D03*
X140822884Y-89697243D03*
X140822889Y-90967252D03*
X140822884Y-92237251D03*
X140822885Y-93507252D03*
X140822881Y-94777248D03*
X135872889Y-94777251D03*
X135872883Y-93507253D03*
X135872884Y-92237253D03*
X135872879Y-90967244D03*
X135872884Y-89697245D03*
X135872883Y-88427244D03*
X135872887Y-87157248D03*
D23*
X133593745Y-86108056D03*
X131518745Y-86108056D03*
D22*
X107881528Y-93950908D03*
X109885824Y-94487958D03*
D21*
X38514054Y-87735496D03*
X38125825Y-89184383D03*
X43873086Y-90724358D03*
X44261315Y-89275471D03*
D20*
X33923791Y-62370296D03*
X33386741Y-64374592D03*
D26*
X89303242Y-68383813D03*
X89691471Y-66934926D03*
D27*
X83939381Y-65393657D03*
D26*
X83555981Y-66843838D03*
D25*
X177194601Y-57686181D03*
X179198901Y-57149135D03*
D15*
X253885118Y-70783492D03*
X253496890Y-69334605D03*
D16*
X247744801Y-70875872D03*
D15*
X248137858Y-72323467D03*
D35*
X226466147Y-112832916D03*
X226466147Y-111332916D03*
D36*
X220511147Y-111332916D03*
D35*
X220516147Y-112832916D03*
D21*
X79013710Y-83795846D03*
X78625481Y-85244733D03*
X84372742Y-86784708D03*
X84760971Y-85335821D03*
D15*
X178227187Y-82838481D03*
X177838959Y-81389594D03*
D16*
X172086870Y-82930861D03*
D15*
X172479927Y-84378456D03*
D21*
X69241194Y-46663779D03*
X68852965Y-48112666D03*
X74600226Y-49652641D03*
X74988455Y-48203754D03*
D17*
X162857659Y-56469225D03*
X163394705Y-58473525D03*
X188665101Y-69327919D03*
X189202151Y-71332215D03*
D20*
X128937903Y-83396178D03*
X128400853Y-85400474D03*
D21*
X88874710Y-46994078D03*
X88486481Y-48442965D03*
X94233742Y-49982940D03*
X94621971Y-48534053D03*
X124032982Y-62988694D03*
X123644753Y-64437581D03*
X129392014Y-65977556D03*
X129780243Y-64528669D03*
D17*
X198002995Y-40426293D03*
X198540045Y-42430589D03*
X172928546Y-101781676D03*
X173465596Y-103785972D03*
D24*
X231813990Y-85005534D03*
X232202218Y-86454421D03*
X237949478Y-84914446D03*
X237561250Y-83465559D03*
D15*
X213385462Y-66843843D03*
X212997234Y-65394956D03*
D16*
X207245145Y-66936223D03*
D15*
X207638202Y-68383818D03*
D22*
X112812034Y-75550010D03*
X114816330Y-76087060D03*
D37*
X120841607Y-116375501D03*
X119804109Y-118172507D03*
D20*
X99759471Y-106439367D03*
X99222417Y-108443665D03*
D17*
X168097870Y-83366976D03*
X168634920Y-85371272D03*
D24*
X272313639Y-88945194D03*
X272701867Y-90394081D03*
X278449127Y-88854106D03*
X278060899Y-87405219D03*
D20*
X89052270Y-77245456D03*
X88515220Y-79249752D03*
D24*
X242819126Y-52473708D03*
X243207354Y-53922595D03*
X248954614Y-52382620D03*
X248566386Y-50933733D03*
X202319473Y-48534050D03*
X202707701Y-49982937D03*
X208454961Y-48442962D03*
X208066733Y-46994075D03*
D26*
X124461508Y-84378448D03*
X124849737Y-82929561D03*
D27*
X119097647Y-81388292D03*
D26*
X118714247Y-82838473D03*
D20*
X53466928Y-62844604D03*
X52929878Y-64848900D03*
D17*
X207863998Y-77228065D03*
X208401048Y-79232361D03*
D24*
X262452635Y-52143428D03*
X262840863Y-53592315D03*
X268588123Y-52052340D03*
X268199895Y-50603453D03*
D20*
X58410384Y-44395418D03*
X57873334Y-46399714D03*
D17*
X227484796Y-77043532D03*
X228021846Y-79047828D03*
D24*
X252680129Y-89275484D03*
X253068357Y-90724371D03*
X258815617Y-89184396D03*
X258427389Y-87735509D03*
D21*
X48375068Y-50933722D03*
X47986839Y-52382609D03*
X53734100Y-53922584D03*
X54122329Y-52473697D03*
D26*
X106060637Y-79447950D03*
X106448866Y-77999063D03*
D27*
X100696776Y-76457794D03*
D26*
X100313376Y-77907975D03*
D20*
X28980345Y-80819490D03*
X28443295Y-82823786D03*
D26*
X69669724Y-68053535D03*
X70057953Y-66604648D03*
D27*
X64305863Y-65063379D03*
D26*
X63922463Y-66513560D03*
D20*
X133793999Y-65272991D03*
X133256949Y-67277287D03*
D24*
X167161205Y-64528668D03*
X167549433Y-65977555D03*
X173296693Y-64437580D03*
X172908465Y-62988693D03*
D35*
X76325299Y-112832900D03*
X76325299Y-111332900D03*
D36*
X70370299Y-111332900D03*
D35*
X70375299Y-112832900D03*
D17*
X258119744Y-43781239D03*
X258656794Y-45785535D03*
D21*
X105632081Y-58058200D03*
X105243852Y-59507087D03*
X110991113Y-61047062D03*
X111379342Y-59598175D03*
D19*
X191763222Y-98485759D03*
X192091920Y-99712488D03*
X192420621Y-100939210D03*
X192749322Y-102165936D03*
X193078022Y-103392661D03*
X193406722Y-104619392D03*
X193735422Y-105846114D03*
X194064122Y-107072839D03*
X189282788Y-108353993D03*
X188954090Y-107127264D03*
X188625389Y-105900542D03*
X188296688Y-104673816D03*
X187967988Y-103447091D03*
X187639288Y-102220360D03*
X187310588Y-100993638D03*
X186981888Y-99766913D03*
D17*
X193486060Y-87706383D03*
X194023110Y-89710679D03*
D28*
X150914563Y-125379159D03*
X150914558Y-126649161D03*
X150914563Y-127919157D03*
X150914563Y-129189158D03*
X150914563Y-130459158D03*
X150914563Y-131729159D03*
X150914558Y-132999155D03*
X150914563Y-134269157D03*
X145964563Y-134269157D03*
X145964568Y-132999155D03*
X145964563Y-131729159D03*
X145964563Y-130459158D03*
X145964563Y-129189158D03*
X145964563Y-127919157D03*
X145964568Y-126649161D03*
X145964563Y-125379159D03*
D20*
X48523502Y-81293786D03*
X47986452Y-83298082D03*
X74374908Y-58611749D03*
X73837858Y-60616045D03*
X134032722Y-56583207D03*
X133495668Y-58587505D03*
D38*
X122670469Y-129381879D03*
X123420471Y-128082841D03*
D39*
X118263288Y-125105339D03*
D38*
X117517617Y-126406875D03*
M02*
