M48
; DRILL file {KiCad 8.0.4} date 2024-08-14T21:55:16+0900
; FORMAT={-:-/ absolute / metric / decimal}
; #@! TF.CreationDate,2024-08-14T21:55:16+09:00
; #@! TF.GenerationSoftware,Kicad,Pcbnew,8.0.4
; #@! TF.FileFunction,NonPlated,1,2,NPTH
FMAT,2
METRIC
; #@! TA.AperFunction,NonPlated,NPTH,ComponentDrill
T1C1.702
; #@! TA.AperFunction,NonPlated,NPTH,ComponentDrill
T2C2.200
; #@! TA.AperFunction,NonPlated,NPTH,ComponentDrill
T3C3.048
; #@! TA.AperFunction,NonPlated,NPTH,ComponentDrill
T4C3.500
; #@! TA.AperFunction,NonPlated,NPTH,ComponentDrill
T5C3.988
%
G90
G05
T1
X17.766Y-82.955
X22.696Y-64.554
X27.58Y-85.584
X27.627Y-46.153
X32.51Y-67.183
X37.399Y-83.285
X37.441Y-48.782
X42.33Y-64.884
X47.213Y-85.915
X47.26Y-46.483
X52.144Y-67.514
X57.074Y-49.113
X58.265Y-79.015
X63.196Y-60.614
X68.079Y-81.645
X68.126Y-42.213
X68.15Y-107.29
X73.01Y-63.244
X77.899Y-79.345
X77.94Y-44.843
X78.31Y-107.29
X82.829Y-60.944
X87.713Y-81.975
X87.76Y-42.543
X89.726Y-108.81
X92.643Y-63.574
X94.656Y-90.409
X97.574Y-45.173
X99.54Y-111.44
X99.587Y-72.008
X104.47Y-93.039
X104.517Y-53.608
X109.401Y-74.638
X113.057Y-95.34
X114.331Y-56.237
X117.988Y-76.939
X118.331Y-120.55
X122.871Y-97.969
X122.918Y-58.538
X127.13Y-125.63
X127.802Y-79.569
X132.732Y-61.168
X164.081Y-61.168
X169.012Y-79.569
X169.584Y-125.63
X173.895Y-58.538
X173.942Y-97.969
X178.383Y-120.55
X178.826Y-76.939
X182.482Y-56.237
X183.756Y-95.34
X187.413Y-74.638
X192.296Y-53.608
X192.343Y-93.039
X197.227Y-72.008
X197.274Y-111.44
X199.24Y-45.173
X202.157Y-90.409
X204.17Y-63.574
X207.088Y-108.81
X209.053Y-42.543
X209.101Y-81.975
X213.984Y-60.944
X218.403Y-107.29
X218.873Y-44.843
X218.914Y-79.345
X223.804Y-63.244
X228.563Y-107.29
X228.687Y-42.213
X228.734Y-81.645
X233.618Y-60.614
X238.548Y-79.015
X239.739Y-49.113
X244.67Y-67.514
X249.553Y-46.483
X249.6Y-85.915
X254.484Y-64.884
X259.373Y-48.782
X259.414Y-83.285
X264.303Y-67.183
X269.187Y-46.153
X269.234Y-85.584
X274.117Y-64.554
X279.048Y-82.955
T2
X130.374Y-110.878
X136.374Y-82.378
X160.274Y-82.378
X165.574Y-110.878
T3
X108.899Y-123.171
X129.576Y-135.109
X167.137Y-135.109
X187.814Y-123.171
T4
X33.451Y-96.29
X42.651Y-38.09
X105.051Y-112.39
X105.351Y-41.69
X191.351Y-41.79
X191.651Y-112.49
X254.051Y-38.19
X263.251Y-96.39
T5
X116.519Y-109.972
X137.196Y-121.91
X159.517Y-121.91
X180.194Y-109.972
M30
