M48
; DRILL file {KiCad 8.0.4} date 2024-08-16T14:11:04+0900
; FORMAT={-:-/ absolute / inch / decimal}
; #@! TF.CreationDate,2024-08-16T14:11:04+09:00
; #@! TF.GenerationSoftware,Kicad,Pcbnew,8.0.4
; #@! TF.FileFunction,NonPlated,1,2,NPTH
FMAT,2
INCH
; #@! TA.AperFunction,NonPlated,NPTH,ComponentDrill
T1C0.0670
; #@! TA.AperFunction,NonPlated,NPTH,ComponentDrill
T2C0.0866
; #@! TA.AperFunction,NonPlated,NPTH,ComponentDrill
T3C0.1200
; #@! TA.AperFunction,NonPlated,NPTH,ComponentDrill
T4C0.1378
; #@! TA.AperFunction,NonPlated,NPTH,ComponentDrill
T5C0.1570
%
G90
G05
T1
X0.7042Y-3.2671
X0.8983Y-2.5427
X1.0905Y-3.3706
X1.0924Y-1.8182
X1.2846Y-2.6462
X1.4771Y-3.2801
X1.4788Y-1.9218
X1.6713Y-2.5557
X1.8635Y-3.3836
X1.8654Y-1.8312
X2.0576Y-2.6592
X2.2517Y-1.9348
X2.2986Y-3.112
X2.4928Y-2.3876
X2.685Y-3.2155
X2.6869Y-1.6631
X2.6878Y-4.2252
X2.8791Y-2.4911
X3.0716Y-3.125
X3.0732Y-1.7666
X3.0878Y-4.2252
X3.2657Y-2.4006
X3.458Y-3.2285
X3.4598Y-1.6761
X3.5372Y-4.285
X3.6521Y-2.5041
X3.7314Y-3.5606
X3.8462Y-1.7796
X3.9236Y-4.3886
X3.9255Y-2.8362
X4.1177Y-3.6641
X4.1196Y-2.1117
X4.3118Y-2.9397
X4.4558Y-3.7547
X4.506Y-2.2152
X4.6499Y-3.0303
X4.6634Y-4.7473
X4.8422Y-3.8582
X4.844Y-2.3058
X5.0098Y-4.9473
X5.0363Y-3.1338
X5.2304Y-2.4094
X6.4602Y-2.4094
X6.6543Y-3.1338
X6.6768Y-4.9473
X6.8466Y-2.3058
X6.8484Y-3.8582
X7.0233Y-4.7473
X7.0407Y-3.0303
X7.1847Y-2.2152
X7.2348Y-3.7547
X7.3788Y-2.9397
X7.571Y-2.1117
X7.5729Y-3.6641
X7.7651Y-2.8362
X7.767Y-4.3886
X7.8444Y-1.7796
X7.9593Y-3.5606
X8.0385Y-2.5041
X8.1534Y-4.285
X8.2308Y-1.6761
X8.2326Y-3.2285
X8.4249Y-2.4006
X8.5989Y-4.2252
X8.6174Y-1.7666
X8.619Y-3.125
X8.8115Y-2.4911
X8.9989Y-4.2252
X9.0037Y-1.6631
X9.0056Y-3.2155
X9.1979Y-2.3876
X9.392Y-3.112
X9.4389Y-1.9348
X9.633Y-2.6592
X9.8252Y-1.8312
X9.8271Y-3.3836
X10.0194Y-2.5557
X10.2118Y-1.9218
X10.2135Y-3.2801
X10.406Y-2.6462
X10.5982Y-1.8182
X10.6001Y-3.3706
X10.7923Y-2.5427
X10.9864Y-3.2671
T2
X5.1859Y-4.111
X5.3729Y-3.2449
X6.3177Y-3.2449
X6.5048Y-4.111
T3
X4.2921Y-4.8504
X5.1062Y-5.3204
X6.5805Y-5.3204
X7.3946Y-4.8504
T4
X1.3177Y-3.7961
X1.6839Y-1.5008
X4.1524Y-1.6425
X4.1717Y-4.3701
X7.5189Y-4.3701
X7.5382Y-1.6425
X10.0067Y-1.5008
X10.3729Y-3.7961
T5
X4.5921Y-4.3308
X5.4062Y-4.8008
X6.2805Y-4.8008
X7.0946Y-4.3308
M30
