G04 #@! TF.GenerationSoftware,KiCad,Pcbnew,8.0.4*
G04 #@! TF.CreationDate,2024-08-14T21:54:49+09:00*
G04 #@! TF.ProjectId,TrueStrike42,54727565-5374-4726-996b-6534322e6b69,rev?*
G04 #@! TF.SameCoordinates,Original*
G04 #@! TF.FileFunction,Soldermask,Top*
G04 #@! TF.FilePolarity,Negative*
%FSLAX46Y46*%
G04 Gerber Fmt 4.6, Leading zero omitted, Abs format (unit mm)*
G04 Created by KiCad (PCBNEW 8.0.4) date 2024-08-14 21:54:49*
%MOMM*%
%LPD*%
G01*
G04 APERTURE LIST*
%ADD10C,1.701800*%
%ADD11C,2.200000*%
%ADD12C,3.500000*%
%ADD13C,1.600000*%
%ADD14R,1.600000X1.600000*%
%ADD15O,1.600000X2.000000*%
%ADD16C,3.987800*%
%ADD17C,3.048000*%
G04 APERTURE END LIST*
D10*
X269233866Y-85584226D03*
X279047672Y-82954624D03*
X27626782Y-46152854D03*
X37440588Y-48782456D03*
X259372843Y-48782458D03*
X269186649Y-46152856D03*
X218403142Y-107290409D03*
X228563142Y-107290409D03*
X77898941Y-79345259D03*
X87712747Y-81974861D03*
X239739336Y-49112738D03*
X249553142Y-46483136D03*
X244669839Y-67513624D03*
X254483645Y-64884022D03*
X122918217Y-58538126D03*
X132732023Y-61167728D03*
X169011913Y-79568606D03*
X178825719Y-76939004D03*
X37399279Y-83284912D03*
X47213085Y-85914514D03*
X187412810Y-74638102D03*
X197226616Y-72008500D03*
X192343307Y-93038984D03*
X202157113Y-90409382D03*
X89725820Y-108810270D03*
X99539626Y-111439872D03*
X199239687Y-45173087D03*
X209053493Y-42543485D03*
X17765770Y-82954638D03*
X27579576Y-85584240D03*
X63195923Y-60614103D03*
X73009729Y-63243705D03*
X104517336Y-53607615D03*
X114331142Y-56237217D03*
X99586824Y-72008494D03*
X109400630Y-74638096D03*
X87759932Y-42543474D03*
X97573738Y-45173076D03*
X164081417Y-61167715D03*
X173895223Y-58538113D03*
X58265434Y-79014977D03*
X68079240Y-81644579D03*
X94656329Y-90409391D03*
X104470135Y-93038993D03*
X223803700Y-63243677D03*
X233617506Y-60614075D03*
X113057212Y-95339887D03*
X122871018Y-97969489D03*
X68150293Y-107290405D03*
X78310293Y-107290405D03*
X218873190Y-44842792D03*
X228686996Y-42213190D03*
X182482296Y-56237211D03*
X192296102Y-53607609D03*
X117987720Y-76939013D03*
X127801526Y-79568615D03*
X228734199Y-81644574D03*
X238548005Y-79014972D03*
X264303348Y-67183346D03*
X274117154Y-64553744D03*
X173942419Y-97969484D03*
X183756225Y-95339882D03*
X197273812Y-111439871D03*
X207087618Y-108810269D03*
X22696277Y-64553746D03*
X32510083Y-67183348D03*
X209100690Y-81974858D03*
X218914496Y-79345256D03*
X42329787Y-64884024D03*
X52143593Y-67513626D03*
X249600344Y-85914509D03*
X259414150Y-83284907D03*
X82829438Y-60944362D03*
X92643244Y-63573964D03*
X47260283Y-46483137D03*
X57074089Y-49112739D03*
X68126424Y-42213201D03*
X77940230Y-44842803D03*
X204170180Y-63573968D03*
X213983986Y-60944366D03*
D11*
X136373743Y-82378056D03*
X160273736Y-82378060D03*
X130373743Y-110878058D03*
X165573738Y-110878062D03*
D12*
X105350814Y-41690399D03*
X33450821Y-96290401D03*
X42650814Y-38090402D03*
X105050816Y-112390399D03*
D13*
X140730816Y-54420402D03*
X140730816Y-56960398D03*
X140730816Y-59500396D03*
X140730821Y-62040398D03*
X140730816Y-64580398D03*
X140730816Y-67120398D03*
X140730816Y-69660398D03*
X140730817Y-72200399D03*
X140730821Y-74740398D03*
X140730816Y-77280400D03*
X140730816Y-79820398D03*
X140730815Y-82360394D03*
X155970816Y-82360394D03*
X155970816Y-79820398D03*
X155970816Y-77280400D03*
X155970811Y-74740398D03*
X155970816Y-72200398D03*
X155970816Y-69660398D03*
X155970816Y-67120398D03*
X155970815Y-64580397D03*
X155970811Y-62040398D03*
X155970816Y-59500396D03*
X155970816Y-56960398D03*
D14*
X155970817Y-54420402D03*
D15*
X144319752Y-111367893D03*
X146859750Y-111367888D03*
X151939751Y-111367891D03*
X149399753Y-111367886D03*
D12*
X263250816Y-96390397D03*
X254050811Y-38190402D03*
X191350818Y-41790401D03*
X191650818Y-112490396D03*
D16*
X116519191Y-109972358D03*
D17*
X108899187Y-123170588D03*
D10*
X118330892Y-120550401D03*
X127129710Y-125630401D03*
D16*
X137196412Y-121910361D03*
D17*
X129576412Y-135108588D03*
D16*
X159517042Y-121910362D03*
D17*
X167137042Y-135108588D03*
D10*
X169583744Y-125630401D03*
X178382562Y-120550401D03*
D16*
X180194260Y-109972362D03*
D17*
X187814264Y-123170587D03*
M02*
