M48
; DRILL file {KiCad 8.0.4} date 2024-08-14T21:55:16+0900
; FORMAT={-:-/ absolute / metric / decimal}
; #@! TF.CreationDate,2024-08-14T21:55:16+09:00
; #@! TF.GenerationSoftware,Kicad,Pcbnew,8.0.4
; #@! TF.FileFunction,Plated,1,2,PTH
FMAT,2
METRIC
; #@! TA.AperFunction,Plated,PTH,ViaDrill
T1C0.300
; #@! TA.AperFunction,Plated,PTH,ComponentDrill
T2C1.000
; #@! TA.AperFunction,Plated,PTH,ComponentDrill
T3C1.100
%
G90
G05
T1
X20.182Y-69.204
X24.783Y-51.647
X39.352Y-84.023
X44.332Y-66.529
X49.382Y-47.234
X53.538Y-89.219
X54.347Y-91.61
X56.064Y-83.041
X56.899Y-73.97
X57.176Y-84.914
X58.93Y-72.961
X59.451Y-67.924
X60.582Y-80.776
X61.583Y-52.241
X61.901Y-66.51
X64.241Y-45.727
X64.356Y-54.641
X64.472Y-103.223
X65.272Y-112.323
X66.688Y-86.967
X67.011Y-48.209
X68.505Y-88.684
X68.945Y-83.566
X70.335Y-43.22
X70.503Y-64.157
X70.946Y-69.071
X77.979Y-51.675
X78.565Y-46.698
X80.151Y-81.153
X84.942Y-89.051
X85.553Y-82.89
X86.724Y-90.865
X87.355Y-84.718
X88.552Y-112.223
X89.841Y-93.408
X89.982Y-70.628
X90.27Y-87.363
X90.484Y-64.542
X91.479Y-86.258
X91.894Y-109.859
X92.03Y-80.795
X94.77Y-52.023
X95.032Y-75.387
X95.317Y-46.063
X95.819Y-68.972
X96.26Y-107.257
X96.919Y-54.049
X97.094Y-67.885
X97.287Y-48.039
X97.6Y-75.211
X97.785Y-62.408
X100.387Y-56.945
X100.733Y-102.094
X101.097Y-50.82
X101.545Y-72.852
X101.927Y-94.546
X102.258Y-49.578
X102.547Y-108.599
X102.631Y-98.875
X102.838Y-43.936
X105.391Y-97.212
X106.452Y-54.023
X106.482Y-94.088
X106.726Y-83.904
X106.89Y-101.201
X107.084Y-91.454
X107.905Y-80.856
X107.956Y-76.417
X109.504Y-77.402
X110.168Y-98.492
X110.299Y-96.457
X110.335Y-78.763
X110.496Y-62.459
X110.822Y-103.911
X111.364Y-75.674
X111.782Y-82.945
X111.951Y-104.974
X111.959Y-65.533
X111.992Y-72.944
X112.847Y-58.276
X115.066Y-80.232
X115.095Y-97.432
X115.26Y-60.382
X115.294Y-77.814
X115.794Y-69.948
X115.837Y-85.585
X115.894Y-58.015
X116.312Y-76.495
X116.654Y-123.488
X116.868Y-86.622
X117.011Y-65.408
X117.105Y-80.852
X119.927Y-100.163
X119.97Y-78.809
X119.993Y-60.278
X120.029Y-61.69
X120.152Y-121.323
X120.675Y-67.141
X121.562Y-65.378
X121.856Y-68.392
X122.104Y-115.227
X124.836Y-109.226
X124.922Y-60.621
X125.443Y-101.757
X125.625Y-95.283
X125.9Y-116.85
X126.109Y-83.818
X126.183Y-108.448
X126.635Y-129.679
X127.2Y-116.25
X127.447Y-107.596
X128.6Y-115.55
X129.754Y-90.874
X129.975Y-85.423
X130.533Y-61.26
X130.568Y-76.834
X130.852Y-121.375
X131.074Y-90.192
X132.3Y-89.485
X135.243Y-64.99
X135.446Y-71.557
X136.238Y-59.925
X136.397Y-71.306
X137.399Y-70.457
X137.5Y-75.95
X137.628Y-69.437
X138.333Y-91.048
X138.733Y-89.269
X139.7Y-118.05
X140.6Y-117.35
X140.7Y-133.75
X141.3Y-116.65
X141.6Y-132.45
X142.3Y-131.25
X142.833Y-75.348
X142.916Y-90.937
X143.171Y-84.394
X144.433Y-87.948
X144.82Y-99.568
X145.5Y-72.65
X146.12Y-59.968
X146.25Y-88.7
X147.02Y-87.768
X147.4Y-70.05
X147.42Y-100.368
X148.1Y-87.45
X148.52Y-65.068
X148.8Y-127.55
X148.92Y-117.068
X149.933Y-98.668
X150.57Y-99.318
X150.82Y-65.068
X151.72Y-67.668
X151.9Y-62.75
X152.538Y-84.75
X152.737Y-125.748
X152.937Y-130.448
X153.5Y-92.65
X153.92Y-88.535
X153.92Y-102.468
X157.583Y-93.798
X157.733Y-76.25
X158.033Y-95.15
X158.2Y-90.05
X158.2Y-106.65
X158.301Y-56.079
X159.15Y-86.1
X159.2Y-88.35
X159.3Y-76.55
X159.861Y-59.388
X161.285Y-64.701
X162.5Y-89.55
X163.25Y-106.7
X165.477Y-93.208
X165.883Y-77.031
X166.288Y-92.37
X166.723Y-85.191
X167.098Y-91.532
X169.503Y-109.005
X170.384Y-108.044
X170.581Y-95.339
X170.871Y-101.058
X171.362Y-107.057
X171.503Y-85.257
X171.582Y-128.681
X172.461Y-60.413
X175.063Y-63.548
X175.131Y-66.892
X175.943Y-102.598
X176.644Y-59.239
X176.686Y-61.713
X177.093Y-78.926
X179.608Y-62.673
X179.755Y-85.53
X180.874Y-65.854
X181.7Y-80.04
X181.781Y-77.637
X182.493Y-97.149
X184.509Y-63.861
X184.577Y-81.219
X184.61Y-57.138
X185.122Y-100.64
X185.13Y-103.657
X185.553Y-63.896
X186.002Y-84.22
X186.198Y-70.471
X186.502Y-86.087
X186.67Y-98.585
X186.918Y-96.034
X188.541Y-80.07
X190.141Y-82.176
X190.179Y-100.193
X190.264Y-75.293
X190.401Y-83.92
X190.832Y-102.63
X191.086Y-85.703
X191.298Y-104.369
X191.513Y-82.276
X193.723Y-98.248
X193.878Y-58.931
X194.69Y-93.984
X194.92Y-43.99
X195.107Y-49.323
X195.406Y-100.282
X195.505Y-101.808
X196.469Y-99.997
X196.479Y-54.442
X196.68Y-50.558
X197.262Y-51.955
X197.402Y-55.955
X197.575Y-103.738
X198.309Y-114.771
X199.767Y-62.465
X200.305Y-67.756
X201.31Y-70.54
X201.525Y-46.083
X201.695Y-74.682
X202.355Y-72.124
X202.469Y-76.027
X202.913Y-72.854
X203.063Y-76.697
X203.276Y-55.855
X203.615Y-87.794
X204.659Y-80.721
X205.107Y-109.815
X205.116Y-86.292
X206.504Y-85.868
X206.629Y-91.166
X206.926Y-64.306
X207.193Y-88.634
X207.482Y-92.802
X207.791Y-70.775
X208.125Y-105.014
X211.966Y-82.73
X212.281Y-39.234
X213.558Y-45.932
X213.601Y-44.16
X214.08Y-94.243
X214.24Y-42.488
X215.896Y-50.792
X216.016Y-49.311
X217.469Y-57.825
X218.252Y-110.423
X219.128Y-65.559
X219.303Y-61.578
X219.441Y-64.026
X221.313Y-45.75
X221.673Y-69.07
X221.769Y-71.167
X222.213Y-75.913
X222.606Y-54.585
X223.314Y-80.795
X223.516Y-82.708
X224.021Y-79.57
X225.218Y-84.426
X225.686Y-87.717
X225.941Y-64.181
X226.392Y-69.1
X231.631Y-82.326
X231.738Y-110.865
X231.973Y-38.927
X232.538Y-103.165
X232.703Y-89.564
X232.767Y-45.754
X232.784Y-43.886
X234.99Y-46.711
X236.153Y-55.303
X236.283Y-53.664
X236.89Y-57.28
X237.064Y-51.746
X238.826Y-65.664
X238.937Y-56.421
X239.713Y-63.563
X240.011Y-65.45
X241.727Y-75.913
X242.548Y-80.714
X242.573Y-75.013
X242.628Y-82.556
X243.029Y-73.235
X243.768Y-88.359
X244.832Y-83.829
X246.02Y-88.842
X246.085Y-91.982
X246.094Y-93.947
X251.61Y-51.727
X252.697Y-43.054
X254.043Y-48.077
X254.061Y-49.884
X254.585Y-46.43
X256.293Y-54.928
X256.397Y-53.192
X257.753Y-61.732
X259.71Y-65.556
X259.812Y-68.065
X259.876Y-69.652
X261.548Y-88.497
X262.141Y-73.083
X262.23Y-74.767
X262.548Y-80.014
X264.018Y-86.66
X264.036Y-84.791
X264.665Y-83.277
X266.025Y-89.124
X266.285Y-91.643
X269.684Y-50.659
X272.524Y-67.402
X279.879Y-88.462
T2
X144.32Y-111.368
X146.86Y-111.368
X149.4Y-111.368
X151.94Y-111.368
T3
X140.731Y-82.36
X140.731Y-54.42
X140.731Y-56.96
X140.731Y-59.5
X140.731Y-64.58
X140.731Y-67.12
X140.731Y-69.66
X140.731Y-77.28
X140.731Y-79.82
X140.731Y-72.2
X140.731Y-62.04
X140.731Y-74.74
X155.971Y-62.04
X155.971Y-74.74
X155.971Y-64.58
X155.971Y-56.96
X155.971Y-59.5
X155.971Y-67.12
X155.971Y-69.66
X155.971Y-72.2
X155.971Y-77.28
X155.971Y-79.82
X155.971Y-82.36
X155.971Y-54.42
M30
