%TF.GenerationSoftware,KiCad,Pcbnew,8.0.4*%
%TF.CreationDate,2024-08-16T14:11:04+09:00*%
%TF.ProjectId,TrueStrike42,54727565-5374-4726-996b-6534322e6b69,rev?*%
%TF.SameCoordinates,Original*%
%TF.FileFunction,Drillmap*%
%TF.FilePolarity,Positive*%
%FSLAX45Y45*%
G04 Gerber Fmt 4.5, Leading zero omitted, Abs format (unit mm)*
G04 Created by KiCad (PCBNEW 8.0.4) date 2024-08-16 14:11:04*
%MOMM*%
%LPD*%
G01*
G04 APERTURE LIST*
%ADD10C,0.050000*%
%ADD11C,0.120000*%
%ADD12C,0.200000*%
%ADD13C,0.100000*%
%ADD14C,0.110000*%
G04 APERTURE END LIST*
D10*
X28539118Y-8914401D02*
X27152561Y-3742272D01*
X2551363Y-3742272D02*
G75*
G02*
X2734968Y-3567040I208601J-34764D01*
G01*
X23313957Y-11687040D02*
X28428958Y-9182041D01*
X26968956Y-3567041D02*
X23063957Y-3187040D01*
X1273956Y-9182040D02*
X6383957Y-11682041D01*
X23063957Y-3187040D02*
X21098957Y-3222040D01*
X10153957Y-12182041D02*
X13458958Y-14087041D01*
X13963958Y-5299788D02*
X10443957Y-3717041D01*
X10443957Y-3717041D02*
X8603956Y-3222041D01*
X19543956Y-12182040D02*
X21403957Y-11687041D01*
X28539118Y-8914401D02*
G75*
G02*
X28428959Y-9182042I-240168J-57639D01*
G01*
X26968956Y-3567041D02*
G75*
G02*
X27152556Y-3742273I-24986J-209979D01*
G01*
X21403957Y-11687041D02*
X23313957Y-11687040D01*
X15743956Y-5299788D02*
X13963958Y-5299788D01*
X16233958Y-14087040D02*
X19543956Y-12182040D01*
X21098957Y-3222040D02*
X19258956Y-3717041D01*
X1273956Y-9182040D02*
G75*
G02*
X1163796Y-8914402I130004J210000D01*
G01*
X2551363Y-3742272D02*
X1163795Y-8914402D01*
X13458958Y-14087041D02*
X16233958Y-14087040D01*
X8603956Y-3222041D02*
X6643957Y-3192041D01*
X8298957Y-11682040D02*
X10153957Y-12182041D01*
X6643957Y-3192041D02*
X2734968Y-3567041D01*
X19258956Y-3717041D02*
X15743956Y-5299788D01*
X6383957Y-11682041D02*
X8298957Y-11682040D01*
D11*
X19219974Y-7998488D02*
X19136634Y-7687460D01*
X19492095Y-7592214D02*
X19136634Y-7687460D01*
X19492095Y-7592214D02*
X19575435Y-7903242D01*
X19575435Y-7903242D02*
X19219974Y-7998488D01*
X2922705Y-5317679D02*
X3006045Y-5006651D01*
X2922705Y-5317679D02*
X3278165Y-5412925D01*
X3006045Y-5006651D02*
X3361505Y-5101897D01*
X3361505Y-5101897D02*
X3278165Y-5412925D01*
X11465749Y-10236381D02*
X11549088Y-9925353D01*
X11465749Y-10236381D02*
X11821209Y-10331627D01*
X11549088Y-9925353D02*
X11904549Y-10020599D01*
X11904549Y-10020599D02*
X11821209Y-10331627D01*
X18643583Y-5847372D02*
X18999044Y-5752127D01*
X18726923Y-6158400D02*
X18643583Y-5847372D01*
X18726923Y-6158400D02*
X19082383Y-6063155D01*
X18999044Y-5752127D02*
X19082383Y-6063155D01*
X9625661Y-9743332D02*
X9709001Y-9432304D01*
X9625661Y-9743332D02*
X9981121Y-9838577D01*
X9709001Y-9432304D02*
X10064461Y-9527549D01*
X10064461Y-9527549D02*
X9981121Y-9838577D01*
X4393007Y-7190797D02*
X4476346Y-6879769D01*
X4748467Y-7286042D02*
X4393007Y-7190797D01*
X4831807Y-6975014D02*
X4476346Y-6879769D01*
X4831807Y-6975014D02*
X4748467Y-7286042D01*
X22282673Y-4707931D02*
X22638133Y-4612686D01*
X22366013Y-5018959D02*
X22282673Y-4707931D01*
X22366013Y-5018959D02*
X22721473Y-4923714D01*
X22638133Y-4612686D02*
X22721473Y-4923714D01*
X5986570Y-8603891D02*
X6069909Y-8292863D01*
X5986570Y-8603891D02*
X6342030Y-8699136D01*
X6069909Y-8292863D02*
X6425370Y-8388108D01*
X6425370Y-8388108D02*
X6342030Y-8699136D01*
X1936605Y-8997857D02*
X2019945Y-8686829D01*
X1936605Y-8997857D02*
X2292066Y-9093103D01*
X2019945Y-8686829D02*
X2375406Y-8782075D01*
X2375406Y-8782075D02*
X2292066Y-9093103D01*
X22859063Y-6859047D02*
X22775723Y-6548019D01*
X23131184Y-6452774D02*
X22775723Y-6548019D01*
X23131184Y-6452774D02*
X23214524Y-6763802D01*
X23214524Y-6763802D02*
X22859063Y-6859047D01*
X17789595Y-10020599D02*
X18145055Y-9925353D01*
X17872934Y-10331627D02*
X17789595Y-10020599D01*
X17872934Y-10331627D02*
X18228395Y-10236382D01*
X18145055Y-9925353D02*
X18228395Y-10236382D01*
X9132609Y-11583420D02*
X9215949Y-11272392D01*
X9488070Y-11678666D02*
X9132609Y-11583420D01*
X9571410Y-11367638D02*
X9215949Y-11272392D01*
X9571410Y-11367638D02*
X9488070Y-11678666D01*
X26909028Y-7253013D02*
X26825688Y-6941985D01*
X27181149Y-6846740D02*
X26825688Y-6941985D01*
X27181149Y-6846740D02*
X27264489Y-7157768D01*
X27264489Y-7157768D02*
X26909028Y-7253013D01*
X19629685Y-9527550D02*
X19985145Y-9432304D01*
X19713025Y-9838578D02*
X19629685Y-9527550D01*
X19713025Y-9838578D02*
X20068485Y-9743332D01*
X19985145Y-9432304D02*
X20068485Y-9743332D01*
X21305422Y-8421136D02*
X21660883Y-8325890D01*
X21388762Y-8732164D02*
X21305422Y-8421136D01*
X21388762Y-8732164D02*
X21744223Y-8636919D01*
X21660883Y-8325890D02*
X21744223Y-8636919D01*
X20206073Y-11678667D02*
X20122733Y-11367639D01*
X20478194Y-11272393D02*
X20122733Y-11367639D01*
X20478194Y-11272393D02*
X20561534Y-11583421D01*
X20561534Y-11583421D02*
X20206073Y-11678667D01*
X17558391Y-12955916D02*
X17397391Y-12677056D01*
X17716088Y-12493056D02*
X17397391Y-12677056D01*
X17716088Y-12493056D02*
X17877088Y-12771916D01*
X17877088Y-12771916D02*
X17558391Y-12955916D01*
X2429656Y-7157767D02*
X2512996Y-6846739D01*
X2785117Y-7253012D02*
X2429656Y-7157767D01*
X2868456Y-6941984D02*
X2512996Y-6846739D01*
X2868456Y-6941984D02*
X2785117Y-7253012D01*
X3899957Y-9030884D02*
X3983297Y-8719856D01*
X3899957Y-9030884D02*
X4255417Y-9126129D01*
X3983297Y-8719856D02*
X4338757Y-8815101D01*
X4338757Y-8815101D02*
X4255417Y-9126129D01*
X8442972Y-6796830D02*
X8526312Y-6485801D01*
X8798433Y-6892075D02*
X8442972Y-6796830D01*
X8881773Y-6581047D02*
X8526312Y-6485801D01*
X8881773Y-6581047D02*
X8798433Y-6892075D01*
X24945677Y-7286040D02*
X24862337Y-6975012D01*
X25217798Y-6879767D02*
X24862337Y-6975012D01*
X25217798Y-6879767D02*
X25301138Y-7190795D01*
X25301138Y-7190795D02*
X24945677Y-7286040D01*
X22165115Y-11369292D02*
X22165115Y-11047292D01*
X22533115Y-11047292D02*
X22165115Y-11047292D01*
X22533115Y-11047292D02*
X22533115Y-11369292D01*
X22533115Y-11369292D02*
X22165115Y-11369292D01*
X7949922Y-8636919D02*
X8033262Y-8325891D01*
X7949922Y-8636919D02*
X8305383Y-8732164D01*
X8033262Y-8325891D02*
X8388723Y-8421136D01*
X8388723Y-8421136D02*
X8305383Y-8732164D01*
X17379884Y-8491539D02*
X17296544Y-8180511D01*
X17652005Y-8085266D02*
X17296544Y-8180511D01*
X17652005Y-8085266D02*
X17735345Y-8396294D01*
X17735345Y-8396294D02*
X17379884Y-8491539D01*
X6972671Y-4923712D02*
X7056011Y-4612684D01*
X6972671Y-4923712D02*
X7328131Y-5018958D01*
X7056011Y-4612684D02*
X7411471Y-4707930D01*
X7411471Y-4707930D02*
X7328131Y-5018958D01*
X8936022Y-4956742D02*
X9019362Y-4645714D01*
X8936022Y-4956742D02*
X9291483Y-5051988D01*
X9019362Y-4645714D02*
X9374823Y-4740960D01*
X9374823Y-4740960D02*
X9291483Y-5051988D01*
X12451850Y-6556204D02*
X12535189Y-6245176D01*
X12451850Y-6556204D02*
X12807310Y-6651449D01*
X12535189Y-6245176D02*
X12890650Y-6340421D01*
X12890650Y-6340421D02*
X12807310Y-6651449D01*
X23268773Y-8388108D02*
X23624234Y-8292862D01*
X23352113Y-8699136D02*
X23268773Y-8388108D01*
X23352113Y-8699136D02*
X23707574Y-8603890D01*
X23624234Y-8292862D02*
X23707574Y-8603890D01*
X20895711Y-6892075D02*
X20812372Y-6581047D01*
X21167832Y-6485802D02*
X20812372Y-6581047D01*
X21167832Y-6485802D02*
X21251172Y-6796830D01*
X21251172Y-6796830D02*
X20895711Y-6892075D01*
X27318738Y-8782074D02*
X27674199Y-8686828D01*
X27402078Y-9093102D02*
X27318738Y-8782074D01*
X27402078Y-9093102D02*
X27757538Y-8997856D01*
X27674199Y-8686828D02*
X27757538Y-8997856D01*
X24369287Y-5134925D02*
X24724747Y-5039680D01*
X24452627Y-5445953D02*
X24369287Y-5134925D01*
X24452627Y-5445953D02*
X24808087Y-5350708D01*
X24724747Y-5039680D02*
X24808087Y-5350708D01*
X20319322Y-4740959D02*
X20674782Y-4645714D01*
X20402661Y-5051987D02*
X20319322Y-4740959D01*
X20402661Y-5051987D02*
X20758122Y-4956742D01*
X20674782Y-4645714D02*
X20758122Y-4956742D01*
X11958799Y-8396293D02*
X12042139Y-8085265D01*
X12314260Y-8491538D02*
X11958799Y-8396293D01*
X12397599Y-8180510D02*
X12042139Y-8085265D01*
X12397599Y-8180510D02*
X12314260Y-8491538D01*
X26332638Y-5101897D02*
X26688098Y-5006652D01*
X26415977Y-5412925D02*
X26332638Y-5101897D01*
X26415977Y-5412925D02*
X26771438Y-5317680D01*
X26688098Y-5006652D02*
X26771438Y-5317680D01*
X25355387Y-8815103D02*
X25710848Y-8719857D01*
X25438727Y-9126131D02*
X25355387Y-8815103D01*
X25438727Y-9126131D02*
X25794187Y-9030885D01*
X25710848Y-8719857D02*
X25794187Y-9030885D01*
X4886058Y-5350707D02*
X4969398Y-5039679D01*
X4886058Y-5350707D02*
X5241519Y-5445952D01*
X4969398Y-5039679D02*
X5324859Y-5134924D01*
X5324859Y-5134924D02*
X5241519Y-5445952D01*
X10118712Y-7903243D02*
X10202052Y-7592215D01*
X10474173Y-7998489D02*
X10118712Y-7903243D01*
X10557512Y-7687460D02*
X10202052Y-7592215D01*
X10557512Y-7687460D02*
X10474173Y-7998489D01*
X6479621Y-6763802D02*
X6562960Y-6452774D01*
X6835081Y-6859047D02*
X6479621Y-6763802D01*
X6918421Y-6548019D02*
X6562960Y-6452774D01*
X6918421Y-6548019D02*
X6835081Y-6859047D01*
X16803495Y-6340421D02*
X17158955Y-6245176D01*
X16886835Y-6651449D02*
X16803495Y-6340421D01*
X16886835Y-6651449D02*
X17242295Y-6556204D01*
X17158955Y-6245176D02*
X17242295Y-6556204D01*
X7151030Y-11369290D02*
X7151030Y-11047290D01*
X7519030Y-11047290D02*
X7151030Y-11047290D01*
X7519030Y-11047290D02*
X7519030Y-11369290D01*
X7519030Y-11369290D02*
X7151030Y-11369290D01*
X10611760Y-6063154D02*
X10695099Y-5752126D01*
X10611760Y-6063154D02*
X10967220Y-6158400D01*
X10695099Y-5752126D02*
X11050560Y-5847372D01*
X11050560Y-5847372D02*
X10967220Y-6158400D01*
X11807056Y-12771916D02*
X11968056Y-12493056D01*
X12125753Y-12955916D02*
X11807056Y-12771916D01*
X12286753Y-12677056D02*
X11968056Y-12493056D01*
X12286753Y-12677056D02*
X12125753Y-12955916D01*
D12*
D13*
X2015165Y-6908399D02*
X2045165Y-6938399D01*
X2045165Y-6908399D02*
X2015165Y-6938399D01*
X2475263Y-5152656D02*
X2505263Y-5182656D01*
X2505263Y-5152656D02*
X2475263Y-5182656D01*
X3932210Y-8390259D02*
X3962210Y-8420259D01*
X3962210Y-8390259D02*
X3932210Y-8420259D01*
X4430218Y-6640872D02*
X4460218Y-6670872D01*
X4460218Y-6640872D02*
X4430218Y-6670872D01*
X4935204Y-4711384D02*
X4965204Y-4741384D01*
X4965204Y-4711384D02*
X4935204Y-4741384D01*
X5350793Y-8909923D02*
X5380793Y-8939923D01*
X5380793Y-8909923D02*
X5350793Y-8939923D01*
X5431671Y-9149001D02*
X5461671Y-9179001D01*
X5461671Y-9149001D02*
X5431671Y-9179001D01*
X5603373Y-8292122D02*
X5633373Y-8322122D01*
X5633373Y-8292122D02*
X5603373Y-8322122D01*
X5686936Y-7384961D02*
X5716936Y-7414961D01*
X5716936Y-7384961D02*
X5686936Y-7414961D01*
X5714613Y-8479418D02*
X5744613Y-8509418D01*
X5744613Y-8479418D02*
X5714613Y-8509418D01*
X5889965Y-7284072D02*
X5919965Y-7314072D01*
X5919965Y-7284072D02*
X5889965Y-7314072D01*
X5942101Y-6780402D02*
X5972101Y-6810402D01*
X5972101Y-6780402D02*
X5942101Y-6810402D01*
X6055242Y-8065563D02*
X6085242Y-8095563D01*
X6085242Y-8065563D02*
X6055242Y-8095563D01*
X6155263Y-5212135D02*
X6185263Y-5242135D01*
X6185263Y-5212135D02*
X6155263Y-5242135D01*
X6187052Y-6638982D02*
X6217052Y-6668982D01*
X6217052Y-6638982D02*
X6187052Y-6668982D01*
X6421077Y-4560688D02*
X6451077Y-4590688D01*
X6451077Y-4560688D02*
X6421077Y-4590688D01*
X6432606Y-5452094D02*
X6462606Y-5482094D01*
X6462606Y-5452094D02*
X6432606Y-5482094D01*
X6444167Y-10310295D02*
X6474167Y-10340295D01*
X6474167Y-10310295D02*
X6444167Y-10340295D01*
X6524166Y-11220295D02*
X6554166Y-11250295D01*
X6554166Y-11220295D02*
X6524166Y-11250295D01*
X6665807Y-8684684D02*
X6695807Y-8714684D01*
X6695807Y-8684684D02*
X6665807Y-8714684D01*
X6698125Y-4808899D02*
X6728125Y-4838899D01*
X6728125Y-4808899D02*
X6698125Y-4838899D01*
X6847548Y-8856436D02*
X6877548Y-8886436D01*
X6877548Y-8856436D02*
X6847548Y-8886436D01*
X6891517Y-8344605D02*
X6921517Y-8374605D01*
X6921517Y-8344605D02*
X6891517Y-8374605D01*
X7030483Y-4310006D02*
X7060483Y-4340006D01*
X7060483Y-4310006D02*
X7030483Y-4340006D01*
X7047259Y-6403694D02*
X7077259Y-6433694D01*
X7077259Y-6403694D02*
X7047259Y-6433694D01*
X7091595Y-6895058D02*
X7121595Y-6925058D01*
X7121595Y-6895058D02*
X7091595Y-6925058D01*
X7794866Y-5155513D02*
X7824866Y-5185513D01*
X7824866Y-5155513D02*
X7794866Y-5185513D01*
X7853514Y-4657787D02*
X7883514Y-4687787D01*
X7883514Y-4657787D02*
X7853514Y-4687787D01*
X8012146Y-8103333D02*
X8042146Y-8133333D01*
X8042146Y-8103333D02*
X8012146Y-8133333D01*
X8491236Y-8893103D02*
X8521236Y-8923103D01*
X8521236Y-8893103D02*
X8491236Y-8923103D01*
X8552252Y-8277048D02*
X8582252Y-8307048D01*
X8582252Y-8277048D02*
X8552252Y-8307048D01*
X8669437Y-9074457D02*
X8699437Y-9104457D01*
X8699437Y-9074457D02*
X8669437Y-9104457D01*
X8732513Y-8459840D02*
X8762513Y-8489840D01*
X8762513Y-8459840D02*
X8732513Y-8489840D01*
X8852210Y-11210259D02*
X8882210Y-11240259D01*
X8882210Y-11210259D02*
X8852210Y-11240259D01*
X8981084Y-9328784D02*
X9011084Y-9358784D01*
X9011084Y-9328784D02*
X8981084Y-9358784D01*
X8995239Y-7050773D02*
X9025239Y-7080773D01*
X9025239Y-7050773D02*
X8995239Y-7080773D01*
X9024000Y-8724293D02*
X9054000Y-8754293D01*
X9054000Y-8724293D02*
X9024000Y-8754293D01*
X9045387Y-6442158D02*
X9075387Y-6472158D01*
X9075387Y-6442158D02*
X9045387Y-6472158D01*
X9144875Y-8613764D02*
X9174875Y-8643764D01*
X9174875Y-8613764D02*
X9144875Y-8643764D01*
X9186366Y-10973918D02*
X9216366Y-11003918D01*
X9216366Y-10973918D02*
X9186366Y-11003918D01*
X9199995Y-8067464D02*
X9229995Y-8097464D01*
X9229995Y-8067464D02*
X9199995Y-8097464D01*
X9473984Y-5190342D02*
X9503984Y-5220342D01*
X9503984Y-5190342D02*
X9473984Y-5220342D01*
X9500177Y-7526729D02*
X9530177Y-7556729D01*
X9530177Y-7526729D02*
X9500177Y-7556729D01*
X9528694Y-4594283D02*
X9558694Y-4624283D01*
X9558694Y-4594283D02*
X9528694Y-4624283D01*
X9578886Y-6885244D02*
X9608886Y-6915244D01*
X9608886Y-6885244D02*
X9578886Y-6915244D01*
X9623046Y-10713650D02*
X9653046Y-10743650D01*
X9653046Y-10713650D02*
X9623046Y-10743650D01*
X9688892Y-5392865D02*
X9718892Y-5422865D01*
X9718892Y-5392865D02*
X9688892Y-5422865D01*
X9706379Y-6776487D02*
X9736379Y-6806487D01*
X9736379Y-6776487D02*
X9706379Y-6806487D01*
X9725684Y-4791910D02*
X9755684Y-4821910D01*
X9755684Y-4791910D02*
X9725684Y-4821910D01*
X9757002Y-7509130D02*
X9787002Y-7539130D01*
X9787002Y-7509130D02*
X9757002Y-7539130D01*
X9775497Y-6228761D02*
X9805497Y-6258761D01*
X9805497Y-6228761D02*
X9775497Y-6258761D01*
X10035745Y-5682506D02*
X10065745Y-5712506D01*
X10065745Y-5682506D02*
X10035745Y-5712506D01*
X10070299Y-10197376D02*
X10100299Y-10227376D01*
X10100299Y-10197376D02*
X10070299Y-10227376D01*
X10106692Y-5069998D02*
X10136692Y-5099998D01*
X10136692Y-5069998D02*
X10106692Y-5099998D01*
X10151509Y-7273196D02*
X10181509Y-7303196D01*
X10181509Y-7273196D02*
X10151509Y-7303196D01*
X10189727Y-9442567D02*
X10219727Y-9472567D01*
X10219727Y-9442567D02*
X10189727Y-9472567D01*
X10222790Y-4945813D02*
X10252790Y-4975813D01*
X10252790Y-4945813D02*
X10222790Y-4975813D01*
X10251735Y-10847866D02*
X10281735Y-10877866D01*
X10281735Y-10847866D02*
X10251735Y-10877866D01*
X10260067Y-9875524D02*
X10290067Y-9905524D01*
X10290067Y-9875524D02*
X10260067Y-9905524D01*
X10280795Y-4381602D02*
X10310795Y-4411602D01*
X10310795Y-4381602D02*
X10280795Y-4411602D01*
X10536140Y-9709225D02*
X10566140Y-9739225D01*
X10566140Y-9709225D02*
X10536140Y-9739225D01*
X10642210Y-5390259D02*
X10672210Y-5420259D01*
X10672210Y-5390259D02*
X10642210Y-5420259D01*
X10645181Y-9396801D02*
X10675181Y-9426801D01*
X10675181Y-9396801D02*
X10645181Y-9426801D01*
X10669589Y-8378419D02*
X10699589Y-8408419D01*
X10699589Y-8378419D02*
X10669589Y-8408419D01*
X10685987Y-10108127D02*
X10715987Y-10138127D01*
X10715987Y-10108127D02*
X10685987Y-10138127D01*
X10705403Y-9133413D02*
X10735403Y-9163413D01*
X10735403Y-9133413D02*
X10705403Y-9163413D01*
X10787514Y-8073550D02*
X10817514Y-8103550D01*
X10817514Y-8073550D02*
X10787514Y-8103550D01*
X10792555Y-7629733D02*
X10822555Y-7659733D01*
X10822555Y-7629733D02*
X10792555Y-7659733D01*
X10947356Y-7728152D02*
X10977356Y-7758152D01*
X10977356Y-7728152D02*
X10947356Y-7758152D01*
X11013756Y-9837203D02*
X11043756Y-9867203D01*
X11043756Y-9837203D02*
X11013756Y-9867203D01*
X11026884Y-9633664D02*
X11056884Y-9663664D01*
X11056884Y-9633664D02*
X11026884Y-9663664D01*
X11030484Y-7864306D02*
X11060484Y-7894306D01*
X11060484Y-7864306D02*
X11030484Y-7894306D01*
X11046568Y-6233861D02*
X11076568Y-6263861D01*
X11076568Y-6233861D02*
X11046568Y-6263861D01*
X11079242Y-10379144D02*
X11109242Y-10409144D01*
X11109242Y-10379144D02*
X11079242Y-10409144D01*
X11133402Y-7555418D02*
X11163402Y-7585418D01*
X11163402Y-7555418D02*
X11133402Y-7585418D01*
X11175155Y-8282527D02*
X11205154Y-8312527D01*
X11205154Y-8282527D02*
X11175155Y-8312527D01*
X11192056Y-10485437D02*
X11222056Y-10515437D01*
X11222056Y-10485437D02*
X11192056Y-10515437D01*
X11192912Y-6541265D02*
X11222912Y-6571265D01*
X11222912Y-6541265D02*
X11192912Y-6571265D01*
X11196212Y-7282371D02*
X11226212Y-7312371D01*
X11226212Y-7282371D02*
X11196212Y-7312371D01*
X11281724Y-5815558D02*
X11311724Y-5845558D01*
X11311724Y-5815558D02*
X11281724Y-5845558D01*
X11503579Y-8011223D02*
X11533579Y-8041223D01*
X11533579Y-8011223D02*
X11503579Y-8041223D01*
X11506550Y-9731226D02*
X11536550Y-9761226D01*
X11536550Y-9731226D02*
X11506550Y-9761226D01*
X11522996Y-6026225D02*
X11552996Y-6056225D01*
X11552996Y-6026225D02*
X11522996Y-6056225D01*
X11526403Y-7769428D02*
X11556403Y-7799428D01*
X11556403Y-7769428D02*
X11526403Y-7799428D01*
X11576421Y-6982763D02*
X11606421Y-7012763D01*
X11606421Y-6982763D02*
X11576421Y-7012763D01*
X11580658Y-8546473D02*
X11610658Y-8576473D01*
X11610658Y-8546473D02*
X11580658Y-8576473D01*
X11586441Y-5789450D02*
X11616441Y-5819450D01*
X11616441Y-5789450D02*
X11586441Y-5819450D01*
X11628234Y-7637538D02*
X11658234Y-7667538D01*
X11658234Y-7637538D02*
X11628234Y-7667538D01*
X11662437Y-12336791D02*
X11692437Y-12366791D01*
X11692437Y-12336791D02*
X11662437Y-12366791D01*
X11683813Y-8650178D02*
X11713813Y-8680178D01*
X11713813Y-8650178D02*
X11683813Y-8680178D01*
X11698065Y-6528778D02*
X11728065Y-6558778D01*
X11728065Y-6528778D02*
X11698065Y-6558778D01*
X11707479Y-8073169D02*
X11737479Y-8103169D01*
X11737479Y-8073169D02*
X11707479Y-8103169D01*
X11989745Y-10004262D02*
X12019745Y-10034262D01*
X12019745Y-10004262D02*
X11989745Y-10034262D01*
X11993975Y-7868924D02*
X12023975Y-7898924D01*
X12023975Y-7868924D02*
X11993975Y-7898924D01*
X11996300Y-6015753D02*
X12026300Y-6045753D01*
X12026300Y-6015753D02*
X11996300Y-6045753D01*
X11999855Y-6157026D02*
X12029855Y-6187026D01*
X12029855Y-6157026D02*
X11999855Y-6187026D01*
X12012210Y-12120259D02*
X12042210Y-12150259D01*
X12042210Y-12120259D02*
X12012210Y-12150259D01*
X12064512Y-6702069D02*
X12094512Y-6732069D01*
X12094512Y-6702069D02*
X12064512Y-6732069D01*
X12153156Y-6525793D02*
X12183156Y-6555793D01*
X12183156Y-6525793D02*
X12153156Y-6555793D01*
X12182639Y-6827167D02*
X12212639Y-6857167D01*
X12212639Y-6827167D02*
X12182639Y-6857167D01*
X12207430Y-11510750D02*
X12237430Y-11540750D01*
X12237430Y-11510750D02*
X12207430Y-11540750D01*
X12480624Y-10910627D02*
X12510624Y-10940627D01*
X12510624Y-10910627D02*
X12480624Y-10940627D01*
X12489199Y-6050125D02*
X12519199Y-6080125D01*
X12519199Y-6050125D02*
X12489199Y-6080125D01*
X12541305Y-10163685D02*
X12571305Y-10193685D01*
X12571305Y-10163685D02*
X12541305Y-10193685D01*
X12559474Y-9516329D02*
X12589474Y-9546329D01*
X12589474Y-9516329D02*
X12559474Y-9546329D01*
X12587000Y-11672999D02*
X12617000Y-11702999D01*
X12617000Y-11672999D02*
X12587000Y-11702999D01*
X12607869Y-8369786D02*
X12637869Y-8399787D01*
X12637869Y-8369786D02*
X12607869Y-8399787D01*
X12615346Y-10832845D02*
X12645346Y-10862845D01*
X12645346Y-10832845D02*
X12615346Y-10862845D01*
X12660548Y-12955925D02*
X12690548Y-12985925D01*
X12690548Y-12955925D02*
X12660548Y-12985925D01*
X12717000Y-11613000D02*
X12747000Y-11643000D01*
X12747000Y-11613000D02*
X12717000Y-11643000D01*
X12741703Y-10747646D02*
X12771703Y-10777646D01*
X12771703Y-10747646D02*
X12741703Y-10777646D01*
X12857000Y-11543000D02*
X12887000Y-11573000D01*
X12887000Y-11543000D02*
X12857000Y-11573000D01*
X12972380Y-9075368D02*
X13002380Y-9105368D01*
X13002380Y-9075368D02*
X12972380Y-9105368D01*
X12994493Y-8530324D02*
X13024493Y-8560324D01*
X13024493Y-8530324D02*
X12994493Y-8560324D01*
X13050315Y-6113962D02*
X13080315Y-6143962D01*
X13080315Y-6113962D02*
X13050315Y-6143962D01*
X13053816Y-7671411D02*
X13083816Y-7701411D01*
X13083816Y-7671411D02*
X13053816Y-7701411D01*
X13082246Y-12125521D02*
X13112246Y-12155521D01*
X13112246Y-12125521D02*
X13082246Y-12155521D01*
X13104368Y-9007206D02*
X13134368Y-9037206D01*
X13134368Y-9007206D02*
X13104368Y-9037206D01*
X13226990Y-8936534D02*
X13256990Y-8966534D01*
X13256990Y-8936534D02*
X13226990Y-8966534D01*
X13521284Y-6487042D02*
X13551284Y-6517042D01*
X13551284Y-6487042D02*
X13521284Y-6517042D01*
X13541585Y-7143671D02*
X13571585Y-7173671D01*
X13571585Y-7143671D02*
X13541585Y-7173671D01*
X13620766Y-5980532D02*
X13650766Y-6010532D01*
X13650766Y-5980532D02*
X13620766Y-6010532D01*
X13636679Y-7118576D02*
X13666679Y-7148576D01*
X13666679Y-7118576D02*
X13636679Y-7148576D01*
X13736862Y-7033661D02*
X13766862Y-7063661D01*
X13766862Y-7033661D02*
X13736862Y-7063661D01*
X13746999Y-7583000D02*
X13776999Y-7613000D01*
X13776999Y-7583000D02*
X13746999Y-7613000D01*
X13759787Y-6931726D02*
X13789787Y-6961726D01*
X13789787Y-6931726D02*
X13759787Y-6961726D01*
X13830309Y-9092837D02*
X13860309Y-9122837D01*
X13860309Y-9092837D02*
X13830309Y-9122837D01*
X13870310Y-8914934D02*
X13900310Y-8944934D01*
X13900310Y-8914934D02*
X13870310Y-8944934D01*
X13967000Y-11793000D02*
X13997000Y-11823000D01*
X13997000Y-11793000D02*
X13967000Y-11823000D01*
X14057000Y-11723000D02*
X14087000Y-11753000D01*
X14087000Y-11723000D02*
X14057000Y-11753000D01*
X14067001Y-13363000D02*
X14097001Y-13393000D01*
X14097001Y-13363000D02*
X14067001Y-13393000D01*
X14127000Y-11652999D02*
X14157000Y-11682999D01*
X14157000Y-11652999D02*
X14127000Y-11682999D01*
X14157000Y-13232999D02*
X14187000Y-13262999D01*
X14187000Y-13232999D02*
X14157000Y-13262999D01*
X14227000Y-13113000D02*
X14257000Y-13143000D01*
X14257000Y-13113000D02*
X14227000Y-13143000D01*
X14280309Y-7522836D02*
X14310309Y-7552836D01*
X14310309Y-7522836D02*
X14280309Y-7552836D01*
X14288605Y-9081685D02*
X14318605Y-9111685D01*
X14318605Y-9081685D02*
X14288605Y-9111685D01*
X14314087Y-8427426D02*
X14344087Y-8457426D01*
X14344087Y-8427426D02*
X14314087Y-8457426D01*
X14440310Y-8782836D02*
X14470310Y-8812836D01*
X14470310Y-8782836D02*
X14440310Y-8812836D01*
X14478976Y-9944787D02*
X14508976Y-9974787D01*
X14508976Y-9944787D02*
X14478976Y-9974787D01*
X14547000Y-7253000D02*
X14577000Y-7283000D01*
X14577000Y-7253000D02*
X14547000Y-7283000D01*
X14608976Y-5984788D02*
X14638976Y-6014788D01*
X14638976Y-5984788D02*
X14608976Y-6014788D01*
X14621999Y-8858000D02*
X14651999Y-8888000D01*
X14651999Y-8858000D02*
X14621999Y-8888000D01*
X14698976Y-8764788D02*
X14728976Y-8794788D01*
X14728976Y-8764788D02*
X14698976Y-8794788D01*
X14737000Y-6993000D02*
X14767000Y-7023000D01*
X14767000Y-6993000D02*
X14737000Y-7023000D01*
X14738976Y-10024788D02*
X14768976Y-10054788D01*
X14768976Y-10024788D02*
X14738976Y-10054788D01*
X14807000Y-8733000D02*
X14837000Y-8763000D01*
X14837000Y-8733000D02*
X14807000Y-8763000D01*
X14848977Y-6494788D02*
X14878977Y-6524788D01*
X14878977Y-6494788D02*
X14848977Y-6524788D01*
X14877000Y-12743000D02*
X14907000Y-12773000D01*
X14907000Y-12743000D02*
X14877000Y-12773000D01*
X14888976Y-11694788D02*
X14918976Y-11724788D01*
X14918976Y-11694788D02*
X14888976Y-11724788D01*
X14990310Y-9854789D02*
X15020310Y-9884789D01*
X15020310Y-9854789D02*
X14990310Y-9884789D01*
X15053976Y-9919788D02*
X15083976Y-9949788D01*
X15083976Y-9919788D02*
X15053976Y-9949788D01*
X15078975Y-6494788D02*
X15108975Y-6524788D01*
X15108975Y-6494788D02*
X15078975Y-6524788D01*
X15168975Y-6754788D02*
X15198975Y-6784788D01*
X15198975Y-6754788D02*
X15168975Y-6784788D01*
X15187000Y-6262999D02*
X15217000Y-6292999D01*
X15217000Y-6262999D02*
X15187000Y-6292999D01*
X15250783Y-8463000D02*
X15280783Y-8493000D01*
X15280783Y-8463000D02*
X15250783Y-8493000D01*
X15270650Y-12562756D02*
X15300650Y-12592756D01*
X15300650Y-12562756D02*
X15270650Y-12592756D01*
X15290652Y-13032757D02*
X15320652Y-13062757D01*
X15320652Y-13032757D02*
X15290652Y-13062757D01*
X15347000Y-9252999D02*
X15377000Y-9282999D01*
X15377000Y-9252999D02*
X15347000Y-9282999D01*
X15388976Y-8841451D02*
X15418976Y-8871451D01*
X15418976Y-8841451D02*
X15388976Y-8871451D01*
X15388976Y-10234788D02*
X15418976Y-10264788D01*
X15418976Y-10234788D02*
X15388976Y-10264788D01*
X15755309Y-9367836D02*
X15785309Y-9397836D01*
X15785309Y-9367836D02*
X15755309Y-9397836D01*
X15770309Y-7612999D02*
X15800309Y-7642999D01*
X15800309Y-7612999D02*
X15770309Y-7642999D01*
X15800309Y-9503000D02*
X15830309Y-9533000D01*
X15830309Y-9503000D02*
X15800309Y-9533000D01*
X15817000Y-8993000D02*
X15847000Y-9023000D01*
X15847000Y-8993000D02*
X15817000Y-9023000D01*
X15817000Y-10652999D02*
X15847000Y-10682999D01*
X15847000Y-10652999D02*
X15817000Y-10682999D01*
X15827118Y-5595895D02*
X15857118Y-5625895D01*
X15857118Y-5595895D02*
X15827118Y-5625895D01*
X15912000Y-8598000D02*
X15942000Y-8628000D01*
X15942000Y-8598000D02*
X15912000Y-8628000D01*
X15917000Y-8822999D02*
X15947000Y-8852999D01*
X15947000Y-8822999D02*
X15917000Y-8852999D01*
X15927000Y-7643000D02*
X15957000Y-7673000D01*
X15957000Y-7643000D02*
X15927000Y-7673000D01*
X15983084Y-5926828D02*
X16013084Y-5956828D01*
X16013084Y-5926828D02*
X15983084Y-5956828D01*
X16125458Y-6458080D02*
X16155458Y-6488080D01*
X16155458Y-6458080D02*
X16125458Y-6488080D01*
X16247000Y-8942999D02*
X16277000Y-8972999D01*
X16277000Y-8942999D02*
X16247000Y-8972999D01*
X16282082Y-10658000D02*
X16312082Y-10688000D01*
X16312082Y-10658000D02*
X16282082Y-10688000D01*
X16544715Y-9308849D02*
X16574715Y-9338849D01*
X16574715Y-9308849D02*
X16544715Y-9338849D01*
X16585252Y-7691091D02*
X16615252Y-7721091D01*
X16615252Y-7691091D02*
X16585252Y-7721091D01*
X16625779Y-9225013D02*
X16655779Y-9255013D01*
X16655779Y-9225013D02*
X16625779Y-9255013D01*
X16669325Y-8507137D02*
X16699325Y-8537137D01*
X16699325Y-8507137D02*
X16669325Y-8537137D01*
X16706843Y-9141174D02*
X16736843Y-9171174D01*
X16736843Y-9141174D02*
X16706843Y-9171174D01*
X16947272Y-10888486D02*
X16977272Y-10918486D01*
X16977272Y-10888486D02*
X16947272Y-10918486D01*
X17035406Y-10792400D02*
X17065406Y-10822400D01*
X17065406Y-10792400D02*
X17035406Y-10822400D01*
X17055101Y-9521867D02*
X17085101Y-9551867D01*
X17085101Y-9521867D02*
X17055101Y-9551867D01*
X17084129Y-10093844D02*
X17114129Y-10123844D01*
X17114129Y-10093844D02*
X17084129Y-10123844D01*
X17133200Y-10693729D02*
X17163200Y-10723729D01*
X17163200Y-10693729D02*
X17133200Y-10723729D01*
X17147297Y-8513651D02*
X17177297Y-8543651D01*
X17177297Y-8513651D02*
X17147297Y-8543651D01*
X17155188Y-12856115D02*
X17185188Y-12886115D01*
X17185188Y-12856115D02*
X17155188Y-12886115D01*
X17243095Y-6029258D02*
X17273095Y-6059258D01*
X17273095Y-6029258D02*
X17243095Y-6059258D01*
X17503330Y-6342835D02*
X17533330Y-6372835D01*
X17533330Y-6342835D02*
X17503330Y-6372835D01*
X17510094Y-6677176D02*
X17540094Y-6707176D01*
X17540094Y-6677176D02*
X17510094Y-6707176D01*
X17591266Y-10247835D02*
X17621266Y-10277835D01*
X17621266Y-10247835D02*
X17591266Y-10277835D01*
X17661441Y-5911929D02*
X17691441Y-5941929D01*
X17691441Y-5911929D02*
X17661441Y-5941929D01*
X17665602Y-6159281D02*
X17695602Y-6189281D01*
X17695602Y-6159281D02*
X17665602Y-6189281D01*
X17706282Y-7880579D02*
X17736282Y-7910579D01*
X17736282Y-7880579D02*
X17706282Y-7910579D01*
X17957775Y-6255336D02*
X17987775Y-6285336D01*
X17987775Y-6255336D02*
X17957775Y-6285336D01*
X17972496Y-8541005D02*
X18002496Y-8571005D01*
X18002496Y-8541005D02*
X17972496Y-8571005D01*
X18084410Y-6573400D02*
X18114410Y-6603400D01*
X18114410Y-6573400D02*
X18084410Y-6603400D01*
X18167018Y-7991951D02*
X18197018Y-8021951D01*
X18197018Y-7991951D02*
X18167018Y-8021951D01*
X18175103Y-7751671D02*
X18205103Y-7781671D01*
X18205103Y-7751671D02*
X18175103Y-7781671D01*
X18246334Y-9702898D02*
X18276334Y-9732898D01*
X18276334Y-9702898D02*
X18246334Y-9732898D01*
X18447866Y-6374136D02*
X18477866Y-6404136D01*
X18477866Y-6374136D02*
X18447866Y-6404136D01*
X18454708Y-8109914D02*
X18484708Y-8139914D01*
X18484708Y-8109914D02*
X18454708Y-8139914D01*
X18457981Y-5701785D02*
X18487981Y-5731785D01*
X18487981Y-5701785D02*
X18457981Y-5731785D01*
X18509209Y-10051983D02*
X18539209Y-10081983D01*
X18539209Y-10051983D02*
X18509209Y-10081983D01*
X18509960Y-10353664D02*
X18539960Y-10383664D01*
X18539960Y-10353664D02*
X18509960Y-10383664D01*
X18552311Y-6377556D02*
X18582311Y-6407556D01*
X18582311Y-6377556D02*
X18552311Y-6407556D01*
X18597222Y-8409967D02*
X18627222Y-8439967D01*
X18627222Y-8409967D02*
X18597222Y-8439967D01*
X18616824Y-7035072D02*
X18646824Y-7065072D01*
X18646824Y-7035072D02*
X18616824Y-7065072D01*
X18647249Y-8596666D02*
X18677249Y-8626666D01*
X18677249Y-8596666D02*
X18647249Y-8626666D01*
X18663951Y-9846529D02*
X18693951Y-9876529D01*
X18693951Y-9846529D02*
X18663951Y-9876529D01*
X18688767Y-9591413D02*
X18718767Y-9621413D01*
X18718767Y-9591413D02*
X18688767Y-9621413D01*
X18851117Y-7994998D02*
X18881117Y-8024998D01*
X18881117Y-7994998D02*
X18851117Y-8024998D01*
X18980425Y-9963359D02*
X19010425Y-9993359D01*
X19010425Y-9963359D02*
X18980425Y-9993359D01*
X19011081Y-8205625D02*
X19041081Y-8235625D01*
X19041081Y-8205625D02*
X19011081Y-8235625D01*
X19023354Y-7517318D02*
X19053354Y-7547318D01*
X19053354Y-7517318D02*
X19023354Y-7547318D01*
X19037094Y-8379980D02*
X19067094Y-8409980D01*
X19067094Y-8379980D02*
X19037094Y-8409980D01*
X19080171Y-10250988D02*
X19110171Y-10280988D01*
X19110171Y-10250988D02*
X19080171Y-10280988D01*
X19105588Y-8558329D02*
X19135588Y-8588329D01*
X19135588Y-8558329D02*
X19105588Y-8588329D01*
X19126757Y-10424855D02*
X19156757Y-10454855D01*
X19156757Y-10424855D02*
X19126757Y-10454855D01*
X19148337Y-8215587D02*
X19178337Y-8245587D01*
X19178337Y-8215587D02*
X19148337Y-8245587D01*
X19369262Y-9812831D02*
X19399262Y-9842831D01*
X19399262Y-9812831D02*
X19369262Y-9842831D01*
X19384824Y-5881078D02*
X19414824Y-5911078D01*
X19414824Y-5881078D02*
X19384824Y-5911078D01*
X19465988Y-9386445D02*
X19495988Y-9416445D01*
X19495988Y-9386445D02*
X19465988Y-9416445D01*
X19489023Y-4386953D02*
X19519023Y-4416953D01*
X19519023Y-4386953D02*
X19489023Y-4416953D01*
X19507697Y-4920293D02*
X19537697Y-4950293D01*
X19537697Y-4920293D02*
X19507697Y-4950293D01*
X19537631Y-10016185D02*
X19567631Y-10046185D01*
X19567631Y-10016185D02*
X19537631Y-10046185D01*
X19547475Y-10168838D02*
X19577475Y-10198838D01*
X19577475Y-10168838D02*
X19547475Y-10198838D01*
X19643882Y-9987714D02*
X19673882Y-10017714D01*
X19673882Y-9987714D02*
X19643882Y-10017714D01*
X19644871Y-5432235D02*
X19674871Y-5462235D01*
X19674871Y-5432235D02*
X19644871Y-5462235D01*
X19665019Y-5043783D02*
X19695019Y-5073783D01*
X19695019Y-5043783D02*
X19665019Y-5073783D01*
X19723159Y-5183496D02*
X19753159Y-5213496D01*
X19753159Y-5183496D02*
X19723159Y-5213496D01*
X19737167Y-5583501D02*
X19767167Y-5613501D01*
X19767167Y-5583501D02*
X19737167Y-5613501D01*
X19754482Y-10361837D02*
X19784482Y-10391837D01*
X19784482Y-10361837D02*
X19754482Y-10391837D01*
X19827863Y-11465088D02*
X19857863Y-11495088D01*
X19857863Y-11465088D02*
X19827863Y-11495088D01*
X19973708Y-6234461D02*
X20003708Y-6264461D01*
X20003708Y-6234461D02*
X19973708Y-6264461D01*
X20027484Y-6763572D02*
X20057484Y-6793572D01*
X20057484Y-6763572D02*
X20027484Y-6793572D01*
X20127983Y-7042049D02*
X20157983Y-7072049D01*
X20157983Y-7042049D02*
X20127983Y-7072049D01*
X20149503Y-4596319D02*
X20179503Y-4626319D01*
X20179503Y-4596319D02*
X20149503Y-4626319D01*
X20166484Y-7456196D02*
X20196484Y-7486196D01*
X20196484Y-7456196D02*
X20166484Y-7486196D01*
X20232527Y-7200386D02*
X20262527Y-7230386D01*
X20262527Y-7200386D02*
X20232527Y-7230386D01*
X20243944Y-7590731D02*
X20273944Y-7620731D01*
X20273944Y-7590731D02*
X20243944Y-7620731D01*
X20288335Y-7273430D02*
X20318335Y-7303430D01*
X20318335Y-7273430D02*
X20288335Y-7303430D01*
X20303287Y-7657653D02*
X20333287Y-7687653D01*
X20333287Y-7657653D02*
X20303287Y-7687653D01*
X20324591Y-5573490D02*
X20354591Y-5603490D01*
X20354591Y-5573490D02*
X20324591Y-5603490D01*
X20358466Y-8767421D02*
X20388466Y-8797421D01*
X20388466Y-8767421D02*
X20358466Y-8797421D01*
X20462876Y-8060061D02*
X20492876Y-8090061D01*
X20492876Y-8060061D02*
X20462876Y-8090061D01*
X20507707Y-10969527D02*
X20537707Y-10999527D01*
X20537707Y-10969527D02*
X20507707Y-10999527D01*
X20508633Y-8617201D02*
X20538633Y-8647201D01*
X20538633Y-8617201D02*
X20508633Y-8647201D01*
X20647399Y-8574842D02*
X20677399Y-8604842D01*
X20677399Y-8574842D02*
X20647399Y-8604842D01*
X20659950Y-9104647D02*
X20689950Y-9134647D01*
X20689950Y-9104647D02*
X20659950Y-9134647D01*
X20689556Y-6418637D02*
X20719556Y-6448637D01*
X20719556Y-6418637D02*
X20689556Y-6448637D01*
X20716332Y-8851426D02*
X20746332Y-8881426D01*
X20746332Y-8851426D02*
X20716332Y-8881426D01*
X20745175Y-9268161D02*
X20775175Y-9298161D01*
X20775175Y-9268161D02*
X20745175Y-9298161D01*
X20776146Y-7065532D02*
X20806146Y-7095532D01*
X20806146Y-7065532D02*
X20776146Y-7095532D01*
X20809504Y-10489357D02*
X20839504Y-10519357D01*
X20839504Y-10489357D02*
X20809504Y-10519357D01*
X21193559Y-8260967D02*
X21223559Y-8290967D01*
X21223559Y-8260967D02*
X21193559Y-8290967D01*
X21225100Y-3911420D02*
X21255100Y-3941420D01*
X21255100Y-3911420D02*
X21225100Y-3941420D01*
X21352801Y-4581191D02*
X21382801Y-4611191D01*
X21382801Y-4581191D02*
X21352801Y-4611191D01*
X21357099Y-4404042D02*
X21387099Y-4434042D01*
X21387099Y-4404042D02*
X21357099Y-4434042D01*
X21404963Y-9412307D02*
X21434963Y-9442307D01*
X21434963Y-9412307D02*
X21404963Y-9442307D01*
X21420993Y-4236807D02*
X21450993Y-4266807D01*
X21450993Y-4236807D02*
X21420993Y-4266807D01*
X21586568Y-5067249D02*
X21616568Y-5097249D01*
X21616568Y-5067249D02*
X21586568Y-5097249D01*
X21598630Y-4919078D02*
X21628630Y-4949078D01*
X21628630Y-4919078D02*
X21598630Y-4949078D01*
X21743939Y-5770481D02*
X21773939Y-5800481D01*
X21773939Y-5770481D02*
X21743939Y-5800481D01*
X21822210Y-11030259D02*
X21852210Y-11060259D01*
X21852210Y-11030259D02*
X21822210Y-11060259D01*
X21909770Y-6543915D02*
X21939770Y-6573915D01*
X21939770Y-6543915D02*
X21909770Y-6573915D01*
X21927330Y-6145806D02*
X21957330Y-6175806D01*
X21957330Y-6145806D02*
X21927330Y-6175806D01*
X21941150Y-6390568D02*
X21971150Y-6420568D01*
X21971150Y-6390568D02*
X21941150Y-6420568D01*
X22128314Y-4563031D02*
X22158314Y-4593031D01*
X22158314Y-4563031D02*
X22128314Y-4593031D01*
X22164311Y-6894997D02*
X22194311Y-6924997D01*
X22194311Y-6894997D02*
X22164311Y-6924997D01*
X22173901Y-7104660D02*
X22203901Y-7134660D01*
X22203901Y-7104660D02*
X22173901Y-7134660D01*
X22218272Y-7579350D02*
X22248272Y-7609350D01*
X22248272Y-7579350D02*
X22218272Y-7609350D01*
X22257589Y-5446499D02*
X22287589Y-5476499D01*
X22287589Y-5446499D02*
X22257589Y-5476499D01*
X22328364Y-8067489D02*
X22358364Y-8097489D01*
X22358364Y-8067489D02*
X22328364Y-8097489D01*
X22348562Y-8258780D02*
X22378561Y-8288780D01*
X22378561Y-8258780D02*
X22348562Y-8288780D01*
X22399074Y-7945015D02*
X22429074Y-7975015D01*
X22429074Y-7945015D02*
X22399074Y-7975015D01*
X22518825Y-8430567D02*
X22548825Y-8460567D01*
X22548825Y-8430567D02*
X22518825Y-8460567D01*
X22565599Y-8759674D02*
X22595599Y-8789674D01*
X22595599Y-8759674D02*
X22565599Y-8789674D01*
X22591092Y-6406054D02*
X22621092Y-6436054D01*
X22621092Y-6406054D02*
X22591092Y-6436054D01*
X22636158Y-6897976D02*
X22666158Y-6927976D01*
X22666158Y-6897976D02*
X22636158Y-6927976D01*
X23160122Y-8220608D02*
X23190122Y-8250608D01*
X23190122Y-8220608D02*
X23160122Y-8250608D01*
X23170804Y-11074550D02*
X23200804Y-11104550D01*
X23200804Y-11074550D02*
X23170804Y-11104550D01*
X23194252Y-3880720D02*
X23224252Y-3910720D01*
X23224252Y-3880720D02*
X23194252Y-3910720D01*
X23250804Y-10304549D02*
X23280804Y-10334549D01*
X23280804Y-10304549D02*
X23250804Y-10334549D01*
X23267306Y-8944352D02*
X23297306Y-8974352D01*
X23297306Y-8944352D02*
X23267306Y-8974352D01*
X23273656Y-4563433D02*
X23303656Y-4593433D01*
X23303656Y-4563433D02*
X23273656Y-4593433D01*
X23275366Y-4376624D02*
X23305366Y-4406624D01*
X23305366Y-4376624D02*
X23275366Y-4406624D01*
X23496004Y-4659145D02*
X23526004Y-4689145D01*
X23526004Y-4659145D02*
X23496004Y-4689145D01*
X23612338Y-5518312D02*
X23642338Y-5548312D01*
X23642338Y-5518312D02*
X23612338Y-5548312D01*
X23625347Y-5354358D02*
X23655347Y-5384358D01*
X23655347Y-5354358D02*
X23625347Y-5384358D01*
X23686009Y-5715979D02*
X23716009Y-5745979D01*
X23716009Y-5715979D02*
X23686009Y-5745979D01*
X23703382Y-5162628D02*
X23733382Y-5192628D01*
X23733382Y-5162628D02*
X23703382Y-5192628D01*
X23879615Y-6554439D02*
X23909615Y-6584439D01*
X23909615Y-6554439D02*
X23879615Y-6584439D01*
X23890748Y-5630061D02*
X23920748Y-5660061D01*
X23920748Y-5630061D02*
X23890748Y-5660061D01*
X23968256Y-6344338D02*
X23998256Y-6374338D01*
X23998256Y-6344338D02*
X23968256Y-6374338D01*
X23998114Y-6533041D02*
X24028114Y-6563041D01*
X24028114Y-6533041D02*
X23998114Y-6563041D01*
X24169746Y-7579269D02*
X24199746Y-7609269D01*
X24199746Y-7579269D02*
X24169746Y-7609269D01*
X24251807Y-8059389D02*
X24281807Y-8089389D01*
X24281807Y-8059389D02*
X24251807Y-8089389D01*
X24254346Y-7489308D02*
X24284346Y-7519308D01*
X24284346Y-7489308D02*
X24254346Y-7519308D01*
X24259757Y-8243609D02*
X24289757Y-8273609D01*
X24289757Y-8243609D02*
X24259757Y-8273609D01*
X24299867Y-7311466D02*
X24329867Y-7341466D01*
X24329867Y-7311466D02*
X24299867Y-7341466D01*
X24373823Y-8823859D02*
X24403823Y-8853859D01*
X24403823Y-8823859D02*
X24373823Y-8853859D01*
X24480211Y-8370888D02*
X24510211Y-8400888D01*
X24510211Y-8370888D02*
X24480211Y-8400888D01*
X24599013Y-8872222D02*
X24629013Y-8902222D01*
X24629013Y-8872222D02*
X24599013Y-8902222D01*
X24605510Y-9186241D02*
X24635510Y-9216241D01*
X24635510Y-9186241D02*
X24605510Y-9216241D01*
X24606388Y-9382707D02*
X24636388Y-9412707D01*
X24636388Y-9382707D02*
X24606388Y-9412707D01*
X25157978Y-5160735D02*
X25187978Y-5190735D01*
X25187978Y-5160735D02*
X25157978Y-5190735D01*
X25266677Y-4293399D02*
X25296677Y-4323399D01*
X25296677Y-4293399D02*
X25266677Y-4323399D01*
X25401262Y-4795681D02*
X25431262Y-4825681D01*
X25431262Y-4795681D02*
X25401262Y-4825681D01*
X25403089Y-4976363D02*
X25433089Y-5006363D01*
X25433089Y-4976363D02*
X25403089Y-5006363D01*
X25455497Y-4631034D02*
X25485497Y-4661034D01*
X25485497Y-4631034D02*
X25455497Y-4661034D01*
X25626250Y-5480795D02*
X25656250Y-5510795D01*
X25656250Y-5480795D02*
X25626250Y-5510795D01*
X25636670Y-5307180D02*
X25666670Y-5337180D01*
X25666670Y-5307180D02*
X25636670Y-5337180D01*
X25772321Y-6161172D02*
X25802321Y-6191172D01*
X25802321Y-6161172D02*
X25772321Y-6191172D01*
X25967958Y-6543567D02*
X25997958Y-6573567D01*
X25997958Y-6543567D02*
X25967958Y-6573567D01*
X25978243Y-6794453D02*
X26008243Y-6824453D01*
X26008243Y-6794453D02*
X25978243Y-6824453D01*
X25984553Y-6953231D02*
X26014553Y-6983231D01*
X26014553Y-6953231D02*
X25984553Y-6983231D01*
X26151786Y-8837681D02*
X26181786Y-8867681D01*
X26181786Y-8837681D02*
X26151786Y-8867681D01*
X26211062Y-7296295D02*
X26241062Y-7326295D01*
X26241062Y-7296295D02*
X26211062Y-7326295D01*
X26219961Y-7464731D02*
X26249961Y-7494731D01*
X26249961Y-7464731D02*
X26219961Y-7494731D01*
X26251829Y-7989358D02*
X26281829Y-8019358D01*
X26281829Y-7989358D02*
X26251829Y-8019358D01*
X26398850Y-8653953D02*
X26428850Y-8683953D01*
X26428850Y-8653953D02*
X26398850Y-8683953D01*
X26400559Y-8467146D02*
X26430559Y-8497146D01*
X26430559Y-8467146D02*
X26400559Y-8497146D01*
X26463504Y-8315693D02*
X26493504Y-8345693D01*
X26493504Y-8315693D02*
X26463504Y-8345693D01*
X26599478Y-8900425D02*
X26629478Y-8930425D01*
X26629478Y-8900425D02*
X26599478Y-8930425D01*
X26625545Y-9152260D02*
X26655545Y-9182260D01*
X26655545Y-9152260D02*
X26625545Y-9182260D01*
X26965417Y-5053876D02*
X26995417Y-5083876D01*
X26995417Y-5053876D02*
X26965417Y-5083876D01*
X27249408Y-6728194D02*
X27279408Y-6758194D01*
X27279408Y-6728194D02*
X27249408Y-6758194D01*
X27984897Y-8834249D02*
X28014897Y-8864249D01*
X28014897Y-8834249D02*
X27984897Y-8864249D01*
X14493975Y-11139789D02*
G75*
G02*
X14393975Y-11139789I-50000J0D01*
G01*
X14393975Y-11139789D02*
G75*
G02*
X14493975Y-11139789I50000J0D01*
G01*
X14747975Y-11139789D02*
G75*
G02*
X14647975Y-11139789I-50000J0D01*
G01*
X14647975Y-11139789D02*
G75*
G02*
X14747975Y-11139789I50000J0D01*
G01*
X15001976Y-11139789D02*
G75*
G02*
X14901976Y-11139789I-50000J0D01*
G01*
X14901976Y-11139789D02*
G75*
G02*
X15001976Y-11139789I50000J0D01*
G01*
X15255975Y-11139789D02*
G75*
G02*
X15155975Y-11139789I-50000J0D01*
G01*
X15155975Y-11139789D02*
G75*
G02*
X15255975Y-11139789I50000J0D01*
G01*
D14*
X14085081Y-8184039D02*
X14085081Y-8294039D01*
X14030081Y-8239039D02*
X14140081Y-8239039D01*
X14085082Y-5390040D02*
X14085082Y-5500040D01*
X14030082Y-5445040D02*
X14140082Y-5445040D01*
X14085082Y-5644040D02*
X14085082Y-5754040D01*
X14030082Y-5699040D02*
X14140082Y-5699040D01*
X14085082Y-5898040D02*
X14085082Y-6008040D01*
X14030082Y-5953040D02*
X14140082Y-5953040D01*
X14085082Y-6406040D02*
X14085082Y-6516040D01*
X14030082Y-6461040D02*
X14140082Y-6461040D01*
X14085082Y-6660040D02*
X14085082Y-6770040D01*
X14030082Y-6715040D02*
X14140082Y-6715040D01*
X14085082Y-6914040D02*
X14085082Y-7024040D01*
X14030082Y-6969040D02*
X14140082Y-6969040D01*
X14085082Y-7676040D02*
X14085082Y-7786040D01*
X14030082Y-7731040D02*
X14140082Y-7731040D01*
X14085082Y-7930040D02*
X14085082Y-8040040D01*
X14030082Y-7985040D02*
X14140082Y-7985040D01*
X14085082Y-7168040D02*
X14085082Y-7278040D01*
X14030082Y-7223040D02*
X14140082Y-7223040D01*
X14085082Y-6152040D02*
X14085082Y-6262040D01*
X14030082Y-6207040D02*
X14140082Y-6207040D01*
X14085082Y-7422040D02*
X14085082Y-7532040D01*
X14030082Y-7477040D02*
X14140082Y-7477040D01*
X15609081Y-6152040D02*
X15609081Y-6262040D01*
X15554081Y-6207040D02*
X15664081Y-6207040D01*
X15609081Y-7422040D02*
X15609081Y-7532040D01*
X15554081Y-7477040D02*
X15664081Y-7477040D01*
X15609081Y-6406040D02*
X15609081Y-6516040D01*
X15554081Y-6461040D02*
X15664081Y-6461040D01*
X15609082Y-5644040D02*
X15609082Y-5754040D01*
X15554082Y-5699040D02*
X15664082Y-5699040D01*
X15609082Y-5898040D02*
X15609082Y-6008040D01*
X15554082Y-5953040D02*
X15664082Y-5953040D01*
X15609082Y-6660040D02*
X15609082Y-6770040D01*
X15554082Y-6715040D02*
X15664082Y-6715040D01*
X15609082Y-6914040D02*
X15609082Y-7024040D01*
X15554082Y-6969040D02*
X15664082Y-6969040D01*
X15609082Y-7168040D02*
X15609082Y-7278040D01*
X15554082Y-7223040D02*
X15664082Y-7223040D01*
X15609082Y-7676040D02*
X15609082Y-7786040D01*
X15554082Y-7731040D02*
X15664082Y-7731040D01*
X15609082Y-7930040D02*
X15609082Y-8040040D01*
X15554082Y-7985040D02*
X15664082Y-7985040D01*
X15609082Y-8184039D02*
X15609082Y-8294039D01*
X15554082Y-8239039D02*
X15664082Y-8239039D01*
X15609082Y-5390040D02*
X15609082Y-5500040D01*
X15554082Y-5445040D02*
X15664082Y-5445040D01*
D12*
X1415253Y-14401025D02*
X1415253Y-14201025D01*
X1415253Y-14201025D02*
X1462872Y-14201025D01*
X1462872Y-14201025D02*
X1491443Y-14210548D01*
X1491443Y-14210548D02*
X1510491Y-14229596D01*
X1510491Y-14229596D02*
X1520015Y-14248644D01*
X1520015Y-14248644D02*
X1529539Y-14286739D01*
X1529539Y-14286739D02*
X1529539Y-14315310D01*
X1529539Y-14315310D02*
X1520015Y-14353405D01*
X1520015Y-14353405D02*
X1510491Y-14372453D01*
X1510491Y-14372453D02*
X1491443Y-14391501D01*
X1491443Y-14391501D02*
X1462872Y-14401025D01*
X1462872Y-14401025D02*
X1415253Y-14401025D01*
X1615253Y-14401025D02*
X1615253Y-14267691D01*
X1615253Y-14305786D02*
X1624777Y-14286739D01*
X1624777Y-14286739D02*
X1634301Y-14277215D01*
X1634301Y-14277215D02*
X1653348Y-14267691D01*
X1653348Y-14267691D02*
X1672396Y-14267691D01*
X1739062Y-14401025D02*
X1739062Y-14267691D01*
X1739062Y-14201025D02*
X1729539Y-14210548D01*
X1729539Y-14210548D02*
X1739062Y-14220072D01*
X1739062Y-14220072D02*
X1748586Y-14210548D01*
X1748586Y-14210548D02*
X1739062Y-14201025D01*
X1739062Y-14201025D02*
X1739062Y-14220072D01*
X1862872Y-14401025D02*
X1843824Y-14391501D01*
X1843824Y-14391501D02*
X1834301Y-14372453D01*
X1834301Y-14372453D02*
X1834301Y-14201025D01*
X1967634Y-14401025D02*
X1948586Y-14391501D01*
X1948586Y-14391501D02*
X1939062Y-14372453D01*
X1939062Y-14372453D02*
X1939062Y-14201025D01*
X2196205Y-14401025D02*
X2196205Y-14201025D01*
X2196205Y-14201025D02*
X2262872Y-14343882D01*
X2262872Y-14343882D02*
X2329539Y-14201025D01*
X2329539Y-14201025D02*
X2329539Y-14401025D01*
X2510491Y-14401025D02*
X2510491Y-14296263D01*
X2510491Y-14296263D02*
X2500967Y-14277215D01*
X2500967Y-14277215D02*
X2481920Y-14267691D01*
X2481920Y-14267691D02*
X2443824Y-14267691D01*
X2443824Y-14267691D02*
X2424777Y-14277215D01*
X2510491Y-14391501D02*
X2491444Y-14401025D01*
X2491444Y-14401025D02*
X2443824Y-14401025D01*
X2443824Y-14401025D02*
X2424777Y-14391501D01*
X2424777Y-14391501D02*
X2415253Y-14372453D01*
X2415253Y-14372453D02*
X2415253Y-14353405D01*
X2415253Y-14353405D02*
X2424777Y-14334358D01*
X2424777Y-14334358D02*
X2443824Y-14324834D01*
X2443824Y-14324834D02*
X2491444Y-14324834D01*
X2491444Y-14324834D02*
X2510491Y-14315310D01*
X2605729Y-14267691D02*
X2605729Y-14467691D01*
X2605729Y-14277215D02*
X2624777Y-14267691D01*
X2624777Y-14267691D02*
X2662872Y-14267691D01*
X2662872Y-14267691D02*
X2681920Y-14277215D01*
X2681920Y-14277215D02*
X2691444Y-14286739D01*
X2691444Y-14286739D02*
X2700967Y-14305786D01*
X2700967Y-14305786D02*
X2700967Y-14362929D01*
X2700967Y-14362929D02*
X2691444Y-14381977D01*
X2691444Y-14381977D02*
X2681920Y-14391501D01*
X2681920Y-14391501D02*
X2662872Y-14401025D01*
X2662872Y-14401025D02*
X2624777Y-14401025D01*
X2624777Y-14401025D02*
X2605729Y-14391501D01*
X2786682Y-14381977D02*
X2796205Y-14391501D01*
X2796205Y-14391501D02*
X2786682Y-14401025D01*
X2786682Y-14401025D02*
X2777158Y-14391501D01*
X2777158Y-14391501D02*
X2786682Y-14381977D01*
X2786682Y-14381977D02*
X2786682Y-14401025D01*
X2786682Y-14277215D02*
X2796205Y-14286739D01*
X2796205Y-14286739D02*
X2786682Y-14296263D01*
X2786682Y-14296263D02*
X2777158Y-14286739D01*
X2777158Y-14286739D02*
X2786682Y-14277215D01*
X2786682Y-14277215D02*
X2786682Y-14296263D01*
D13*
X1124476Y-14714541D02*
X1154476Y-14744541D01*
X1154476Y-14714541D02*
X1124476Y-14744541D01*
D12*
X1453348Y-14621025D02*
X1472396Y-14621025D01*
X1472396Y-14621025D02*
X1491443Y-14630548D01*
X1491443Y-14630548D02*
X1500967Y-14640072D01*
X1500967Y-14640072D02*
X1510491Y-14659120D01*
X1510491Y-14659120D02*
X1520015Y-14697215D01*
X1520015Y-14697215D02*
X1520015Y-14744834D01*
X1520015Y-14744834D02*
X1510491Y-14782929D01*
X1510491Y-14782929D02*
X1500967Y-14801977D01*
X1500967Y-14801977D02*
X1491443Y-14811501D01*
X1491443Y-14811501D02*
X1472396Y-14821025D01*
X1472396Y-14821025D02*
X1453348Y-14821025D01*
X1453348Y-14821025D02*
X1434301Y-14811501D01*
X1434301Y-14811501D02*
X1424777Y-14801977D01*
X1424777Y-14801977D02*
X1415253Y-14782929D01*
X1415253Y-14782929D02*
X1405729Y-14744834D01*
X1405729Y-14744834D02*
X1405729Y-14697215D01*
X1405729Y-14697215D02*
X1415253Y-14659120D01*
X1415253Y-14659120D02*
X1424777Y-14640072D01*
X1424777Y-14640072D02*
X1434301Y-14630548D01*
X1434301Y-14630548D02*
X1453348Y-14621025D01*
X1605729Y-14801977D02*
X1615253Y-14811501D01*
X1615253Y-14811501D02*
X1605729Y-14821025D01*
X1605729Y-14821025D02*
X1596205Y-14811501D01*
X1596205Y-14811501D02*
X1605729Y-14801977D01*
X1605729Y-14801977D02*
X1605729Y-14821025D01*
X1681920Y-14621025D02*
X1805729Y-14621025D01*
X1805729Y-14621025D02*
X1739062Y-14697215D01*
X1739062Y-14697215D02*
X1767634Y-14697215D01*
X1767634Y-14697215D02*
X1786682Y-14706739D01*
X1786682Y-14706739D02*
X1796205Y-14716263D01*
X1796205Y-14716263D02*
X1805729Y-14735310D01*
X1805729Y-14735310D02*
X1805729Y-14782929D01*
X1805729Y-14782929D02*
X1796205Y-14801977D01*
X1796205Y-14801977D02*
X1786682Y-14811501D01*
X1786682Y-14811501D02*
X1767634Y-14821025D01*
X1767634Y-14821025D02*
X1710491Y-14821025D01*
X1710491Y-14821025D02*
X1691443Y-14811501D01*
X1691443Y-14811501D02*
X1681920Y-14801977D01*
X1929539Y-14621025D02*
X1948586Y-14621025D01*
X1948586Y-14621025D02*
X1967634Y-14630548D01*
X1967634Y-14630548D02*
X1977158Y-14640072D01*
X1977158Y-14640072D02*
X1986682Y-14659120D01*
X1986682Y-14659120D02*
X1996205Y-14697215D01*
X1996205Y-14697215D02*
X1996205Y-14744834D01*
X1996205Y-14744834D02*
X1986682Y-14782929D01*
X1986682Y-14782929D02*
X1977158Y-14801977D01*
X1977158Y-14801977D02*
X1967634Y-14811501D01*
X1967634Y-14811501D02*
X1948586Y-14821025D01*
X1948586Y-14821025D02*
X1929539Y-14821025D01*
X1929539Y-14821025D02*
X1910491Y-14811501D01*
X1910491Y-14811501D02*
X1900967Y-14801977D01*
X1900967Y-14801977D02*
X1891443Y-14782929D01*
X1891443Y-14782929D02*
X1881920Y-14744834D01*
X1881920Y-14744834D02*
X1881920Y-14697215D01*
X1881920Y-14697215D02*
X1891443Y-14659120D01*
X1891443Y-14659120D02*
X1900967Y-14640072D01*
X1900967Y-14640072D02*
X1910491Y-14630548D01*
X1910491Y-14630548D02*
X1929539Y-14621025D01*
X2120015Y-14621025D02*
X2139063Y-14621025D01*
X2139063Y-14621025D02*
X2158110Y-14630548D01*
X2158110Y-14630548D02*
X2167634Y-14640072D01*
X2167634Y-14640072D02*
X2177158Y-14659120D01*
X2177158Y-14659120D02*
X2186682Y-14697215D01*
X2186682Y-14697215D02*
X2186682Y-14744834D01*
X2186682Y-14744834D02*
X2177158Y-14782929D01*
X2177158Y-14782929D02*
X2167634Y-14801977D01*
X2167634Y-14801977D02*
X2158110Y-14811501D01*
X2158110Y-14811501D02*
X2139063Y-14821025D01*
X2139063Y-14821025D02*
X2120015Y-14821025D01*
X2120015Y-14821025D02*
X2100967Y-14811501D01*
X2100967Y-14811501D02*
X2091443Y-14801977D01*
X2091443Y-14801977D02*
X2081920Y-14782929D01*
X2081920Y-14782929D02*
X2072396Y-14744834D01*
X2072396Y-14744834D02*
X2072396Y-14697215D01*
X2072396Y-14697215D02*
X2081920Y-14659120D01*
X2081920Y-14659120D02*
X2091443Y-14640072D01*
X2091443Y-14640072D02*
X2100967Y-14630548D01*
X2100967Y-14630548D02*
X2120015Y-14621025D01*
X2272396Y-14821025D02*
X2272396Y-14687691D01*
X2272396Y-14706739D02*
X2281920Y-14697215D01*
X2281920Y-14697215D02*
X2300967Y-14687691D01*
X2300967Y-14687691D02*
X2329539Y-14687691D01*
X2329539Y-14687691D02*
X2348586Y-14697215D01*
X2348586Y-14697215D02*
X2358110Y-14716263D01*
X2358110Y-14716263D02*
X2358110Y-14821025D01*
X2358110Y-14716263D02*
X2367634Y-14697215D01*
X2367634Y-14697215D02*
X2386682Y-14687691D01*
X2386682Y-14687691D02*
X2415253Y-14687691D01*
X2415253Y-14687691D02*
X2434301Y-14697215D01*
X2434301Y-14697215D02*
X2443825Y-14716263D01*
X2443825Y-14716263D02*
X2443825Y-14821025D01*
X2539063Y-14821025D02*
X2539063Y-14687691D01*
X2539063Y-14706739D02*
X2548586Y-14697215D01*
X2548586Y-14697215D02*
X2567634Y-14687691D01*
X2567634Y-14687691D02*
X2596206Y-14687691D01*
X2596206Y-14687691D02*
X2615253Y-14697215D01*
X2615253Y-14697215D02*
X2624777Y-14716263D01*
X2624777Y-14716263D02*
X2624777Y-14821025D01*
X2624777Y-14716263D02*
X2634301Y-14697215D01*
X2634301Y-14697215D02*
X2653348Y-14687691D01*
X2653348Y-14687691D02*
X2681920Y-14687691D01*
X2681920Y-14687691D02*
X2700967Y-14697215D01*
X2700967Y-14697215D02*
X2710491Y-14716263D01*
X2710491Y-14716263D02*
X2710491Y-14821025D01*
X3100967Y-14611501D02*
X2929539Y-14868644D01*
X3358110Y-14621025D02*
X3377158Y-14621025D01*
X3377158Y-14621025D02*
X3396206Y-14630548D01*
X3396206Y-14630548D02*
X3405729Y-14640072D01*
X3405729Y-14640072D02*
X3415253Y-14659120D01*
X3415253Y-14659120D02*
X3424777Y-14697215D01*
X3424777Y-14697215D02*
X3424777Y-14744834D01*
X3424777Y-14744834D02*
X3415253Y-14782929D01*
X3415253Y-14782929D02*
X3405729Y-14801977D01*
X3405729Y-14801977D02*
X3396206Y-14811501D01*
X3396206Y-14811501D02*
X3377158Y-14821025D01*
X3377158Y-14821025D02*
X3358110Y-14821025D01*
X3358110Y-14821025D02*
X3339063Y-14811501D01*
X3339063Y-14811501D02*
X3329539Y-14801977D01*
X3329539Y-14801977D02*
X3320015Y-14782929D01*
X3320015Y-14782929D02*
X3310491Y-14744834D01*
X3310491Y-14744834D02*
X3310491Y-14697215D01*
X3310491Y-14697215D02*
X3320015Y-14659120D01*
X3320015Y-14659120D02*
X3329539Y-14640072D01*
X3329539Y-14640072D02*
X3339063Y-14630548D01*
X3339063Y-14630548D02*
X3358110Y-14621025D01*
X3510491Y-14801977D02*
X3520015Y-14811501D01*
X3520015Y-14811501D02*
X3510491Y-14821025D01*
X3510491Y-14821025D02*
X3500967Y-14811501D01*
X3500967Y-14811501D02*
X3510491Y-14801977D01*
X3510491Y-14801977D02*
X3510491Y-14821025D01*
X3643825Y-14621025D02*
X3662872Y-14621025D01*
X3662872Y-14621025D02*
X3681920Y-14630548D01*
X3681920Y-14630548D02*
X3691444Y-14640072D01*
X3691444Y-14640072D02*
X3700967Y-14659120D01*
X3700967Y-14659120D02*
X3710491Y-14697215D01*
X3710491Y-14697215D02*
X3710491Y-14744834D01*
X3710491Y-14744834D02*
X3700967Y-14782929D01*
X3700967Y-14782929D02*
X3691444Y-14801977D01*
X3691444Y-14801977D02*
X3681920Y-14811501D01*
X3681920Y-14811501D02*
X3662872Y-14821025D01*
X3662872Y-14821025D02*
X3643825Y-14821025D01*
X3643825Y-14821025D02*
X3624777Y-14811501D01*
X3624777Y-14811501D02*
X3615253Y-14801977D01*
X3615253Y-14801977D02*
X3605729Y-14782929D01*
X3605729Y-14782929D02*
X3596206Y-14744834D01*
X3596206Y-14744834D02*
X3596206Y-14697215D01*
X3596206Y-14697215D02*
X3605729Y-14659120D01*
X3605729Y-14659120D02*
X3615253Y-14640072D01*
X3615253Y-14640072D02*
X3624777Y-14630548D01*
X3624777Y-14630548D02*
X3643825Y-14621025D01*
X3900967Y-14821025D02*
X3786682Y-14821025D01*
X3843825Y-14821025D02*
X3843825Y-14621025D01*
X3843825Y-14621025D02*
X3824777Y-14649596D01*
X3824777Y-14649596D02*
X3805729Y-14668644D01*
X3805729Y-14668644D02*
X3786682Y-14678167D01*
X4091444Y-14821025D02*
X3977158Y-14821025D01*
X4034301Y-14821025D02*
X4034301Y-14621025D01*
X4034301Y-14621025D02*
X4015253Y-14649596D01*
X4015253Y-14649596D02*
X3996206Y-14668644D01*
X3996206Y-14668644D02*
X3977158Y-14678167D01*
X4205729Y-14706739D02*
X4186682Y-14697215D01*
X4186682Y-14697215D02*
X4177158Y-14687691D01*
X4177158Y-14687691D02*
X4167634Y-14668644D01*
X4167634Y-14668644D02*
X4167634Y-14659120D01*
X4167634Y-14659120D02*
X4177158Y-14640072D01*
X4177158Y-14640072D02*
X4186682Y-14630548D01*
X4186682Y-14630548D02*
X4205729Y-14621025D01*
X4205729Y-14621025D02*
X4243825Y-14621025D01*
X4243825Y-14621025D02*
X4262872Y-14630548D01*
X4262872Y-14630548D02*
X4272396Y-14640072D01*
X4272396Y-14640072D02*
X4281920Y-14659120D01*
X4281920Y-14659120D02*
X4281920Y-14668644D01*
X4281920Y-14668644D02*
X4272396Y-14687691D01*
X4272396Y-14687691D02*
X4262872Y-14697215D01*
X4262872Y-14697215D02*
X4243825Y-14706739D01*
X4243825Y-14706739D02*
X4205729Y-14706739D01*
X4205729Y-14706739D02*
X4186682Y-14716263D01*
X4186682Y-14716263D02*
X4177158Y-14725786D01*
X4177158Y-14725786D02*
X4167634Y-14744834D01*
X4167634Y-14744834D02*
X4167634Y-14782929D01*
X4167634Y-14782929D02*
X4177158Y-14801977D01*
X4177158Y-14801977D02*
X4186682Y-14811501D01*
X4186682Y-14811501D02*
X4205729Y-14821025D01*
X4205729Y-14821025D02*
X4243825Y-14821025D01*
X4243825Y-14821025D02*
X4262872Y-14811501D01*
X4262872Y-14811501D02*
X4272396Y-14801977D01*
X4272396Y-14801977D02*
X4281920Y-14782929D01*
X4281920Y-14782929D02*
X4281920Y-14744834D01*
X4281920Y-14744834D02*
X4272396Y-14725786D01*
X4272396Y-14725786D02*
X4262872Y-14716263D01*
X4262872Y-14716263D02*
X4243825Y-14706739D01*
X4358110Y-14621025D02*
X4358110Y-14659120D01*
X4434301Y-14621025D02*
X4434301Y-14659120D01*
X4729539Y-14897215D02*
X4720015Y-14887691D01*
X4720015Y-14887691D02*
X4700968Y-14859120D01*
X4700968Y-14859120D02*
X4691444Y-14840072D01*
X4691444Y-14840072D02*
X4681920Y-14811501D01*
X4681920Y-14811501D02*
X4672396Y-14763882D01*
X4672396Y-14763882D02*
X4672396Y-14725786D01*
X4672396Y-14725786D02*
X4681920Y-14678167D01*
X4681920Y-14678167D02*
X4691444Y-14649596D01*
X4691444Y-14649596D02*
X4700968Y-14630548D01*
X4700968Y-14630548D02*
X4720015Y-14601977D01*
X4720015Y-14601977D02*
X4729539Y-14592453D01*
X4786682Y-14621025D02*
X4910491Y-14621025D01*
X4910491Y-14621025D02*
X4843825Y-14697215D01*
X4843825Y-14697215D02*
X4872396Y-14697215D01*
X4872396Y-14697215D02*
X4891444Y-14706739D01*
X4891444Y-14706739D02*
X4900968Y-14716263D01*
X4900968Y-14716263D02*
X4910491Y-14735310D01*
X4910491Y-14735310D02*
X4910491Y-14782929D01*
X4910491Y-14782929D02*
X4900968Y-14801977D01*
X4900968Y-14801977D02*
X4891444Y-14811501D01*
X4891444Y-14811501D02*
X4872396Y-14821025D01*
X4872396Y-14821025D02*
X4815253Y-14821025D01*
X4815253Y-14821025D02*
X4796206Y-14811501D01*
X4796206Y-14811501D02*
X4786682Y-14801977D01*
X4986682Y-14640072D02*
X4996206Y-14630548D01*
X4996206Y-14630548D02*
X5015253Y-14621025D01*
X5015253Y-14621025D02*
X5062872Y-14621025D01*
X5062872Y-14621025D02*
X5081920Y-14630548D01*
X5081920Y-14630548D02*
X5091444Y-14640072D01*
X5091444Y-14640072D02*
X5100968Y-14659120D01*
X5100968Y-14659120D02*
X5100968Y-14678167D01*
X5100968Y-14678167D02*
X5091444Y-14706739D01*
X5091444Y-14706739D02*
X4977158Y-14821025D01*
X4977158Y-14821025D02*
X5100968Y-14821025D01*
X5167634Y-14621025D02*
X5300968Y-14621025D01*
X5300968Y-14621025D02*
X5215253Y-14821025D01*
X5529539Y-14821025D02*
X5529539Y-14621025D01*
X5615253Y-14821025D02*
X5615253Y-14716263D01*
X5615253Y-14716263D02*
X5605730Y-14697215D01*
X5605730Y-14697215D02*
X5586682Y-14687691D01*
X5586682Y-14687691D02*
X5558111Y-14687691D01*
X5558111Y-14687691D02*
X5539063Y-14697215D01*
X5539063Y-14697215D02*
X5529539Y-14706739D01*
X5739063Y-14821025D02*
X5720015Y-14811501D01*
X5720015Y-14811501D02*
X5710491Y-14801977D01*
X5710491Y-14801977D02*
X5700968Y-14782929D01*
X5700968Y-14782929D02*
X5700968Y-14725786D01*
X5700968Y-14725786D02*
X5710491Y-14706739D01*
X5710491Y-14706739D02*
X5720015Y-14697215D01*
X5720015Y-14697215D02*
X5739063Y-14687691D01*
X5739063Y-14687691D02*
X5767634Y-14687691D01*
X5767634Y-14687691D02*
X5786682Y-14697215D01*
X5786682Y-14697215D02*
X5796206Y-14706739D01*
X5796206Y-14706739D02*
X5805730Y-14725786D01*
X5805730Y-14725786D02*
X5805730Y-14782929D01*
X5805730Y-14782929D02*
X5796206Y-14801977D01*
X5796206Y-14801977D02*
X5786682Y-14811501D01*
X5786682Y-14811501D02*
X5767634Y-14821025D01*
X5767634Y-14821025D02*
X5739063Y-14821025D01*
X5920015Y-14821025D02*
X5900968Y-14811501D01*
X5900968Y-14811501D02*
X5891444Y-14792453D01*
X5891444Y-14792453D02*
X5891444Y-14621025D01*
X6072396Y-14811501D02*
X6053349Y-14821025D01*
X6053349Y-14821025D02*
X6015253Y-14821025D01*
X6015253Y-14821025D02*
X5996206Y-14811501D01*
X5996206Y-14811501D02*
X5986682Y-14792453D01*
X5986682Y-14792453D02*
X5986682Y-14716263D01*
X5986682Y-14716263D02*
X5996206Y-14697215D01*
X5996206Y-14697215D02*
X6015253Y-14687691D01*
X6015253Y-14687691D02*
X6053349Y-14687691D01*
X6053349Y-14687691D02*
X6072396Y-14697215D01*
X6072396Y-14697215D02*
X6081920Y-14716263D01*
X6081920Y-14716263D02*
X6081920Y-14735310D01*
X6081920Y-14735310D02*
X5986682Y-14754358D01*
X6158111Y-14811501D02*
X6177158Y-14821025D01*
X6177158Y-14821025D02*
X6215253Y-14821025D01*
X6215253Y-14821025D02*
X6234301Y-14811501D01*
X6234301Y-14811501D02*
X6243825Y-14792453D01*
X6243825Y-14792453D02*
X6243825Y-14782929D01*
X6243825Y-14782929D02*
X6234301Y-14763882D01*
X6234301Y-14763882D02*
X6215253Y-14754358D01*
X6215253Y-14754358D02*
X6186682Y-14754358D01*
X6186682Y-14754358D02*
X6167634Y-14744834D01*
X6167634Y-14744834D02*
X6158111Y-14725786D01*
X6158111Y-14725786D02*
X6158111Y-14716263D01*
X6158111Y-14716263D02*
X6167634Y-14697215D01*
X6167634Y-14697215D02*
X6186682Y-14687691D01*
X6186682Y-14687691D02*
X6215253Y-14687691D01*
X6215253Y-14687691D02*
X6234301Y-14697215D01*
X6310492Y-14897215D02*
X6320015Y-14887691D01*
X6320015Y-14887691D02*
X6339063Y-14859120D01*
X6339063Y-14859120D02*
X6348587Y-14840072D01*
X6348587Y-14840072D02*
X6358111Y-14811501D01*
X6358111Y-14811501D02*
X6367634Y-14763882D01*
X6367634Y-14763882D02*
X6367634Y-14725786D01*
X6367634Y-14725786D02*
X6358111Y-14678167D01*
X6358111Y-14678167D02*
X6348587Y-14649596D01*
X6348587Y-14649596D02*
X6339063Y-14630548D01*
X6339063Y-14630548D02*
X6320015Y-14601977D01*
X6320015Y-14601977D02*
X6310492Y-14592453D01*
D13*
X1154476Y-14993541D02*
G75*
G02*
X1054476Y-14993541I-50000J0D01*
G01*
X1054476Y-14993541D02*
G75*
G02*
X1154476Y-14993541I50000J0D01*
G01*
D12*
X1520015Y-15085025D02*
X1405729Y-15085025D01*
X1462872Y-15085025D02*
X1462872Y-14885025D01*
X1462872Y-14885025D02*
X1443824Y-14913596D01*
X1443824Y-14913596D02*
X1424777Y-14932644D01*
X1424777Y-14932644D02*
X1405729Y-14942167D01*
X1605729Y-15065977D02*
X1615253Y-15075501D01*
X1615253Y-15075501D02*
X1605729Y-15085025D01*
X1605729Y-15085025D02*
X1596205Y-15075501D01*
X1596205Y-15075501D02*
X1605729Y-15065977D01*
X1605729Y-15065977D02*
X1605729Y-15085025D01*
X1739062Y-14885025D02*
X1758110Y-14885025D01*
X1758110Y-14885025D02*
X1777158Y-14894548D01*
X1777158Y-14894548D02*
X1786682Y-14904072D01*
X1786682Y-14904072D02*
X1796205Y-14923120D01*
X1796205Y-14923120D02*
X1805729Y-14961215D01*
X1805729Y-14961215D02*
X1805729Y-15008834D01*
X1805729Y-15008834D02*
X1796205Y-15046929D01*
X1796205Y-15046929D02*
X1786682Y-15065977D01*
X1786682Y-15065977D02*
X1777158Y-15075501D01*
X1777158Y-15075501D02*
X1758110Y-15085025D01*
X1758110Y-15085025D02*
X1739062Y-15085025D01*
X1739062Y-15085025D02*
X1720015Y-15075501D01*
X1720015Y-15075501D02*
X1710491Y-15065977D01*
X1710491Y-15065977D02*
X1700967Y-15046929D01*
X1700967Y-15046929D02*
X1691443Y-15008834D01*
X1691443Y-15008834D02*
X1691443Y-14961215D01*
X1691443Y-14961215D02*
X1700967Y-14923120D01*
X1700967Y-14923120D02*
X1710491Y-14904072D01*
X1710491Y-14904072D02*
X1720015Y-14894548D01*
X1720015Y-14894548D02*
X1739062Y-14885025D01*
X1929539Y-14885025D02*
X1948586Y-14885025D01*
X1948586Y-14885025D02*
X1967634Y-14894548D01*
X1967634Y-14894548D02*
X1977158Y-14904072D01*
X1977158Y-14904072D02*
X1986682Y-14923120D01*
X1986682Y-14923120D02*
X1996205Y-14961215D01*
X1996205Y-14961215D02*
X1996205Y-15008834D01*
X1996205Y-15008834D02*
X1986682Y-15046929D01*
X1986682Y-15046929D02*
X1977158Y-15065977D01*
X1977158Y-15065977D02*
X1967634Y-15075501D01*
X1967634Y-15075501D02*
X1948586Y-15085025D01*
X1948586Y-15085025D02*
X1929539Y-15085025D01*
X1929539Y-15085025D02*
X1910491Y-15075501D01*
X1910491Y-15075501D02*
X1900967Y-15065977D01*
X1900967Y-15065977D02*
X1891443Y-15046929D01*
X1891443Y-15046929D02*
X1881920Y-15008834D01*
X1881920Y-15008834D02*
X1881920Y-14961215D01*
X1881920Y-14961215D02*
X1891443Y-14923120D01*
X1891443Y-14923120D02*
X1900967Y-14904072D01*
X1900967Y-14904072D02*
X1910491Y-14894548D01*
X1910491Y-14894548D02*
X1929539Y-14885025D01*
X2120015Y-14885025D02*
X2139063Y-14885025D01*
X2139063Y-14885025D02*
X2158110Y-14894548D01*
X2158110Y-14894548D02*
X2167634Y-14904072D01*
X2167634Y-14904072D02*
X2177158Y-14923120D01*
X2177158Y-14923120D02*
X2186682Y-14961215D01*
X2186682Y-14961215D02*
X2186682Y-15008834D01*
X2186682Y-15008834D02*
X2177158Y-15046929D01*
X2177158Y-15046929D02*
X2167634Y-15065977D01*
X2167634Y-15065977D02*
X2158110Y-15075501D01*
X2158110Y-15075501D02*
X2139063Y-15085025D01*
X2139063Y-15085025D02*
X2120015Y-15085025D01*
X2120015Y-15085025D02*
X2100967Y-15075501D01*
X2100967Y-15075501D02*
X2091443Y-15065977D01*
X2091443Y-15065977D02*
X2081920Y-15046929D01*
X2081920Y-15046929D02*
X2072396Y-15008834D01*
X2072396Y-15008834D02*
X2072396Y-14961215D01*
X2072396Y-14961215D02*
X2081920Y-14923120D01*
X2081920Y-14923120D02*
X2091443Y-14904072D01*
X2091443Y-14904072D02*
X2100967Y-14894548D01*
X2100967Y-14894548D02*
X2120015Y-14885025D01*
X2272396Y-15085025D02*
X2272396Y-14951691D01*
X2272396Y-14970739D02*
X2281920Y-14961215D01*
X2281920Y-14961215D02*
X2300967Y-14951691D01*
X2300967Y-14951691D02*
X2329539Y-14951691D01*
X2329539Y-14951691D02*
X2348586Y-14961215D01*
X2348586Y-14961215D02*
X2358110Y-14980263D01*
X2358110Y-14980263D02*
X2358110Y-15085025D01*
X2358110Y-14980263D02*
X2367634Y-14961215D01*
X2367634Y-14961215D02*
X2386682Y-14951691D01*
X2386682Y-14951691D02*
X2415253Y-14951691D01*
X2415253Y-14951691D02*
X2434301Y-14961215D01*
X2434301Y-14961215D02*
X2443825Y-14980263D01*
X2443825Y-14980263D02*
X2443825Y-15085025D01*
X2539063Y-15085025D02*
X2539063Y-14951691D01*
X2539063Y-14970739D02*
X2548586Y-14961215D01*
X2548586Y-14961215D02*
X2567634Y-14951691D01*
X2567634Y-14951691D02*
X2596206Y-14951691D01*
X2596206Y-14951691D02*
X2615253Y-14961215D01*
X2615253Y-14961215D02*
X2624777Y-14980263D01*
X2624777Y-14980263D02*
X2624777Y-15085025D01*
X2624777Y-14980263D02*
X2634301Y-14961215D01*
X2634301Y-14961215D02*
X2653348Y-14951691D01*
X2653348Y-14951691D02*
X2681920Y-14951691D01*
X2681920Y-14951691D02*
X2700967Y-14961215D01*
X2700967Y-14961215D02*
X2710491Y-14980263D01*
X2710491Y-14980263D02*
X2710491Y-15085025D01*
X3100967Y-14875501D02*
X2929539Y-15132644D01*
X3358110Y-14885025D02*
X3377158Y-14885025D01*
X3377158Y-14885025D02*
X3396206Y-14894548D01*
X3396206Y-14894548D02*
X3405729Y-14904072D01*
X3405729Y-14904072D02*
X3415253Y-14923120D01*
X3415253Y-14923120D02*
X3424777Y-14961215D01*
X3424777Y-14961215D02*
X3424777Y-15008834D01*
X3424777Y-15008834D02*
X3415253Y-15046929D01*
X3415253Y-15046929D02*
X3405729Y-15065977D01*
X3405729Y-15065977D02*
X3396206Y-15075501D01*
X3396206Y-15075501D02*
X3377158Y-15085025D01*
X3377158Y-15085025D02*
X3358110Y-15085025D01*
X3358110Y-15085025D02*
X3339063Y-15075501D01*
X3339063Y-15075501D02*
X3329539Y-15065977D01*
X3329539Y-15065977D02*
X3320015Y-15046929D01*
X3320015Y-15046929D02*
X3310491Y-15008834D01*
X3310491Y-15008834D02*
X3310491Y-14961215D01*
X3310491Y-14961215D02*
X3320015Y-14923120D01*
X3320015Y-14923120D02*
X3329539Y-14904072D01*
X3329539Y-14904072D02*
X3339063Y-14894548D01*
X3339063Y-14894548D02*
X3358110Y-14885025D01*
X3510491Y-15065977D02*
X3520015Y-15075501D01*
X3520015Y-15075501D02*
X3510491Y-15085025D01*
X3510491Y-15085025D02*
X3500967Y-15075501D01*
X3500967Y-15075501D02*
X3510491Y-15065977D01*
X3510491Y-15065977D02*
X3510491Y-15085025D01*
X3643825Y-14885025D02*
X3662872Y-14885025D01*
X3662872Y-14885025D02*
X3681920Y-14894548D01*
X3681920Y-14894548D02*
X3691444Y-14904072D01*
X3691444Y-14904072D02*
X3700967Y-14923120D01*
X3700967Y-14923120D02*
X3710491Y-14961215D01*
X3710491Y-14961215D02*
X3710491Y-15008834D01*
X3710491Y-15008834D02*
X3700967Y-15046929D01*
X3700967Y-15046929D02*
X3691444Y-15065977D01*
X3691444Y-15065977D02*
X3681920Y-15075501D01*
X3681920Y-15075501D02*
X3662872Y-15085025D01*
X3662872Y-15085025D02*
X3643825Y-15085025D01*
X3643825Y-15085025D02*
X3624777Y-15075501D01*
X3624777Y-15075501D02*
X3615253Y-15065977D01*
X3615253Y-15065977D02*
X3605729Y-15046929D01*
X3605729Y-15046929D02*
X3596206Y-15008834D01*
X3596206Y-15008834D02*
X3596206Y-14961215D01*
X3596206Y-14961215D02*
X3605729Y-14923120D01*
X3605729Y-14923120D02*
X3615253Y-14904072D01*
X3615253Y-14904072D02*
X3624777Y-14894548D01*
X3624777Y-14894548D02*
X3643825Y-14885025D01*
X3777158Y-14885025D02*
X3900967Y-14885025D01*
X3900967Y-14885025D02*
X3834301Y-14961215D01*
X3834301Y-14961215D02*
X3862872Y-14961215D01*
X3862872Y-14961215D02*
X3881920Y-14970739D01*
X3881920Y-14970739D02*
X3891444Y-14980263D01*
X3891444Y-14980263D02*
X3900967Y-14999310D01*
X3900967Y-14999310D02*
X3900967Y-15046929D01*
X3900967Y-15046929D02*
X3891444Y-15065977D01*
X3891444Y-15065977D02*
X3881920Y-15075501D01*
X3881920Y-15075501D02*
X3862872Y-15085025D01*
X3862872Y-15085025D02*
X3805729Y-15085025D01*
X3805729Y-15085025D02*
X3786682Y-15075501D01*
X3786682Y-15075501D02*
X3777158Y-15065977D01*
X3996206Y-15085025D02*
X4034301Y-15085025D01*
X4034301Y-15085025D02*
X4053348Y-15075501D01*
X4053348Y-15075501D02*
X4062872Y-15065977D01*
X4062872Y-15065977D02*
X4081920Y-15037405D01*
X4081920Y-15037405D02*
X4091444Y-14999310D01*
X4091444Y-14999310D02*
X4091444Y-14923120D01*
X4091444Y-14923120D02*
X4081920Y-14904072D01*
X4081920Y-14904072D02*
X4072396Y-14894548D01*
X4072396Y-14894548D02*
X4053348Y-14885025D01*
X4053348Y-14885025D02*
X4015253Y-14885025D01*
X4015253Y-14885025D02*
X3996206Y-14894548D01*
X3996206Y-14894548D02*
X3986682Y-14904072D01*
X3986682Y-14904072D02*
X3977158Y-14923120D01*
X3977158Y-14923120D02*
X3977158Y-14970739D01*
X3977158Y-14970739D02*
X3986682Y-14989786D01*
X3986682Y-14989786D02*
X3996206Y-14999310D01*
X3996206Y-14999310D02*
X4015253Y-15008834D01*
X4015253Y-15008834D02*
X4053348Y-15008834D01*
X4053348Y-15008834D02*
X4072396Y-14999310D01*
X4072396Y-14999310D02*
X4081920Y-14989786D01*
X4081920Y-14989786D02*
X4091444Y-14970739D01*
X4262872Y-14951691D02*
X4262872Y-15085025D01*
X4215253Y-14875501D02*
X4167634Y-15018358D01*
X4167634Y-15018358D02*
X4291444Y-15018358D01*
X4358110Y-14885025D02*
X4358110Y-14923120D01*
X4434301Y-14885025D02*
X4434301Y-14923120D01*
X4729539Y-15161215D02*
X4720015Y-15151691D01*
X4720015Y-15151691D02*
X4700968Y-15123120D01*
X4700968Y-15123120D02*
X4691444Y-15104072D01*
X4691444Y-15104072D02*
X4681920Y-15075501D01*
X4681920Y-15075501D02*
X4672396Y-15027882D01*
X4672396Y-15027882D02*
X4672396Y-14989786D01*
X4672396Y-14989786D02*
X4681920Y-14942167D01*
X4681920Y-14942167D02*
X4691444Y-14913596D01*
X4691444Y-14913596D02*
X4700968Y-14894548D01*
X4700968Y-14894548D02*
X4720015Y-14865977D01*
X4720015Y-14865977D02*
X4729539Y-14856453D01*
X4891444Y-14951691D02*
X4891444Y-15085025D01*
X4843825Y-14875501D02*
X4796206Y-15018358D01*
X4796206Y-15018358D02*
X4920015Y-15018358D01*
X5148587Y-15085025D02*
X5148587Y-14885025D01*
X5234301Y-15085025D02*
X5234301Y-14980263D01*
X5234301Y-14980263D02*
X5224777Y-14961215D01*
X5224777Y-14961215D02*
X5205730Y-14951691D01*
X5205730Y-14951691D02*
X5177158Y-14951691D01*
X5177158Y-14951691D02*
X5158111Y-14961215D01*
X5158111Y-14961215D02*
X5148587Y-14970739D01*
X5358111Y-15085025D02*
X5339063Y-15075501D01*
X5339063Y-15075501D02*
X5329539Y-15065977D01*
X5329539Y-15065977D02*
X5320015Y-15046929D01*
X5320015Y-15046929D02*
X5320015Y-14989786D01*
X5320015Y-14989786D02*
X5329539Y-14970739D01*
X5329539Y-14970739D02*
X5339063Y-14961215D01*
X5339063Y-14961215D02*
X5358111Y-14951691D01*
X5358111Y-14951691D02*
X5386682Y-14951691D01*
X5386682Y-14951691D02*
X5405730Y-14961215D01*
X5405730Y-14961215D02*
X5415253Y-14970739D01*
X5415253Y-14970739D02*
X5424777Y-14989786D01*
X5424777Y-14989786D02*
X5424777Y-15046929D01*
X5424777Y-15046929D02*
X5415253Y-15065977D01*
X5415253Y-15065977D02*
X5405730Y-15075501D01*
X5405730Y-15075501D02*
X5386682Y-15085025D01*
X5386682Y-15085025D02*
X5358111Y-15085025D01*
X5539063Y-15085025D02*
X5520015Y-15075501D01*
X5520015Y-15075501D02*
X5510492Y-15056453D01*
X5510492Y-15056453D02*
X5510492Y-14885025D01*
X5691444Y-15075501D02*
X5672396Y-15085025D01*
X5672396Y-15085025D02*
X5634301Y-15085025D01*
X5634301Y-15085025D02*
X5615253Y-15075501D01*
X5615253Y-15075501D02*
X5605730Y-15056453D01*
X5605730Y-15056453D02*
X5605730Y-14980263D01*
X5605730Y-14980263D02*
X5615253Y-14961215D01*
X5615253Y-14961215D02*
X5634301Y-14951691D01*
X5634301Y-14951691D02*
X5672396Y-14951691D01*
X5672396Y-14951691D02*
X5691444Y-14961215D01*
X5691444Y-14961215D02*
X5700968Y-14980263D01*
X5700968Y-14980263D02*
X5700968Y-14999310D01*
X5700968Y-14999310D02*
X5605730Y-15018358D01*
X5777158Y-15075501D02*
X5796206Y-15085025D01*
X5796206Y-15085025D02*
X5834301Y-15085025D01*
X5834301Y-15085025D02*
X5853349Y-15075501D01*
X5853349Y-15075501D02*
X5862872Y-15056453D01*
X5862872Y-15056453D02*
X5862872Y-15046929D01*
X5862872Y-15046929D02*
X5853349Y-15027882D01*
X5853349Y-15027882D02*
X5834301Y-15018358D01*
X5834301Y-15018358D02*
X5805730Y-15018358D01*
X5805730Y-15018358D02*
X5786682Y-15008834D01*
X5786682Y-15008834D02*
X5777158Y-14989786D01*
X5777158Y-14989786D02*
X5777158Y-14980263D01*
X5777158Y-14980263D02*
X5786682Y-14961215D01*
X5786682Y-14961215D02*
X5805730Y-14951691D01*
X5805730Y-14951691D02*
X5834301Y-14951691D01*
X5834301Y-14951691D02*
X5853349Y-14961215D01*
X5929539Y-15161215D02*
X5939063Y-15151691D01*
X5939063Y-15151691D02*
X5958111Y-15123120D01*
X5958111Y-15123120D02*
X5967634Y-15104072D01*
X5967634Y-15104072D02*
X5977158Y-15075501D01*
X5977158Y-15075501D02*
X5986682Y-15027882D01*
X5986682Y-15027882D02*
X5986682Y-14989786D01*
X5986682Y-14989786D02*
X5977158Y-14942167D01*
X5977158Y-14942167D02*
X5967634Y-14913596D01*
X5967634Y-14913596D02*
X5958111Y-14894548D01*
X5958111Y-14894548D02*
X5939063Y-14865977D01*
X5939063Y-14865977D02*
X5929539Y-14856453D01*
D14*
X1099476Y-15202541D02*
X1099476Y-15312541D01*
X1044476Y-15257541D02*
X1154476Y-15257541D01*
D12*
X1520015Y-15349025D02*
X1405729Y-15349025D01*
X1462872Y-15349025D02*
X1462872Y-15149025D01*
X1462872Y-15149025D02*
X1443824Y-15177596D01*
X1443824Y-15177596D02*
X1424777Y-15196644D01*
X1424777Y-15196644D02*
X1405729Y-15206167D01*
X1605729Y-15329977D02*
X1615253Y-15339501D01*
X1615253Y-15339501D02*
X1605729Y-15349025D01*
X1605729Y-15349025D02*
X1596205Y-15339501D01*
X1596205Y-15339501D02*
X1605729Y-15329977D01*
X1605729Y-15329977D02*
X1605729Y-15349025D01*
X1805729Y-15349025D02*
X1691443Y-15349025D01*
X1748586Y-15349025D02*
X1748586Y-15149025D01*
X1748586Y-15149025D02*
X1729539Y-15177596D01*
X1729539Y-15177596D02*
X1710491Y-15196644D01*
X1710491Y-15196644D02*
X1691443Y-15206167D01*
X1929539Y-15149025D02*
X1948586Y-15149025D01*
X1948586Y-15149025D02*
X1967634Y-15158548D01*
X1967634Y-15158548D02*
X1977158Y-15168072D01*
X1977158Y-15168072D02*
X1986682Y-15187120D01*
X1986682Y-15187120D02*
X1996205Y-15225215D01*
X1996205Y-15225215D02*
X1996205Y-15272834D01*
X1996205Y-15272834D02*
X1986682Y-15310929D01*
X1986682Y-15310929D02*
X1977158Y-15329977D01*
X1977158Y-15329977D02*
X1967634Y-15339501D01*
X1967634Y-15339501D02*
X1948586Y-15349025D01*
X1948586Y-15349025D02*
X1929539Y-15349025D01*
X1929539Y-15349025D02*
X1910491Y-15339501D01*
X1910491Y-15339501D02*
X1900967Y-15329977D01*
X1900967Y-15329977D02*
X1891443Y-15310929D01*
X1891443Y-15310929D02*
X1881920Y-15272834D01*
X1881920Y-15272834D02*
X1881920Y-15225215D01*
X1881920Y-15225215D02*
X1891443Y-15187120D01*
X1891443Y-15187120D02*
X1900967Y-15168072D01*
X1900967Y-15168072D02*
X1910491Y-15158548D01*
X1910491Y-15158548D02*
X1929539Y-15149025D01*
X2120015Y-15149025D02*
X2139063Y-15149025D01*
X2139063Y-15149025D02*
X2158110Y-15158548D01*
X2158110Y-15158548D02*
X2167634Y-15168072D01*
X2167634Y-15168072D02*
X2177158Y-15187120D01*
X2177158Y-15187120D02*
X2186682Y-15225215D01*
X2186682Y-15225215D02*
X2186682Y-15272834D01*
X2186682Y-15272834D02*
X2177158Y-15310929D01*
X2177158Y-15310929D02*
X2167634Y-15329977D01*
X2167634Y-15329977D02*
X2158110Y-15339501D01*
X2158110Y-15339501D02*
X2139063Y-15349025D01*
X2139063Y-15349025D02*
X2120015Y-15349025D01*
X2120015Y-15349025D02*
X2100967Y-15339501D01*
X2100967Y-15339501D02*
X2091443Y-15329977D01*
X2091443Y-15329977D02*
X2081920Y-15310929D01*
X2081920Y-15310929D02*
X2072396Y-15272834D01*
X2072396Y-15272834D02*
X2072396Y-15225215D01*
X2072396Y-15225215D02*
X2081920Y-15187120D01*
X2081920Y-15187120D02*
X2091443Y-15168072D01*
X2091443Y-15168072D02*
X2100967Y-15158548D01*
X2100967Y-15158548D02*
X2120015Y-15149025D01*
X2272396Y-15349025D02*
X2272396Y-15215691D01*
X2272396Y-15234739D02*
X2281920Y-15225215D01*
X2281920Y-15225215D02*
X2300967Y-15215691D01*
X2300967Y-15215691D02*
X2329539Y-15215691D01*
X2329539Y-15215691D02*
X2348586Y-15225215D01*
X2348586Y-15225215D02*
X2358110Y-15244263D01*
X2358110Y-15244263D02*
X2358110Y-15349025D01*
X2358110Y-15244263D02*
X2367634Y-15225215D01*
X2367634Y-15225215D02*
X2386682Y-15215691D01*
X2386682Y-15215691D02*
X2415253Y-15215691D01*
X2415253Y-15215691D02*
X2434301Y-15225215D01*
X2434301Y-15225215D02*
X2443825Y-15244263D01*
X2443825Y-15244263D02*
X2443825Y-15349025D01*
X2539063Y-15349025D02*
X2539063Y-15215691D01*
X2539063Y-15234739D02*
X2548586Y-15225215D01*
X2548586Y-15225215D02*
X2567634Y-15215691D01*
X2567634Y-15215691D02*
X2596206Y-15215691D01*
X2596206Y-15215691D02*
X2615253Y-15225215D01*
X2615253Y-15225215D02*
X2624777Y-15244263D01*
X2624777Y-15244263D02*
X2624777Y-15349025D01*
X2624777Y-15244263D02*
X2634301Y-15225215D01*
X2634301Y-15225215D02*
X2653348Y-15215691D01*
X2653348Y-15215691D02*
X2681920Y-15215691D01*
X2681920Y-15215691D02*
X2700967Y-15225215D01*
X2700967Y-15225215D02*
X2710491Y-15244263D01*
X2710491Y-15244263D02*
X2710491Y-15349025D01*
X3100967Y-15139501D02*
X2929539Y-15396644D01*
X3358110Y-15149025D02*
X3377158Y-15149025D01*
X3377158Y-15149025D02*
X3396206Y-15158548D01*
X3396206Y-15158548D02*
X3405729Y-15168072D01*
X3405729Y-15168072D02*
X3415253Y-15187120D01*
X3415253Y-15187120D02*
X3424777Y-15225215D01*
X3424777Y-15225215D02*
X3424777Y-15272834D01*
X3424777Y-15272834D02*
X3415253Y-15310929D01*
X3415253Y-15310929D02*
X3405729Y-15329977D01*
X3405729Y-15329977D02*
X3396206Y-15339501D01*
X3396206Y-15339501D02*
X3377158Y-15349025D01*
X3377158Y-15349025D02*
X3358110Y-15349025D01*
X3358110Y-15349025D02*
X3339063Y-15339501D01*
X3339063Y-15339501D02*
X3329539Y-15329977D01*
X3329539Y-15329977D02*
X3320015Y-15310929D01*
X3320015Y-15310929D02*
X3310491Y-15272834D01*
X3310491Y-15272834D02*
X3310491Y-15225215D01*
X3310491Y-15225215D02*
X3320015Y-15187120D01*
X3320015Y-15187120D02*
X3329539Y-15168072D01*
X3329539Y-15168072D02*
X3339063Y-15158548D01*
X3339063Y-15158548D02*
X3358110Y-15149025D01*
X3510491Y-15329977D02*
X3520015Y-15339501D01*
X3520015Y-15339501D02*
X3510491Y-15349025D01*
X3510491Y-15349025D02*
X3500967Y-15339501D01*
X3500967Y-15339501D02*
X3510491Y-15329977D01*
X3510491Y-15329977D02*
X3510491Y-15349025D01*
X3643825Y-15149025D02*
X3662872Y-15149025D01*
X3662872Y-15149025D02*
X3681920Y-15158548D01*
X3681920Y-15158548D02*
X3691444Y-15168072D01*
X3691444Y-15168072D02*
X3700967Y-15187120D01*
X3700967Y-15187120D02*
X3710491Y-15225215D01*
X3710491Y-15225215D02*
X3710491Y-15272834D01*
X3710491Y-15272834D02*
X3700967Y-15310929D01*
X3700967Y-15310929D02*
X3691444Y-15329977D01*
X3691444Y-15329977D02*
X3681920Y-15339501D01*
X3681920Y-15339501D02*
X3662872Y-15349025D01*
X3662872Y-15349025D02*
X3643825Y-15349025D01*
X3643825Y-15349025D02*
X3624777Y-15339501D01*
X3624777Y-15339501D02*
X3615253Y-15329977D01*
X3615253Y-15329977D02*
X3605729Y-15310929D01*
X3605729Y-15310929D02*
X3596206Y-15272834D01*
X3596206Y-15272834D02*
X3596206Y-15225215D01*
X3596206Y-15225215D02*
X3605729Y-15187120D01*
X3605729Y-15187120D02*
X3615253Y-15168072D01*
X3615253Y-15168072D02*
X3624777Y-15158548D01*
X3624777Y-15158548D02*
X3643825Y-15149025D01*
X3881920Y-15215691D02*
X3881920Y-15349025D01*
X3834301Y-15139501D02*
X3786682Y-15282358D01*
X3786682Y-15282358D02*
X3910491Y-15282358D01*
X3967634Y-15149025D02*
X4091444Y-15149025D01*
X4091444Y-15149025D02*
X4024777Y-15225215D01*
X4024777Y-15225215D02*
X4053348Y-15225215D01*
X4053348Y-15225215D02*
X4072396Y-15234739D01*
X4072396Y-15234739D02*
X4081920Y-15244263D01*
X4081920Y-15244263D02*
X4091444Y-15263310D01*
X4091444Y-15263310D02*
X4091444Y-15310929D01*
X4091444Y-15310929D02*
X4081920Y-15329977D01*
X4081920Y-15329977D02*
X4072396Y-15339501D01*
X4072396Y-15339501D02*
X4053348Y-15349025D01*
X4053348Y-15349025D02*
X3996206Y-15349025D01*
X3996206Y-15349025D02*
X3977158Y-15339501D01*
X3977158Y-15339501D02*
X3967634Y-15329977D01*
X4158110Y-15149025D02*
X4281920Y-15149025D01*
X4281920Y-15149025D02*
X4215253Y-15225215D01*
X4215253Y-15225215D02*
X4243825Y-15225215D01*
X4243825Y-15225215D02*
X4262872Y-15234739D01*
X4262872Y-15234739D02*
X4272396Y-15244263D01*
X4272396Y-15244263D02*
X4281920Y-15263310D01*
X4281920Y-15263310D02*
X4281920Y-15310929D01*
X4281920Y-15310929D02*
X4272396Y-15329977D01*
X4272396Y-15329977D02*
X4262872Y-15339501D01*
X4262872Y-15339501D02*
X4243825Y-15349025D01*
X4243825Y-15349025D02*
X4186682Y-15349025D01*
X4186682Y-15349025D02*
X4167634Y-15339501D01*
X4167634Y-15339501D02*
X4158110Y-15329977D01*
X4358110Y-15149025D02*
X4358110Y-15187120D01*
X4434301Y-15149025D02*
X4434301Y-15187120D01*
X4729539Y-15425215D02*
X4720015Y-15415691D01*
X4720015Y-15415691D02*
X4700968Y-15387120D01*
X4700968Y-15387120D02*
X4691444Y-15368072D01*
X4691444Y-15368072D02*
X4681920Y-15339501D01*
X4681920Y-15339501D02*
X4672396Y-15291882D01*
X4672396Y-15291882D02*
X4672396Y-15253786D01*
X4672396Y-15253786D02*
X4681920Y-15206167D01*
X4681920Y-15206167D02*
X4691444Y-15177596D01*
X4691444Y-15177596D02*
X4700968Y-15158548D01*
X4700968Y-15158548D02*
X4720015Y-15129977D01*
X4720015Y-15129977D02*
X4729539Y-15120453D01*
X4796206Y-15168072D02*
X4805730Y-15158548D01*
X4805730Y-15158548D02*
X4824777Y-15149025D01*
X4824777Y-15149025D02*
X4872396Y-15149025D01*
X4872396Y-15149025D02*
X4891444Y-15158548D01*
X4891444Y-15158548D02*
X4900968Y-15168072D01*
X4900968Y-15168072D02*
X4910491Y-15187120D01*
X4910491Y-15187120D02*
X4910491Y-15206167D01*
X4910491Y-15206167D02*
X4900968Y-15234739D01*
X4900968Y-15234739D02*
X4786682Y-15349025D01*
X4786682Y-15349025D02*
X4910491Y-15349025D01*
X5081920Y-15215691D02*
X5081920Y-15349025D01*
X5034301Y-15139501D02*
X4986682Y-15282358D01*
X4986682Y-15282358D02*
X5110491Y-15282358D01*
X5339063Y-15349025D02*
X5339063Y-15149025D01*
X5424777Y-15349025D02*
X5424777Y-15244263D01*
X5424777Y-15244263D02*
X5415253Y-15225215D01*
X5415253Y-15225215D02*
X5396206Y-15215691D01*
X5396206Y-15215691D02*
X5367634Y-15215691D01*
X5367634Y-15215691D02*
X5348587Y-15225215D01*
X5348587Y-15225215D02*
X5339063Y-15234739D01*
X5548587Y-15349025D02*
X5529539Y-15339501D01*
X5529539Y-15339501D02*
X5520015Y-15329977D01*
X5520015Y-15329977D02*
X5510492Y-15310929D01*
X5510492Y-15310929D02*
X5510492Y-15253786D01*
X5510492Y-15253786D02*
X5520015Y-15234739D01*
X5520015Y-15234739D02*
X5529539Y-15225215D01*
X5529539Y-15225215D02*
X5548587Y-15215691D01*
X5548587Y-15215691D02*
X5577158Y-15215691D01*
X5577158Y-15215691D02*
X5596206Y-15225215D01*
X5596206Y-15225215D02*
X5605730Y-15234739D01*
X5605730Y-15234739D02*
X5615253Y-15253786D01*
X5615253Y-15253786D02*
X5615253Y-15310929D01*
X5615253Y-15310929D02*
X5605730Y-15329977D01*
X5605730Y-15329977D02*
X5596206Y-15339501D01*
X5596206Y-15339501D02*
X5577158Y-15349025D01*
X5577158Y-15349025D02*
X5548587Y-15349025D01*
X5729539Y-15349025D02*
X5710491Y-15339501D01*
X5710491Y-15339501D02*
X5700968Y-15320453D01*
X5700968Y-15320453D02*
X5700968Y-15149025D01*
X5881920Y-15339501D02*
X5862872Y-15349025D01*
X5862872Y-15349025D02*
X5824777Y-15349025D01*
X5824777Y-15349025D02*
X5805730Y-15339501D01*
X5805730Y-15339501D02*
X5796206Y-15320453D01*
X5796206Y-15320453D02*
X5796206Y-15244263D01*
X5796206Y-15244263D02*
X5805730Y-15225215D01*
X5805730Y-15225215D02*
X5824777Y-15215691D01*
X5824777Y-15215691D02*
X5862872Y-15215691D01*
X5862872Y-15215691D02*
X5881920Y-15225215D01*
X5881920Y-15225215D02*
X5891444Y-15244263D01*
X5891444Y-15244263D02*
X5891444Y-15263310D01*
X5891444Y-15263310D02*
X5796206Y-15282358D01*
X5967634Y-15339501D02*
X5986682Y-15349025D01*
X5986682Y-15349025D02*
X6024777Y-15349025D01*
X6024777Y-15349025D02*
X6043825Y-15339501D01*
X6043825Y-15339501D02*
X6053349Y-15320453D01*
X6053349Y-15320453D02*
X6053349Y-15310929D01*
X6053349Y-15310929D02*
X6043825Y-15291882D01*
X6043825Y-15291882D02*
X6024777Y-15282358D01*
X6024777Y-15282358D02*
X5996206Y-15282358D01*
X5996206Y-15282358D02*
X5977158Y-15272834D01*
X5977158Y-15272834D02*
X5967634Y-15253786D01*
X5967634Y-15253786D02*
X5967634Y-15244263D01*
X5967634Y-15244263D02*
X5977158Y-15225215D01*
X5977158Y-15225215D02*
X5996206Y-15215691D01*
X5996206Y-15215691D02*
X6024777Y-15215691D01*
X6024777Y-15215691D02*
X6043825Y-15225215D01*
X6120015Y-15425215D02*
X6129539Y-15415691D01*
X6129539Y-15415691D02*
X6148587Y-15387120D01*
X6148587Y-15387120D02*
X6158111Y-15368072D01*
X6158111Y-15368072D02*
X6167634Y-15339501D01*
X6167634Y-15339501D02*
X6177158Y-15291882D01*
X6177158Y-15291882D02*
X6177158Y-15253786D01*
X6177158Y-15253786D02*
X6167634Y-15206167D01*
X6167634Y-15206167D02*
X6158111Y-15177596D01*
X6158111Y-15177596D02*
X6148587Y-15158548D01*
X6148587Y-15158548D02*
X6129539Y-15129977D01*
X6129539Y-15129977D02*
X6120015Y-15120453D01*
M02*
