G04 #@! TF.GenerationSoftware,KiCad,Pcbnew,8.0.4*
G04 #@! TF.CreationDate,2024-08-14T21:54:49+09:00*
G04 #@! TF.ProjectId,TrueStrike42,54727565-5374-4726-996b-6534322e6b69,rev?*
G04 #@! TF.SameCoordinates,Original*
G04 #@! TF.FileFunction,Soldermask,Bot*
G04 #@! TF.FilePolarity,Negative*
%FSLAX46Y46*%
G04 Gerber Fmt 4.6, Leading zero omitted, Abs format (unit mm)*
G04 Created by KiCad (PCBNEW 8.0.4) date 2024-08-14 21:54:49*
%MOMM*%
%LPD*%
G01*
G04 APERTURE LIST*
G04 Aperture macros list*
%AMRoundRect*
0 Rectangle with rounded corners*
0 $1 Rounding radius*
0 $2 $3 $4 $5 $6 $7 $8 $9 X,Y pos of 4 corners*
0 Add a 4 corners polygon primitive as box body*
4,1,4,$2,$3,$4,$5,$6,$7,$8,$9,$2,$3,0*
0 Add four circle primitives for the rounded corners*
1,1,$1+$1,$2,$3*
1,1,$1+$1,$4,$5*
1,1,$1+$1,$6,$7*
1,1,$1+$1,$8,$9*
0 Add four rect primitives between the rounded corners*
20,1,$1+$1,$2,$3,$4,$5,0*
20,1,$1+$1,$4,$5,$6,$7,0*
20,1,$1+$1,$6,$7,$8,$9,0*
20,1,$1+$1,$8,$9,$2,$3,0*%
%AMRotRect*
0 Rectangle, with rotation*
0 The origin of the aperture is its center*
0 $1 length*
0 $2 width*
0 $3 Rotation angle, in degrees counterclockwise*
0 Add horizontal line*
21,1,$1,$2,0,0,$3*%
G04 Aperture macros list end*
%ADD10C,1.701800*%
%ADD11RoundRect,0.150000X-0.528659X-0.296945X0.606304X0.007167X0.528659X0.296945X-0.606304X-0.007167X0*%
%ADD12RoundRect,0.150000X-0.606304X0.007167X0.528659X-0.296945X0.606304X-0.007167X-0.528659X0.296945X0*%
%ADD13RoundRect,0.150000X-0.587500X-0.150000X0.587500X-0.150000X0.587500X0.150000X-0.587500X0.150000X0*%
%ADD14C,2.200000*%
%ADD15C,3.500000*%
%ADD16C,1.600000*%
%ADD17R,1.600000X1.600000*%
%ADD18RotRect,1.250000X0.900000X15.000000*%
%ADD19RotRect,1.240000X0.900000X15.000000*%
%ADD20RotRect,1.250000X0.900000X165.000000*%
%ADD21RotRect,1.250000X0.900000X195.000000*%
%ADD22RotRect,1.250000X0.900000X345.000000*%
%ADD23RotRect,1.240000X0.900000X345.000000*%
%ADD24RotRect,1.250000X0.900000X30.000000*%
%ADD25RotRect,1.240000X0.900000X30.000000*%
%ADD26R,1.250000X0.900000*%
%ADD27R,1.240000X0.900000*%
%ADD28RotRect,1.250000X0.900000X330.000000*%
%ADD29RotRect,1.240000X0.900000X330.000000*%
%ADD30R,1.250000X1.000000*%
%ADD31O,1.600000X2.000000*%
%ADD32RoundRect,0.250000X-0.546166X0.203061X-0.371463X-0.448939X0.546166X-0.203061X0.371463X0.448939X0*%
%ADD33RoundRect,0.250000X-0.475000X0.337500X-0.475000X-0.337500X0.475000X-0.337500X0.475000X0.337500X0*%
%ADD34RoundRect,0.150000X0.758066X0.358415X-0.835712X-0.068637X-0.758066X-0.358415X0.835712X0.068637X0*%
%ADD35RoundRect,0.250000X-0.371463X0.448939X-0.546166X-0.203061X0.371463X-0.448939X0.546166X0.203061X0*%
%ADD36RoundRect,0.250000X-0.448939X-0.371463X0.203061X-0.546166X0.448939X0.371463X-0.203061X0.546166X0*%
%ADD37RoundRect,0.250000X0.337500X0.475000X-0.337500X0.475000X-0.337500X-0.475000X0.337500X-0.475000X0*%
%ADD38RoundRect,0.250000X-0.203061X-0.546166X0.448939X-0.371463X0.203061X0.546166X-0.448939X0.371463X0*%
%ADD39RoundRect,0.150000X0.825000X0.150000X-0.825000X0.150000X-0.825000X-0.150000X0.825000X-0.150000X0*%
%ADD40RoundRect,0.250000X-0.580112X0.054784X-0.242612X-0.529784X0.580112X-0.054784X0.242612X0.529784X0*%
%ADD41RoundRect,0.150000X0.835712X-0.068637X-0.758066X0.358415X-0.835712X0.068637X0.758066X-0.358415X0*%
%ADD42RoundRect,0.250000X0.242612X-0.529784X0.580112X0.054784X-0.242612X0.529784X-0.580112X-0.054784X0*%
%ADD43RoundRect,0.250000X-0.242612X0.529784X-0.580112X-0.054784X0.242612X-0.529784X0.580112X0.054784X0*%
%ADD44RoundRect,0.150000X-0.583790X0.163846X0.433790X-0.423654X0.583790X-0.163846X-0.433790X0.423654X0*%
%ADD45C,3.987800*%
%ADD46C,3.048000*%
%ADD47RoundRect,0.150000X-0.433790X-0.423654X0.583790X0.163846X0.433790X0.423654X-0.583790X-0.163846X0*%
G04 APERTURE END LIST*
D10*
X269233866Y-85584226D03*
X279047672Y-82954624D03*
D11*
X274800446Y-83109153D03*
X275292203Y-84944412D03*
X273235214Y-84512068D03*
D10*
X27626782Y-46152854D03*
X37440588Y-48782456D03*
D12*
X33685119Y-46792668D03*
X33193362Y-48627927D03*
X31628130Y-47225012D03*
D10*
X259372843Y-48782458D03*
X269186649Y-46152856D03*
D11*
X264939423Y-46307385D03*
X265431180Y-48142644D03*
X263374191Y-47710300D03*
D10*
X218403142Y-107290409D03*
X228563142Y-107290409D03*
D13*
X224420642Y-106340409D03*
X224420642Y-108240409D03*
X222545642Y-107290409D03*
D10*
X77898941Y-79345259D03*
X87712747Y-81974861D03*
D12*
X83957278Y-79985073D03*
X83465521Y-81820332D03*
X81900289Y-80417417D03*
D10*
X239739336Y-49112738D03*
X249553142Y-46483136D03*
D11*
X245305916Y-46637665D03*
X245797673Y-48472924D03*
X243740684Y-48040580D03*
D10*
X244669839Y-67513624D03*
X254483645Y-64884022D03*
D11*
X250236419Y-65038551D03*
X250728176Y-66873810D03*
X248671187Y-66441466D03*
D10*
X122918217Y-58538126D03*
X132732023Y-61167728D03*
D12*
X128976554Y-59177940D03*
X128484797Y-61013199D03*
X126919565Y-59610284D03*
D10*
X169011913Y-79568606D03*
X178825719Y-76939004D03*
D11*
X174578493Y-77093533D03*
X175070250Y-78928792D03*
X173013261Y-78496448D03*
D10*
X37399279Y-83284912D03*
X47213085Y-85914514D03*
D12*
X43457616Y-83924726D03*
X42965859Y-85759985D03*
X41400627Y-84357070D03*
D10*
X187412810Y-74638102D03*
X197226616Y-72008500D03*
D11*
X192979390Y-72163029D03*
X193471147Y-73998288D03*
X191414158Y-73565944D03*
D10*
X192343307Y-93038984D03*
X202157113Y-90409382D03*
D11*
X197909887Y-90563911D03*
X198401644Y-92399170D03*
X196344655Y-91966826D03*
D10*
X89725820Y-108810270D03*
X99539626Y-111439872D03*
D12*
X95784157Y-109450084D03*
X95292400Y-111285343D03*
X93727168Y-109882428D03*
D10*
X199239687Y-45173087D03*
X209053493Y-42543485D03*
D11*
X204806267Y-42698014D03*
X205298024Y-44533273D03*
X203241035Y-44100929D03*
D10*
X17765770Y-82954638D03*
X27579576Y-85584240D03*
D12*
X23824107Y-83594452D03*
X23332350Y-85429711D03*
X21767118Y-84026796D03*
D10*
X63195923Y-60614103D03*
X73009729Y-63243705D03*
D12*
X69254260Y-61253917D03*
X68762503Y-63089176D03*
X67197271Y-61686261D03*
D10*
X104517336Y-53607615D03*
X114331142Y-56237217D03*
D12*
X110575673Y-54247429D03*
X110083916Y-56082688D03*
X108518684Y-54679773D03*
D10*
X99586824Y-72008494D03*
X109400630Y-74638096D03*
D12*
X105645161Y-72648308D03*
X105153404Y-74483567D03*
X103588172Y-73080652D03*
D10*
X87759932Y-42543474D03*
X97573738Y-45173076D03*
D12*
X93818269Y-43183288D03*
X93326512Y-45018547D03*
X91761280Y-43615632D03*
D10*
X164081417Y-61167715D03*
X173895223Y-58538113D03*
D11*
X169647997Y-58692642D03*
X170139754Y-60527901D03*
X168082765Y-60095557D03*
D10*
X58265434Y-79014977D03*
X68079240Y-81644579D03*
D12*
X64323771Y-79654791D03*
X63832014Y-81490050D03*
X62266782Y-80087135D03*
D10*
X94656329Y-90409391D03*
X104470135Y-93038993D03*
D12*
X100714666Y-91049205D03*
X100222909Y-92884464D03*
X98657677Y-91481549D03*
D10*
X223803700Y-63243677D03*
X233617506Y-60614075D03*
D11*
X229370280Y-60768604D03*
X229862037Y-62603863D03*
X227805048Y-62171519D03*
D10*
X113057212Y-95339887D03*
X122871018Y-97969489D03*
D12*
X119115549Y-95979701D03*
X118623792Y-97814960D03*
X117058560Y-96412045D03*
D10*
X68150293Y-107290405D03*
X78310293Y-107290405D03*
D13*
X74167793Y-106340405D03*
X74167793Y-108240405D03*
X72292793Y-107290405D03*
D10*
X218873190Y-44842792D03*
X228686996Y-42213190D03*
D11*
X224439770Y-42367719D03*
X224931527Y-44202978D03*
X222874538Y-43770634D03*
D10*
X182482296Y-56237211D03*
X192296102Y-53607609D03*
D11*
X188048876Y-53762138D03*
X188540633Y-55597397D03*
X186483644Y-55165053D03*
D10*
X117987720Y-76939013D03*
X127801526Y-79568615D03*
D12*
X124046057Y-77578827D03*
X123554300Y-79414086D03*
X121989068Y-78011171D03*
D10*
X228734199Y-81644574D03*
X238548005Y-79014972D03*
D11*
X234300779Y-79169501D03*
X234792536Y-81004760D03*
X232735547Y-80572416D03*
D10*
X264303348Y-67183346D03*
X274117154Y-64553744D03*
D11*
X269869928Y-64708273D03*
X270361685Y-66543532D03*
X268304696Y-66111188D03*
D10*
X173942419Y-97969484D03*
X183756225Y-95339882D03*
D11*
X179508999Y-95494411D03*
X180000756Y-97329670D03*
X177943767Y-96897326D03*
D10*
X197273812Y-111439871D03*
X207087618Y-108810269D03*
D11*
X202840392Y-108964798D03*
X203332149Y-110800057D03*
X201275160Y-110367713D03*
D10*
X22696277Y-64553746D03*
X32510083Y-67183348D03*
D12*
X28754614Y-65193560D03*
X28262857Y-67028819D03*
X26697625Y-65625904D03*
D10*
X209100690Y-81974858D03*
X218914496Y-79345256D03*
D11*
X214667270Y-79499785D03*
X215159027Y-81335044D03*
X213102038Y-80902700D03*
D10*
X42329787Y-64884024D03*
X52143593Y-67513626D03*
D12*
X48388124Y-65523838D03*
X47896367Y-67359097D03*
X46331135Y-65956182D03*
D10*
X249600344Y-85914509D03*
X259414150Y-83284907D03*
D11*
X255166924Y-83439436D03*
X255658681Y-85274695D03*
X253601692Y-84842351D03*
D10*
X82829438Y-60944362D03*
X92643244Y-63573964D03*
D12*
X88887775Y-61584176D03*
X88396018Y-63419435D03*
X86830786Y-62016520D03*
D10*
X47260283Y-46483137D03*
X57074089Y-49112739D03*
D12*
X53318620Y-47122951D03*
X52826863Y-48958210D03*
X51261631Y-47555295D03*
D10*
X68126424Y-42213201D03*
X77940230Y-44842803D03*
D12*
X74184761Y-42853015D03*
X73693004Y-44688274D03*
X72127772Y-43285359D03*
D10*
X204170180Y-63573968D03*
X213983986Y-60944366D03*
D11*
X209736760Y-61098895D03*
X210228517Y-62934154D03*
X208171528Y-62501810D03*
D14*
X136373743Y-82378056D03*
X160273736Y-82378060D03*
X130373743Y-110878058D03*
X165573738Y-110878062D03*
D15*
X105350814Y-41690399D03*
X33450821Y-96290401D03*
X42650814Y-38090402D03*
X105050816Y-112390399D03*
D16*
X140730816Y-54420402D03*
X140730816Y-56960398D03*
X140730816Y-59500396D03*
X140730821Y-62040398D03*
X140730816Y-64580398D03*
X140730816Y-67120398D03*
X140730816Y-69660398D03*
X140730817Y-72200399D03*
X140730821Y-74740398D03*
X140730816Y-77280400D03*
X140730816Y-79820398D03*
X140730815Y-82360394D03*
X155970816Y-82360394D03*
X155970816Y-79820398D03*
X155970816Y-77280400D03*
X155970811Y-74740398D03*
X155970816Y-72200398D03*
X155970816Y-69660398D03*
X155970816Y-67120398D03*
X155970815Y-64580397D03*
X155970811Y-62040398D03*
X155970816Y-59500396D03*
X155970816Y-56960398D03*
D17*
X155970817Y-54420402D03*
D18*
X196620084Y-77877970D03*
X196231856Y-76429083D03*
D19*
X190479767Y-77970350D03*
D18*
X190872824Y-79417945D03*
D20*
X28621536Y-50573453D03*
X28233307Y-52022340D03*
X33980568Y-53562315D03*
X34368797Y-52113428D03*
X114051972Y-99760475D03*
X113663743Y-101209362D03*
X119411004Y-102749337D03*
X119799233Y-101300450D03*
D21*
X185554084Y-59568184D03*
X185942312Y-61017071D03*
X191689572Y-59477096D03*
X191301344Y-58028209D03*
D20*
X95651093Y-94829976D03*
X95262864Y-96278863D03*
X101010125Y-97818838D03*
X101398354Y-96369951D03*
D22*
X48683584Y-72293485D03*
X49071813Y-70844598D03*
D23*
X43319723Y-69303329D03*
D22*
X42936323Y-70753510D03*
D21*
X221944985Y-48173771D03*
X222333213Y-49622658D03*
X228080473Y-48082683D03*
X227692245Y-46633796D03*
D20*
X59260178Y-83435567D03*
X58871949Y-84884454D03*
X64619210Y-86424429D03*
X65007439Y-84975542D03*
X18760538Y-87375229D03*
X18372309Y-88824116D03*
X24119570Y-90364091D03*
X24507799Y-88915204D03*
D18*
X233010976Y-66483565D03*
X232622748Y-65034678D03*
D19*
X226870659Y-66575945D03*
D18*
X227263716Y-68023540D03*
D21*
X177014200Y-101300450D03*
X177402428Y-102749337D03*
X183149688Y-101209362D03*
X182761460Y-99760475D03*
D22*
X96079612Y-116219725D03*
X96467841Y-114770838D03*
D23*
X90715751Y-113229569D03*
D22*
X90332351Y-114679750D03*
D18*
X273510628Y-70423222D03*
X273122400Y-68974335D03*
D19*
X267370311Y-70515602D03*
D18*
X267763368Y-71963197D03*
D21*
X195415100Y-96369956D03*
X195803328Y-97818843D03*
X201550588Y-96278868D03*
X201162360Y-94829981D03*
X212172478Y-85305822D03*
X212560706Y-86754709D03*
X218307966Y-85214734D03*
X217919738Y-83765847D03*
D18*
X206481077Y-114679758D03*
X206092849Y-113230871D03*
D19*
X200340760Y-114772138D03*
D18*
X200733817Y-116219733D03*
D24*
X179315818Y-126376878D03*
X178565818Y-125077842D03*
D25*
X173408635Y-128055342D03*
D24*
X174162964Y-129351880D03*
D22*
X29050078Y-71963194D03*
X29438307Y-70514307D03*
D23*
X23686217Y-68973038D03*
D22*
X23302817Y-70423219D03*
D20*
X38394047Y-87705497D03*
X38005818Y-89154384D03*
X43753079Y-90694359D03*
X44141308Y-89245472D03*
D22*
X89183240Y-68353812D03*
X89571469Y-66904925D03*
D23*
X83819379Y-65363656D03*
D22*
X83435979Y-66813837D03*
D18*
X253877118Y-70753493D03*
X253488890Y-69304606D03*
D19*
X247736801Y-70845873D03*
D18*
X248129858Y-72293468D03*
D26*
X226458145Y-112802919D03*
X226458145Y-111302919D03*
D27*
X220503145Y-111302919D03*
D26*
X220508145Y-112802919D03*
D20*
X78893706Y-83765849D03*
X78505477Y-85214736D03*
X84252738Y-86754711D03*
X84640967Y-85305824D03*
D18*
X178219184Y-82808488D03*
X177830956Y-81359601D03*
D19*
X172078867Y-82900868D03*
D18*
X172471924Y-84348463D03*
D20*
X69121191Y-46633782D03*
X68732962Y-48082669D03*
X74480223Y-49622644D03*
X74868452Y-48173757D03*
X88754708Y-46964078D03*
X88366479Y-48412965D03*
X94113740Y-49952940D03*
X94501969Y-48504053D03*
X123912979Y-62958700D03*
X123524750Y-64407587D03*
X129272011Y-65947562D03*
X129660240Y-64498675D03*
D21*
X231805989Y-84975539D03*
X232194217Y-86424426D03*
X237941477Y-84884451D03*
X237553249Y-83435564D03*
D18*
X213377457Y-66813850D03*
X212989229Y-65364963D03*
D19*
X207237140Y-66906230D03*
D18*
X207630197Y-68353825D03*
D21*
X272305635Y-88915198D03*
X272693863Y-90364085D03*
X278441123Y-88824110D03*
X278052895Y-87375223D03*
X242811121Y-52443713D03*
X243199349Y-53892600D03*
X248946609Y-52352625D03*
X248558381Y-50903738D03*
X202311470Y-48504053D03*
X202699698Y-49952940D03*
X208446958Y-48412965D03*
X208058730Y-46964078D03*
D22*
X124341506Y-84348450D03*
X124729735Y-82899563D03*
D23*
X118977645Y-81358294D03*
D22*
X118594245Y-82808475D03*
D21*
X262444628Y-52113433D03*
X262832856Y-53562320D03*
X268580116Y-52022345D03*
X268191888Y-50573458D03*
X252672128Y-89245485D03*
X253060356Y-90694372D03*
X258807616Y-89154397D03*
X258419388Y-87705510D03*
D20*
X48255065Y-50903726D03*
X47866836Y-52352613D03*
X53614097Y-53892588D03*
X54002326Y-52443701D03*
D22*
X105940633Y-79417953D03*
X106328862Y-77969066D03*
D23*
X100576772Y-76427797D03*
D22*
X100193372Y-77877978D03*
X69549722Y-68023539D03*
X69937951Y-66574652D03*
D23*
X64185861Y-65033383D03*
D22*
X63802461Y-66483564D03*
D21*
X167153200Y-64498670D03*
X167541428Y-65947557D03*
X173288688Y-64407582D03*
X172900460Y-62958695D03*
D26*
X76205295Y-112802903D03*
X76205295Y-111302903D03*
D27*
X70250295Y-111302903D03*
D26*
X70255295Y-112802903D03*
D20*
X105512073Y-58028203D03*
X105123844Y-59477090D03*
X110871105Y-61017065D03*
X111259334Y-59568178D03*
D28*
X122550469Y-129351882D03*
X123300471Y-128052844D03*
D29*
X118143288Y-125075342D03*
D28*
X117397617Y-126376878D03*
D30*
X144544755Y-102967878D03*
X152294755Y-102967880D03*
D31*
X144319752Y-111367893D03*
X146859750Y-111367888D03*
X151939751Y-111367891D03*
X149399753Y-111367886D03*
D32*
X168330155Y-76892709D03*
X167793105Y-74888413D03*
D33*
X78239323Y-104724449D03*
X78239327Y-102649445D03*
D34*
X177022345Y-62959409D03*
X177351045Y-64186134D03*
X177679745Y-65412860D03*
X178008445Y-66639587D03*
X178337145Y-67866312D03*
X178665846Y-69093038D03*
X178994547Y-70319760D03*
X179323245Y-71546489D03*
X184104579Y-70265335D03*
X183775879Y-69038610D03*
X183447179Y-67811884D03*
X183118479Y-66585157D03*
X182789779Y-65358432D03*
X182461078Y-64131706D03*
X182132377Y-62904984D03*
X181803679Y-61678255D03*
D32*
X181835881Y-53500078D03*
X181298831Y-51495782D03*
D35*
X38184301Y-45992002D03*
X38721351Y-43987706D03*
D32*
X218126962Y-42119483D03*
X217589912Y-40115187D03*
D35*
X78635419Y-42233450D03*
X79172469Y-40229154D03*
D36*
X119626825Y-57656191D03*
X117622529Y-57119141D03*
D35*
X115023068Y-53639946D03*
X115560118Y-51635650D03*
D37*
X143762487Y-121949990D03*
X145837495Y-121949990D03*
D35*
X128483981Y-76813506D03*
X129021031Y-74809210D03*
D37*
X150462816Y-86639523D03*
X152537824Y-86639523D03*
D35*
X104028840Y-90034541D03*
X104565890Y-88030245D03*
D38*
X184121408Y-75520029D03*
X182117112Y-76057079D03*
D35*
X123240820Y-103793777D03*
X123777870Y-101789481D03*
D32*
X268490853Y-82872980D03*
X267953803Y-80868684D03*
D35*
X108779112Y-71533601D03*
X109316162Y-69529305D03*
D32*
X163622474Y-67050797D03*
X163085424Y-65046501D03*
D34*
X182043393Y-81336026D03*
X182372093Y-82562751D03*
X182700793Y-83789477D03*
X183029493Y-85016204D03*
X183358193Y-86242929D03*
X183686894Y-87469655D03*
X184015595Y-88696377D03*
X184344293Y-89923106D03*
X189125627Y-88641952D03*
X188796927Y-87415227D03*
X188468227Y-86188501D03*
X188139527Y-84961774D03*
X187810827Y-83735049D03*
X187482126Y-82508323D03*
X187153425Y-81281601D03*
X186824727Y-80054872D03*
D39*
X155825327Y-86594515D03*
X155825332Y-87864517D03*
X155825327Y-89134513D03*
X155825327Y-90404514D03*
X155825327Y-91674514D03*
X155825327Y-92944515D03*
X155825331Y-94214511D03*
X155825327Y-95484513D03*
X160775327Y-95484513D03*
X160775322Y-94214511D03*
X160775327Y-92944515D03*
X160775327Y-91674514D03*
X160775327Y-90404514D03*
X160775327Y-89134513D03*
X160775323Y-87864517D03*
X160775327Y-86594515D03*
D40*
X175925653Y-116350496D03*
X176963155Y-118147498D03*
D32*
X238983157Y-46159134D03*
X238446107Y-44154838D03*
X263650942Y-64810151D03*
X263113892Y-62805855D03*
D35*
X93312776Y-60867164D03*
X93849826Y-58862868D03*
D33*
X218426436Y-102457271D03*
X218426436Y-104532279D03*
D38*
X189051910Y-93920900D03*
X187047614Y-94457950D03*
D41*
X105058203Y-98455769D03*
X104729505Y-99682498D03*
X104400804Y-100909220D03*
X104072103Y-102135946D03*
X103743403Y-103362671D03*
X103414703Y-104589398D03*
X103086003Y-105816123D03*
X102757303Y-107042849D03*
X107538637Y-108324003D03*
X107867335Y-107097274D03*
X108196036Y-105870552D03*
X108524737Y-104643826D03*
X108853437Y-103417101D03*
X109182137Y-102190374D03*
X109510837Y-100963649D03*
X109839537Y-99736923D03*
D32*
X244030138Y-64994697D03*
X243493088Y-62990401D03*
X248895933Y-83154099D03*
X248358883Y-81149803D03*
D35*
X68774417Y-79035221D03*
X69311467Y-77030925D03*
D42*
X125061414Y-130805624D03*
X124023916Y-132602630D03*
D32*
X173151128Y-95271176D03*
X172614078Y-93266880D03*
D41*
X109988705Y-80054879D03*
X109660007Y-81281608D03*
X109331306Y-82508330D03*
X109002605Y-83735056D03*
X108673905Y-84961781D03*
X108345205Y-86188508D03*
X108016505Y-87415233D03*
X107687805Y-88641959D03*
X112469139Y-89923113D03*
X112797837Y-88696384D03*
X113126538Y-87469662D03*
X113455239Y-86242936D03*
X113783939Y-85016211D03*
X114112639Y-83789484D03*
X114441339Y-82562759D03*
X114770039Y-81336033D03*
D35*
X123540548Y-95262693D03*
X124077598Y-93258397D03*
X98282109Y-42321397D03*
X98819159Y-40317101D03*
D32*
X203527243Y-61042961D03*
X202990193Y-59038665D03*
X206358201Y-106146997D03*
X205821151Y-104142693D03*
X223070404Y-60568662D03*
X222533354Y-58564366D03*
D41*
X114919214Y-61653998D03*
X114590516Y-62880727D03*
X114261815Y-64107449D03*
X113933114Y-65334175D03*
X113604414Y-66560900D03*
X113275714Y-67787627D03*
X112947014Y-69014352D03*
X112618314Y-70241078D03*
X117399648Y-71522232D03*
X117728346Y-70295503D03*
X118057047Y-69068781D03*
X118385748Y-67842055D03*
X118714448Y-66615330D03*
X119043148Y-65388603D03*
X119371848Y-64161878D03*
X119700548Y-62935152D03*
D39*
X135752887Y-87127254D03*
X135752883Y-88397250D03*
X135752884Y-89667251D03*
X135752880Y-90937250D03*
X135752884Y-92207259D03*
X135752883Y-93477259D03*
X135752889Y-94747257D03*
X140702881Y-94747254D03*
X140702885Y-93477258D03*
X140702884Y-92207257D03*
X140702888Y-90937258D03*
X140702884Y-89667249D03*
X140702885Y-88397249D03*
X140702879Y-87127251D03*
D37*
X131398741Y-86078059D03*
X133473741Y-86078059D03*
D36*
X109765824Y-94457959D03*
X107761528Y-93920909D03*
D35*
X33266738Y-64344594D03*
X33803788Y-62340298D03*
D38*
X179190901Y-57119137D03*
X177186601Y-57656183D03*
D32*
X163386701Y-58443527D03*
X162849655Y-56439227D03*
X189194149Y-71302218D03*
X188657099Y-69297922D03*
D35*
X128280851Y-85370475D03*
X128817901Y-83366179D03*
D32*
X198532042Y-42400593D03*
X197994992Y-40396297D03*
X173457592Y-103755979D03*
X172920542Y-101751683D03*
D36*
X114696329Y-76057065D03*
X112692033Y-75520015D03*
D43*
X119684106Y-118142513D03*
X120721604Y-116345507D03*
D35*
X99102411Y-108413668D03*
X99639465Y-106409368D03*
D32*
X168626920Y-85341277D03*
X168089870Y-83336981D03*
D35*
X88395218Y-79219756D03*
X88932268Y-77215460D03*
X52809877Y-64818903D03*
X53346927Y-62814607D03*
D32*
X208393043Y-79202365D03*
X207855993Y-77198069D03*
D35*
X57753333Y-46369713D03*
X58290383Y-44365417D03*
D32*
X228013845Y-79017833D03*
X227476795Y-77013537D03*
D35*
X28323290Y-82793791D03*
X28860340Y-80789495D03*
X133136947Y-67247293D03*
X133673997Y-65242997D03*
D32*
X258648792Y-45755539D03*
X258111742Y-43751243D03*
D34*
X186973888Y-99736915D03*
X187302588Y-100963640D03*
X187631288Y-102190366D03*
X187959988Y-103417093D03*
X188288688Y-104643818D03*
X188617389Y-105870544D03*
X188946090Y-107097266D03*
X189274788Y-108323995D03*
X194056122Y-107042841D03*
X193727422Y-105816116D03*
X193398722Y-104589390D03*
X193070022Y-103362663D03*
X192741322Y-102135938D03*
X192412621Y-100909212D03*
X192083920Y-99682490D03*
X191755222Y-98455761D03*
D32*
X194015113Y-89680684D03*
X193478063Y-87676388D03*
D39*
X145844559Y-125349162D03*
X145844564Y-126619164D03*
X145844559Y-127889160D03*
X145844559Y-129159161D03*
X145844559Y-130429161D03*
X145844559Y-131699162D03*
X145844563Y-132969158D03*
X145844559Y-134239160D03*
X150794559Y-134239160D03*
X150794554Y-132969158D03*
X150794559Y-131699162D03*
X150794559Y-130429161D03*
X150794559Y-129159161D03*
X150794559Y-127889160D03*
X150794555Y-126619164D03*
X150794559Y-125349162D03*
D35*
X47866445Y-83268087D03*
X48403495Y-81263791D03*
X73717856Y-60586044D03*
X74254906Y-58581748D03*
X133375670Y-58557509D03*
X133912724Y-56553211D03*
D15*
X263250816Y-96390397D03*
X254050811Y-38190402D03*
X191350818Y-41790401D03*
X191650818Y-112490396D03*
D44*
X121918402Y-122621652D03*
X123067200Y-124381873D03*
X124017198Y-122736428D03*
D45*
X116519191Y-109972358D03*
D46*
X108899187Y-123170588D03*
D10*
X118330892Y-120550401D03*
X127129710Y-125630401D03*
D45*
X137196412Y-121910361D03*
D46*
X129576412Y-135108588D03*
D47*
X173171254Y-123559150D03*
X175270055Y-123444374D03*
X174320051Y-121798927D03*
D45*
X159517042Y-121910362D03*
D46*
X167137042Y-135108588D03*
D10*
X169583744Y-125630401D03*
X178382562Y-120550401D03*
D45*
X180194260Y-109972362D03*
D46*
X187814264Y-123170587D03*
M02*
