G04 #@! TF.GenerationSoftware,KiCad,Pcbnew,8.0.4*
G04 #@! TF.CreationDate,2024-08-16T14:11:01+09:00*
G04 #@! TF.ProjectId,TrueStrike42,54727565-5374-4726-996b-6534322e6b69,rev?*
G04 #@! TF.SameCoordinates,Original*
G04 #@! TF.FileFunction,Soldermask,Top*
G04 #@! TF.FilePolarity,Negative*
%FSLAX46Y46*%
G04 Gerber Fmt 4.6, Leading zero omitted, Abs format (unit mm)*
G04 Created by KiCad (PCBNEW 8.0.4) date 2024-08-16 14:11:01*
%MOMM*%
%LPD*%
G01*
G04 APERTURE LIST*
%ADD10C,3.500000*%
%ADD11C,1.701800*%
%ADD12C,2.200000*%
%ADD13O,1.600000X2.000000*%
%ADD14C,3.048000*%
%ADD15C,3.987800*%
%ADD16R,1.600000X1.600000*%
%ADD17C,1.600000*%
G04 APERTURE END LIST*
D10*
X263470818Y-96420395D03*
D11*
X269241867Y-85614221D03*
X279055673Y-82984619D03*
X27746783Y-46182850D03*
X37560589Y-48812452D03*
X259380846Y-48812452D03*
X269194652Y-46182850D03*
D12*
X160470814Y-82420399D03*
D11*
X218411145Y-107320407D03*
X228571145Y-107320407D03*
D12*
X131720817Y-104420397D03*
D10*
X33470817Y-96420393D03*
D11*
X78018944Y-79375257D03*
X87832750Y-82004859D03*
X239747338Y-49142737D03*
X249561144Y-46513135D03*
X244677844Y-67543620D03*
X254491650Y-64914018D03*
X123038219Y-58568122D03*
X132852025Y-61197724D03*
X169019912Y-79598602D03*
X178833718Y-76969000D03*
X37519286Y-83314908D03*
X47333092Y-85944510D03*
D10*
X254170821Y-38120392D03*
X105470816Y-41720394D03*
X191470820Y-41720393D03*
D11*
X187420812Y-74668100D03*
X197234618Y-72038498D03*
D13*
X152059754Y-111397892D03*
X149519756Y-111397887D03*
X146979753Y-111397889D03*
X144439755Y-111397894D03*
D11*
X192351309Y-93068979D03*
X202165115Y-90439377D03*
X89845825Y-108840268D03*
X99659631Y-111469870D03*
X199247691Y-45203085D03*
X209061497Y-42573483D03*
D10*
X105960822Y-111000392D03*
X190980820Y-111000393D03*
D12*
X136470817Y-82420395D03*
X165220816Y-104420391D03*
D11*
X17885773Y-82984637D03*
X27699579Y-85614239D03*
X63315926Y-60644101D03*
X73129732Y-63273703D03*
X104637341Y-53637611D03*
X114451147Y-56267213D03*
X99706827Y-72038494D03*
X109520633Y-74668096D03*
D14*
X187822269Y-123200584D03*
D15*
X180202262Y-110002358D03*
D11*
X178390566Y-120580397D03*
X169591748Y-125660397D03*
D14*
X167145046Y-135138584D03*
D15*
X159525046Y-121940360D03*
D14*
X129696412Y-135138585D03*
D15*
X137316412Y-121940358D03*
D11*
X127249710Y-125660398D03*
X118450892Y-120580398D03*
D15*
X116639190Y-110002356D03*
D14*
X109019187Y-123200585D03*
D11*
X87879930Y-42573472D03*
X97693736Y-45203074D03*
X164089416Y-61197714D03*
X173903222Y-58568112D03*
D10*
X42770818Y-38120397D03*
D11*
X58385440Y-79044976D03*
X68199246Y-81674578D03*
X94776329Y-90439390D03*
X104590135Y-93068992D03*
X223811698Y-63273674D03*
X233625504Y-60644072D03*
X113177217Y-95369884D03*
X122991023Y-97999486D03*
X68270297Y-107320404D03*
X78430297Y-107320404D03*
X218881195Y-44872789D03*
X228695001Y-42243187D03*
X182490298Y-56267206D03*
X192304104Y-53637604D03*
X118107721Y-76969011D03*
X127921527Y-79598613D03*
X228742200Y-81674570D03*
X238556006Y-79044968D03*
X264311351Y-67213343D03*
X274125157Y-64583741D03*
X173950424Y-97999480D03*
X183764230Y-95369878D03*
X197281819Y-111469869D03*
X207095625Y-108840267D03*
X22816279Y-64583745D03*
X32630085Y-67213347D03*
X209108691Y-82004854D03*
X218922497Y-79375252D03*
X42449792Y-64914021D03*
X52263598Y-67543623D03*
X249608344Y-85944507D03*
X259422150Y-83314905D03*
X82949438Y-60974360D03*
X92763244Y-63603962D03*
X47380287Y-46513131D03*
X57194093Y-49142733D03*
X68246427Y-42243197D03*
X78060233Y-44872799D03*
X204178186Y-63603965D03*
X213991992Y-60974363D03*
D16*
X156090817Y-54450402D03*
D17*
X156090816Y-56990398D03*
X156090816Y-59530396D03*
X156090811Y-62070398D03*
X156090815Y-64610397D03*
X156090816Y-67150398D03*
X156090816Y-69690398D03*
X156090816Y-72230398D03*
X156090811Y-74770398D03*
X156090816Y-77310400D03*
X156090816Y-79850398D03*
X156090816Y-82390394D03*
X140850815Y-82390394D03*
X140850816Y-79850398D03*
X140850816Y-77310400D03*
X140850821Y-74770398D03*
X140850817Y-72230399D03*
X140850816Y-69690398D03*
X140850816Y-67150398D03*
X140850816Y-64610398D03*
X140850821Y-62070398D03*
X140850816Y-59530396D03*
X140850816Y-56990398D03*
X140850816Y-54450402D03*
M02*
