%TF.GenerationSoftware,KiCad,Pcbnew,8.0.4*%
%TF.CreationDate,2024-08-14T21:55:23+09:00*%
%TF.ProjectId,TrueStrike42,54727565-5374-4726-996b-6534322e6b69,rev?*%
%TF.SameCoordinates,Original*%
%TF.FileFunction,Drillmap*%
%TF.FilePolarity,Positive*%
%FSLAX45Y45*%
G04 Gerber Fmt 4.5, Leading zero omitted, Abs format (unit mm)*
G04 Created by KiCad (PCBNEW 8.0.4) date 2024-08-14 21:55:23*
%MOMM*%
%LPD*%
G01*
G04 APERTURE LIST*
%ADD10C,0.050000*%
%ADD11C,0.120000*%
%ADD12C,0.200000*%
%ADD13C,0.170180*%
%ADD14C,0.220000*%
%ADD15C,0.304800*%
%ADD16C,0.350000*%
%ADD17C,0.398780*%
G04 APERTURE END LIST*
D10*
X28527118Y-8911401D02*
X27140561Y-3739272D01*
X2539363Y-3739272D02*
G75*
G02*
X2722968Y-3564044I208596J-34762D01*
G01*
X23301957Y-11684041D02*
X28416958Y-9179041D01*
X26956956Y-3564041D02*
X23051957Y-3184041D01*
X1261956Y-9179040D02*
X6371957Y-11679041D01*
X23051957Y-3184041D02*
X21086957Y-3219040D01*
X10141957Y-12179042D02*
X13446957Y-14084041D01*
X13951957Y-5296788D02*
X10431956Y-3714040D01*
X10431956Y-3714040D02*
X8591956Y-3219041D01*
X19531956Y-12179040D02*
X21391957Y-11684041D01*
X28527118Y-8911401D02*
G75*
G02*
X28416958Y-9179042I-240159J-57643D01*
G01*
X26956956Y-3564041D02*
G75*
G02*
X27140558Y-3739273I-24987J-209982D01*
G01*
X21391957Y-11684041D02*
X23301957Y-11684041D01*
X15731955Y-5296788D02*
X13951957Y-5296788D01*
X16221957Y-14084040D02*
X19531956Y-12179040D01*
X21086957Y-3219040D02*
X19246956Y-3714041D01*
X1261956Y-9179040D02*
G75*
G02*
X1151798Y-8911403I130001J209997D01*
G01*
X2539363Y-3739272D02*
X1151794Y-8911402D01*
X13446957Y-14084041D02*
X16221957Y-14084040D01*
X8591956Y-3219041D02*
X6631957Y-3189041D01*
X8286956Y-11679041D02*
X10141957Y-12179042D01*
X6631957Y-3189041D02*
X2722967Y-3564041D01*
X19246956Y-3714041D02*
X15731955Y-5296788D01*
X6371957Y-11679041D02*
X8286956Y-11679041D01*
D11*
X19491294Y-7589215D02*
X19574634Y-7900243D01*
X19491294Y-7589215D02*
X19135834Y-7684460D01*
X19219174Y-7995488D02*
X19135834Y-7684460D01*
X19574634Y-7900243D02*
X19219174Y-7995488D01*
X2994045Y-5003652D02*
X3349505Y-5098897D01*
X3349505Y-5098897D02*
X3266166Y-5409925D01*
X2910705Y-5314680D02*
X3266166Y-5409925D01*
X2910705Y-5314680D02*
X2994045Y-5003652D01*
X11537088Y-9922354D02*
X11892549Y-10017599D01*
X11892549Y-10017599D02*
X11809209Y-10328627D01*
X11453749Y-10233382D02*
X11809209Y-10328627D01*
X11453749Y-10233382D02*
X11537088Y-9922354D01*
X18642783Y-5844373D02*
X18998243Y-5749127D01*
X18998243Y-5749127D02*
X19081583Y-6060155D01*
X18726122Y-6155401D02*
X19081583Y-6060155D01*
X18726122Y-6155401D02*
X18642783Y-5844373D01*
X9697001Y-9429304D02*
X10052461Y-9524549D01*
X10052461Y-9524549D02*
X9969121Y-9835577D01*
X9613661Y-9740332D02*
X9969121Y-9835577D01*
X9613661Y-9740332D02*
X9697001Y-9429304D01*
X4819807Y-6972014D02*
X4736467Y-7283042D01*
X4819807Y-6972014D02*
X4464346Y-6876769D01*
X4381007Y-7187797D02*
X4464346Y-6876769D01*
X4736467Y-7283042D02*
X4381007Y-7187797D01*
X22281873Y-4704931D02*
X22637333Y-4609686D01*
X22637333Y-4609686D02*
X22720673Y-4920714D01*
X22365213Y-5015959D02*
X22720673Y-4920714D01*
X22365213Y-5015959D02*
X22281873Y-4704931D01*
X6057909Y-8289863D02*
X6413370Y-8385108D01*
X6413370Y-8385108D02*
X6330030Y-8696137D01*
X5974569Y-8600891D02*
X6330030Y-8696137D01*
X5974569Y-8600891D02*
X6057909Y-8289863D01*
X2007945Y-8683829D02*
X2363406Y-8779075D01*
X2363406Y-8779075D02*
X2280066Y-9090103D01*
X1924605Y-8994857D02*
X2280066Y-9090103D01*
X1924605Y-8994857D02*
X2007945Y-8683829D01*
X23130384Y-6449774D02*
X23213723Y-6760802D01*
X23130384Y-6449774D02*
X22774923Y-6545019D01*
X22858263Y-6856048D02*
X22774923Y-6545019D01*
X23213723Y-6760802D02*
X22858263Y-6856048D01*
X17788794Y-10017599D02*
X18144255Y-9922354D01*
X18144255Y-9922354D02*
X18227595Y-10233382D01*
X17872134Y-10328627D02*
X18227595Y-10233382D01*
X17872134Y-10328627D02*
X17788794Y-10017599D01*
X9559410Y-11364638D02*
X9476070Y-11675666D01*
X9559410Y-11364638D02*
X9203949Y-11269393D01*
X9120609Y-11580421D02*
X9203949Y-11269393D01*
X9476070Y-11675666D02*
X9120609Y-11580421D01*
X27180349Y-6843740D02*
X27263689Y-7154768D01*
X27180349Y-6843740D02*
X26824888Y-6938985D01*
X26908228Y-7250013D02*
X26824888Y-6938985D01*
X27263689Y-7154768D02*
X26908228Y-7250013D01*
X19628884Y-9524550D02*
X19984345Y-9429305D01*
X19984345Y-9429305D02*
X20067685Y-9740333D01*
X19712224Y-9835578D02*
X20067685Y-9740333D01*
X19712224Y-9835578D02*
X19628884Y-9524550D01*
X21304622Y-8418136D02*
X21660083Y-8322891D01*
X21660083Y-8322891D02*
X21743422Y-8633919D01*
X21387962Y-8729165D02*
X21743422Y-8633919D01*
X21387962Y-8729165D02*
X21304622Y-8418136D01*
X20477394Y-11269393D02*
X20560734Y-11580422D01*
X20477394Y-11269393D02*
X20121933Y-11364639D01*
X20205273Y-11675667D02*
X20121933Y-11364639D01*
X20560734Y-11580422D02*
X20205273Y-11675667D01*
X17715288Y-12490056D02*
X17876288Y-12768916D01*
X17715288Y-12490056D02*
X17396590Y-12674056D01*
X17557590Y-12952916D02*
X17396590Y-12674056D01*
X17876288Y-12768916D02*
X17557590Y-12952916D01*
X2856456Y-6938985D02*
X2773117Y-7250013D01*
X2856456Y-6938985D02*
X2500996Y-6843740D01*
X2417656Y-7154768D02*
X2500996Y-6843740D01*
X2773117Y-7250013D02*
X2417656Y-7154768D01*
X3971296Y-8716856D02*
X4326757Y-8812101D01*
X4326757Y-8812101D02*
X4243417Y-9123130D01*
X3887956Y-9027884D02*
X4243417Y-9123130D01*
X3887956Y-9027884D02*
X3971296Y-8716856D01*
X8869773Y-6578047D02*
X8786433Y-6889075D01*
X8869773Y-6578047D02*
X8514312Y-6482801D01*
X8430972Y-6793829D02*
X8514312Y-6482801D01*
X8786433Y-6889075D02*
X8430972Y-6793829D01*
X25216998Y-6876767D02*
X25300338Y-7187795D01*
X25216998Y-6876767D02*
X24861537Y-6972012D01*
X24944877Y-7283040D02*
X24861537Y-6972012D01*
X25300338Y-7187795D02*
X24944877Y-7283040D01*
X22532314Y-11044292D02*
X22532314Y-11366292D01*
X22532314Y-11044292D02*
X22164315Y-11044292D01*
X22164315Y-11366292D02*
X22164315Y-11044292D01*
X22532314Y-11366292D02*
X22164315Y-11366292D01*
X8021262Y-8322891D02*
X8376722Y-8418137D01*
X8376722Y-8418137D02*
X8293383Y-8729165D01*
X7937922Y-8633919D02*
X8293383Y-8729165D01*
X7937922Y-8633919D02*
X8021262Y-8322891D01*
X17651204Y-8082266D02*
X17734544Y-8393295D01*
X17651204Y-8082266D02*
X17295744Y-8177512D01*
X17379084Y-8488540D02*
X17295744Y-8177512D01*
X17734544Y-8393295D02*
X17379084Y-8488540D01*
X7044010Y-4609685D02*
X7399471Y-4704930D01*
X7399471Y-4704930D02*
X7316131Y-5015958D01*
X6960670Y-4920713D02*
X7316131Y-5015958D01*
X6960670Y-4920713D02*
X7044010Y-4609685D01*
X9007362Y-4642714D02*
X9362823Y-4737960D01*
X9362823Y-4737960D02*
X9279483Y-5048988D01*
X8924022Y-4953742D02*
X9279483Y-5048988D01*
X8924022Y-4953742D02*
X9007362Y-4642714D01*
X12523189Y-6242176D02*
X12878650Y-6337422D01*
X12878650Y-6337422D02*
X12795310Y-6648450D01*
X12439849Y-6553204D02*
X12795310Y-6648450D01*
X12439849Y-6553204D02*
X12523189Y-6242176D01*
X23267973Y-8385108D02*
X23623434Y-8289863D01*
X23623434Y-8289863D02*
X23706773Y-8600891D01*
X23351313Y-8696136D02*
X23706773Y-8600891D01*
X23351313Y-8696136D02*
X23267973Y-8385108D01*
X21167032Y-6482803D02*
X21250372Y-6793831D01*
X21167032Y-6482803D02*
X20811571Y-6578048D01*
X20894911Y-6889076D02*
X20811571Y-6578048D01*
X21250372Y-6793831D02*
X20894911Y-6889076D01*
X27317938Y-8779074D02*
X27673398Y-8683829D01*
X27673398Y-8683829D02*
X27756738Y-8994857D01*
X27401277Y-9090102D02*
X27756738Y-8994857D01*
X27401277Y-9090102D02*
X27317938Y-8779074D01*
X24368486Y-5131926D02*
X24723947Y-5036680D01*
X24723947Y-5036680D02*
X24807287Y-5347708D01*
X24451826Y-5442954D02*
X24807287Y-5347708D01*
X24451826Y-5442954D02*
X24368486Y-5131926D01*
X20318521Y-4737960D02*
X20673982Y-4642714D01*
X20673982Y-4642714D02*
X20757322Y-4953742D01*
X20401861Y-5048988D02*
X20757322Y-4953742D01*
X20401861Y-5048988D02*
X20318521Y-4737960D01*
X12385599Y-8177510D02*
X12302259Y-8488539D01*
X12385599Y-8177510D02*
X12030139Y-8082265D01*
X11946799Y-8393293D02*
X12030139Y-8082265D01*
X12302259Y-8488539D02*
X11946799Y-8393293D01*
X26331837Y-5098898D02*
X26687298Y-5003652D01*
X26687298Y-5003652D02*
X26770637Y-5314680D01*
X26415177Y-5409926D02*
X26770637Y-5314680D01*
X26415177Y-5409926D02*
X26331837Y-5098898D01*
X25354587Y-8812103D02*
X25710048Y-8716857D01*
X25710048Y-8716857D02*
X25793387Y-9027886D01*
X25437927Y-9123131D02*
X25793387Y-9027886D01*
X25437927Y-9123131D02*
X25354587Y-8812103D01*
X4957398Y-5036679D02*
X5312858Y-5131924D01*
X5312858Y-5131924D02*
X5229519Y-5442952D01*
X4874058Y-5347707D02*
X5229519Y-5442952D01*
X4874058Y-5347707D02*
X4957398Y-5036679D01*
X10545512Y-7684461D02*
X10462172Y-7995489D01*
X10545512Y-7684461D02*
X10190051Y-7589215D01*
X10106712Y-7900244D02*
X10190051Y-7589215D01*
X10462172Y-7995489D02*
X10106712Y-7900244D01*
X6906421Y-6545019D02*
X6823081Y-6856047D01*
X6906421Y-6545019D02*
X6550960Y-6449774D01*
X6467620Y-6760802D02*
X6550960Y-6449774D01*
X6823081Y-6856047D02*
X6467620Y-6760802D01*
X16802694Y-6337421D02*
X17158155Y-6242176D01*
X17158155Y-6242176D02*
X17241495Y-6553204D01*
X16886034Y-6648449D02*
X17241495Y-6553204D01*
X16886034Y-6648449D02*
X16802694Y-6337421D01*
X7507029Y-11044290D02*
X7507029Y-11366290D01*
X7507029Y-11044290D02*
X7139029Y-11044290D01*
X7139029Y-11366290D02*
X7139029Y-11044290D01*
X7507029Y-11366290D02*
X7139029Y-11366290D01*
X10683099Y-5749127D02*
X11038559Y-5844372D01*
X11038559Y-5844372D02*
X10955219Y-6155400D01*
X10599759Y-6060155D02*
X10955219Y-6155400D01*
X10599759Y-6060155D02*
X10683099Y-5749127D01*
X12274753Y-12674056D02*
X12113753Y-12952916D01*
X12274753Y-12674056D02*
X11956056Y-12490056D01*
X11795056Y-12768916D02*
X11956056Y-12490056D01*
X12113753Y-12952916D02*
X11795056Y-12768916D01*
D12*
D13*
X1691487Y-8210374D02*
X1861667Y-8380554D01*
X1861667Y-8210374D02*
X1691487Y-8380554D01*
X2184538Y-6370285D02*
X2354718Y-6540465D01*
X2354718Y-6370285D02*
X2184538Y-6540465D01*
X2672868Y-8473334D02*
X2843048Y-8643514D01*
X2843048Y-8473334D02*
X2672868Y-8643514D01*
X2677588Y-4530195D02*
X2847768Y-4700375D01*
X2847768Y-4530195D02*
X2677588Y-4700375D01*
X3165918Y-6633245D02*
X3336098Y-6803425D01*
X3336098Y-6633245D02*
X3165918Y-6803425D01*
X3654838Y-8243401D02*
X3825018Y-8413581D01*
X3825018Y-8243401D02*
X3654838Y-8413581D01*
X3658969Y-4793156D02*
X3829149Y-4963336D01*
X3829149Y-4793156D02*
X3658969Y-4963336D01*
X4147889Y-6403312D02*
X4318069Y-6573492D01*
X4318069Y-6403312D02*
X4147889Y-6573492D01*
X4636219Y-8506361D02*
X4806399Y-8676541D01*
X4806399Y-8506361D02*
X4636219Y-8676541D01*
X4640938Y-4563224D02*
X4811118Y-4733404D01*
X4811118Y-4563224D02*
X4640938Y-4733404D01*
X5129269Y-6666273D02*
X5299449Y-6836453D01*
X5299449Y-6666273D02*
X5129269Y-6836453D01*
X5622319Y-4826184D02*
X5792499Y-4996364D01*
X5792499Y-4826184D02*
X5622319Y-4996364D01*
X5741453Y-7816408D02*
X5911633Y-7986588D01*
X5911633Y-7816408D02*
X5741453Y-7986588D01*
X6234502Y-5976320D02*
X6404682Y-6146500D01*
X6404682Y-5976320D02*
X6234502Y-6146500D01*
X6722834Y-8079368D02*
X6893014Y-8249548D01*
X6893014Y-8079368D02*
X6722834Y-8249548D01*
X6727552Y-4136230D02*
X6897732Y-4306410D01*
X6897732Y-4136230D02*
X6727552Y-4306410D01*
X6729939Y-10643951D02*
X6900119Y-10814131D01*
X6900119Y-10643951D02*
X6729939Y-10814131D01*
X7215883Y-6239280D02*
X7386063Y-6409460D01*
X7386063Y-6239280D02*
X7215883Y-6409460D01*
X7704804Y-7849436D02*
X7874984Y-8019616D01*
X7874984Y-7849436D02*
X7704804Y-8019616D01*
X7708933Y-4399190D02*
X7879113Y-4569370D01*
X7879113Y-4399190D02*
X7708933Y-4569370D01*
X7745939Y-10643951D02*
X7916119Y-10814131D01*
X7916119Y-10643951D02*
X7745939Y-10814131D01*
X8197854Y-6009346D02*
X8368034Y-6179526D01*
X8368034Y-6009346D02*
X8197854Y-6179526D01*
X8686185Y-8112396D02*
X8856365Y-8282576D01*
X8856365Y-8112396D02*
X8686185Y-8282576D01*
X8690903Y-4169257D02*
X8861083Y-4339437D01*
X8861083Y-4169257D02*
X8690903Y-4339437D01*
X8887492Y-10795937D02*
X9057672Y-10966117D01*
X9057672Y-10795937D02*
X8887492Y-10966117D01*
X9179234Y-6272306D02*
X9349414Y-6442486D01*
X9349414Y-6272306D02*
X9179234Y-6442486D01*
X9380543Y-8955849D02*
X9550723Y-9126029D01*
X9550723Y-8955849D02*
X9380543Y-9126029D01*
X9672284Y-4432218D02*
X9842464Y-4602398D01*
X9842464Y-4432218D02*
X9672284Y-4602398D01*
X9868873Y-11058897D02*
X10039053Y-11229077D01*
X10039053Y-11058897D02*
X9868873Y-11229077D01*
X9873592Y-7115759D02*
X10043772Y-7285939D01*
X10043772Y-7115759D02*
X9873592Y-7285939D01*
X10361924Y-9218809D02*
X10532104Y-9388989D01*
X10532104Y-9218809D02*
X10361924Y-9388989D01*
X10366644Y-5275672D02*
X10536824Y-5445852D01*
X10536824Y-5275672D02*
X10366644Y-5445852D01*
X10854973Y-7378720D02*
X11025153Y-7548900D01*
X11025153Y-7378720D02*
X10854973Y-7548900D01*
X11220631Y-9448899D02*
X11390811Y-9619079D01*
X11390811Y-9448899D02*
X11220631Y-9619079D01*
X11348024Y-5538632D02*
X11518204Y-5708812D01*
X11518204Y-5538632D02*
X11348024Y-5708812D01*
X11713682Y-7608811D02*
X11883862Y-7778991D01*
X11883862Y-7608811D02*
X11713682Y-7778991D01*
X11747999Y-11969950D02*
X11918179Y-12140130D01*
X11918179Y-11969950D02*
X11747999Y-12140130D01*
X12202012Y-9711859D02*
X12372192Y-9882039D01*
X12372192Y-9711859D02*
X12202012Y-9882039D01*
X12206732Y-5768723D02*
X12376912Y-5938903D01*
X12376912Y-5768723D02*
X12206732Y-5938903D01*
X12627881Y-12477950D02*
X12798061Y-12648130D01*
X12798061Y-12477950D02*
X12627881Y-12648130D01*
X12695063Y-7871771D02*
X12865243Y-8041951D01*
X12865243Y-7871771D02*
X12695063Y-8041951D01*
X13188112Y-6031683D02*
X13358292Y-6201863D01*
X13358292Y-6031683D02*
X13188112Y-6201863D01*
X16323052Y-6031681D02*
X16493232Y-6201861D01*
X16493232Y-6031681D02*
X16323052Y-6201861D01*
X16816101Y-7871771D02*
X16986281Y-8041951D01*
X16986281Y-7871771D02*
X16816101Y-8041951D01*
X16873284Y-12477950D02*
X17043464Y-12648130D01*
X17043464Y-12477950D02*
X16873284Y-12648130D01*
X17304432Y-5768721D02*
X17474612Y-5938901D01*
X17474612Y-5768721D02*
X17304432Y-5938901D01*
X17309152Y-9711858D02*
X17479332Y-9882038D01*
X17479332Y-9711858D02*
X17309152Y-9882038D01*
X17753166Y-11969950D02*
X17923346Y-12140130D01*
X17923346Y-11969950D02*
X17753166Y-12140130D01*
X17797482Y-7608810D02*
X17967662Y-7778990D01*
X17967662Y-7608810D02*
X17797482Y-7778990D01*
X18163140Y-5538631D02*
X18333320Y-5708811D01*
X18333320Y-5538631D02*
X18163140Y-5708811D01*
X18290533Y-9448898D02*
X18460713Y-9619078D01*
X18460713Y-9448898D02*
X18290533Y-9619078D01*
X18656191Y-7378720D02*
X18826371Y-7548900D01*
X18826371Y-7378720D02*
X18656191Y-7548900D01*
X19144520Y-5275671D02*
X19314700Y-5445851D01*
X19314700Y-5275671D02*
X19144520Y-5445851D01*
X19149241Y-9218808D02*
X19319421Y-9388988D01*
X19319421Y-9218808D02*
X19149241Y-9388988D01*
X19637572Y-7115760D02*
X19807752Y-7285940D01*
X19807752Y-7115760D02*
X19637572Y-7285940D01*
X19642291Y-11058897D02*
X19812471Y-11229077D01*
X19812471Y-11058897D02*
X19642291Y-11229077D01*
X19838879Y-4432219D02*
X20009059Y-4602399D01*
X20009059Y-4432219D02*
X19838879Y-4602399D01*
X20130621Y-8955848D02*
X20300801Y-9126028D01*
X20300801Y-8955848D02*
X20130621Y-9126028D01*
X20331928Y-6272307D02*
X20502108Y-6442487D01*
X20502108Y-6272307D02*
X20331928Y-6442487D01*
X20623672Y-10795937D02*
X20793852Y-10966117D01*
X20793852Y-10795937D02*
X20623672Y-10966117D01*
X20820259Y-4169258D02*
X20990439Y-4339439D01*
X20990439Y-4169258D02*
X20820259Y-4339439D01*
X20824979Y-8112396D02*
X20995159Y-8282576D01*
X20995159Y-8112396D02*
X20824979Y-8282576D01*
X21313309Y-6009347D02*
X21483489Y-6179527D01*
X21483489Y-6009347D02*
X21313309Y-6179527D01*
X21755224Y-10643951D02*
X21925404Y-10814131D01*
X21925404Y-10643951D02*
X21755224Y-10814131D01*
X21802229Y-4399189D02*
X21972409Y-4569369D01*
X21972409Y-4399189D02*
X21802229Y-4569369D01*
X21806360Y-7849436D02*
X21976540Y-8019616D01*
X21976540Y-7849436D02*
X21806360Y-8019616D01*
X22295280Y-6239278D02*
X22465460Y-6409458D01*
X22465460Y-6239278D02*
X22295280Y-6409458D01*
X22771224Y-10643951D02*
X22941404Y-10814131D01*
X22941404Y-10643951D02*
X22771224Y-10814131D01*
X22783610Y-4136229D02*
X22953790Y-4306409D01*
X22953790Y-4136229D02*
X22783610Y-4306409D01*
X22788330Y-8079367D02*
X22958510Y-8249547D01*
X22958510Y-8079367D02*
X22788330Y-8249547D01*
X23276661Y-5976317D02*
X23446841Y-6146497D01*
X23446841Y-5976317D02*
X23276661Y-6146497D01*
X23769710Y-7816407D02*
X23939890Y-7986587D01*
X23939890Y-7816407D02*
X23769710Y-7986587D01*
X23888844Y-4826184D02*
X24059024Y-4996364D01*
X24059024Y-4826184D02*
X23888844Y-4996364D01*
X24381894Y-6666272D02*
X24552074Y-6836452D01*
X24552074Y-6666272D02*
X24381894Y-6836452D01*
X24870224Y-4563224D02*
X25040404Y-4733404D01*
X25040404Y-4563224D02*
X24870224Y-4733404D01*
X24874944Y-8506361D02*
X25045124Y-8676541D01*
X25045124Y-8506361D02*
X24874944Y-8676541D01*
X25363274Y-6403312D02*
X25533454Y-6573492D01*
X25533454Y-6403312D02*
X25363274Y-6573492D01*
X25852194Y-4793156D02*
X26022374Y-4963336D01*
X26022374Y-4793156D02*
X25852194Y-4963336D01*
X25856325Y-8243401D02*
X26026505Y-8413581D01*
X26026505Y-8243401D02*
X25856325Y-8413581D01*
X26345245Y-6633245D02*
X26515425Y-6803425D01*
X26515425Y-6633245D02*
X26345245Y-6803425D01*
X26833575Y-4530196D02*
X27003755Y-4700376D01*
X27003755Y-4530196D02*
X26833575Y-4700376D01*
X26838297Y-8473333D02*
X27008477Y-8643513D01*
X27008477Y-8473333D02*
X26838297Y-8643513D01*
X27326625Y-6370284D02*
X27496805Y-6540464D01*
X27496805Y-6370284D02*
X27326625Y-6540464D01*
X27819677Y-8210372D02*
X27989857Y-8380552D01*
X27989857Y-8210372D02*
X27819677Y-8380552D01*
D14*
X13147374Y-11087806D02*
G75*
G02*
X12927374Y-11087806I-110000J0D01*
G01*
X12927374Y-11087806D02*
G75*
G02*
X13147374Y-11087806I110000J0D01*
G01*
X13747374Y-8237806D02*
G75*
G02*
X13527374Y-8237806I-110000J0D01*
G01*
X13527374Y-8237806D02*
G75*
G02*
X13747374Y-8237806I110000J0D01*
G01*
X16137374Y-8237806D02*
G75*
G02*
X15917374Y-8237806I-110000J0D01*
G01*
X15917374Y-8237806D02*
G75*
G02*
X16137374Y-8237806I110000J0D01*
G01*
X16667374Y-11087806D02*
G75*
G02*
X16447374Y-11087806I-110000J0D01*
G01*
X16447374Y-11087806D02*
G75*
G02*
X16667374Y-11087806I110000J0D01*
G01*
D15*
X10889919Y-12164659D02*
X10889919Y-12469459D01*
X10737519Y-12317059D02*
X11042319Y-12317059D01*
X12957641Y-13358459D02*
X12957641Y-13663259D01*
X12805241Y-13510859D02*
X13110041Y-13510859D01*
X16713704Y-13358459D02*
X16713704Y-13663259D01*
X16561304Y-13510859D02*
X16866104Y-13510859D01*
X18781426Y-12164659D02*
X18781426Y-12469459D01*
X18629026Y-12317059D02*
X18933826Y-12317059D01*
D16*
X3468827Y-9752785D02*
X3468827Y-9505295D01*
X3221337Y-9505295D01*
X3221337Y-9752785D01*
X3468827Y-9752785D01*
X4388826Y-3932785D02*
X4388826Y-3685295D01*
X4141336Y-3685295D01*
X4141336Y-3932785D01*
X4388826Y-3932785D01*
X10628827Y-11362785D02*
X10628827Y-11115295D01*
X10381337Y-11115295D01*
X10381337Y-11362785D01*
X10628827Y-11362785D01*
X10658826Y-4292785D02*
X10658826Y-4045295D01*
X10411337Y-4045295D01*
X10411337Y-4292785D01*
X10658826Y-4292785D01*
X19258827Y-4302785D02*
X19258827Y-4055295D01*
X19011337Y-4055295D01*
X19011337Y-4302785D01*
X19258827Y-4302785D01*
X19288827Y-11372784D02*
X19288827Y-11125295D01*
X19041337Y-11125295D01*
X19041337Y-11372784D01*
X19288827Y-11372784D01*
X25528826Y-3942785D02*
X25528826Y-3695295D01*
X25281336Y-3695295D01*
X25281336Y-3942785D01*
X25528826Y-3942785D01*
X26448826Y-9762785D02*
X26448826Y-9515295D01*
X26201337Y-9515295D01*
X26201337Y-9762785D01*
X26448826Y-9762785D01*
D17*
X11651919Y-11196626D02*
X11851309Y-10997236D01*
X11651919Y-10797846D01*
X11452529Y-10997236D01*
X11651919Y-11196626D01*
X13719641Y-12390426D02*
X13919031Y-12191036D01*
X13719641Y-11991646D01*
X13520251Y-12191036D01*
X13719641Y-12390426D01*
X15951704Y-12390426D02*
X16151094Y-12191036D01*
X15951704Y-11991646D01*
X15752314Y-12191036D01*
X15951704Y-12390426D01*
X18019426Y-11196626D02*
X18218816Y-10997236D01*
X18019426Y-10797846D01*
X17820036Y-10997236D01*
X18019426Y-11196626D01*
D12*
X1403254Y-14398025D02*
X1403254Y-14198025D01*
X1403254Y-14198025D02*
X1450873Y-14198025D01*
X1450873Y-14198025D02*
X1479445Y-14207549D01*
X1479445Y-14207549D02*
X1498492Y-14226596D01*
X1498492Y-14226596D02*
X1508016Y-14245644D01*
X1508016Y-14245644D02*
X1517540Y-14283739D01*
X1517540Y-14283739D02*
X1517540Y-14312311D01*
X1517540Y-14312311D02*
X1508016Y-14350406D01*
X1508016Y-14350406D02*
X1498492Y-14369453D01*
X1498492Y-14369453D02*
X1479445Y-14388501D01*
X1479445Y-14388501D02*
X1450873Y-14398025D01*
X1450873Y-14398025D02*
X1403254Y-14398025D01*
X1603254Y-14398025D02*
X1603254Y-14264692D01*
X1603254Y-14302787D02*
X1612778Y-14283739D01*
X1612778Y-14283739D02*
X1622302Y-14274215D01*
X1622302Y-14274215D02*
X1641349Y-14264692D01*
X1641349Y-14264692D02*
X1660397Y-14264692D01*
X1727064Y-14398025D02*
X1727064Y-14264692D01*
X1727064Y-14198025D02*
X1717540Y-14207549D01*
X1717540Y-14207549D02*
X1727064Y-14217073D01*
X1727064Y-14217073D02*
X1736588Y-14207549D01*
X1736588Y-14207549D02*
X1727064Y-14198025D01*
X1727064Y-14198025D02*
X1727064Y-14217073D01*
X1850873Y-14398025D02*
X1831826Y-14388501D01*
X1831826Y-14388501D02*
X1822302Y-14369453D01*
X1822302Y-14369453D02*
X1822302Y-14198025D01*
X1955635Y-14398025D02*
X1936588Y-14388501D01*
X1936588Y-14388501D02*
X1927064Y-14369453D01*
X1927064Y-14369453D02*
X1927064Y-14198025D01*
X2184207Y-14398025D02*
X2184207Y-14198025D01*
X2184207Y-14198025D02*
X2250873Y-14340882D01*
X2250873Y-14340882D02*
X2317540Y-14198025D01*
X2317540Y-14198025D02*
X2317540Y-14398025D01*
X2498492Y-14398025D02*
X2498492Y-14293263D01*
X2498492Y-14293263D02*
X2488969Y-14274215D01*
X2488969Y-14274215D02*
X2469921Y-14264692D01*
X2469921Y-14264692D02*
X2431826Y-14264692D01*
X2431826Y-14264692D02*
X2412778Y-14274215D01*
X2498492Y-14388501D02*
X2479445Y-14398025D01*
X2479445Y-14398025D02*
X2431826Y-14398025D01*
X2431826Y-14398025D02*
X2412778Y-14388501D01*
X2412778Y-14388501D02*
X2403254Y-14369453D01*
X2403254Y-14369453D02*
X2403254Y-14350406D01*
X2403254Y-14350406D02*
X2412778Y-14331358D01*
X2412778Y-14331358D02*
X2431826Y-14321834D01*
X2431826Y-14321834D02*
X2479445Y-14321834D01*
X2479445Y-14321834D02*
X2498492Y-14312311D01*
X2593731Y-14264692D02*
X2593731Y-14464692D01*
X2593731Y-14274215D02*
X2612778Y-14264692D01*
X2612778Y-14264692D02*
X2650873Y-14264692D01*
X2650873Y-14264692D02*
X2669921Y-14274215D01*
X2669921Y-14274215D02*
X2679445Y-14283739D01*
X2679445Y-14283739D02*
X2688969Y-14302787D01*
X2688969Y-14302787D02*
X2688969Y-14359930D01*
X2688969Y-14359930D02*
X2679445Y-14378977D01*
X2679445Y-14378977D02*
X2669921Y-14388501D01*
X2669921Y-14388501D02*
X2650873Y-14398025D01*
X2650873Y-14398025D02*
X2612778Y-14398025D01*
X2612778Y-14398025D02*
X2593731Y-14388501D01*
X2774683Y-14378977D02*
X2784207Y-14388501D01*
X2784207Y-14388501D02*
X2774683Y-14398025D01*
X2774683Y-14398025D02*
X2765159Y-14388501D01*
X2765159Y-14388501D02*
X2774683Y-14378977D01*
X2774683Y-14378977D02*
X2774683Y-14398025D01*
X2774683Y-14274215D02*
X2784207Y-14283739D01*
X2784207Y-14283739D02*
X2774683Y-14293263D01*
X2774683Y-14293263D02*
X2765159Y-14283739D01*
X2765159Y-14283739D02*
X2774683Y-14274215D01*
X2774683Y-14274215D02*
X2774683Y-14293263D01*
D13*
X972297Y-14641451D02*
X1142478Y-14811631D01*
X1142478Y-14641451D02*
X972297Y-14811631D01*
D12*
X1508016Y-14818025D02*
X1393731Y-14818025D01*
X1450873Y-14818025D02*
X1450873Y-14618025D01*
X1450873Y-14618025D02*
X1431826Y-14646596D01*
X1431826Y-14646596D02*
X1412778Y-14665644D01*
X1412778Y-14665644D02*
X1393731Y-14675168D01*
X1593730Y-14798977D02*
X1603254Y-14808501D01*
X1603254Y-14808501D02*
X1593730Y-14818025D01*
X1593730Y-14818025D02*
X1584207Y-14808501D01*
X1584207Y-14808501D02*
X1593730Y-14798977D01*
X1593730Y-14798977D02*
X1593730Y-14818025D01*
X1669921Y-14618025D02*
X1803254Y-14618025D01*
X1803254Y-14618025D02*
X1717540Y-14818025D01*
X1917540Y-14618025D02*
X1936588Y-14618025D01*
X1936588Y-14618025D02*
X1955635Y-14627549D01*
X1955635Y-14627549D02*
X1965159Y-14637073D01*
X1965159Y-14637073D02*
X1974683Y-14656120D01*
X1974683Y-14656120D02*
X1984207Y-14694215D01*
X1984207Y-14694215D02*
X1984207Y-14741834D01*
X1984207Y-14741834D02*
X1974683Y-14779930D01*
X1974683Y-14779930D02*
X1965159Y-14798977D01*
X1965159Y-14798977D02*
X1955635Y-14808501D01*
X1955635Y-14808501D02*
X1936588Y-14818025D01*
X1936588Y-14818025D02*
X1917540Y-14818025D01*
X1917540Y-14818025D02*
X1898492Y-14808501D01*
X1898492Y-14808501D02*
X1888969Y-14798977D01*
X1888969Y-14798977D02*
X1879445Y-14779930D01*
X1879445Y-14779930D02*
X1869921Y-14741834D01*
X1869921Y-14741834D02*
X1869921Y-14694215D01*
X1869921Y-14694215D02*
X1879445Y-14656120D01*
X1879445Y-14656120D02*
X1888969Y-14637073D01*
X1888969Y-14637073D02*
X1898492Y-14627549D01*
X1898492Y-14627549D02*
X1917540Y-14618025D01*
X2060397Y-14637073D02*
X2069921Y-14627549D01*
X2069921Y-14627549D02*
X2088969Y-14618025D01*
X2088969Y-14618025D02*
X2136588Y-14618025D01*
X2136588Y-14618025D02*
X2155635Y-14627549D01*
X2155635Y-14627549D02*
X2165159Y-14637073D01*
X2165159Y-14637073D02*
X2174683Y-14656120D01*
X2174683Y-14656120D02*
X2174683Y-14675168D01*
X2174683Y-14675168D02*
X2165159Y-14703739D01*
X2165159Y-14703739D02*
X2050873Y-14818025D01*
X2050873Y-14818025D02*
X2174683Y-14818025D01*
X2260397Y-14818025D02*
X2260397Y-14684692D01*
X2260397Y-14703739D02*
X2269921Y-14694215D01*
X2269921Y-14694215D02*
X2288969Y-14684692D01*
X2288969Y-14684692D02*
X2317540Y-14684692D01*
X2317540Y-14684692D02*
X2336588Y-14694215D01*
X2336588Y-14694215D02*
X2346112Y-14713263D01*
X2346112Y-14713263D02*
X2346112Y-14818025D01*
X2346112Y-14713263D02*
X2355635Y-14694215D01*
X2355635Y-14694215D02*
X2374683Y-14684692D01*
X2374683Y-14684692D02*
X2403254Y-14684692D01*
X2403254Y-14684692D02*
X2422302Y-14694215D01*
X2422302Y-14694215D02*
X2431826Y-14713263D01*
X2431826Y-14713263D02*
X2431826Y-14818025D01*
X2527064Y-14818025D02*
X2527064Y-14684692D01*
X2527064Y-14703739D02*
X2536588Y-14694215D01*
X2536588Y-14694215D02*
X2555635Y-14684692D01*
X2555635Y-14684692D02*
X2584207Y-14684692D01*
X2584207Y-14684692D02*
X2603254Y-14694215D01*
X2603254Y-14694215D02*
X2612778Y-14713263D01*
X2612778Y-14713263D02*
X2612778Y-14818025D01*
X2612778Y-14713263D02*
X2622302Y-14694215D01*
X2622302Y-14694215D02*
X2641350Y-14684692D01*
X2641350Y-14684692D02*
X2669921Y-14684692D01*
X2669921Y-14684692D02*
X2688969Y-14694215D01*
X2688969Y-14694215D02*
X2698493Y-14713263D01*
X2698493Y-14713263D02*
X2698493Y-14818025D01*
X3088969Y-14608501D02*
X2917540Y-14865644D01*
X3346112Y-14618025D02*
X3365159Y-14618025D01*
X3365159Y-14618025D02*
X3384207Y-14627549D01*
X3384207Y-14627549D02*
X3393731Y-14637073D01*
X3393731Y-14637073D02*
X3403254Y-14656120D01*
X3403254Y-14656120D02*
X3412778Y-14694215D01*
X3412778Y-14694215D02*
X3412778Y-14741834D01*
X3412778Y-14741834D02*
X3403254Y-14779930D01*
X3403254Y-14779930D02*
X3393731Y-14798977D01*
X3393731Y-14798977D02*
X3384207Y-14808501D01*
X3384207Y-14808501D02*
X3365159Y-14818025D01*
X3365159Y-14818025D02*
X3346112Y-14818025D01*
X3346112Y-14818025D02*
X3327064Y-14808501D01*
X3327064Y-14808501D02*
X3317540Y-14798977D01*
X3317540Y-14798977D02*
X3308016Y-14779930D01*
X3308016Y-14779930D02*
X3298493Y-14741834D01*
X3298493Y-14741834D02*
X3298493Y-14694215D01*
X3298493Y-14694215D02*
X3308016Y-14656120D01*
X3308016Y-14656120D02*
X3317540Y-14637073D01*
X3317540Y-14637073D02*
X3327064Y-14627549D01*
X3327064Y-14627549D02*
X3346112Y-14618025D01*
X3498493Y-14798977D02*
X3508016Y-14808501D01*
X3508016Y-14808501D02*
X3498493Y-14818025D01*
X3498493Y-14818025D02*
X3488969Y-14808501D01*
X3488969Y-14808501D02*
X3498493Y-14798977D01*
X3498493Y-14798977D02*
X3498493Y-14818025D01*
X3631826Y-14618025D02*
X3650874Y-14618025D01*
X3650874Y-14618025D02*
X3669921Y-14627549D01*
X3669921Y-14627549D02*
X3679445Y-14637073D01*
X3679445Y-14637073D02*
X3688969Y-14656120D01*
X3688969Y-14656120D02*
X3698493Y-14694215D01*
X3698493Y-14694215D02*
X3698493Y-14741834D01*
X3698493Y-14741834D02*
X3688969Y-14779930D01*
X3688969Y-14779930D02*
X3679445Y-14798977D01*
X3679445Y-14798977D02*
X3669921Y-14808501D01*
X3669921Y-14808501D02*
X3650874Y-14818025D01*
X3650874Y-14818025D02*
X3631826Y-14818025D01*
X3631826Y-14818025D02*
X3612778Y-14808501D01*
X3612778Y-14808501D02*
X3603254Y-14798977D01*
X3603254Y-14798977D02*
X3593731Y-14779930D01*
X3593731Y-14779930D02*
X3584207Y-14741834D01*
X3584207Y-14741834D02*
X3584207Y-14694215D01*
X3584207Y-14694215D02*
X3593731Y-14656120D01*
X3593731Y-14656120D02*
X3603254Y-14637073D01*
X3603254Y-14637073D02*
X3612778Y-14627549D01*
X3612778Y-14627549D02*
X3631826Y-14618025D01*
X3869921Y-14618025D02*
X3831826Y-14618025D01*
X3831826Y-14618025D02*
X3812778Y-14627549D01*
X3812778Y-14627549D02*
X3803254Y-14637073D01*
X3803254Y-14637073D02*
X3784207Y-14665644D01*
X3784207Y-14665644D02*
X3774683Y-14703739D01*
X3774683Y-14703739D02*
X3774683Y-14779930D01*
X3774683Y-14779930D02*
X3784207Y-14798977D01*
X3784207Y-14798977D02*
X3793731Y-14808501D01*
X3793731Y-14808501D02*
X3812778Y-14818025D01*
X3812778Y-14818025D02*
X3850874Y-14818025D01*
X3850874Y-14818025D02*
X3869921Y-14808501D01*
X3869921Y-14808501D02*
X3879445Y-14798977D01*
X3879445Y-14798977D02*
X3888969Y-14779930D01*
X3888969Y-14779930D02*
X3888969Y-14732311D01*
X3888969Y-14732311D02*
X3879445Y-14713263D01*
X3879445Y-14713263D02*
X3869921Y-14703739D01*
X3869921Y-14703739D02*
X3850874Y-14694215D01*
X3850874Y-14694215D02*
X3812778Y-14694215D01*
X3812778Y-14694215D02*
X3793731Y-14703739D01*
X3793731Y-14703739D02*
X3784207Y-14713263D01*
X3784207Y-14713263D02*
X3774683Y-14732311D01*
X3955635Y-14618025D02*
X4088969Y-14618025D01*
X4088969Y-14618025D02*
X4003254Y-14818025D01*
X4203255Y-14618025D02*
X4222302Y-14618025D01*
X4222302Y-14618025D02*
X4241350Y-14627549D01*
X4241350Y-14627549D02*
X4250874Y-14637073D01*
X4250874Y-14637073D02*
X4260397Y-14656120D01*
X4260397Y-14656120D02*
X4269921Y-14694215D01*
X4269921Y-14694215D02*
X4269921Y-14741834D01*
X4269921Y-14741834D02*
X4260397Y-14779930D01*
X4260397Y-14779930D02*
X4250874Y-14798977D01*
X4250874Y-14798977D02*
X4241350Y-14808501D01*
X4241350Y-14808501D02*
X4222302Y-14818025D01*
X4222302Y-14818025D02*
X4203255Y-14818025D01*
X4203255Y-14818025D02*
X4184207Y-14808501D01*
X4184207Y-14808501D02*
X4174683Y-14798977D01*
X4174683Y-14798977D02*
X4165159Y-14779930D01*
X4165159Y-14779930D02*
X4155635Y-14741834D01*
X4155635Y-14741834D02*
X4155635Y-14694215D01*
X4155635Y-14694215D02*
X4165159Y-14656120D01*
X4165159Y-14656120D02*
X4174683Y-14637073D01*
X4174683Y-14637073D02*
X4184207Y-14627549D01*
X4184207Y-14627549D02*
X4203255Y-14618025D01*
X4346112Y-14618025D02*
X4346112Y-14656120D01*
X4422302Y-14618025D02*
X4422302Y-14656120D01*
X4717540Y-14894215D02*
X4708017Y-14884692D01*
X4708017Y-14884692D02*
X4688969Y-14856120D01*
X4688969Y-14856120D02*
X4679445Y-14837073D01*
X4679445Y-14837073D02*
X4669921Y-14808501D01*
X4669921Y-14808501D02*
X4660398Y-14760882D01*
X4660398Y-14760882D02*
X4660398Y-14722787D01*
X4660398Y-14722787D02*
X4669921Y-14675168D01*
X4669921Y-14675168D02*
X4679445Y-14646596D01*
X4679445Y-14646596D02*
X4688969Y-14627549D01*
X4688969Y-14627549D02*
X4708017Y-14598977D01*
X4708017Y-14598977D02*
X4717540Y-14589453D01*
X4822302Y-14703739D02*
X4803255Y-14694215D01*
X4803255Y-14694215D02*
X4793731Y-14684692D01*
X4793731Y-14684692D02*
X4784207Y-14665644D01*
X4784207Y-14665644D02*
X4784207Y-14656120D01*
X4784207Y-14656120D02*
X4793731Y-14637073D01*
X4793731Y-14637073D02*
X4803255Y-14627549D01*
X4803255Y-14627549D02*
X4822302Y-14618025D01*
X4822302Y-14618025D02*
X4860398Y-14618025D01*
X4860398Y-14618025D02*
X4879445Y-14627549D01*
X4879445Y-14627549D02*
X4888969Y-14637073D01*
X4888969Y-14637073D02*
X4898493Y-14656120D01*
X4898493Y-14656120D02*
X4898493Y-14665644D01*
X4898493Y-14665644D02*
X4888969Y-14684692D01*
X4888969Y-14684692D02*
X4879445Y-14694215D01*
X4879445Y-14694215D02*
X4860398Y-14703739D01*
X4860398Y-14703739D02*
X4822302Y-14703739D01*
X4822302Y-14703739D02*
X4803255Y-14713263D01*
X4803255Y-14713263D02*
X4793731Y-14722787D01*
X4793731Y-14722787D02*
X4784207Y-14741834D01*
X4784207Y-14741834D02*
X4784207Y-14779930D01*
X4784207Y-14779930D02*
X4793731Y-14798977D01*
X4793731Y-14798977D02*
X4803255Y-14808501D01*
X4803255Y-14808501D02*
X4822302Y-14818025D01*
X4822302Y-14818025D02*
X4860398Y-14818025D01*
X4860398Y-14818025D02*
X4879445Y-14808501D01*
X4879445Y-14808501D02*
X4888969Y-14798977D01*
X4888969Y-14798977D02*
X4898493Y-14779930D01*
X4898493Y-14779930D02*
X4898493Y-14741834D01*
X4898493Y-14741834D02*
X4888969Y-14722787D01*
X4888969Y-14722787D02*
X4879445Y-14713263D01*
X4879445Y-14713263D02*
X4860398Y-14703739D01*
X5069921Y-14684692D02*
X5069921Y-14818025D01*
X5022302Y-14608501D02*
X4974683Y-14751358D01*
X4974683Y-14751358D02*
X5098493Y-14751358D01*
X5327064Y-14818025D02*
X5327064Y-14618025D01*
X5412779Y-14818025D02*
X5412779Y-14713263D01*
X5412779Y-14713263D02*
X5403255Y-14694215D01*
X5403255Y-14694215D02*
X5384207Y-14684692D01*
X5384207Y-14684692D02*
X5355636Y-14684692D01*
X5355636Y-14684692D02*
X5336588Y-14694215D01*
X5336588Y-14694215D02*
X5327064Y-14703739D01*
X5536588Y-14818025D02*
X5517540Y-14808501D01*
X5517540Y-14808501D02*
X5508017Y-14798977D01*
X5508017Y-14798977D02*
X5498493Y-14779930D01*
X5498493Y-14779930D02*
X5498493Y-14722787D01*
X5498493Y-14722787D02*
X5508017Y-14703739D01*
X5508017Y-14703739D02*
X5517540Y-14694215D01*
X5517540Y-14694215D02*
X5536588Y-14684692D01*
X5536588Y-14684692D02*
X5565160Y-14684692D01*
X5565160Y-14684692D02*
X5584207Y-14694215D01*
X5584207Y-14694215D02*
X5593731Y-14703739D01*
X5593731Y-14703739D02*
X5603255Y-14722787D01*
X5603255Y-14722787D02*
X5603255Y-14779930D01*
X5603255Y-14779930D02*
X5593731Y-14798977D01*
X5593731Y-14798977D02*
X5584207Y-14808501D01*
X5584207Y-14808501D02*
X5565160Y-14818025D01*
X5565160Y-14818025D02*
X5536588Y-14818025D01*
X5717540Y-14818025D02*
X5698493Y-14808501D01*
X5698493Y-14808501D02*
X5688969Y-14789453D01*
X5688969Y-14789453D02*
X5688969Y-14618025D01*
X5869921Y-14808501D02*
X5850874Y-14818025D01*
X5850874Y-14818025D02*
X5812778Y-14818025D01*
X5812778Y-14818025D02*
X5793731Y-14808501D01*
X5793731Y-14808501D02*
X5784207Y-14789453D01*
X5784207Y-14789453D02*
X5784207Y-14713263D01*
X5784207Y-14713263D02*
X5793731Y-14694215D01*
X5793731Y-14694215D02*
X5812778Y-14684692D01*
X5812778Y-14684692D02*
X5850874Y-14684692D01*
X5850874Y-14684692D02*
X5869921Y-14694215D01*
X5869921Y-14694215D02*
X5879445Y-14713263D01*
X5879445Y-14713263D02*
X5879445Y-14732311D01*
X5879445Y-14732311D02*
X5784207Y-14751358D01*
X5955636Y-14808501D02*
X5974683Y-14818025D01*
X5974683Y-14818025D02*
X6012778Y-14818025D01*
X6012778Y-14818025D02*
X6031826Y-14808501D01*
X6031826Y-14808501D02*
X6041350Y-14789453D01*
X6041350Y-14789453D02*
X6041350Y-14779930D01*
X6041350Y-14779930D02*
X6031826Y-14760882D01*
X6031826Y-14760882D02*
X6012778Y-14751358D01*
X6012778Y-14751358D02*
X5984207Y-14751358D01*
X5984207Y-14751358D02*
X5965159Y-14741834D01*
X5965159Y-14741834D02*
X5955636Y-14722787D01*
X5955636Y-14722787D02*
X5955636Y-14713263D01*
X5955636Y-14713263D02*
X5965159Y-14694215D01*
X5965159Y-14694215D02*
X5984207Y-14684692D01*
X5984207Y-14684692D02*
X6012778Y-14684692D01*
X6012778Y-14684692D02*
X6031826Y-14694215D01*
X6108017Y-14894215D02*
X6117540Y-14884692D01*
X6117540Y-14884692D02*
X6136588Y-14856120D01*
X6136588Y-14856120D02*
X6146112Y-14837073D01*
X6146112Y-14837073D02*
X6155636Y-14808501D01*
X6155636Y-14808501D02*
X6165159Y-14760882D01*
X6165159Y-14760882D02*
X6165159Y-14722787D01*
X6165159Y-14722787D02*
X6155636Y-14675168D01*
X6155636Y-14675168D02*
X6146112Y-14646596D01*
X6146112Y-14646596D02*
X6136588Y-14627549D01*
X6136588Y-14627549D02*
X6117540Y-14598977D01*
X6117540Y-14598977D02*
X6108017Y-14589453D01*
X6469921Y-14894215D02*
X6460398Y-14884692D01*
X6460398Y-14884692D02*
X6441350Y-14856120D01*
X6441350Y-14856120D02*
X6431826Y-14837073D01*
X6431826Y-14837073D02*
X6422302Y-14808501D01*
X6422302Y-14808501D02*
X6412779Y-14760882D01*
X6412779Y-14760882D02*
X6412779Y-14722787D01*
X6412779Y-14722787D02*
X6422302Y-14675168D01*
X6422302Y-14675168D02*
X6431826Y-14646596D01*
X6431826Y-14646596D02*
X6441350Y-14627549D01*
X6441350Y-14627549D02*
X6460398Y-14598977D01*
X6460398Y-14598977D02*
X6469921Y-14589453D01*
X6546112Y-14684692D02*
X6546112Y-14818025D01*
X6546112Y-14703739D02*
X6555636Y-14694215D01*
X6555636Y-14694215D02*
X6574683Y-14684692D01*
X6574683Y-14684692D02*
X6603255Y-14684692D01*
X6603255Y-14684692D02*
X6622302Y-14694215D01*
X6622302Y-14694215D02*
X6631826Y-14713263D01*
X6631826Y-14713263D02*
X6631826Y-14818025D01*
X6755636Y-14818025D02*
X6736588Y-14808501D01*
X6736588Y-14808501D02*
X6727064Y-14798977D01*
X6727064Y-14798977D02*
X6717540Y-14779930D01*
X6717540Y-14779930D02*
X6717540Y-14722787D01*
X6717540Y-14722787D02*
X6727064Y-14703739D01*
X6727064Y-14703739D02*
X6736588Y-14694215D01*
X6736588Y-14694215D02*
X6755636Y-14684692D01*
X6755636Y-14684692D02*
X6784207Y-14684692D01*
X6784207Y-14684692D02*
X6803255Y-14694215D01*
X6803255Y-14694215D02*
X6812779Y-14703739D01*
X6812779Y-14703739D02*
X6822302Y-14722787D01*
X6822302Y-14722787D02*
X6822302Y-14779930D01*
X6822302Y-14779930D02*
X6812779Y-14798977D01*
X6812779Y-14798977D02*
X6803255Y-14808501D01*
X6803255Y-14808501D02*
X6784207Y-14818025D01*
X6784207Y-14818025D02*
X6755636Y-14818025D01*
X6879445Y-14684692D02*
X6955636Y-14684692D01*
X6908017Y-14618025D02*
X6908017Y-14789453D01*
X6908017Y-14789453D02*
X6917540Y-14808501D01*
X6917540Y-14808501D02*
X6936588Y-14818025D01*
X6936588Y-14818025D02*
X6955636Y-14818025D01*
X7174683Y-14684692D02*
X7174683Y-14884692D01*
X7174683Y-14694215D02*
X7193731Y-14684692D01*
X7193731Y-14684692D02*
X7231826Y-14684692D01*
X7231826Y-14684692D02*
X7250874Y-14694215D01*
X7250874Y-14694215D02*
X7260398Y-14703739D01*
X7260398Y-14703739D02*
X7269921Y-14722787D01*
X7269921Y-14722787D02*
X7269921Y-14779930D01*
X7269921Y-14779930D02*
X7260398Y-14798977D01*
X7260398Y-14798977D02*
X7250874Y-14808501D01*
X7250874Y-14808501D02*
X7231826Y-14818025D01*
X7231826Y-14818025D02*
X7193731Y-14818025D01*
X7193731Y-14818025D02*
X7174683Y-14808501D01*
X7384207Y-14818025D02*
X7365160Y-14808501D01*
X7365160Y-14808501D02*
X7355636Y-14789453D01*
X7355636Y-14789453D02*
X7355636Y-14618025D01*
X7546112Y-14818025D02*
X7546112Y-14713263D01*
X7546112Y-14713263D02*
X7536588Y-14694215D01*
X7536588Y-14694215D02*
X7517541Y-14684692D01*
X7517541Y-14684692D02*
X7479445Y-14684692D01*
X7479445Y-14684692D02*
X7460398Y-14694215D01*
X7546112Y-14808501D02*
X7527064Y-14818025D01*
X7527064Y-14818025D02*
X7479445Y-14818025D01*
X7479445Y-14818025D02*
X7460398Y-14808501D01*
X7460398Y-14808501D02*
X7450874Y-14789453D01*
X7450874Y-14789453D02*
X7450874Y-14770406D01*
X7450874Y-14770406D02*
X7460398Y-14751358D01*
X7460398Y-14751358D02*
X7479445Y-14741834D01*
X7479445Y-14741834D02*
X7527064Y-14741834D01*
X7527064Y-14741834D02*
X7546112Y-14732311D01*
X7612779Y-14684692D02*
X7688969Y-14684692D01*
X7641350Y-14618025D02*
X7641350Y-14789453D01*
X7641350Y-14789453D02*
X7650874Y-14808501D01*
X7650874Y-14808501D02*
X7669921Y-14818025D01*
X7669921Y-14818025D02*
X7688969Y-14818025D01*
X7831826Y-14808501D02*
X7812779Y-14818025D01*
X7812779Y-14818025D02*
X7774683Y-14818025D01*
X7774683Y-14818025D02*
X7755636Y-14808501D01*
X7755636Y-14808501D02*
X7746112Y-14789453D01*
X7746112Y-14789453D02*
X7746112Y-14713263D01*
X7746112Y-14713263D02*
X7755636Y-14694215D01*
X7755636Y-14694215D02*
X7774683Y-14684692D01*
X7774683Y-14684692D02*
X7812779Y-14684692D01*
X7812779Y-14684692D02*
X7831826Y-14694215D01*
X7831826Y-14694215D02*
X7841350Y-14713263D01*
X7841350Y-14713263D02*
X7841350Y-14732311D01*
X7841350Y-14732311D02*
X7746112Y-14751358D01*
X8012779Y-14818025D02*
X8012779Y-14618025D01*
X8012779Y-14808501D02*
X7993731Y-14818025D01*
X7993731Y-14818025D02*
X7955636Y-14818025D01*
X7955636Y-14818025D02*
X7936588Y-14808501D01*
X7936588Y-14808501D02*
X7927064Y-14798977D01*
X7927064Y-14798977D02*
X7917541Y-14779930D01*
X7917541Y-14779930D02*
X7917541Y-14722787D01*
X7917541Y-14722787D02*
X7927064Y-14703739D01*
X7927064Y-14703739D02*
X7936588Y-14694215D01*
X7936588Y-14694215D02*
X7955636Y-14684692D01*
X7955636Y-14684692D02*
X7993731Y-14684692D01*
X7993731Y-14684692D02*
X8012779Y-14694215D01*
X8088969Y-14894215D02*
X8098493Y-14884692D01*
X8098493Y-14884692D02*
X8117541Y-14856120D01*
X8117541Y-14856120D02*
X8127064Y-14837073D01*
X8127064Y-14837073D02*
X8136588Y-14808501D01*
X8136588Y-14808501D02*
X8146112Y-14760882D01*
X8146112Y-14760882D02*
X8146112Y-14722787D01*
X8146112Y-14722787D02*
X8136588Y-14675168D01*
X8136588Y-14675168D02*
X8127064Y-14646596D01*
X8127064Y-14646596D02*
X8117541Y-14627549D01*
X8117541Y-14627549D02*
X8098493Y-14598977D01*
X8098493Y-14598977D02*
X8088969Y-14589453D01*
X1142478Y-15016721D02*
G75*
G02*
X942477Y-15016721I-100000J0D01*
G01*
X942477Y-15016721D02*
G75*
G02*
X1142478Y-15016721I100000J0D01*
G01*
X1393731Y-14927253D02*
X1403254Y-14917729D01*
X1403254Y-14917729D02*
X1422302Y-14908205D01*
X1422302Y-14908205D02*
X1469921Y-14908205D01*
X1469921Y-14908205D02*
X1488969Y-14917729D01*
X1488969Y-14917729D02*
X1498492Y-14927253D01*
X1498492Y-14927253D02*
X1508016Y-14946300D01*
X1508016Y-14946300D02*
X1508016Y-14965348D01*
X1508016Y-14965348D02*
X1498492Y-14993919D01*
X1498492Y-14993919D02*
X1384207Y-15108205D01*
X1384207Y-15108205D02*
X1508016Y-15108205D01*
X1593730Y-15089157D02*
X1603254Y-15098681D01*
X1603254Y-15098681D02*
X1593730Y-15108205D01*
X1593730Y-15108205D02*
X1584207Y-15098681D01*
X1584207Y-15098681D02*
X1593730Y-15089157D01*
X1593730Y-15089157D02*
X1593730Y-15108205D01*
X1679445Y-14927253D02*
X1688969Y-14917729D01*
X1688969Y-14917729D02*
X1708016Y-14908205D01*
X1708016Y-14908205D02*
X1755635Y-14908205D01*
X1755635Y-14908205D02*
X1774683Y-14917729D01*
X1774683Y-14917729D02*
X1784207Y-14927253D01*
X1784207Y-14927253D02*
X1793730Y-14946300D01*
X1793730Y-14946300D02*
X1793730Y-14965348D01*
X1793730Y-14965348D02*
X1784207Y-14993919D01*
X1784207Y-14993919D02*
X1669921Y-15108205D01*
X1669921Y-15108205D02*
X1793730Y-15108205D01*
X1917540Y-14908205D02*
X1936588Y-14908205D01*
X1936588Y-14908205D02*
X1955635Y-14917729D01*
X1955635Y-14917729D02*
X1965159Y-14927253D01*
X1965159Y-14927253D02*
X1974683Y-14946300D01*
X1974683Y-14946300D02*
X1984207Y-14984395D01*
X1984207Y-14984395D02*
X1984207Y-15032014D01*
X1984207Y-15032014D02*
X1974683Y-15070110D01*
X1974683Y-15070110D02*
X1965159Y-15089157D01*
X1965159Y-15089157D02*
X1955635Y-15098681D01*
X1955635Y-15098681D02*
X1936588Y-15108205D01*
X1936588Y-15108205D02*
X1917540Y-15108205D01*
X1917540Y-15108205D02*
X1898492Y-15098681D01*
X1898492Y-15098681D02*
X1888969Y-15089157D01*
X1888969Y-15089157D02*
X1879445Y-15070110D01*
X1879445Y-15070110D02*
X1869921Y-15032014D01*
X1869921Y-15032014D02*
X1869921Y-14984395D01*
X1869921Y-14984395D02*
X1879445Y-14946300D01*
X1879445Y-14946300D02*
X1888969Y-14927253D01*
X1888969Y-14927253D02*
X1898492Y-14917729D01*
X1898492Y-14917729D02*
X1917540Y-14908205D01*
X2108016Y-14908205D02*
X2127064Y-14908205D01*
X2127064Y-14908205D02*
X2146112Y-14917729D01*
X2146112Y-14917729D02*
X2155635Y-14927253D01*
X2155635Y-14927253D02*
X2165159Y-14946300D01*
X2165159Y-14946300D02*
X2174683Y-14984395D01*
X2174683Y-14984395D02*
X2174683Y-15032014D01*
X2174683Y-15032014D02*
X2165159Y-15070110D01*
X2165159Y-15070110D02*
X2155635Y-15089157D01*
X2155635Y-15089157D02*
X2146112Y-15098681D01*
X2146112Y-15098681D02*
X2127064Y-15108205D01*
X2127064Y-15108205D02*
X2108016Y-15108205D01*
X2108016Y-15108205D02*
X2088969Y-15098681D01*
X2088969Y-15098681D02*
X2079445Y-15089157D01*
X2079445Y-15089157D02*
X2069921Y-15070110D01*
X2069921Y-15070110D02*
X2060397Y-15032014D01*
X2060397Y-15032014D02*
X2060397Y-14984395D01*
X2060397Y-14984395D02*
X2069921Y-14946300D01*
X2069921Y-14946300D02*
X2079445Y-14927253D01*
X2079445Y-14927253D02*
X2088969Y-14917729D01*
X2088969Y-14917729D02*
X2108016Y-14908205D01*
X2260397Y-15108205D02*
X2260397Y-14974872D01*
X2260397Y-14993919D02*
X2269921Y-14984395D01*
X2269921Y-14984395D02*
X2288969Y-14974872D01*
X2288969Y-14974872D02*
X2317540Y-14974872D01*
X2317540Y-14974872D02*
X2336588Y-14984395D01*
X2336588Y-14984395D02*
X2346112Y-15003443D01*
X2346112Y-15003443D02*
X2346112Y-15108205D01*
X2346112Y-15003443D02*
X2355635Y-14984395D01*
X2355635Y-14984395D02*
X2374683Y-14974872D01*
X2374683Y-14974872D02*
X2403254Y-14974872D01*
X2403254Y-14974872D02*
X2422302Y-14984395D01*
X2422302Y-14984395D02*
X2431826Y-15003443D01*
X2431826Y-15003443D02*
X2431826Y-15108205D01*
X2527064Y-15108205D02*
X2527064Y-14974872D01*
X2527064Y-14993919D02*
X2536588Y-14984395D01*
X2536588Y-14984395D02*
X2555635Y-14974872D01*
X2555635Y-14974872D02*
X2584207Y-14974872D01*
X2584207Y-14974872D02*
X2603254Y-14984395D01*
X2603254Y-14984395D02*
X2612778Y-15003443D01*
X2612778Y-15003443D02*
X2612778Y-15108205D01*
X2612778Y-15003443D02*
X2622302Y-14984395D01*
X2622302Y-14984395D02*
X2641350Y-14974872D01*
X2641350Y-14974872D02*
X2669921Y-14974872D01*
X2669921Y-14974872D02*
X2688969Y-14984395D01*
X2688969Y-14984395D02*
X2698493Y-15003443D01*
X2698493Y-15003443D02*
X2698493Y-15108205D01*
X3088969Y-14898681D02*
X2917540Y-15155824D01*
X3346112Y-14908205D02*
X3365159Y-14908205D01*
X3365159Y-14908205D02*
X3384207Y-14917729D01*
X3384207Y-14917729D02*
X3393731Y-14927253D01*
X3393731Y-14927253D02*
X3403254Y-14946300D01*
X3403254Y-14946300D02*
X3412778Y-14984395D01*
X3412778Y-14984395D02*
X3412778Y-15032014D01*
X3412778Y-15032014D02*
X3403254Y-15070110D01*
X3403254Y-15070110D02*
X3393731Y-15089157D01*
X3393731Y-15089157D02*
X3384207Y-15098681D01*
X3384207Y-15098681D02*
X3365159Y-15108205D01*
X3365159Y-15108205D02*
X3346112Y-15108205D01*
X3346112Y-15108205D02*
X3327064Y-15098681D01*
X3327064Y-15098681D02*
X3317540Y-15089157D01*
X3317540Y-15089157D02*
X3308016Y-15070110D01*
X3308016Y-15070110D02*
X3298493Y-15032014D01*
X3298493Y-15032014D02*
X3298493Y-14984395D01*
X3298493Y-14984395D02*
X3308016Y-14946300D01*
X3308016Y-14946300D02*
X3317540Y-14927253D01*
X3317540Y-14927253D02*
X3327064Y-14917729D01*
X3327064Y-14917729D02*
X3346112Y-14908205D01*
X3498493Y-15089157D02*
X3508016Y-15098681D01*
X3508016Y-15098681D02*
X3498493Y-15108205D01*
X3498493Y-15108205D02*
X3488969Y-15098681D01*
X3488969Y-15098681D02*
X3498493Y-15089157D01*
X3498493Y-15089157D02*
X3498493Y-15108205D01*
X3631826Y-14908205D02*
X3650874Y-14908205D01*
X3650874Y-14908205D02*
X3669921Y-14917729D01*
X3669921Y-14917729D02*
X3679445Y-14927253D01*
X3679445Y-14927253D02*
X3688969Y-14946300D01*
X3688969Y-14946300D02*
X3698493Y-14984395D01*
X3698493Y-14984395D02*
X3698493Y-15032014D01*
X3698493Y-15032014D02*
X3688969Y-15070110D01*
X3688969Y-15070110D02*
X3679445Y-15089157D01*
X3679445Y-15089157D02*
X3669921Y-15098681D01*
X3669921Y-15098681D02*
X3650874Y-15108205D01*
X3650874Y-15108205D02*
X3631826Y-15108205D01*
X3631826Y-15108205D02*
X3612778Y-15098681D01*
X3612778Y-15098681D02*
X3603254Y-15089157D01*
X3603254Y-15089157D02*
X3593731Y-15070110D01*
X3593731Y-15070110D02*
X3584207Y-15032014D01*
X3584207Y-15032014D02*
X3584207Y-14984395D01*
X3584207Y-14984395D02*
X3593731Y-14946300D01*
X3593731Y-14946300D02*
X3603254Y-14927253D01*
X3603254Y-14927253D02*
X3612778Y-14917729D01*
X3612778Y-14917729D02*
X3631826Y-14908205D01*
X3812778Y-14993919D02*
X3793731Y-14984395D01*
X3793731Y-14984395D02*
X3784207Y-14974872D01*
X3784207Y-14974872D02*
X3774683Y-14955824D01*
X3774683Y-14955824D02*
X3774683Y-14946300D01*
X3774683Y-14946300D02*
X3784207Y-14927253D01*
X3784207Y-14927253D02*
X3793731Y-14917729D01*
X3793731Y-14917729D02*
X3812778Y-14908205D01*
X3812778Y-14908205D02*
X3850874Y-14908205D01*
X3850874Y-14908205D02*
X3869921Y-14917729D01*
X3869921Y-14917729D02*
X3879445Y-14927253D01*
X3879445Y-14927253D02*
X3888969Y-14946300D01*
X3888969Y-14946300D02*
X3888969Y-14955824D01*
X3888969Y-14955824D02*
X3879445Y-14974872D01*
X3879445Y-14974872D02*
X3869921Y-14984395D01*
X3869921Y-14984395D02*
X3850874Y-14993919D01*
X3850874Y-14993919D02*
X3812778Y-14993919D01*
X3812778Y-14993919D02*
X3793731Y-15003443D01*
X3793731Y-15003443D02*
X3784207Y-15012967D01*
X3784207Y-15012967D02*
X3774683Y-15032014D01*
X3774683Y-15032014D02*
X3774683Y-15070110D01*
X3774683Y-15070110D02*
X3784207Y-15089157D01*
X3784207Y-15089157D02*
X3793731Y-15098681D01*
X3793731Y-15098681D02*
X3812778Y-15108205D01*
X3812778Y-15108205D02*
X3850874Y-15108205D01*
X3850874Y-15108205D02*
X3869921Y-15098681D01*
X3869921Y-15098681D02*
X3879445Y-15089157D01*
X3879445Y-15089157D02*
X3888969Y-15070110D01*
X3888969Y-15070110D02*
X3888969Y-15032014D01*
X3888969Y-15032014D02*
X3879445Y-15012967D01*
X3879445Y-15012967D02*
X3869921Y-15003443D01*
X3869921Y-15003443D02*
X3850874Y-14993919D01*
X4060397Y-14908205D02*
X4022302Y-14908205D01*
X4022302Y-14908205D02*
X4003254Y-14917729D01*
X4003254Y-14917729D02*
X3993731Y-14927253D01*
X3993731Y-14927253D02*
X3974683Y-14955824D01*
X3974683Y-14955824D02*
X3965159Y-14993919D01*
X3965159Y-14993919D02*
X3965159Y-15070110D01*
X3965159Y-15070110D02*
X3974683Y-15089157D01*
X3974683Y-15089157D02*
X3984207Y-15098681D01*
X3984207Y-15098681D02*
X4003254Y-15108205D01*
X4003254Y-15108205D02*
X4041350Y-15108205D01*
X4041350Y-15108205D02*
X4060397Y-15098681D01*
X4060397Y-15098681D02*
X4069921Y-15089157D01*
X4069921Y-15089157D02*
X4079445Y-15070110D01*
X4079445Y-15070110D02*
X4079445Y-15022491D01*
X4079445Y-15022491D02*
X4069921Y-15003443D01*
X4069921Y-15003443D02*
X4060397Y-14993919D01*
X4060397Y-14993919D02*
X4041350Y-14984395D01*
X4041350Y-14984395D02*
X4003254Y-14984395D01*
X4003254Y-14984395D02*
X3984207Y-14993919D01*
X3984207Y-14993919D02*
X3974683Y-15003443D01*
X3974683Y-15003443D02*
X3965159Y-15022491D01*
X4250874Y-14908205D02*
X4212778Y-14908205D01*
X4212778Y-14908205D02*
X4193731Y-14917729D01*
X4193731Y-14917729D02*
X4184207Y-14927253D01*
X4184207Y-14927253D02*
X4165159Y-14955824D01*
X4165159Y-14955824D02*
X4155635Y-14993919D01*
X4155635Y-14993919D02*
X4155635Y-15070110D01*
X4155635Y-15070110D02*
X4165159Y-15089157D01*
X4165159Y-15089157D02*
X4174683Y-15098681D01*
X4174683Y-15098681D02*
X4193731Y-15108205D01*
X4193731Y-15108205D02*
X4231826Y-15108205D01*
X4231826Y-15108205D02*
X4250874Y-15098681D01*
X4250874Y-15098681D02*
X4260397Y-15089157D01*
X4260397Y-15089157D02*
X4269921Y-15070110D01*
X4269921Y-15070110D02*
X4269921Y-15022491D01*
X4269921Y-15022491D02*
X4260397Y-15003443D01*
X4260397Y-15003443D02*
X4250874Y-14993919D01*
X4250874Y-14993919D02*
X4231826Y-14984395D01*
X4231826Y-14984395D02*
X4193731Y-14984395D01*
X4193731Y-14984395D02*
X4174683Y-14993919D01*
X4174683Y-14993919D02*
X4165159Y-15003443D01*
X4165159Y-15003443D02*
X4155635Y-15022491D01*
X4346112Y-14908205D02*
X4346112Y-14946300D01*
X4422302Y-14908205D02*
X4422302Y-14946300D01*
X4717540Y-15184395D02*
X4708017Y-15174872D01*
X4708017Y-15174872D02*
X4688969Y-15146300D01*
X4688969Y-15146300D02*
X4679445Y-15127253D01*
X4679445Y-15127253D02*
X4669921Y-15098681D01*
X4669921Y-15098681D02*
X4660398Y-15051062D01*
X4660398Y-15051062D02*
X4660398Y-15012967D01*
X4660398Y-15012967D02*
X4669921Y-14965348D01*
X4669921Y-14965348D02*
X4679445Y-14936776D01*
X4679445Y-14936776D02*
X4688969Y-14917729D01*
X4688969Y-14917729D02*
X4708017Y-14889157D01*
X4708017Y-14889157D02*
X4717540Y-14879633D01*
X4879445Y-14974872D02*
X4879445Y-15108205D01*
X4831826Y-14898681D02*
X4784207Y-15041538D01*
X4784207Y-15041538D02*
X4908017Y-15041538D01*
X5136588Y-15108205D02*
X5136588Y-14908205D01*
X5222302Y-15108205D02*
X5222302Y-15003443D01*
X5222302Y-15003443D02*
X5212779Y-14984395D01*
X5212779Y-14984395D02*
X5193731Y-14974872D01*
X5193731Y-14974872D02*
X5165159Y-14974872D01*
X5165159Y-14974872D02*
X5146112Y-14984395D01*
X5146112Y-14984395D02*
X5136588Y-14993919D01*
X5346112Y-15108205D02*
X5327064Y-15098681D01*
X5327064Y-15098681D02*
X5317540Y-15089157D01*
X5317540Y-15089157D02*
X5308017Y-15070110D01*
X5308017Y-15070110D02*
X5308017Y-15012967D01*
X5308017Y-15012967D02*
X5317540Y-14993919D01*
X5317540Y-14993919D02*
X5327064Y-14984395D01*
X5327064Y-14984395D02*
X5346112Y-14974872D01*
X5346112Y-14974872D02*
X5374683Y-14974872D01*
X5374683Y-14974872D02*
X5393731Y-14984395D01*
X5393731Y-14984395D02*
X5403255Y-14993919D01*
X5403255Y-14993919D02*
X5412779Y-15012967D01*
X5412779Y-15012967D02*
X5412779Y-15070110D01*
X5412779Y-15070110D02*
X5403255Y-15089157D01*
X5403255Y-15089157D02*
X5393731Y-15098681D01*
X5393731Y-15098681D02*
X5374683Y-15108205D01*
X5374683Y-15108205D02*
X5346112Y-15108205D01*
X5527064Y-15108205D02*
X5508017Y-15098681D01*
X5508017Y-15098681D02*
X5498493Y-15079633D01*
X5498493Y-15079633D02*
X5498493Y-14908205D01*
X5679445Y-15098681D02*
X5660398Y-15108205D01*
X5660398Y-15108205D02*
X5622302Y-15108205D01*
X5622302Y-15108205D02*
X5603255Y-15098681D01*
X5603255Y-15098681D02*
X5593731Y-15079633D01*
X5593731Y-15079633D02*
X5593731Y-15003443D01*
X5593731Y-15003443D02*
X5603255Y-14984395D01*
X5603255Y-14984395D02*
X5622302Y-14974872D01*
X5622302Y-14974872D02*
X5660398Y-14974872D01*
X5660398Y-14974872D02*
X5679445Y-14984395D01*
X5679445Y-14984395D02*
X5688969Y-15003443D01*
X5688969Y-15003443D02*
X5688969Y-15022491D01*
X5688969Y-15022491D02*
X5593731Y-15041538D01*
X5765159Y-15098681D02*
X5784207Y-15108205D01*
X5784207Y-15108205D02*
X5822302Y-15108205D01*
X5822302Y-15108205D02*
X5841350Y-15098681D01*
X5841350Y-15098681D02*
X5850874Y-15079633D01*
X5850874Y-15079633D02*
X5850874Y-15070110D01*
X5850874Y-15070110D02*
X5841350Y-15051062D01*
X5841350Y-15051062D02*
X5822302Y-15041538D01*
X5822302Y-15041538D02*
X5793731Y-15041538D01*
X5793731Y-15041538D02*
X5774683Y-15032014D01*
X5774683Y-15032014D02*
X5765159Y-15012967D01*
X5765159Y-15012967D02*
X5765159Y-15003443D01*
X5765159Y-15003443D02*
X5774683Y-14984395D01*
X5774683Y-14984395D02*
X5793731Y-14974872D01*
X5793731Y-14974872D02*
X5822302Y-14974872D01*
X5822302Y-14974872D02*
X5841350Y-14984395D01*
X5917540Y-15184395D02*
X5927064Y-15174872D01*
X5927064Y-15174872D02*
X5946112Y-15146300D01*
X5946112Y-15146300D02*
X5955636Y-15127253D01*
X5955636Y-15127253D02*
X5965159Y-15098681D01*
X5965159Y-15098681D02*
X5974683Y-15051062D01*
X5974683Y-15051062D02*
X5974683Y-15012967D01*
X5974683Y-15012967D02*
X5965159Y-14965348D01*
X5965159Y-14965348D02*
X5955636Y-14936776D01*
X5955636Y-14936776D02*
X5946112Y-14917729D01*
X5946112Y-14917729D02*
X5927064Y-14889157D01*
X5927064Y-14889157D02*
X5917540Y-14879633D01*
X6279445Y-15184395D02*
X6269921Y-15174872D01*
X6269921Y-15174872D02*
X6250874Y-15146300D01*
X6250874Y-15146300D02*
X6241350Y-15127253D01*
X6241350Y-15127253D02*
X6231826Y-15098681D01*
X6231826Y-15098681D02*
X6222302Y-15051062D01*
X6222302Y-15051062D02*
X6222302Y-15012967D01*
X6222302Y-15012967D02*
X6231826Y-14965348D01*
X6231826Y-14965348D02*
X6241350Y-14936776D01*
X6241350Y-14936776D02*
X6250874Y-14917729D01*
X6250874Y-14917729D02*
X6269921Y-14889157D01*
X6269921Y-14889157D02*
X6279445Y-14879633D01*
X6355636Y-14974872D02*
X6355636Y-15108205D01*
X6355636Y-14993919D02*
X6365159Y-14984395D01*
X6365159Y-14984395D02*
X6384207Y-14974872D01*
X6384207Y-14974872D02*
X6412779Y-14974872D01*
X6412779Y-14974872D02*
X6431826Y-14984395D01*
X6431826Y-14984395D02*
X6441350Y-15003443D01*
X6441350Y-15003443D02*
X6441350Y-15108205D01*
X6565159Y-15108205D02*
X6546112Y-15098681D01*
X6546112Y-15098681D02*
X6536588Y-15089157D01*
X6536588Y-15089157D02*
X6527064Y-15070110D01*
X6527064Y-15070110D02*
X6527064Y-15012967D01*
X6527064Y-15012967D02*
X6536588Y-14993919D01*
X6536588Y-14993919D02*
X6546112Y-14984395D01*
X6546112Y-14984395D02*
X6565159Y-14974872D01*
X6565159Y-14974872D02*
X6593731Y-14974872D01*
X6593731Y-14974872D02*
X6612779Y-14984395D01*
X6612779Y-14984395D02*
X6622302Y-14993919D01*
X6622302Y-14993919D02*
X6631826Y-15012967D01*
X6631826Y-15012967D02*
X6631826Y-15070110D01*
X6631826Y-15070110D02*
X6622302Y-15089157D01*
X6622302Y-15089157D02*
X6612779Y-15098681D01*
X6612779Y-15098681D02*
X6593731Y-15108205D01*
X6593731Y-15108205D02*
X6565159Y-15108205D01*
X6688969Y-14974872D02*
X6765159Y-14974872D01*
X6717540Y-14908205D02*
X6717540Y-15079633D01*
X6717540Y-15079633D02*
X6727064Y-15098681D01*
X6727064Y-15098681D02*
X6746112Y-15108205D01*
X6746112Y-15108205D02*
X6765159Y-15108205D01*
X6984207Y-14974872D02*
X6984207Y-15174872D01*
X6984207Y-14984395D02*
X7003255Y-14974872D01*
X7003255Y-14974872D02*
X7041350Y-14974872D01*
X7041350Y-14974872D02*
X7060398Y-14984395D01*
X7060398Y-14984395D02*
X7069921Y-14993919D01*
X7069921Y-14993919D02*
X7079445Y-15012967D01*
X7079445Y-15012967D02*
X7079445Y-15070110D01*
X7079445Y-15070110D02*
X7069921Y-15089157D01*
X7069921Y-15089157D02*
X7060398Y-15098681D01*
X7060398Y-15098681D02*
X7041350Y-15108205D01*
X7041350Y-15108205D02*
X7003255Y-15108205D01*
X7003255Y-15108205D02*
X6984207Y-15098681D01*
X7193731Y-15108205D02*
X7174683Y-15098681D01*
X7174683Y-15098681D02*
X7165160Y-15079633D01*
X7165160Y-15079633D02*
X7165160Y-14908205D01*
X7355636Y-15108205D02*
X7355636Y-15003443D01*
X7355636Y-15003443D02*
X7346112Y-14984395D01*
X7346112Y-14984395D02*
X7327064Y-14974872D01*
X7327064Y-14974872D02*
X7288969Y-14974872D01*
X7288969Y-14974872D02*
X7269921Y-14984395D01*
X7355636Y-15098681D02*
X7336588Y-15108205D01*
X7336588Y-15108205D02*
X7288969Y-15108205D01*
X7288969Y-15108205D02*
X7269921Y-15098681D01*
X7269921Y-15098681D02*
X7260398Y-15079633D01*
X7260398Y-15079633D02*
X7260398Y-15060586D01*
X7260398Y-15060586D02*
X7269921Y-15041538D01*
X7269921Y-15041538D02*
X7288969Y-15032014D01*
X7288969Y-15032014D02*
X7336588Y-15032014D01*
X7336588Y-15032014D02*
X7355636Y-15022491D01*
X7422302Y-14974872D02*
X7498493Y-14974872D01*
X7450874Y-14908205D02*
X7450874Y-15079633D01*
X7450874Y-15079633D02*
X7460398Y-15098681D01*
X7460398Y-15098681D02*
X7479445Y-15108205D01*
X7479445Y-15108205D02*
X7498493Y-15108205D01*
X7641350Y-15098681D02*
X7622302Y-15108205D01*
X7622302Y-15108205D02*
X7584207Y-15108205D01*
X7584207Y-15108205D02*
X7565160Y-15098681D01*
X7565160Y-15098681D02*
X7555636Y-15079633D01*
X7555636Y-15079633D02*
X7555636Y-15003443D01*
X7555636Y-15003443D02*
X7565160Y-14984395D01*
X7565160Y-14984395D02*
X7584207Y-14974872D01*
X7584207Y-14974872D02*
X7622302Y-14974872D01*
X7622302Y-14974872D02*
X7641350Y-14984395D01*
X7641350Y-14984395D02*
X7650874Y-15003443D01*
X7650874Y-15003443D02*
X7650874Y-15022491D01*
X7650874Y-15022491D02*
X7555636Y-15041538D01*
X7822302Y-15108205D02*
X7822302Y-14908205D01*
X7822302Y-15098681D02*
X7803255Y-15108205D01*
X7803255Y-15108205D02*
X7765160Y-15108205D01*
X7765160Y-15108205D02*
X7746112Y-15098681D01*
X7746112Y-15098681D02*
X7736588Y-15089157D01*
X7736588Y-15089157D02*
X7727064Y-15070110D01*
X7727064Y-15070110D02*
X7727064Y-15012967D01*
X7727064Y-15012967D02*
X7736588Y-14993919D01*
X7736588Y-14993919D02*
X7746112Y-14984395D01*
X7746112Y-14984395D02*
X7765160Y-14974872D01*
X7765160Y-14974872D02*
X7803255Y-14974872D01*
X7803255Y-14974872D02*
X7822302Y-14984395D01*
X7898493Y-15184395D02*
X7908017Y-15174872D01*
X7908017Y-15174872D02*
X7927064Y-15146300D01*
X7927064Y-15146300D02*
X7936588Y-15127253D01*
X7936588Y-15127253D02*
X7946112Y-15098681D01*
X7946112Y-15098681D02*
X7955636Y-15051062D01*
X7955636Y-15051062D02*
X7955636Y-15012967D01*
X7955636Y-15012967D02*
X7946112Y-14965348D01*
X7946112Y-14965348D02*
X7936588Y-14936776D01*
X7936588Y-14936776D02*
X7927064Y-14917729D01*
X7927064Y-14917729D02*
X7908017Y-14889157D01*
X7908017Y-14889157D02*
X7898493Y-14879633D01*
X1042477Y-15236721D02*
X1042477Y-15436721D01*
X942477Y-15336721D02*
X1142478Y-15336721D01*
X1384207Y-15228205D02*
X1508016Y-15228205D01*
X1508016Y-15228205D02*
X1441349Y-15304395D01*
X1441349Y-15304395D02*
X1469921Y-15304395D01*
X1469921Y-15304395D02*
X1488969Y-15313919D01*
X1488969Y-15313919D02*
X1498492Y-15323443D01*
X1498492Y-15323443D02*
X1508016Y-15342491D01*
X1508016Y-15342491D02*
X1508016Y-15390110D01*
X1508016Y-15390110D02*
X1498492Y-15409157D01*
X1498492Y-15409157D02*
X1488969Y-15418681D01*
X1488969Y-15418681D02*
X1469921Y-15428205D01*
X1469921Y-15428205D02*
X1412778Y-15428205D01*
X1412778Y-15428205D02*
X1393731Y-15418681D01*
X1393731Y-15418681D02*
X1384207Y-15409157D01*
X1593730Y-15409157D02*
X1603254Y-15418681D01*
X1603254Y-15418681D02*
X1593730Y-15428205D01*
X1593730Y-15428205D02*
X1584207Y-15418681D01*
X1584207Y-15418681D02*
X1593730Y-15409157D01*
X1593730Y-15409157D02*
X1593730Y-15428205D01*
X1727064Y-15228205D02*
X1746111Y-15228205D01*
X1746111Y-15228205D02*
X1765159Y-15237729D01*
X1765159Y-15237729D02*
X1774683Y-15247253D01*
X1774683Y-15247253D02*
X1784207Y-15266300D01*
X1784207Y-15266300D02*
X1793730Y-15304395D01*
X1793730Y-15304395D02*
X1793730Y-15352014D01*
X1793730Y-15352014D02*
X1784207Y-15390110D01*
X1784207Y-15390110D02*
X1774683Y-15409157D01*
X1774683Y-15409157D02*
X1765159Y-15418681D01*
X1765159Y-15418681D02*
X1746111Y-15428205D01*
X1746111Y-15428205D02*
X1727064Y-15428205D01*
X1727064Y-15428205D02*
X1708016Y-15418681D01*
X1708016Y-15418681D02*
X1698492Y-15409157D01*
X1698492Y-15409157D02*
X1688969Y-15390110D01*
X1688969Y-15390110D02*
X1679445Y-15352014D01*
X1679445Y-15352014D02*
X1679445Y-15304395D01*
X1679445Y-15304395D02*
X1688969Y-15266300D01*
X1688969Y-15266300D02*
X1698492Y-15247253D01*
X1698492Y-15247253D02*
X1708016Y-15237729D01*
X1708016Y-15237729D02*
X1727064Y-15228205D01*
X1965159Y-15294872D02*
X1965159Y-15428205D01*
X1917540Y-15218681D02*
X1869921Y-15361538D01*
X1869921Y-15361538D02*
X1993730Y-15361538D01*
X2098492Y-15313919D02*
X2079445Y-15304395D01*
X2079445Y-15304395D02*
X2069921Y-15294872D01*
X2069921Y-15294872D02*
X2060397Y-15275824D01*
X2060397Y-15275824D02*
X2060397Y-15266300D01*
X2060397Y-15266300D02*
X2069921Y-15247253D01*
X2069921Y-15247253D02*
X2079445Y-15237729D01*
X2079445Y-15237729D02*
X2098492Y-15228205D01*
X2098492Y-15228205D02*
X2136588Y-15228205D01*
X2136588Y-15228205D02*
X2155635Y-15237729D01*
X2155635Y-15237729D02*
X2165159Y-15247253D01*
X2165159Y-15247253D02*
X2174683Y-15266300D01*
X2174683Y-15266300D02*
X2174683Y-15275824D01*
X2174683Y-15275824D02*
X2165159Y-15294872D01*
X2165159Y-15294872D02*
X2155635Y-15304395D01*
X2155635Y-15304395D02*
X2136588Y-15313919D01*
X2136588Y-15313919D02*
X2098492Y-15313919D01*
X2098492Y-15313919D02*
X2079445Y-15323443D01*
X2079445Y-15323443D02*
X2069921Y-15332967D01*
X2069921Y-15332967D02*
X2060397Y-15352014D01*
X2060397Y-15352014D02*
X2060397Y-15390110D01*
X2060397Y-15390110D02*
X2069921Y-15409157D01*
X2069921Y-15409157D02*
X2079445Y-15418681D01*
X2079445Y-15418681D02*
X2098492Y-15428205D01*
X2098492Y-15428205D02*
X2136588Y-15428205D01*
X2136588Y-15428205D02*
X2155635Y-15418681D01*
X2155635Y-15418681D02*
X2165159Y-15409157D01*
X2165159Y-15409157D02*
X2174683Y-15390110D01*
X2174683Y-15390110D02*
X2174683Y-15352014D01*
X2174683Y-15352014D02*
X2165159Y-15332967D01*
X2165159Y-15332967D02*
X2155635Y-15323443D01*
X2155635Y-15323443D02*
X2136588Y-15313919D01*
X2260397Y-15428205D02*
X2260397Y-15294872D01*
X2260397Y-15313919D02*
X2269921Y-15304395D01*
X2269921Y-15304395D02*
X2288969Y-15294872D01*
X2288969Y-15294872D02*
X2317540Y-15294872D01*
X2317540Y-15294872D02*
X2336588Y-15304395D01*
X2336588Y-15304395D02*
X2346112Y-15323443D01*
X2346112Y-15323443D02*
X2346112Y-15428205D01*
X2346112Y-15323443D02*
X2355635Y-15304395D01*
X2355635Y-15304395D02*
X2374683Y-15294872D01*
X2374683Y-15294872D02*
X2403254Y-15294872D01*
X2403254Y-15294872D02*
X2422302Y-15304395D01*
X2422302Y-15304395D02*
X2431826Y-15323443D01*
X2431826Y-15323443D02*
X2431826Y-15428205D01*
X2527064Y-15428205D02*
X2527064Y-15294872D01*
X2527064Y-15313919D02*
X2536588Y-15304395D01*
X2536588Y-15304395D02*
X2555635Y-15294872D01*
X2555635Y-15294872D02*
X2584207Y-15294872D01*
X2584207Y-15294872D02*
X2603254Y-15304395D01*
X2603254Y-15304395D02*
X2612778Y-15323443D01*
X2612778Y-15323443D02*
X2612778Y-15428205D01*
X2612778Y-15323443D02*
X2622302Y-15304395D01*
X2622302Y-15304395D02*
X2641350Y-15294872D01*
X2641350Y-15294872D02*
X2669921Y-15294872D01*
X2669921Y-15294872D02*
X2688969Y-15304395D01*
X2688969Y-15304395D02*
X2698493Y-15323443D01*
X2698493Y-15323443D02*
X2698493Y-15428205D01*
X3088969Y-15218681D02*
X2917540Y-15475824D01*
X3346112Y-15228205D02*
X3365159Y-15228205D01*
X3365159Y-15228205D02*
X3384207Y-15237729D01*
X3384207Y-15237729D02*
X3393731Y-15247253D01*
X3393731Y-15247253D02*
X3403254Y-15266300D01*
X3403254Y-15266300D02*
X3412778Y-15304395D01*
X3412778Y-15304395D02*
X3412778Y-15352014D01*
X3412778Y-15352014D02*
X3403254Y-15390110D01*
X3403254Y-15390110D02*
X3393731Y-15409157D01*
X3393731Y-15409157D02*
X3384207Y-15418681D01*
X3384207Y-15418681D02*
X3365159Y-15428205D01*
X3365159Y-15428205D02*
X3346112Y-15428205D01*
X3346112Y-15428205D02*
X3327064Y-15418681D01*
X3327064Y-15418681D02*
X3317540Y-15409157D01*
X3317540Y-15409157D02*
X3308016Y-15390110D01*
X3308016Y-15390110D02*
X3298493Y-15352014D01*
X3298493Y-15352014D02*
X3298493Y-15304395D01*
X3298493Y-15304395D02*
X3308016Y-15266300D01*
X3308016Y-15266300D02*
X3317540Y-15247253D01*
X3317540Y-15247253D02*
X3327064Y-15237729D01*
X3327064Y-15237729D02*
X3346112Y-15228205D01*
X3498493Y-15409157D02*
X3508016Y-15418681D01*
X3508016Y-15418681D02*
X3498493Y-15428205D01*
X3498493Y-15428205D02*
X3488969Y-15418681D01*
X3488969Y-15418681D02*
X3498493Y-15409157D01*
X3498493Y-15409157D02*
X3498493Y-15428205D01*
X3698493Y-15428205D02*
X3584207Y-15428205D01*
X3641350Y-15428205D02*
X3641350Y-15228205D01*
X3641350Y-15228205D02*
X3622302Y-15256776D01*
X3622302Y-15256776D02*
X3603254Y-15275824D01*
X3603254Y-15275824D02*
X3584207Y-15285348D01*
X3774683Y-15247253D02*
X3784207Y-15237729D01*
X3784207Y-15237729D02*
X3803254Y-15228205D01*
X3803254Y-15228205D02*
X3850874Y-15228205D01*
X3850874Y-15228205D02*
X3869921Y-15237729D01*
X3869921Y-15237729D02*
X3879445Y-15247253D01*
X3879445Y-15247253D02*
X3888969Y-15266300D01*
X3888969Y-15266300D02*
X3888969Y-15285348D01*
X3888969Y-15285348D02*
X3879445Y-15313919D01*
X3879445Y-15313919D02*
X3765159Y-15428205D01*
X3765159Y-15428205D02*
X3888969Y-15428205D01*
X4012778Y-15228205D02*
X4031826Y-15228205D01*
X4031826Y-15228205D02*
X4050874Y-15237729D01*
X4050874Y-15237729D02*
X4060397Y-15247253D01*
X4060397Y-15247253D02*
X4069921Y-15266300D01*
X4069921Y-15266300D02*
X4079445Y-15304395D01*
X4079445Y-15304395D02*
X4079445Y-15352014D01*
X4079445Y-15352014D02*
X4069921Y-15390110D01*
X4069921Y-15390110D02*
X4060397Y-15409157D01*
X4060397Y-15409157D02*
X4050874Y-15418681D01*
X4050874Y-15418681D02*
X4031826Y-15428205D01*
X4031826Y-15428205D02*
X4012778Y-15428205D01*
X4012778Y-15428205D02*
X3993731Y-15418681D01*
X3993731Y-15418681D02*
X3984207Y-15409157D01*
X3984207Y-15409157D02*
X3974683Y-15390110D01*
X3974683Y-15390110D02*
X3965159Y-15352014D01*
X3965159Y-15352014D02*
X3965159Y-15304395D01*
X3965159Y-15304395D02*
X3974683Y-15266300D01*
X3974683Y-15266300D02*
X3984207Y-15247253D01*
X3984207Y-15247253D02*
X3993731Y-15237729D01*
X3993731Y-15237729D02*
X4012778Y-15228205D01*
X4203255Y-15228205D02*
X4222302Y-15228205D01*
X4222302Y-15228205D02*
X4241350Y-15237729D01*
X4241350Y-15237729D02*
X4250874Y-15247253D01*
X4250874Y-15247253D02*
X4260397Y-15266300D01*
X4260397Y-15266300D02*
X4269921Y-15304395D01*
X4269921Y-15304395D02*
X4269921Y-15352014D01*
X4269921Y-15352014D02*
X4260397Y-15390110D01*
X4260397Y-15390110D02*
X4250874Y-15409157D01*
X4250874Y-15409157D02*
X4241350Y-15418681D01*
X4241350Y-15418681D02*
X4222302Y-15428205D01*
X4222302Y-15428205D02*
X4203255Y-15428205D01*
X4203255Y-15428205D02*
X4184207Y-15418681D01*
X4184207Y-15418681D02*
X4174683Y-15409157D01*
X4174683Y-15409157D02*
X4165159Y-15390110D01*
X4165159Y-15390110D02*
X4155635Y-15352014D01*
X4155635Y-15352014D02*
X4155635Y-15304395D01*
X4155635Y-15304395D02*
X4165159Y-15266300D01*
X4165159Y-15266300D02*
X4174683Y-15247253D01*
X4174683Y-15247253D02*
X4184207Y-15237729D01*
X4184207Y-15237729D02*
X4203255Y-15228205D01*
X4346112Y-15228205D02*
X4346112Y-15266300D01*
X4422302Y-15228205D02*
X4422302Y-15266300D01*
X4717540Y-15504395D02*
X4708017Y-15494872D01*
X4708017Y-15494872D02*
X4688969Y-15466300D01*
X4688969Y-15466300D02*
X4679445Y-15447253D01*
X4679445Y-15447253D02*
X4669921Y-15418681D01*
X4669921Y-15418681D02*
X4660398Y-15371062D01*
X4660398Y-15371062D02*
X4660398Y-15332967D01*
X4660398Y-15332967D02*
X4669921Y-15285348D01*
X4669921Y-15285348D02*
X4679445Y-15256776D01*
X4679445Y-15256776D02*
X4688969Y-15237729D01*
X4688969Y-15237729D02*
X4708017Y-15209157D01*
X4708017Y-15209157D02*
X4717540Y-15199633D01*
X4879445Y-15294872D02*
X4879445Y-15428205D01*
X4831826Y-15218681D02*
X4784207Y-15361538D01*
X4784207Y-15361538D02*
X4908017Y-15361538D01*
X5136588Y-15428205D02*
X5136588Y-15228205D01*
X5222302Y-15428205D02*
X5222302Y-15323443D01*
X5222302Y-15323443D02*
X5212779Y-15304395D01*
X5212779Y-15304395D02*
X5193731Y-15294872D01*
X5193731Y-15294872D02*
X5165159Y-15294872D01*
X5165159Y-15294872D02*
X5146112Y-15304395D01*
X5146112Y-15304395D02*
X5136588Y-15313919D01*
X5346112Y-15428205D02*
X5327064Y-15418681D01*
X5327064Y-15418681D02*
X5317540Y-15409157D01*
X5317540Y-15409157D02*
X5308017Y-15390110D01*
X5308017Y-15390110D02*
X5308017Y-15332967D01*
X5308017Y-15332967D02*
X5317540Y-15313919D01*
X5317540Y-15313919D02*
X5327064Y-15304395D01*
X5327064Y-15304395D02*
X5346112Y-15294872D01*
X5346112Y-15294872D02*
X5374683Y-15294872D01*
X5374683Y-15294872D02*
X5393731Y-15304395D01*
X5393731Y-15304395D02*
X5403255Y-15313919D01*
X5403255Y-15313919D02*
X5412779Y-15332967D01*
X5412779Y-15332967D02*
X5412779Y-15390110D01*
X5412779Y-15390110D02*
X5403255Y-15409157D01*
X5403255Y-15409157D02*
X5393731Y-15418681D01*
X5393731Y-15418681D02*
X5374683Y-15428205D01*
X5374683Y-15428205D02*
X5346112Y-15428205D01*
X5527064Y-15428205D02*
X5508017Y-15418681D01*
X5508017Y-15418681D02*
X5498493Y-15399633D01*
X5498493Y-15399633D02*
X5498493Y-15228205D01*
X5679445Y-15418681D02*
X5660398Y-15428205D01*
X5660398Y-15428205D02*
X5622302Y-15428205D01*
X5622302Y-15428205D02*
X5603255Y-15418681D01*
X5603255Y-15418681D02*
X5593731Y-15399633D01*
X5593731Y-15399633D02*
X5593731Y-15323443D01*
X5593731Y-15323443D02*
X5603255Y-15304395D01*
X5603255Y-15304395D02*
X5622302Y-15294872D01*
X5622302Y-15294872D02*
X5660398Y-15294872D01*
X5660398Y-15294872D02*
X5679445Y-15304395D01*
X5679445Y-15304395D02*
X5688969Y-15323443D01*
X5688969Y-15323443D02*
X5688969Y-15342491D01*
X5688969Y-15342491D02*
X5593731Y-15361538D01*
X5765159Y-15418681D02*
X5784207Y-15428205D01*
X5784207Y-15428205D02*
X5822302Y-15428205D01*
X5822302Y-15428205D02*
X5841350Y-15418681D01*
X5841350Y-15418681D02*
X5850874Y-15399633D01*
X5850874Y-15399633D02*
X5850874Y-15390110D01*
X5850874Y-15390110D02*
X5841350Y-15371062D01*
X5841350Y-15371062D02*
X5822302Y-15361538D01*
X5822302Y-15361538D02*
X5793731Y-15361538D01*
X5793731Y-15361538D02*
X5774683Y-15352014D01*
X5774683Y-15352014D02*
X5765159Y-15332967D01*
X5765159Y-15332967D02*
X5765159Y-15323443D01*
X5765159Y-15323443D02*
X5774683Y-15304395D01*
X5774683Y-15304395D02*
X5793731Y-15294872D01*
X5793731Y-15294872D02*
X5822302Y-15294872D01*
X5822302Y-15294872D02*
X5841350Y-15304395D01*
X5917540Y-15504395D02*
X5927064Y-15494872D01*
X5927064Y-15494872D02*
X5946112Y-15466300D01*
X5946112Y-15466300D02*
X5955636Y-15447253D01*
X5955636Y-15447253D02*
X5965159Y-15418681D01*
X5965159Y-15418681D02*
X5974683Y-15371062D01*
X5974683Y-15371062D02*
X5974683Y-15332967D01*
X5974683Y-15332967D02*
X5965159Y-15285348D01*
X5965159Y-15285348D02*
X5955636Y-15256776D01*
X5955636Y-15256776D02*
X5946112Y-15237729D01*
X5946112Y-15237729D02*
X5927064Y-15209157D01*
X5927064Y-15209157D02*
X5917540Y-15199633D01*
X6279445Y-15504395D02*
X6269921Y-15494872D01*
X6269921Y-15494872D02*
X6250874Y-15466300D01*
X6250874Y-15466300D02*
X6241350Y-15447253D01*
X6241350Y-15447253D02*
X6231826Y-15418681D01*
X6231826Y-15418681D02*
X6222302Y-15371062D01*
X6222302Y-15371062D02*
X6222302Y-15332967D01*
X6222302Y-15332967D02*
X6231826Y-15285348D01*
X6231826Y-15285348D02*
X6241350Y-15256776D01*
X6241350Y-15256776D02*
X6250874Y-15237729D01*
X6250874Y-15237729D02*
X6269921Y-15209157D01*
X6269921Y-15209157D02*
X6279445Y-15199633D01*
X6355636Y-15294872D02*
X6355636Y-15428205D01*
X6355636Y-15313919D02*
X6365159Y-15304395D01*
X6365159Y-15304395D02*
X6384207Y-15294872D01*
X6384207Y-15294872D02*
X6412779Y-15294872D01*
X6412779Y-15294872D02*
X6431826Y-15304395D01*
X6431826Y-15304395D02*
X6441350Y-15323443D01*
X6441350Y-15323443D02*
X6441350Y-15428205D01*
X6565159Y-15428205D02*
X6546112Y-15418681D01*
X6546112Y-15418681D02*
X6536588Y-15409157D01*
X6536588Y-15409157D02*
X6527064Y-15390110D01*
X6527064Y-15390110D02*
X6527064Y-15332967D01*
X6527064Y-15332967D02*
X6536588Y-15313919D01*
X6536588Y-15313919D02*
X6546112Y-15304395D01*
X6546112Y-15304395D02*
X6565159Y-15294872D01*
X6565159Y-15294872D02*
X6593731Y-15294872D01*
X6593731Y-15294872D02*
X6612779Y-15304395D01*
X6612779Y-15304395D02*
X6622302Y-15313919D01*
X6622302Y-15313919D02*
X6631826Y-15332967D01*
X6631826Y-15332967D02*
X6631826Y-15390110D01*
X6631826Y-15390110D02*
X6622302Y-15409157D01*
X6622302Y-15409157D02*
X6612779Y-15418681D01*
X6612779Y-15418681D02*
X6593731Y-15428205D01*
X6593731Y-15428205D02*
X6565159Y-15428205D01*
X6688969Y-15294872D02*
X6765159Y-15294872D01*
X6717540Y-15228205D02*
X6717540Y-15399633D01*
X6717540Y-15399633D02*
X6727064Y-15418681D01*
X6727064Y-15418681D02*
X6746112Y-15428205D01*
X6746112Y-15428205D02*
X6765159Y-15428205D01*
X6984207Y-15294872D02*
X6984207Y-15494872D01*
X6984207Y-15304395D02*
X7003255Y-15294872D01*
X7003255Y-15294872D02*
X7041350Y-15294872D01*
X7041350Y-15294872D02*
X7060398Y-15304395D01*
X7060398Y-15304395D02*
X7069921Y-15313919D01*
X7069921Y-15313919D02*
X7079445Y-15332967D01*
X7079445Y-15332967D02*
X7079445Y-15390110D01*
X7079445Y-15390110D02*
X7069921Y-15409157D01*
X7069921Y-15409157D02*
X7060398Y-15418681D01*
X7060398Y-15418681D02*
X7041350Y-15428205D01*
X7041350Y-15428205D02*
X7003255Y-15428205D01*
X7003255Y-15428205D02*
X6984207Y-15418681D01*
X7193731Y-15428205D02*
X7174683Y-15418681D01*
X7174683Y-15418681D02*
X7165160Y-15399633D01*
X7165160Y-15399633D02*
X7165160Y-15228205D01*
X7355636Y-15428205D02*
X7355636Y-15323443D01*
X7355636Y-15323443D02*
X7346112Y-15304395D01*
X7346112Y-15304395D02*
X7327064Y-15294872D01*
X7327064Y-15294872D02*
X7288969Y-15294872D01*
X7288969Y-15294872D02*
X7269921Y-15304395D01*
X7355636Y-15418681D02*
X7336588Y-15428205D01*
X7336588Y-15428205D02*
X7288969Y-15428205D01*
X7288969Y-15428205D02*
X7269921Y-15418681D01*
X7269921Y-15418681D02*
X7260398Y-15399633D01*
X7260398Y-15399633D02*
X7260398Y-15380586D01*
X7260398Y-15380586D02*
X7269921Y-15361538D01*
X7269921Y-15361538D02*
X7288969Y-15352014D01*
X7288969Y-15352014D02*
X7336588Y-15352014D01*
X7336588Y-15352014D02*
X7355636Y-15342491D01*
X7422302Y-15294872D02*
X7498493Y-15294872D01*
X7450874Y-15228205D02*
X7450874Y-15399633D01*
X7450874Y-15399633D02*
X7460398Y-15418681D01*
X7460398Y-15418681D02*
X7479445Y-15428205D01*
X7479445Y-15428205D02*
X7498493Y-15428205D01*
X7641350Y-15418681D02*
X7622302Y-15428205D01*
X7622302Y-15428205D02*
X7584207Y-15428205D01*
X7584207Y-15428205D02*
X7565160Y-15418681D01*
X7565160Y-15418681D02*
X7555636Y-15399633D01*
X7555636Y-15399633D02*
X7555636Y-15323443D01*
X7555636Y-15323443D02*
X7565160Y-15304395D01*
X7565160Y-15304395D02*
X7584207Y-15294872D01*
X7584207Y-15294872D02*
X7622302Y-15294872D01*
X7622302Y-15294872D02*
X7641350Y-15304395D01*
X7641350Y-15304395D02*
X7650874Y-15323443D01*
X7650874Y-15323443D02*
X7650874Y-15342491D01*
X7650874Y-15342491D02*
X7555636Y-15361538D01*
X7822302Y-15428205D02*
X7822302Y-15228205D01*
X7822302Y-15418681D02*
X7803255Y-15428205D01*
X7803255Y-15428205D02*
X7765160Y-15428205D01*
X7765160Y-15428205D02*
X7746112Y-15418681D01*
X7746112Y-15418681D02*
X7736588Y-15409157D01*
X7736588Y-15409157D02*
X7727064Y-15390110D01*
X7727064Y-15390110D02*
X7727064Y-15332967D01*
X7727064Y-15332967D02*
X7736588Y-15313919D01*
X7736588Y-15313919D02*
X7746112Y-15304395D01*
X7746112Y-15304395D02*
X7765160Y-15294872D01*
X7765160Y-15294872D02*
X7803255Y-15294872D01*
X7803255Y-15294872D02*
X7822302Y-15304395D01*
X7898493Y-15504395D02*
X7908017Y-15494872D01*
X7908017Y-15494872D02*
X7927064Y-15466300D01*
X7927064Y-15466300D02*
X7936588Y-15447253D01*
X7936588Y-15447253D02*
X7946112Y-15418681D01*
X7946112Y-15418681D02*
X7955636Y-15371062D01*
X7955636Y-15371062D02*
X7955636Y-15332967D01*
X7955636Y-15332967D02*
X7946112Y-15285348D01*
X7946112Y-15285348D02*
X7936588Y-15256776D01*
X7936588Y-15256776D02*
X7927064Y-15237729D01*
X7927064Y-15237729D02*
X7908017Y-15209157D01*
X7908017Y-15209157D02*
X7898493Y-15199633D01*
X1113189Y-15727433D02*
X1113189Y-15586010D01*
X971766Y-15586010D01*
X971766Y-15727433D01*
X1113189Y-15727433D01*
X1384207Y-15548205D02*
X1508016Y-15548205D01*
X1508016Y-15548205D02*
X1441349Y-15624395D01*
X1441349Y-15624395D02*
X1469921Y-15624395D01*
X1469921Y-15624395D02*
X1488969Y-15633919D01*
X1488969Y-15633919D02*
X1498492Y-15643443D01*
X1498492Y-15643443D02*
X1508016Y-15662491D01*
X1508016Y-15662491D02*
X1508016Y-15710110D01*
X1508016Y-15710110D02*
X1498492Y-15729157D01*
X1498492Y-15729157D02*
X1488969Y-15738681D01*
X1488969Y-15738681D02*
X1469921Y-15748205D01*
X1469921Y-15748205D02*
X1412778Y-15748205D01*
X1412778Y-15748205D02*
X1393731Y-15738681D01*
X1393731Y-15738681D02*
X1384207Y-15729157D01*
X1593730Y-15729157D02*
X1603254Y-15738681D01*
X1603254Y-15738681D02*
X1593730Y-15748205D01*
X1593730Y-15748205D02*
X1584207Y-15738681D01*
X1584207Y-15738681D02*
X1593730Y-15729157D01*
X1593730Y-15729157D02*
X1593730Y-15748205D01*
X1784207Y-15548205D02*
X1688969Y-15548205D01*
X1688969Y-15548205D02*
X1679445Y-15643443D01*
X1679445Y-15643443D02*
X1688969Y-15633919D01*
X1688969Y-15633919D02*
X1708016Y-15624395D01*
X1708016Y-15624395D02*
X1755635Y-15624395D01*
X1755635Y-15624395D02*
X1774683Y-15633919D01*
X1774683Y-15633919D02*
X1784207Y-15643443D01*
X1784207Y-15643443D02*
X1793730Y-15662491D01*
X1793730Y-15662491D02*
X1793730Y-15710110D01*
X1793730Y-15710110D02*
X1784207Y-15729157D01*
X1784207Y-15729157D02*
X1774683Y-15738681D01*
X1774683Y-15738681D02*
X1755635Y-15748205D01*
X1755635Y-15748205D02*
X1708016Y-15748205D01*
X1708016Y-15748205D02*
X1688969Y-15738681D01*
X1688969Y-15738681D02*
X1679445Y-15729157D01*
X1917540Y-15548205D02*
X1936588Y-15548205D01*
X1936588Y-15548205D02*
X1955635Y-15557729D01*
X1955635Y-15557729D02*
X1965159Y-15567253D01*
X1965159Y-15567253D02*
X1974683Y-15586300D01*
X1974683Y-15586300D02*
X1984207Y-15624395D01*
X1984207Y-15624395D02*
X1984207Y-15672014D01*
X1984207Y-15672014D02*
X1974683Y-15710110D01*
X1974683Y-15710110D02*
X1965159Y-15729157D01*
X1965159Y-15729157D02*
X1955635Y-15738681D01*
X1955635Y-15738681D02*
X1936588Y-15748205D01*
X1936588Y-15748205D02*
X1917540Y-15748205D01*
X1917540Y-15748205D02*
X1898492Y-15738681D01*
X1898492Y-15738681D02*
X1888969Y-15729157D01*
X1888969Y-15729157D02*
X1879445Y-15710110D01*
X1879445Y-15710110D02*
X1869921Y-15672014D01*
X1869921Y-15672014D02*
X1869921Y-15624395D01*
X1869921Y-15624395D02*
X1879445Y-15586300D01*
X1879445Y-15586300D02*
X1888969Y-15567253D01*
X1888969Y-15567253D02*
X1898492Y-15557729D01*
X1898492Y-15557729D02*
X1917540Y-15548205D01*
X2108016Y-15548205D02*
X2127064Y-15548205D01*
X2127064Y-15548205D02*
X2146112Y-15557729D01*
X2146112Y-15557729D02*
X2155635Y-15567253D01*
X2155635Y-15567253D02*
X2165159Y-15586300D01*
X2165159Y-15586300D02*
X2174683Y-15624395D01*
X2174683Y-15624395D02*
X2174683Y-15672014D01*
X2174683Y-15672014D02*
X2165159Y-15710110D01*
X2165159Y-15710110D02*
X2155635Y-15729157D01*
X2155635Y-15729157D02*
X2146112Y-15738681D01*
X2146112Y-15738681D02*
X2127064Y-15748205D01*
X2127064Y-15748205D02*
X2108016Y-15748205D01*
X2108016Y-15748205D02*
X2088969Y-15738681D01*
X2088969Y-15738681D02*
X2079445Y-15729157D01*
X2079445Y-15729157D02*
X2069921Y-15710110D01*
X2069921Y-15710110D02*
X2060397Y-15672014D01*
X2060397Y-15672014D02*
X2060397Y-15624395D01*
X2060397Y-15624395D02*
X2069921Y-15586300D01*
X2069921Y-15586300D02*
X2079445Y-15567253D01*
X2079445Y-15567253D02*
X2088969Y-15557729D01*
X2088969Y-15557729D02*
X2108016Y-15548205D01*
X2260397Y-15748205D02*
X2260397Y-15614872D01*
X2260397Y-15633919D02*
X2269921Y-15624395D01*
X2269921Y-15624395D02*
X2288969Y-15614872D01*
X2288969Y-15614872D02*
X2317540Y-15614872D01*
X2317540Y-15614872D02*
X2336588Y-15624395D01*
X2336588Y-15624395D02*
X2346112Y-15643443D01*
X2346112Y-15643443D02*
X2346112Y-15748205D01*
X2346112Y-15643443D02*
X2355635Y-15624395D01*
X2355635Y-15624395D02*
X2374683Y-15614872D01*
X2374683Y-15614872D02*
X2403254Y-15614872D01*
X2403254Y-15614872D02*
X2422302Y-15624395D01*
X2422302Y-15624395D02*
X2431826Y-15643443D01*
X2431826Y-15643443D02*
X2431826Y-15748205D01*
X2527064Y-15748205D02*
X2527064Y-15614872D01*
X2527064Y-15633919D02*
X2536588Y-15624395D01*
X2536588Y-15624395D02*
X2555635Y-15614872D01*
X2555635Y-15614872D02*
X2584207Y-15614872D01*
X2584207Y-15614872D02*
X2603254Y-15624395D01*
X2603254Y-15624395D02*
X2612778Y-15643443D01*
X2612778Y-15643443D02*
X2612778Y-15748205D01*
X2612778Y-15643443D02*
X2622302Y-15624395D01*
X2622302Y-15624395D02*
X2641350Y-15614872D01*
X2641350Y-15614872D02*
X2669921Y-15614872D01*
X2669921Y-15614872D02*
X2688969Y-15624395D01*
X2688969Y-15624395D02*
X2698493Y-15643443D01*
X2698493Y-15643443D02*
X2698493Y-15748205D01*
X3088969Y-15538681D02*
X2917540Y-15795824D01*
X3346112Y-15548205D02*
X3365159Y-15548205D01*
X3365159Y-15548205D02*
X3384207Y-15557729D01*
X3384207Y-15557729D02*
X3393731Y-15567253D01*
X3393731Y-15567253D02*
X3403254Y-15586300D01*
X3403254Y-15586300D02*
X3412778Y-15624395D01*
X3412778Y-15624395D02*
X3412778Y-15672014D01*
X3412778Y-15672014D02*
X3403254Y-15710110D01*
X3403254Y-15710110D02*
X3393731Y-15729157D01*
X3393731Y-15729157D02*
X3384207Y-15738681D01*
X3384207Y-15738681D02*
X3365159Y-15748205D01*
X3365159Y-15748205D02*
X3346112Y-15748205D01*
X3346112Y-15748205D02*
X3327064Y-15738681D01*
X3327064Y-15738681D02*
X3317540Y-15729157D01*
X3317540Y-15729157D02*
X3308016Y-15710110D01*
X3308016Y-15710110D02*
X3298493Y-15672014D01*
X3298493Y-15672014D02*
X3298493Y-15624395D01*
X3298493Y-15624395D02*
X3308016Y-15586300D01*
X3308016Y-15586300D02*
X3317540Y-15567253D01*
X3317540Y-15567253D02*
X3327064Y-15557729D01*
X3327064Y-15557729D02*
X3346112Y-15548205D01*
X3498493Y-15729157D02*
X3508016Y-15738681D01*
X3508016Y-15738681D02*
X3498493Y-15748205D01*
X3498493Y-15748205D02*
X3488969Y-15738681D01*
X3488969Y-15738681D02*
X3498493Y-15729157D01*
X3498493Y-15729157D02*
X3498493Y-15748205D01*
X3698493Y-15748205D02*
X3584207Y-15748205D01*
X3641350Y-15748205D02*
X3641350Y-15548205D01*
X3641350Y-15548205D02*
X3622302Y-15576776D01*
X3622302Y-15576776D02*
X3603254Y-15595824D01*
X3603254Y-15595824D02*
X3584207Y-15605348D01*
X3765159Y-15548205D02*
X3888969Y-15548205D01*
X3888969Y-15548205D02*
X3822302Y-15624395D01*
X3822302Y-15624395D02*
X3850874Y-15624395D01*
X3850874Y-15624395D02*
X3869921Y-15633919D01*
X3869921Y-15633919D02*
X3879445Y-15643443D01*
X3879445Y-15643443D02*
X3888969Y-15662491D01*
X3888969Y-15662491D02*
X3888969Y-15710110D01*
X3888969Y-15710110D02*
X3879445Y-15729157D01*
X3879445Y-15729157D02*
X3869921Y-15738681D01*
X3869921Y-15738681D02*
X3850874Y-15748205D01*
X3850874Y-15748205D02*
X3793731Y-15748205D01*
X3793731Y-15748205D02*
X3774683Y-15738681D01*
X3774683Y-15738681D02*
X3765159Y-15729157D01*
X3955635Y-15548205D02*
X4088969Y-15548205D01*
X4088969Y-15548205D02*
X4003254Y-15748205D01*
X4193731Y-15633919D02*
X4174683Y-15624395D01*
X4174683Y-15624395D02*
X4165159Y-15614872D01*
X4165159Y-15614872D02*
X4155635Y-15595824D01*
X4155635Y-15595824D02*
X4155635Y-15586300D01*
X4155635Y-15586300D02*
X4165159Y-15567253D01*
X4165159Y-15567253D02*
X4174683Y-15557729D01*
X4174683Y-15557729D02*
X4193731Y-15548205D01*
X4193731Y-15548205D02*
X4231826Y-15548205D01*
X4231826Y-15548205D02*
X4250874Y-15557729D01*
X4250874Y-15557729D02*
X4260397Y-15567253D01*
X4260397Y-15567253D02*
X4269921Y-15586300D01*
X4269921Y-15586300D02*
X4269921Y-15595824D01*
X4269921Y-15595824D02*
X4260397Y-15614872D01*
X4260397Y-15614872D02*
X4250874Y-15624395D01*
X4250874Y-15624395D02*
X4231826Y-15633919D01*
X4231826Y-15633919D02*
X4193731Y-15633919D01*
X4193731Y-15633919D02*
X4174683Y-15643443D01*
X4174683Y-15643443D02*
X4165159Y-15652967D01*
X4165159Y-15652967D02*
X4155635Y-15672014D01*
X4155635Y-15672014D02*
X4155635Y-15710110D01*
X4155635Y-15710110D02*
X4165159Y-15729157D01*
X4165159Y-15729157D02*
X4174683Y-15738681D01*
X4174683Y-15738681D02*
X4193731Y-15748205D01*
X4193731Y-15748205D02*
X4231826Y-15748205D01*
X4231826Y-15748205D02*
X4250874Y-15738681D01*
X4250874Y-15738681D02*
X4260397Y-15729157D01*
X4260397Y-15729157D02*
X4269921Y-15710110D01*
X4269921Y-15710110D02*
X4269921Y-15672014D01*
X4269921Y-15672014D02*
X4260397Y-15652967D01*
X4260397Y-15652967D02*
X4250874Y-15643443D01*
X4250874Y-15643443D02*
X4231826Y-15633919D01*
X4346112Y-15548205D02*
X4346112Y-15586300D01*
X4422302Y-15548205D02*
X4422302Y-15586300D01*
X4717540Y-15824395D02*
X4708017Y-15814872D01*
X4708017Y-15814872D02*
X4688969Y-15786300D01*
X4688969Y-15786300D02*
X4679445Y-15767253D01*
X4679445Y-15767253D02*
X4669921Y-15738681D01*
X4669921Y-15738681D02*
X4660398Y-15691062D01*
X4660398Y-15691062D02*
X4660398Y-15652967D01*
X4660398Y-15652967D02*
X4669921Y-15605348D01*
X4669921Y-15605348D02*
X4679445Y-15576776D01*
X4679445Y-15576776D02*
X4688969Y-15557729D01*
X4688969Y-15557729D02*
X4708017Y-15529157D01*
X4708017Y-15529157D02*
X4717540Y-15519633D01*
X4822302Y-15633919D02*
X4803255Y-15624395D01*
X4803255Y-15624395D02*
X4793731Y-15614872D01*
X4793731Y-15614872D02*
X4784207Y-15595824D01*
X4784207Y-15595824D02*
X4784207Y-15586300D01*
X4784207Y-15586300D02*
X4793731Y-15567253D01*
X4793731Y-15567253D02*
X4803255Y-15557729D01*
X4803255Y-15557729D02*
X4822302Y-15548205D01*
X4822302Y-15548205D02*
X4860398Y-15548205D01*
X4860398Y-15548205D02*
X4879445Y-15557729D01*
X4879445Y-15557729D02*
X4888969Y-15567253D01*
X4888969Y-15567253D02*
X4898493Y-15586300D01*
X4898493Y-15586300D02*
X4898493Y-15595824D01*
X4898493Y-15595824D02*
X4888969Y-15614872D01*
X4888969Y-15614872D02*
X4879445Y-15624395D01*
X4879445Y-15624395D02*
X4860398Y-15633919D01*
X4860398Y-15633919D02*
X4822302Y-15633919D01*
X4822302Y-15633919D02*
X4803255Y-15643443D01*
X4803255Y-15643443D02*
X4793731Y-15652967D01*
X4793731Y-15652967D02*
X4784207Y-15672014D01*
X4784207Y-15672014D02*
X4784207Y-15710110D01*
X4784207Y-15710110D02*
X4793731Y-15729157D01*
X4793731Y-15729157D02*
X4803255Y-15738681D01*
X4803255Y-15738681D02*
X4822302Y-15748205D01*
X4822302Y-15748205D02*
X4860398Y-15748205D01*
X4860398Y-15748205D02*
X4879445Y-15738681D01*
X4879445Y-15738681D02*
X4888969Y-15729157D01*
X4888969Y-15729157D02*
X4898493Y-15710110D01*
X4898493Y-15710110D02*
X4898493Y-15672014D01*
X4898493Y-15672014D02*
X4888969Y-15652967D01*
X4888969Y-15652967D02*
X4879445Y-15643443D01*
X4879445Y-15643443D02*
X4860398Y-15633919D01*
X5136588Y-15748205D02*
X5136588Y-15548205D01*
X5222302Y-15748205D02*
X5222302Y-15643443D01*
X5222302Y-15643443D02*
X5212779Y-15624395D01*
X5212779Y-15624395D02*
X5193731Y-15614872D01*
X5193731Y-15614872D02*
X5165159Y-15614872D01*
X5165159Y-15614872D02*
X5146112Y-15624395D01*
X5146112Y-15624395D02*
X5136588Y-15633919D01*
X5346112Y-15748205D02*
X5327064Y-15738681D01*
X5327064Y-15738681D02*
X5317540Y-15729157D01*
X5317540Y-15729157D02*
X5308017Y-15710110D01*
X5308017Y-15710110D02*
X5308017Y-15652967D01*
X5308017Y-15652967D02*
X5317540Y-15633919D01*
X5317540Y-15633919D02*
X5327064Y-15624395D01*
X5327064Y-15624395D02*
X5346112Y-15614872D01*
X5346112Y-15614872D02*
X5374683Y-15614872D01*
X5374683Y-15614872D02*
X5393731Y-15624395D01*
X5393731Y-15624395D02*
X5403255Y-15633919D01*
X5403255Y-15633919D02*
X5412779Y-15652967D01*
X5412779Y-15652967D02*
X5412779Y-15710110D01*
X5412779Y-15710110D02*
X5403255Y-15729157D01*
X5403255Y-15729157D02*
X5393731Y-15738681D01*
X5393731Y-15738681D02*
X5374683Y-15748205D01*
X5374683Y-15748205D02*
X5346112Y-15748205D01*
X5527064Y-15748205D02*
X5508017Y-15738681D01*
X5508017Y-15738681D02*
X5498493Y-15719633D01*
X5498493Y-15719633D02*
X5498493Y-15548205D01*
X5679445Y-15738681D02*
X5660398Y-15748205D01*
X5660398Y-15748205D02*
X5622302Y-15748205D01*
X5622302Y-15748205D02*
X5603255Y-15738681D01*
X5603255Y-15738681D02*
X5593731Y-15719633D01*
X5593731Y-15719633D02*
X5593731Y-15643443D01*
X5593731Y-15643443D02*
X5603255Y-15624395D01*
X5603255Y-15624395D02*
X5622302Y-15614872D01*
X5622302Y-15614872D02*
X5660398Y-15614872D01*
X5660398Y-15614872D02*
X5679445Y-15624395D01*
X5679445Y-15624395D02*
X5688969Y-15643443D01*
X5688969Y-15643443D02*
X5688969Y-15662491D01*
X5688969Y-15662491D02*
X5593731Y-15681538D01*
X5765159Y-15738681D02*
X5784207Y-15748205D01*
X5784207Y-15748205D02*
X5822302Y-15748205D01*
X5822302Y-15748205D02*
X5841350Y-15738681D01*
X5841350Y-15738681D02*
X5850874Y-15719633D01*
X5850874Y-15719633D02*
X5850874Y-15710110D01*
X5850874Y-15710110D02*
X5841350Y-15691062D01*
X5841350Y-15691062D02*
X5822302Y-15681538D01*
X5822302Y-15681538D02*
X5793731Y-15681538D01*
X5793731Y-15681538D02*
X5774683Y-15672014D01*
X5774683Y-15672014D02*
X5765159Y-15652967D01*
X5765159Y-15652967D02*
X5765159Y-15643443D01*
X5765159Y-15643443D02*
X5774683Y-15624395D01*
X5774683Y-15624395D02*
X5793731Y-15614872D01*
X5793731Y-15614872D02*
X5822302Y-15614872D01*
X5822302Y-15614872D02*
X5841350Y-15624395D01*
X5917540Y-15824395D02*
X5927064Y-15814872D01*
X5927064Y-15814872D02*
X5946112Y-15786300D01*
X5946112Y-15786300D02*
X5955636Y-15767253D01*
X5955636Y-15767253D02*
X5965159Y-15738681D01*
X5965159Y-15738681D02*
X5974683Y-15691062D01*
X5974683Y-15691062D02*
X5974683Y-15652967D01*
X5974683Y-15652967D02*
X5965159Y-15605348D01*
X5965159Y-15605348D02*
X5955636Y-15576776D01*
X5955636Y-15576776D02*
X5946112Y-15557729D01*
X5946112Y-15557729D02*
X5927064Y-15529157D01*
X5927064Y-15529157D02*
X5917540Y-15519633D01*
X6279445Y-15824395D02*
X6269921Y-15814872D01*
X6269921Y-15814872D02*
X6250874Y-15786300D01*
X6250874Y-15786300D02*
X6241350Y-15767253D01*
X6241350Y-15767253D02*
X6231826Y-15738681D01*
X6231826Y-15738681D02*
X6222302Y-15691062D01*
X6222302Y-15691062D02*
X6222302Y-15652967D01*
X6222302Y-15652967D02*
X6231826Y-15605348D01*
X6231826Y-15605348D02*
X6241350Y-15576776D01*
X6241350Y-15576776D02*
X6250874Y-15557729D01*
X6250874Y-15557729D02*
X6269921Y-15529157D01*
X6269921Y-15529157D02*
X6279445Y-15519633D01*
X6355636Y-15614872D02*
X6355636Y-15748205D01*
X6355636Y-15633919D02*
X6365159Y-15624395D01*
X6365159Y-15624395D02*
X6384207Y-15614872D01*
X6384207Y-15614872D02*
X6412779Y-15614872D01*
X6412779Y-15614872D02*
X6431826Y-15624395D01*
X6431826Y-15624395D02*
X6441350Y-15643443D01*
X6441350Y-15643443D02*
X6441350Y-15748205D01*
X6565159Y-15748205D02*
X6546112Y-15738681D01*
X6546112Y-15738681D02*
X6536588Y-15729157D01*
X6536588Y-15729157D02*
X6527064Y-15710110D01*
X6527064Y-15710110D02*
X6527064Y-15652967D01*
X6527064Y-15652967D02*
X6536588Y-15633919D01*
X6536588Y-15633919D02*
X6546112Y-15624395D01*
X6546112Y-15624395D02*
X6565159Y-15614872D01*
X6565159Y-15614872D02*
X6593731Y-15614872D01*
X6593731Y-15614872D02*
X6612779Y-15624395D01*
X6612779Y-15624395D02*
X6622302Y-15633919D01*
X6622302Y-15633919D02*
X6631826Y-15652967D01*
X6631826Y-15652967D02*
X6631826Y-15710110D01*
X6631826Y-15710110D02*
X6622302Y-15729157D01*
X6622302Y-15729157D02*
X6612779Y-15738681D01*
X6612779Y-15738681D02*
X6593731Y-15748205D01*
X6593731Y-15748205D02*
X6565159Y-15748205D01*
X6688969Y-15614872D02*
X6765159Y-15614872D01*
X6717540Y-15548205D02*
X6717540Y-15719633D01*
X6717540Y-15719633D02*
X6727064Y-15738681D01*
X6727064Y-15738681D02*
X6746112Y-15748205D01*
X6746112Y-15748205D02*
X6765159Y-15748205D01*
X6984207Y-15614872D02*
X6984207Y-15814872D01*
X6984207Y-15624395D02*
X7003255Y-15614872D01*
X7003255Y-15614872D02*
X7041350Y-15614872D01*
X7041350Y-15614872D02*
X7060398Y-15624395D01*
X7060398Y-15624395D02*
X7069921Y-15633919D01*
X7069921Y-15633919D02*
X7079445Y-15652967D01*
X7079445Y-15652967D02*
X7079445Y-15710110D01*
X7079445Y-15710110D02*
X7069921Y-15729157D01*
X7069921Y-15729157D02*
X7060398Y-15738681D01*
X7060398Y-15738681D02*
X7041350Y-15748205D01*
X7041350Y-15748205D02*
X7003255Y-15748205D01*
X7003255Y-15748205D02*
X6984207Y-15738681D01*
X7193731Y-15748205D02*
X7174683Y-15738681D01*
X7174683Y-15738681D02*
X7165160Y-15719633D01*
X7165160Y-15719633D02*
X7165160Y-15548205D01*
X7355636Y-15748205D02*
X7355636Y-15643443D01*
X7355636Y-15643443D02*
X7346112Y-15624395D01*
X7346112Y-15624395D02*
X7327064Y-15614872D01*
X7327064Y-15614872D02*
X7288969Y-15614872D01*
X7288969Y-15614872D02*
X7269921Y-15624395D01*
X7355636Y-15738681D02*
X7336588Y-15748205D01*
X7336588Y-15748205D02*
X7288969Y-15748205D01*
X7288969Y-15748205D02*
X7269921Y-15738681D01*
X7269921Y-15738681D02*
X7260398Y-15719633D01*
X7260398Y-15719633D02*
X7260398Y-15700586D01*
X7260398Y-15700586D02*
X7269921Y-15681538D01*
X7269921Y-15681538D02*
X7288969Y-15672014D01*
X7288969Y-15672014D02*
X7336588Y-15672014D01*
X7336588Y-15672014D02*
X7355636Y-15662491D01*
X7422302Y-15614872D02*
X7498493Y-15614872D01*
X7450874Y-15548205D02*
X7450874Y-15719633D01*
X7450874Y-15719633D02*
X7460398Y-15738681D01*
X7460398Y-15738681D02*
X7479445Y-15748205D01*
X7479445Y-15748205D02*
X7498493Y-15748205D01*
X7641350Y-15738681D02*
X7622302Y-15748205D01*
X7622302Y-15748205D02*
X7584207Y-15748205D01*
X7584207Y-15748205D02*
X7565160Y-15738681D01*
X7565160Y-15738681D02*
X7555636Y-15719633D01*
X7555636Y-15719633D02*
X7555636Y-15643443D01*
X7555636Y-15643443D02*
X7565160Y-15624395D01*
X7565160Y-15624395D02*
X7584207Y-15614872D01*
X7584207Y-15614872D02*
X7622302Y-15614872D01*
X7622302Y-15614872D02*
X7641350Y-15624395D01*
X7641350Y-15624395D02*
X7650874Y-15643443D01*
X7650874Y-15643443D02*
X7650874Y-15662491D01*
X7650874Y-15662491D02*
X7555636Y-15681538D01*
X7822302Y-15748205D02*
X7822302Y-15548205D01*
X7822302Y-15738681D02*
X7803255Y-15748205D01*
X7803255Y-15748205D02*
X7765160Y-15748205D01*
X7765160Y-15748205D02*
X7746112Y-15738681D01*
X7746112Y-15738681D02*
X7736588Y-15729157D01*
X7736588Y-15729157D02*
X7727064Y-15710110D01*
X7727064Y-15710110D02*
X7727064Y-15652967D01*
X7727064Y-15652967D02*
X7736588Y-15633919D01*
X7736588Y-15633919D02*
X7746112Y-15624395D01*
X7746112Y-15624395D02*
X7765160Y-15614872D01*
X7765160Y-15614872D02*
X7803255Y-15614872D01*
X7803255Y-15614872D02*
X7822302Y-15624395D01*
X7898493Y-15824395D02*
X7908017Y-15814872D01*
X7908017Y-15814872D02*
X7927064Y-15786300D01*
X7927064Y-15786300D02*
X7936588Y-15767253D01*
X7936588Y-15767253D02*
X7946112Y-15738681D01*
X7946112Y-15738681D02*
X7955636Y-15691062D01*
X7955636Y-15691062D02*
X7955636Y-15652967D01*
X7955636Y-15652967D02*
X7946112Y-15605348D01*
X7946112Y-15605348D02*
X7936588Y-15576776D01*
X7936588Y-15576776D02*
X7927064Y-15557729D01*
X7927064Y-15557729D02*
X7908017Y-15529157D01*
X7908017Y-15529157D02*
X7898493Y-15519633D01*
X1042477Y-16076721D02*
X1142478Y-15976721D01*
X1042477Y-15876721D01*
X942477Y-15976721D01*
X1042477Y-16076721D01*
X1384207Y-15868205D02*
X1508016Y-15868205D01*
X1508016Y-15868205D02*
X1441349Y-15944395D01*
X1441349Y-15944395D02*
X1469921Y-15944395D01*
X1469921Y-15944395D02*
X1488969Y-15953919D01*
X1488969Y-15953919D02*
X1498492Y-15963443D01*
X1498492Y-15963443D02*
X1508016Y-15982491D01*
X1508016Y-15982491D02*
X1508016Y-16030110D01*
X1508016Y-16030110D02*
X1498492Y-16049157D01*
X1498492Y-16049157D02*
X1488969Y-16058681D01*
X1488969Y-16058681D02*
X1469921Y-16068205D01*
X1469921Y-16068205D02*
X1412778Y-16068205D01*
X1412778Y-16068205D02*
X1393731Y-16058681D01*
X1393731Y-16058681D02*
X1384207Y-16049157D01*
X1593730Y-16049157D02*
X1603254Y-16058681D01*
X1603254Y-16058681D02*
X1593730Y-16068205D01*
X1593730Y-16068205D02*
X1584207Y-16058681D01*
X1584207Y-16058681D02*
X1593730Y-16049157D01*
X1593730Y-16049157D02*
X1593730Y-16068205D01*
X1698492Y-16068205D02*
X1736588Y-16068205D01*
X1736588Y-16068205D02*
X1755635Y-16058681D01*
X1755635Y-16058681D02*
X1765159Y-16049157D01*
X1765159Y-16049157D02*
X1784207Y-16020586D01*
X1784207Y-16020586D02*
X1793730Y-15982491D01*
X1793730Y-15982491D02*
X1793730Y-15906300D01*
X1793730Y-15906300D02*
X1784207Y-15887253D01*
X1784207Y-15887253D02*
X1774683Y-15877729D01*
X1774683Y-15877729D02*
X1755635Y-15868205D01*
X1755635Y-15868205D02*
X1717540Y-15868205D01*
X1717540Y-15868205D02*
X1698492Y-15877729D01*
X1698492Y-15877729D02*
X1688969Y-15887253D01*
X1688969Y-15887253D02*
X1679445Y-15906300D01*
X1679445Y-15906300D02*
X1679445Y-15953919D01*
X1679445Y-15953919D02*
X1688969Y-15972967D01*
X1688969Y-15972967D02*
X1698492Y-15982491D01*
X1698492Y-15982491D02*
X1717540Y-15992014D01*
X1717540Y-15992014D02*
X1755635Y-15992014D01*
X1755635Y-15992014D02*
X1774683Y-15982491D01*
X1774683Y-15982491D02*
X1784207Y-15972967D01*
X1784207Y-15972967D02*
X1793730Y-15953919D01*
X1908016Y-15953919D02*
X1888969Y-15944395D01*
X1888969Y-15944395D02*
X1879445Y-15934872D01*
X1879445Y-15934872D02*
X1869921Y-15915824D01*
X1869921Y-15915824D02*
X1869921Y-15906300D01*
X1869921Y-15906300D02*
X1879445Y-15887253D01*
X1879445Y-15887253D02*
X1888969Y-15877729D01*
X1888969Y-15877729D02*
X1908016Y-15868205D01*
X1908016Y-15868205D02*
X1946111Y-15868205D01*
X1946111Y-15868205D02*
X1965159Y-15877729D01*
X1965159Y-15877729D02*
X1974683Y-15887253D01*
X1974683Y-15887253D02*
X1984207Y-15906300D01*
X1984207Y-15906300D02*
X1984207Y-15915824D01*
X1984207Y-15915824D02*
X1974683Y-15934872D01*
X1974683Y-15934872D02*
X1965159Y-15944395D01*
X1965159Y-15944395D02*
X1946111Y-15953919D01*
X1946111Y-15953919D02*
X1908016Y-15953919D01*
X1908016Y-15953919D02*
X1888969Y-15963443D01*
X1888969Y-15963443D02*
X1879445Y-15972967D01*
X1879445Y-15972967D02*
X1869921Y-15992014D01*
X1869921Y-15992014D02*
X1869921Y-16030110D01*
X1869921Y-16030110D02*
X1879445Y-16049157D01*
X1879445Y-16049157D02*
X1888969Y-16058681D01*
X1888969Y-16058681D02*
X1908016Y-16068205D01*
X1908016Y-16068205D02*
X1946111Y-16068205D01*
X1946111Y-16068205D02*
X1965159Y-16058681D01*
X1965159Y-16058681D02*
X1974683Y-16049157D01*
X1974683Y-16049157D02*
X1984207Y-16030110D01*
X1984207Y-16030110D02*
X1984207Y-15992014D01*
X1984207Y-15992014D02*
X1974683Y-15972967D01*
X1974683Y-15972967D02*
X1965159Y-15963443D01*
X1965159Y-15963443D02*
X1946111Y-15953919D01*
X2098492Y-15953919D02*
X2079445Y-15944395D01*
X2079445Y-15944395D02*
X2069921Y-15934872D01*
X2069921Y-15934872D02*
X2060397Y-15915824D01*
X2060397Y-15915824D02*
X2060397Y-15906300D01*
X2060397Y-15906300D02*
X2069921Y-15887253D01*
X2069921Y-15887253D02*
X2079445Y-15877729D01*
X2079445Y-15877729D02*
X2098492Y-15868205D01*
X2098492Y-15868205D02*
X2136588Y-15868205D01*
X2136588Y-15868205D02*
X2155635Y-15877729D01*
X2155635Y-15877729D02*
X2165159Y-15887253D01*
X2165159Y-15887253D02*
X2174683Y-15906300D01*
X2174683Y-15906300D02*
X2174683Y-15915824D01*
X2174683Y-15915824D02*
X2165159Y-15934872D01*
X2165159Y-15934872D02*
X2155635Y-15944395D01*
X2155635Y-15944395D02*
X2136588Y-15953919D01*
X2136588Y-15953919D02*
X2098492Y-15953919D01*
X2098492Y-15953919D02*
X2079445Y-15963443D01*
X2079445Y-15963443D02*
X2069921Y-15972967D01*
X2069921Y-15972967D02*
X2060397Y-15992014D01*
X2060397Y-15992014D02*
X2060397Y-16030110D01*
X2060397Y-16030110D02*
X2069921Y-16049157D01*
X2069921Y-16049157D02*
X2079445Y-16058681D01*
X2079445Y-16058681D02*
X2098492Y-16068205D01*
X2098492Y-16068205D02*
X2136588Y-16068205D01*
X2136588Y-16068205D02*
X2155635Y-16058681D01*
X2155635Y-16058681D02*
X2165159Y-16049157D01*
X2165159Y-16049157D02*
X2174683Y-16030110D01*
X2174683Y-16030110D02*
X2174683Y-15992014D01*
X2174683Y-15992014D02*
X2165159Y-15972967D01*
X2165159Y-15972967D02*
X2155635Y-15963443D01*
X2155635Y-15963443D02*
X2136588Y-15953919D01*
X2260397Y-16068205D02*
X2260397Y-15934872D01*
X2260397Y-15953919D02*
X2269921Y-15944395D01*
X2269921Y-15944395D02*
X2288969Y-15934872D01*
X2288969Y-15934872D02*
X2317540Y-15934872D01*
X2317540Y-15934872D02*
X2336588Y-15944395D01*
X2336588Y-15944395D02*
X2346112Y-15963443D01*
X2346112Y-15963443D02*
X2346112Y-16068205D01*
X2346112Y-15963443D02*
X2355635Y-15944395D01*
X2355635Y-15944395D02*
X2374683Y-15934872D01*
X2374683Y-15934872D02*
X2403254Y-15934872D01*
X2403254Y-15934872D02*
X2422302Y-15944395D01*
X2422302Y-15944395D02*
X2431826Y-15963443D01*
X2431826Y-15963443D02*
X2431826Y-16068205D01*
X2527064Y-16068205D02*
X2527064Y-15934872D01*
X2527064Y-15953919D02*
X2536588Y-15944395D01*
X2536588Y-15944395D02*
X2555635Y-15934872D01*
X2555635Y-15934872D02*
X2584207Y-15934872D01*
X2584207Y-15934872D02*
X2603254Y-15944395D01*
X2603254Y-15944395D02*
X2612778Y-15963443D01*
X2612778Y-15963443D02*
X2612778Y-16068205D01*
X2612778Y-15963443D02*
X2622302Y-15944395D01*
X2622302Y-15944395D02*
X2641350Y-15934872D01*
X2641350Y-15934872D02*
X2669921Y-15934872D01*
X2669921Y-15934872D02*
X2688969Y-15944395D01*
X2688969Y-15944395D02*
X2698493Y-15963443D01*
X2698493Y-15963443D02*
X2698493Y-16068205D01*
X3088969Y-15858681D02*
X2917540Y-16115824D01*
X3346112Y-15868205D02*
X3365159Y-15868205D01*
X3365159Y-15868205D02*
X3384207Y-15877729D01*
X3384207Y-15877729D02*
X3393731Y-15887253D01*
X3393731Y-15887253D02*
X3403254Y-15906300D01*
X3403254Y-15906300D02*
X3412778Y-15944395D01*
X3412778Y-15944395D02*
X3412778Y-15992014D01*
X3412778Y-15992014D02*
X3403254Y-16030110D01*
X3403254Y-16030110D02*
X3393731Y-16049157D01*
X3393731Y-16049157D02*
X3384207Y-16058681D01*
X3384207Y-16058681D02*
X3365159Y-16068205D01*
X3365159Y-16068205D02*
X3346112Y-16068205D01*
X3346112Y-16068205D02*
X3327064Y-16058681D01*
X3327064Y-16058681D02*
X3317540Y-16049157D01*
X3317540Y-16049157D02*
X3308016Y-16030110D01*
X3308016Y-16030110D02*
X3298493Y-15992014D01*
X3298493Y-15992014D02*
X3298493Y-15944395D01*
X3298493Y-15944395D02*
X3308016Y-15906300D01*
X3308016Y-15906300D02*
X3317540Y-15887253D01*
X3317540Y-15887253D02*
X3327064Y-15877729D01*
X3327064Y-15877729D02*
X3346112Y-15868205D01*
X3498493Y-16049157D02*
X3508016Y-16058681D01*
X3508016Y-16058681D02*
X3498493Y-16068205D01*
X3498493Y-16068205D02*
X3488969Y-16058681D01*
X3488969Y-16058681D02*
X3498493Y-16049157D01*
X3498493Y-16049157D02*
X3498493Y-16068205D01*
X3698493Y-16068205D02*
X3584207Y-16068205D01*
X3641350Y-16068205D02*
X3641350Y-15868205D01*
X3641350Y-15868205D02*
X3622302Y-15896776D01*
X3622302Y-15896776D02*
X3603254Y-15915824D01*
X3603254Y-15915824D02*
X3584207Y-15925348D01*
X3879445Y-15868205D02*
X3784207Y-15868205D01*
X3784207Y-15868205D02*
X3774683Y-15963443D01*
X3774683Y-15963443D02*
X3784207Y-15953919D01*
X3784207Y-15953919D02*
X3803254Y-15944395D01*
X3803254Y-15944395D02*
X3850874Y-15944395D01*
X3850874Y-15944395D02*
X3869921Y-15953919D01*
X3869921Y-15953919D02*
X3879445Y-15963443D01*
X3879445Y-15963443D02*
X3888969Y-15982491D01*
X3888969Y-15982491D02*
X3888969Y-16030110D01*
X3888969Y-16030110D02*
X3879445Y-16049157D01*
X3879445Y-16049157D02*
X3869921Y-16058681D01*
X3869921Y-16058681D02*
X3850874Y-16068205D01*
X3850874Y-16068205D02*
X3803254Y-16068205D01*
X3803254Y-16068205D02*
X3784207Y-16058681D01*
X3784207Y-16058681D02*
X3774683Y-16049157D01*
X3955635Y-15868205D02*
X4088969Y-15868205D01*
X4088969Y-15868205D02*
X4003254Y-16068205D01*
X4203255Y-15868205D02*
X4222302Y-15868205D01*
X4222302Y-15868205D02*
X4241350Y-15877729D01*
X4241350Y-15877729D02*
X4250874Y-15887253D01*
X4250874Y-15887253D02*
X4260397Y-15906300D01*
X4260397Y-15906300D02*
X4269921Y-15944395D01*
X4269921Y-15944395D02*
X4269921Y-15992014D01*
X4269921Y-15992014D02*
X4260397Y-16030110D01*
X4260397Y-16030110D02*
X4250874Y-16049157D01*
X4250874Y-16049157D02*
X4241350Y-16058681D01*
X4241350Y-16058681D02*
X4222302Y-16068205D01*
X4222302Y-16068205D02*
X4203255Y-16068205D01*
X4203255Y-16068205D02*
X4184207Y-16058681D01*
X4184207Y-16058681D02*
X4174683Y-16049157D01*
X4174683Y-16049157D02*
X4165159Y-16030110D01*
X4165159Y-16030110D02*
X4155635Y-15992014D01*
X4155635Y-15992014D02*
X4155635Y-15944395D01*
X4155635Y-15944395D02*
X4165159Y-15906300D01*
X4165159Y-15906300D02*
X4174683Y-15887253D01*
X4174683Y-15887253D02*
X4184207Y-15877729D01*
X4184207Y-15877729D02*
X4203255Y-15868205D01*
X4346112Y-15868205D02*
X4346112Y-15906300D01*
X4422302Y-15868205D02*
X4422302Y-15906300D01*
X4717540Y-16144395D02*
X4708017Y-16134872D01*
X4708017Y-16134872D02*
X4688969Y-16106300D01*
X4688969Y-16106300D02*
X4679445Y-16087253D01*
X4679445Y-16087253D02*
X4669921Y-16058681D01*
X4669921Y-16058681D02*
X4660398Y-16011062D01*
X4660398Y-16011062D02*
X4660398Y-15972967D01*
X4660398Y-15972967D02*
X4669921Y-15925348D01*
X4669921Y-15925348D02*
X4679445Y-15896776D01*
X4679445Y-15896776D02*
X4688969Y-15877729D01*
X4688969Y-15877729D02*
X4708017Y-15849157D01*
X4708017Y-15849157D02*
X4717540Y-15839633D01*
X4879445Y-15934872D02*
X4879445Y-16068205D01*
X4831826Y-15858681D02*
X4784207Y-16001538D01*
X4784207Y-16001538D02*
X4908017Y-16001538D01*
X5136588Y-16068205D02*
X5136588Y-15868205D01*
X5222302Y-16068205D02*
X5222302Y-15963443D01*
X5222302Y-15963443D02*
X5212779Y-15944395D01*
X5212779Y-15944395D02*
X5193731Y-15934872D01*
X5193731Y-15934872D02*
X5165159Y-15934872D01*
X5165159Y-15934872D02*
X5146112Y-15944395D01*
X5146112Y-15944395D02*
X5136588Y-15953919D01*
X5346112Y-16068205D02*
X5327064Y-16058681D01*
X5327064Y-16058681D02*
X5317540Y-16049157D01*
X5317540Y-16049157D02*
X5308017Y-16030110D01*
X5308017Y-16030110D02*
X5308017Y-15972967D01*
X5308017Y-15972967D02*
X5317540Y-15953919D01*
X5317540Y-15953919D02*
X5327064Y-15944395D01*
X5327064Y-15944395D02*
X5346112Y-15934872D01*
X5346112Y-15934872D02*
X5374683Y-15934872D01*
X5374683Y-15934872D02*
X5393731Y-15944395D01*
X5393731Y-15944395D02*
X5403255Y-15953919D01*
X5403255Y-15953919D02*
X5412779Y-15972967D01*
X5412779Y-15972967D02*
X5412779Y-16030110D01*
X5412779Y-16030110D02*
X5403255Y-16049157D01*
X5403255Y-16049157D02*
X5393731Y-16058681D01*
X5393731Y-16058681D02*
X5374683Y-16068205D01*
X5374683Y-16068205D02*
X5346112Y-16068205D01*
X5527064Y-16068205D02*
X5508017Y-16058681D01*
X5508017Y-16058681D02*
X5498493Y-16039633D01*
X5498493Y-16039633D02*
X5498493Y-15868205D01*
X5679445Y-16058681D02*
X5660398Y-16068205D01*
X5660398Y-16068205D02*
X5622302Y-16068205D01*
X5622302Y-16068205D02*
X5603255Y-16058681D01*
X5603255Y-16058681D02*
X5593731Y-16039633D01*
X5593731Y-16039633D02*
X5593731Y-15963443D01*
X5593731Y-15963443D02*
X5603255Y-15944395D01*
X5603255Y-15944395D02*
X5622302Y-15934872D01*
X5622302Y-15934872D02*
X5660398Y-15934872D01*
X5660398Y-15934872D02*
X5679445Y-15944395D01*
X5679445Y-15944395D02*
X5688969Y-15963443D01*
X5688969Y-15963443D02*
X5688969Y-15982491D01*
X5688969Y-15982491D02*
X5593731Y-16001538D01*
X5765159Y-16058681D02*
X5784207Y-16068205D01*
X5784207Y-16068205D02*
X5822302Y-16068205D01*
X5822302Y-16068205D02*
X5841350Y-16058681D01*
X5841350Y-16058681D02*
X5850874Y-16039633D01*
X5850874Y-16039633D02*
X5850874Y-16030110D01*
X5850874Y-16030110D02*
X5841350Y-16011062D01*
X5841350Y-16011062D02*
X5822302Y-16001538D01*
X5822302Y-16001538D02*
X5793731Y-16001538D01*
X5793731Y-16001538D02*
X5774683Y-15992014D01*
X5774683Y-15992014D02*
X5765159Y-15972967D01*
X5765159Y-15972967D02*
X5765159Y-15963443D01*
X5765159Y-15963443D02*
X5774683Y-15944395D01*
X5774683Y-15944395D02*
X5793731Y-15934872D01*
X5793731Y-15934872D02*
X5822302Y-15934872D01*
X5822302Y-15934872D02*
X5841350Y-15944395D01*
X5917540Y-16144395D02*
X5927064Y-16134872D01*
X5927064Y-16134872D02*
X5946112Y-16106300D01*
X5946112Y-16106300D02*
X5955636Y-16087253D01*
X5955636Y-16087253D02*
X5965159Y-16058681D01*
X5965159Y-16058681D02*
X5974683Y-16011062D01*
X5974683Y-16011062D02*
X5974683Y-15972967D01*
X5974683Y-15972967D02*
X5965159Y-15925348D01*
X5965159Y-15925348D02*
X5955636Y-15896776D01*
X5955636Y-15896776D02*
X5946112Y-15877729D01*
X5946112Y-15877729D02*
X5927064Y-15849157D01*
X5927064Y-15849157D02*
X5917540Y-15839633D01*
X6279445Y-16144395D02*
X6269921Y-16134872D01*
X6269921Y-16134872D02*
X6250874Y-16106300D01*
X6250874Y-16106300D02*
X6241350Y-16087253D01*
X6241350Y-16087253D02*
X6231826Y-16058681D01*
X6231826Y-16058681D02*
X6222302Y-16011062D01*
X6222302Y-16011062D02*
X6222302Y-15972967D01*
X6222302Y-15972967D02*
X6231826Y-15925348D01*
X6231826Y-15925348D02*
X6241350Y-15896776D01*
X6241350Y-15896776D02*
X6250874Y-15877729D01*
X6250874Y-15877729D02*
X6269921Y-15849157D01*
X6269921Y-15849157D02*
X6279445Y-15839633D01*
X6355636Y-15934872D02*
X6355636Y-16068205D01*
X6355636Y-15953919D02*
X6365159Y-15944395D01*
X6365159Y-15944395D02*
X6384207Y-15934872D01*
X6384207Y-15934872D02*
X6412779Y-15934872D01*
X6412779Y-15934872D02*
X6431826Y-15944395D01*
X6431826Y-15944395D02*
X6441350Y-15963443D01*
X6441350Y-15963443D02*
X6441350Y-16068205D01*
X6565159Y-16068205D02*
X6546112Y-16058681D01*
X6546112Y-16058681D02*
X6536588Y-16049157D01*
X6536588Y-16049157D02*
X6527064Y-16030110D01*
X6527064Y-16030110D02*
X6527064Y-15972967D01*
X6527064Y-15972967D02*
X6536588Y-15953919D01*
X6536588Y-15953919D02*
X6546112Y-15944395D01*
X6546112Y-15944395D02*
X6565159Y-15934872D01*
X6565159Y-15934872D02*
X6593731Y-15934872D01*
X6593731Y-15934872D02*
X6612779Y-15944395D01*
X6612779Y-15944395D02*
X6622302Y-15953919D01*
X6622302Y-15953919D02*
X6631826Y-15972967D01*
X6631826Y-15972967D02*
X6631826Y-16030110D01*
X6631826Y-16030110D02*
X6622302Y-16049157D01*
X6622302Y-16049157D02*
X6612779Y-16058681D01*
X6612779Y-16058681D02*
X6593731Y-16068205D01*
X6593731Y-16068205D02*
X6565159Y-16068205D01*
X6688969Y-15934872D02*
X6765159Y-15934872D01*
X6717540Y-15868205D02*
X6717540Y-16039633D01*
X6717540Y-16039633D02*
X6727064Y-16058681D01*
X6727064Y-16058681D02*
X6746112Y-16068205D01*
X6746112Y-16068205D02*
X6765159Y-16068205D01*
X6984207Y-15934872D02*
X6984207Y-16134872D01*
X6984207Y-15944395D02*
X7003255Y-15934872D01*
X7003255Y-15934872D02*
X7041350Y-15934872D01*
X7041350Y-15934872D02*
X7060398Y-15944395D01*
X7060398Y-15944395D02*
X7069921Y-15953919D01*
X7069921Y-15953919D02*
X7079445Y-15972967D01*
X7079445Y-15972967D02*
X7079445Y-16030110D01*
X7079445Y-16030110D02*
X7069921Y-16049157D01*
X7069921Y-16049157D02*
X7060398Y-16058681D01*
X7060398Y-16058681D02*
X7041350Y-16068205D01*
X7041350Y-16068205D02*
X7003255Y-16068205D01*
X7003255Y-16068205D02*
X6984207Y-16058681D01*
X7193731Y-16068205D02*
X7174683Y-16058681D01*
X7174683Y-16058681D02*
X7165160Y-16039633D01*
X7165160Y-16039633D02*
X7165160Y-15868205D01*
X7355636Y-16068205D02*
X7355636Y-15963443D01*
X7355636Y-15963443D02*
X7346112Y-15944395D01*
X7346112Y-15944395D02*
X7327064Y-15934872D01*
X7327064Y-15934872D02*
X7288969Y-15934872D01*
X7288969Y-15934872D02*
X7269921Y-15944395D01*
X7355636Y-16058681D02*
X7336588Y-16068205D01*
X7336588Y-16068205D02*
X7288969Y-16068205D01*
X7288969Y-16068205D02*
X7269921Y-16058681D01*
X7269921Y-16058681D02*
X7260398Y-16039633D01*
X7260398Y-16039633D02*
X7260398Y-16020586D01*
X7260398Y-16020586D02*
X7269921Y-16001538D01*
X7269921Y-16001538D02*
X7288969Y-15992014D01*
X7288969Y-15992014D02*
X7336588Y-15992014D01*
X7336588Y-15992014D02*
X7355636Y-15982491D01*
X7422302Y-15934872D02*
X7498493Y-15934872D01*
X7450874Y-15868205D02*
X7450874Y-16039633D01*
X7450874Y-16039633D02*
X7460398Y-16058681D01*
X7460398Y-16058681D02*
X7479445Y-16068205D01*
X7479445Y-16068205D02*
X7498493Y-16068205D01*
X7641350Y-16058681D02*
X7622302Y-16068205D01*
X7622302Y-16068205D02*
X7584207Y-16068205D01*
X7584207Y-16068205D02*
X7565160Y-16058681D01*
X7565160Y-16058681D02*
X7555636Y-16039633D01*
X7555636Y-16039633D02*
X7555636Y-15963443D01*
X7555636Y-15963443D02*
X7565160Y-15944395D01*
X7565160Y-15944395D02*
X7584207Y-15934872D01*
X7584207Y-15934872D02*
X7622302Y-15934872D01*
X7622302Y-15934872D02*
X7641350Y-15944395D01*
X7641350Y-15944395D02*
X7650874Y-15963443D01*
X7650874Y-15963443D02*
X7650874Y-15982491D01*
X7650874Y-15982491D02*
X7555636Y-16001538D01*
X7822302Y-16068205D02*
X7822302Y-15868205D01*
X7822302Y-16058681D02*
X7803255Y-16068205D01*
X7803255Y-16068205D02*
X7765160Y-16068205D01*
X7765160Y-16068205D02*
X7746112Y-16058681D01*
X7746112Y-16058681D02*
X7736588Y-16049157D01*
X7736588Y-16049157D02*
X7727064Y-16030110D01*
X7727064Y-16030110D02*
X7727064Y-15972967D01*
X7727064Y-15972967D02*
X7736588Y-15953919D01*
X7736588Y-15953919D02*
X7746112Y-15944395D01*
X7746112Y-15944395D02*
X7765160Y-15934872D01*
X7765160Y-15934872D02*
X7803255Y-15934872D01*
X7803255Y-15934872D02*
X7822302Y-15944395D01*
X7898493Y-16144395D02*
X7908017Y-16134872D01*
X7908017Y-16134872D02*
X7927064Y-16106300D01*
X7927064Y-16106300D02*
X7936588Y-16087253D01*
X7936588Y-16087253D02*
X7946112Y-16058681D01*
X7946112Y-16058681D02*
X7955636Y-16011062D01*
X7955636Y-16011062D02*
X7955636Y-15972967D01*
X7955636Y-15972967D02*
X7946112Y-15925348D01*
X7946112Y-15925348D02*
X7936588Y-15896776D01*
X7936588Y-15896776D02*
X7927064Y-15877729D01*
X7927064Y-15877729D02*
X7908017Y-15849157D01*
X7908017Y-15849157D02*
X7898493Y-15839633D01*
M02*
