M48
; DRILL file {KiCad 8.0.4} date 2024-08-16T14:11:04+0900
; FORMAT={-:-/ absolute / inch / decimal}
; #@! TF.CreationDate,2024-08-16T14:11:04+09:00
; #@! TF.GenerationSoftware,Kicad,Pcbnew,8.0.4
; #@! TF.FileFunction,Plated,1,2,PTH
FMAT,2
INCH
; #@! TA.AperFunction,Plated,PTH,ViaDrill
T1C0.0118
; #@! TA.AperFunction,Plated,PTH,ComponentDrill
T2C0.0394
; #@! TA.AperFunction,Plated,PTH,ComponentDrill
T3C0.0433
%
G90
G05
T1
X0.7993Y-2.7257
X0.9804Y-2.0345
X1.554Y-3.3092
X1.7501Y-2.6204
X1.9489Y-1.8608
X2.1125Y-3.5137
X2.1444Y-3.6079
X2.212Y-3.2705
X2.2449Y-2.9134
X2.2558Y-3.3443
X2.3248Y-2.8737
X2.3453Y-2.6754
X2.3899Y-3.1813
X2.4292Y-2.0579
X2.4418Y-2.6197
X2.5339Y-1.8015
X2.5384Y-2.1524
X2.543Y-4.0651
X2.5745Y-4.4233
X2.6302Y-3.4251
X2.643Y-1.8992
X2.7018Y-3.4927
X2.7191Y-3.2912
X2.7738Y-1.7028
X2.7804Y-2.527
X2.7979Y-2.7205
X3.0748Y-2.0356
X3.0978Y-1.8397
X3.1603Y-3.1962
X3.3489Y-3.5071
X3.3729Y-3.2646
X3.4191Y-3.5785
X3.4439Y-3.3366
X3.491Y-4.4194
X3.5418Y-3.6787
X3.5473Y-2.7818
X3.5587Y-3.4407
X3.5671Y-2.5422
X3.6063Y-3.3972
X3.6226Y-4.3263
X3.628Y-3.1821
X3.7358Y-2.0493
X3.7461Y-2.9692
X3.7574Y-1.8147
X3.7771Y-2.7166
X3.7945Y-4.2239
X3.8204Y-2.1291
X3.8273Y-2.6738
X3.8349Y-1.8925
X3.8472Y-2.9623
X3.8545Y-2.4582
X3.957Y-2.2431
X3.9706Y-4.0206
X3.9849Y-2.002
X4.0026Y-2.8694
X4.0176Y-3.7235
X4.0306Y-1.9531
X4.042Y-4.2767
X4.0453Y-3.8939
X4.0535Y-1.7309
X4.154Y-3.8284
X4.1958Y-2.1281
X4.1969Y-3.7054
X4.2065Y-3.3045
X4.213Y-3.9855
X4.2206Y-3.6017
X4.253Y-3.1845
X4.2549Y-3.0097
X4.3159Y-3.0485
X4.342Y-3.8788
X4.3472Y-3.7987
X4.3486Y-3.1021
X4.3549Y-2.4602
X4.3678Y-4.0922
X4.3891Y-2.9805
X4.4056Y-3.2667
X4.4122Y-4.134
X4.4126Y-2.5812
X4.4139Y-2.873
X4.4475Y-2.2955
X4.5349Y-3.1599
X4.536Y-3.8371
X4.5425Y-2.3784
X4.5439Y-3.0647
X4.5636Y-2.755
X4.5652Y-3.3707
X4.5675Y-2.2852
X4.584Y-3.0128
X4.5974Y-4.8629
X4.6058Y-3.4115
X4.6114Y-2.5763
X4.6151Y-3.1843
X4.7263Y-3.9446
X4.7279Y-3.1039
X4.7289Y-2.3743
X4.7303Y-2.4299
X4.7351Y-4.7777
X4.7557Y-2.6445
X4.7906Y-2.5751
X4.8022Y-2.6938
X4.812Y-4.5377
X4.9195Y-4.3014
X4.9229Y-2.3878
X4.9434Y-4.0074
X4.9506Y-3.7525
X4.9614Y-4.6016
X4.9696Y-3.3011
X4.9726Y-4.2708
X4.9904Y-5.1067
X5.0126Y-4.578
X5.0223Y-4.2373
X5.0677Y-4.5504
X5.1131Y-3.5789
X5.1218Y-3.3643
X5.1438Y-2.413
X5.1452Y-3.0261
X5.1564Y-4.7797
X5.1651Y-3.552
X5.2134Y-3.5242
X5.3292Y-2.5599
X5.3372Y-2.8184
X5.3684Y-2.3604
X5.3747Y-2.8085
X5.4141Y-2.7751
X5.4181Y-2.9913
X5.4231Y-2.7349
X5.4509Y-3.5858
X5.4667Y-3.5157
X5.5047Y-4.6488
X5.5402Y-4.6213
X5.5441Y-5.2669
X5.5677Y-4.5937
X5.5795Y-5.2157
X5.6071Y-5.1685
X5.6281Y-2.9677
X5.6313Y-3.5814
X5.6414Y-3.3238
X5.6911Y-3.4637
X5.7063Y-3.9212
X5.7331Y-2.8614
X5.7575Y-2.3621
X5.7626Y-3.4933
X5.7929Y-3.4566
X5.8079Y-2.7591
X5.8087Y-3.9527
X5.8354Y-3.4441
X5.852Y-2.5629
X5.863Y-5.0228
X5.8677Y-4.6102
X5.9076Y-3.8857
X5.9327Y-3.9113
X5.9425Y-2.5629
X5.9779Y-2.6653
X5.985Y-2.4717
X6.0102Y-3.3378
X6.018Y-4.9519
X6.0258Y-5.1369
X6.048Y-3.6488
X6.0646Y-3.4868
X6.0646Y-4.0353
X6.2088Y-3.694
X6.2147Y-3.0031
X6.2265Y-3.7472
X6.2331Y-3.5465
X6.2331Y-4.2
X6.2371Y-2.209
X6.2705Y-3.3909
X6.2724Y-3.4795
X6.2764Y-3.015
X6.2985Y-2.3393
X6.3545Y-2.5485
X6.4024Y-3.5268
X6.4162Y-4.202
X6.5196Y-3.6708
X6.5355Y-3.0339
X6.5515Y-3.6378
X6.5686Y-3.3552
X6.5834Y-3.6048
X6.6781Y-4.2927
X6.7128Y-4.2549
X6.7205Y-3.7547
X6.7319Y-3.9799
X6.7513Y-4.216
X6.7568Y-3.3577
X6.7599Y-5.0674
X6.7945Y-2.3796
X6.897Y-2.5031
X6.8996Y-2.6347
X6.9316Y-4.0405
X6.9592Y-2.3334
X6.9609Y-2.4308
X6.9769Y-3.1085
X7.0759Y-2.4686
X7.0817Y-3.3685
X7.1258Y-2.5939
X7.1583Y-3.1523
X7.1615Y-3.0577
X7.1895Y-3.8259
X7.2688Y-2.5154
X7.2715Y-3.1988
X7.2728Y-2.2507
X7.293Y-3.9634
X7.2933Y-4.0822
X7.31Y-2.5168
X7.3276Y-3.3169
X7.3354Y-2.7756
X7.3473Y-3.3904
X7.3539Y-3.8825
X7.3637Y-3.7821
X7.4276Y-3.1535
X7.4785Y-3.9285
X7.4906Y-3.2365
X7.4954Y-2.9655
X7.5008Y-3.3051
X7.5178Y-4.0417
X7.5278Y-3.3753
X7.5361Y-4.1102
X7.5446Y-3.2404
X7.6316Y-3.8692
X7.6377Y-2.3213
X7.6697Y-3.7014
X7.6787Y-1.7331
X7.6861Y-1.943
X7.6979Y-3.9493
X7.7018Y-4.0094
X7.7397Y-3.9381
X7.7401Y-2.1446
X7.748Y-1.9916
X7.7709Y-2.0467
X7.7764Y-2.2041
X7.7833Y-4.0854
X7.8122Y-4.5197
X7.8696Y-2.4604
X7.8907Y-2.6687
X7.9303Y-2.7784
X7.9388Y-1.8155
X7.9455Y-2.9414
X7.9715Y-2.8407
X7.976Y-2.9944
X7.9934Y-2.8695
X7.9993Y-3.0207
X8.0077Y-2.2002
X8.021Y-3.4576
X8.0622Y-3.1792
X8.0798Y-4.3246
X8.0802Y-3.3985
X8.1348Y-3.3818
X8.1397Y-3.5904
X8.1514Y-2.5329
X8.1619Y-3.4907
X8.1733Y-3.6548
X8.1855Y-2.7876
X8.1986Y-4.1356
X8.3498Y-3.2583
X8.3622Y-1.5458
X8.4125Y-1.8095
X8.4142Y-1.7398
X8.4331Y-3.7115
X8.4394Y-1.6739
X8.5046Y-2.0009
X8.5093Y-1.9426
X8.5665Y-2.2777
X8.5973Y-4.3485
X8.6318Y-2.5822
X8.6387Y-2.4255
X8.6442Y-2.5219
X8.7178Y-1.8024
X8.732Y-2.7205
X8.7358Y-2.803
X8.7533Y-2.9899
X8.7687Y-2.1502
X8.7966Y-3.1821
X8.8046Y-3.2574
X8.8244Y-3.1339
X8.8716Y-3.325
X8.89Y-3.4546
X8.9Y-2.528
X8.9178Y-2.7216
X9.1241Y-3.2424
X9.1283Y-4.366
X9.1375Y-1.5337
X9.1598Y-4.0628
X9.1663Y-3.5273
X9.1688Y-1.8025
X9.1694Y-1.729
X9.2563Y-1.8402
X9.3021Y-2.1785
X9.3072Y-2.1139
X9.3311Y-2.2563
X9.3379Y-2.0384
X9.4073Y-2.5864
X9.4117Y-2.2225
X9.4422Y-2.5037
X9.454Y-2.578
X9.5216Y-2.9899
X9.5539Y-3.1789
X9.5549Y-2.9545
X9.557Y-3.2514
X9.5728Y-2.8844
X9.6019Y-3.4799
X9.6438Y-3.3015
X9.6906Y-3.4989
X9.6931Y-3.6225
X9.6935Y-3.6999
X9.9106Y-2.0377
X9.9534Y-1.6962
X10.0064Y-1.894
X10.0071Y-1.9651
X10.0278Y-1.8291
X10.095Y-2.1637
X10.0991Y-2.0953
X10.1525Y-2.4316
X10.2295Y-2.5821
X10.2336Y-2.6809
X10.236Y-2.7434
X10.3019Y-3.4853
X10.3252Y-2.8785
X10.3287Y-2.9448
X10.3413Y-3.1513
X10.3992Y-3.413
X10.3998Y-3.3394
X10.4246Y-3.2798
X10.4781Y-3.51
X10.4884Y-3.6092
X10.6222Y-1.9956
X10.734Y-2.6548
X11.0236Y-3.484
T2
X5.6866Y-4.3857
X5.7866Y-4.3857
X5.8866Y-4.3857
X5.9866Y-4.3857
T3
X5.5453Y-3.2437
X5.5453Y-2.1437
X5.5453Y-2.2437
X5.5453Y-2.3437
X5.5453Y-2.5437
X5.5453Y-2.6437
X5.5453Y-2.7437
X5.5453Y-3.0437
X5.5453Y-3.1437
X5.5453Y-2.8437
X5.5453Y-2.4437
X5.5453Y-2.9437
X6.1453Y-2.4437
X6.1453Y-2.9437
X6.1453Y-2.5437
X6.1453Y-2.2437
X6.1453Y-2.3437
X6.1453Y-2.6437
X6.1453Y-2.7437
X6.1453Y-2.8437
X6.1453Y-3.0437
X6.1453Y-3.1437
X6.1453Y-3.2437
X6.1453Y-2.1437
M30
