G04 #@! TF.GenerationSoftware,KiCad,Pcbnew,8.0.4*
G04 #@! TF.CreationDate,2024-08-16T14:16:44+09:00*
G04 #@! TF.ProjectId,TrueStrike42-top-plate,54727565-5374-4726-996b-6534322d746f,rev?*
G04 #@! TF.SameCoordinates,Original*
G04 #@! TF.FileFunction,Profile,NP*
%FSLAX46Y46*%
G04 Gerber Fmt 4.6, Leading zero omitted, Abs format (unit mm)*
G04 Created by KiCad (PCBNEW 8.0.4) date 2024-08-16 14:16:44*
%MOMM*%
%LPD*%
G01*
G04 APERTURE LIST*
G04 #@! TA.AperFunction,Profile*
%ADD10C,0.050000*%
G04 #@! TD*
G04 #@! TA.AperFunction,Profile*
%ADD11C,0.150000*%
G04 #@! TD*
%ADD12C,0.100000*%
G04 APERTURE END LIST*
D10*
X129258240Y-114857418D02*
X149675323Y-120338512D01*
X110249558Y-131638187D02*
X144227183Y-140671251D01*
X151839071Y-124086231D02*
X147974903Y-138507504D01*
X129241853Y-57018870D02*
X129258240Y-114857418D01*
X14970405Y-69793239D02*
G75*
G02*
X16290354Y-67625425I2104925J204099D01*
G01*
X16710756Y-125643533D02*
X72540049Y-136566027D01*
X127656223Y-55037090D02*
G75*
G02*
X129241883Y-57018869I-528123J-2047810D01*
G01*
X147974903Y-138507504D02*
G75*
G02*
X144227196Y-140671203I-2955703J792004D01*
G01*
X72087505Y-49102926D02*
X53077720Y-53885996D01*
X91037525Y-131609644D02*
X110249558Y-131638187D01*
X127656223Y-55037090D02*
X91141699Y-49121983D01*
X16710756Y-125643533D02*
G75*
G02*
X14953994Y-123343463I712244J2364933D01*
G01*
X72540049Y-136566027D02*
X91037525Y-131609644D01*
X91141699Y-49121983D02*
X72087505Y-49102926D01*
X53077720Y-53885996D02*
X16290355Y-67625428D01*
X149675323Y-120338512D02*
G75*
G02*
X151838992Y-124086210I-792023J-2955688D01*
G01*
X14970405Y-69793239D02*
X14953983Y-123343463D01*
D11*
X55574746Y-56389401D02*
X55574746Y-70389401D01*
X55574746Y-70389401D02*
X69574746Y-70389401D01*
X69574746Y-56389401D02*
X55574746Y-56389401D01*
X69574746Y-56389401D02*
X69574746Y-70389401D01*
X93674757Y-96076901D02*
X93674757Y-110076901D01*
X93674757Y-110076901D02*
X107674757Y-110076901D01*
X107674757Y-96076901D02*
X93674757Y-96076901D01*
X107674757Y-96076901D02*
X107674757Y-110076901D01*
X36524741Y-65914392D02*
X36524741Y-79914392D01*
X36524741Y-79914392D02*
X50524741Y-79914392D01*
X50524741Y-65914392D02*
X36524741Y-65914392D01*
X50524741Y-65914392D02*
X50524741Y-79914392D01*
X74624748Y-70676891D02*
X74624748Y-84676891D01*
X74624748Y-84676891D02*
X88624748Y-84676891D01*
X88624748Y-70676891D02*
X74624748Y-70676891D01*
X88624748Y-70676891D02*
X88624748Y-84676891D01*
X36524748Y-84964395D02*
X36524748Y-98964395D01*
X36524748Y-98964395D02*
X50524748Y-98964395D01*
X50524748Y-84964395D02*
X36524748Y-84964395D01*
X50524748Y-84964395D02*
X50524748Y-98964395D01*
D12*
X114313067Y-129503198D02*
X115314535Y-125765666D01*
X114489828Y-129809386D02*
X114391523Y-129757520D01*
X114327048Y-129671576D01*
X114304498Y-129565582D01*
X114313067Y-129503198D01*
X114507630Y-125549452D02*
X115773274Y-120826002D01*
X115314535Y-125765666D02*
X114507630Y-125549452D01*
X115773274Y-120826002D02*
X116580181Y-121042213D01*
X116580181Y-121042213D02*
X118069783Y-115482945D01*
X118069783Y-115482945D02*
X118105675Y-115388238D01*
X118173511Y-115286317D01*
X118262381Y-115205278D01*
X118367477Y-115147900D01*
X118483988Y-115116960D01*
X118607107Y-115115234D01*
X118682150Y-115129377D01*
X118682150Y-115129377D02*
X124791591Y-116766398D01*
X121082221Y-131575813D02*
X114489828Y-129809386D01*
X121388417Y-131399031D02*
X121336553Y-131497340D01*
X121250611Y-131561825D01*
X121144613Y-131584381D01*
X121082221Y-131575813D01*
X121766062Y-129989645D02*
X121388417Y-131399031D01*
X122661870Y-132280574D02*
X123174593Y-130367059D01*
X123174593Y-130367059D02*
X121766062Y-129989645D01*
X124683175Y-119102823D02*
X126091711Y-119480239D01*
X124791591Y-116766398D02*
X124886290Y-116802289D01*
X124988204Y-116870126D01*
X125069237Y-116959000D01*
X125126612Y-117064099D01*
X125157550Y-117180615D01*
X125159275Y-117303736D01*
X125145133Y-117378779D01*
X125145133Y-117378779D02*
X124683175Y-119102823D01*
X126091711Y-119480239D02*
X126285333Y-118757627D01*
X126285333Y-118757627D02*
X139808281Y-122381091D01*
X136184820Y-135904038D02*
X122661870Y-132280574D01*
X136697543Y-133990523D02*
X136184820Y-135904038D01*
X137747527Y-135782443D02*
X138125171Y-134373054D01*
X137924307Y-136088636D02*
X137825990Y-136036767D01*
X137761510Y-135950821D01*
X137738959Y-135844827D01*
X137747527Y-135782443D01*
X138125171Y-134373054D02*
X136697543Y-133990523D01*
X139614658Y-123103701D02*
X141042286Y-123486234D01*
X139808281Y-122381091D02*
X139614658Y-123103701D01*
X141042286Y-123486234D02*
X141504243Y-121762189D01*
X141504243Y-121762189D02*
X141540136Y-121667483D01*
X141607974Y-121565562D01*
X141696847Y-121484525D01*
X141801944Y-121427147D01*
X141918456Y-121396207D01*
X142041571Y-121394480D01*
X142116609Y-121408622D01*
X142116609Y-121408622D02*
X148216794Y-123043162D01*
X144507445Y-137852584D02*
X137924307Y-136088636D01*
X144813641Y-137675803D02*
X144761774Y-137774110D01*
X144675827Y-137838593D01*
X144569831Y-137861150D01*
X144507445Y-137852584D01*
X145815110Y-133938268D02*
X144813641Y-137675803D01*
X146621997Y-134154473D02*
X145815110Y-133938268D01*
X147080755Y-129214817D02*
X147887641Y-129431021D01*
X147887641Y-129431021D02*
X146621997Y-134154473D01*
X148216794Y-123043162D02*
X148311500Y-123079055D01*
X148413420Y-123146893D01*
X148494457Y-123235768D01*
X148551834Y-123340868D01*
X148582774Y-123457384D01*
X148584499Y-123580505D01*
X148570356Y-123655548D01*
X148570356Y-123655548D02*
X147080755Y-129214817D01*
D11*
X93674754Y-115126896D02*
X93674754Y-129126896D01*
X93674754Y-129126896D02*
X107674754Y-129126896D01*
X107674754Y-115126896D02*
X93674754Y-115126896D01*
X107674754Y-115126896D02*
X107674754Y-129126896D01*
X17474748Y-89726899D02*
X17474748Y-103726899D01*
X17474748Y-103726899D02*
X31474748Y-103726899D01*
X31474748Y-89726899D02*
X17474748Y-89726899D01*
X31474748Y-89726899D02*
X31474748Y-103726899D01*
X93674763Y-57976897D02*
X93674763Y-71976897D01*
X93674763Y-71976897D02*
X107674763Y-71976897D01*
X107674763Y-57976897D02*
X93674763Y-57976897D01*
X107674763Y-57976897D02*
X107674763Y-71976897D01*
X55574764Y-94489399D02*
X55574764Y-108489399D01*
X55574764Y-108489399D02*
X69574764Y-108489399D01*
X69574764Y-94489399D02*
X55574764Y-94489399D01*
X69574764Y-94489399D02*
X69574764Y-108489399D01*
X112724763Y-77026906D02*
X112724763Y-91026906D01*
X112724763Y-91026906D02*
X126724763Y-91026906D01*
X126724763Y-77026906D02*
X112724763Y-77026906D01*
X126724763Y-77026906D02*
X126724763Y-91026906D01*
X17474753Y-70676892D02*
X17474753Y-84676892D01*
X17474753Y-84676892D02*
X31474753Y-84676892D01*
X31474753Y-70676892D02*
X17474753Y-70676892D01*
X31474753Y-70676892D02*
X31474753Y-84676892D01*
X17474752Y-108776902D02*
X17474752Y-122776902D01*
X17474752Y-122776902D02*
X31474752Y-122776902D01*
X31474752Y-108776902D02*
X17474752Y-108776902D01*
X31474752Y-108776902D02*
X31474752Y-122776902D01*
X55574752Y-75439412D02*
X55574752Y-89439412D01*
X55574752Y-89439412D02*
X69574752Y-89439412D01*
X69574752Y-75439412D02*
X55574752Y-75439412D01*
X69574752Y-75439412D02*
X69574752Y-89439412D01*
X74624757Y-89726901D02*
X74624757Y-103726901D01*
X74624757Y-103726901D02*
X88624757Y-103726901D01*
X88624757Y-89726901D02*
X74624757Y-89726901D01*
X88624757Y-89726901D02*
X88624757Y-103726901D01*
X36524745Y-104014396D02*
X36524745Y-118014396D01*
X36524745Y-118014396D02*
X50524745Y-118014396D01*
X50524745Y-104014396D02*
X36524745Y-104014396D01*
X50524745Y-104014396D02*
X50524745Y-118014396D01*
X70694713Y-119978426D02*
X74318179Y-133501386D01*
X74318179Y-133501386D02*
X87841139Y-129877920D01*
X84217673Y-116354960D02*
X70694713Y-119978426D01*
X84217673Y-116354960D02*
X87841139Y-129877920D01*
X112724755Y-96076893D02*
X112724755Y-110076893D01*
X112724755Y-110076893D02*
X126724755Y-110076893D01*
X126724755Y-96076893D02*
X112724755Y-96076893D01*
X126724755Y-96076893D02*
X126724755Y-110076893D01*
X93674747Y-77026895D02*
X93674747Y-91026895D01*
X93674747Y-91026895D02*
X107674747Y-91026895D01*
X107674747Y-77026895D02*
X93674747Y-77026895D01*
X107674747Y-77026895D02*
X107674747Y-91026895D01*
X74624737Y-51626894D02*
X74624737Y-65626894D01*
X74624737Y-65626894D02*
X88624737Y-65626894D01*
X88624737Y-51626894D02*
X74624737Y-51626894D01*
X88624737Y-51626894D02*
X88624737Y-65626894D01*
X112724755Y-57976909D02*
X112724755Y-71976909D01*
X112724755Y-71976909D02*
X126724755Y-71976909D01*
X126724755Y-57976909D02*
X112724755Y-57976909D01*
X126724755Y-57976909D02*
X126724755Y-71976909D01*
M02*
