%TF.GenerationSoftware,KiCad,Pcbnew,8.0.4*%
%TF.CreationDate,2024-08-16T14:14:41+09:00*%
%TF.ProjectId,TrueStrike42-cover,54727565-5374-4726-996b-6534322d636f,rev?*%
%TF.SameCoordinates,Original*%
%TF.FileFunction,Legend,Bot*%
%TF.FilePolarity,Positive*%
%FSLAX46Y46*%
G04 Gerber Fmt 4.6, Leading zero omitted, Abs format (unit mm)*
G04 Created by KiCad (PCBNEW 8.0.4) date 2024-08-16 14:14:41*
%MOMM*%
%LPD*%
G01*
G04 APERTURE LIST*
%ADD10C,0.100000*%
%ADD11C,2.200000*%
G04 APERTURE END LIST*
D10*
X152355238Y-140096895D02*
X152355238Y-140668323D01*
X152355238Y-140668323D02*
X152393333Y-140782609D01*
X152393333Y-140782609D02*
X152469524Y-140858800D01*
X152469524Y-140858800D02*
X152583809Y-140896895D01*
X152583809Y-140896895D02*
X152660000Y-140896895D01*
X151593333Y-140896895D02*
X151974285Y-140896895D01*
X151974285Y-140896895D02*
X151974285Y-140096895D01*
X150869523Y-140820704D02*
X150907619Y-140858800D01*
X150907619Y-140858800D02*
X151021904Y-140896895D01*
X151021904Y-140896895D02*
X151098095Y-140896895D01*
X151098095Y-140896895D02*
X151212381Y-140858800D01*
X151212381Y-140858800D02*
X151288571Y-140782609D01*
X151288571Y-140782609D02*
X151326666Y-140706419D01*
X151326666Y-140706419D02*
X151364762Y-140554038D01*
X151364762Y-140554038D02*
X151364762Y-140439752D01*
X151364762Y-140439752D02*
X151326666Y-140287371D01*
X151326666Y-140287371D02*
X151288571Y-140211180D01*
X151288571Y-140211180D02*
X151212381Y-140134990D01*
X151212381Y-140134990D02*
X151098095Y-140096895D01*
X151098095Y-140096895D02*
X151021904Y-140096895D01*
X151021904Y-140096895D02*
X150907619Y-140134990D01*
X150907619Y-140134990D02*
X150869523Y-140173085D01*
X150298095Y-140096895D02*
X150298095Y-140668323D01*
X150298095Y-140668323D02*
X150336190Y-140782609D01*
X150336190Y-140782609D02*
X150412381Y-140858800D01*
X150412381Y-140858800D02*
X150526666Y-140896895D01*
X150526666Y-140896895D02*
X150602857Y-140896895D01*
X149536190Y-140896895D02*
X149917142Y-140896895D01*
X149917142Y-140896895D02*
X149917142Y-140096895D01*
X148812380Y-140820704D02*
X148850476Y-140858800D01*
X148850476Y-140858800D02*
X148964761Y-140896895D01*
X148964761Y-140896895D02*
X149040952Y-140896895D01*
X149040952Y-140896895D02*
X149155238Y-140858800D01*
X149155238Y-140858800D02*
X149231428Y-140782609D01*
X149231428Y-140782609D02*
X149269523Y-140706419D01*
X149269523Y-140706419D02*
X149307619Y-140554038D01*
X149307619Y-140554038D02*
X149307619Y-140439752D01*
X149307619Y-140439752D02*
X149269523Y-140287371D01*
X149269523Y-140287371D02*
X149231428Y-140211180D01*
X149231428Y-140211180D02*
X149155238Y-140134990D01*
X149155238Y-140134990D02*
X149040952Y-140096895D01*
X149040952Y-140096895D02*
X148964761Y-140096895D01*
X148964761Y-140096895D02*
X148850476Y-140134990D01*
X148850476Y-140134990D02*
X148812380Y-140173085D01*
X148240952Y-140096895D02*
X148240952Y-140668323D01*
X148240952Y-140668323D02*
X148279047Y-140782609D01*
X148279047Y-140782609D02*
X148355238Y-140858800D01*
X148355238Y-140858800D02*
X148469523Y-140896895D01*
X148469523Y-140896895D02*
X148545714Y-140896895D01*
X147479047Y-140896895D02*
X147859999Y-140896895D01*
X147859999Y-140896895D02*
X147859999Y-140096895D01*
X146755237Y-140820704D02*
X146793333Y-140858800D01*
X146793333Y-140858800D02*
X146907618Y-140896895D01*
X146907618Y-140896895D02*
X146983809Y-140896895D01*
X146983809Y-140896895D02*
X147098095Y-140858800D01*
X147098095Y-140858800D02*
X147174285Y-140782609D01*
X147174285Y-140782609D02*
X147212380Y-140706419D01*
X147212380Y-140706419D02*
X147250476Y-140554038D01*
X147250476Y-140554038D02*
X147250476Y-140439752D01*
X147250476Y-140439752D02*
X147212380Y-140287371D01*
X147212380Y-140287371D02*
X147174285Y-140211180D01*
X147174285Y-140211180D02*
X147098095Y-140134990D01*
X147098095Y-140134990D02*
X146983809Y-140096895D01*
X146983809Y-140096895D02*
X146907618Y-140096895D01*
X146907618Y-140096895D02*
X146793333Y-140134990D01*
X146793333Y-140134990D02*
X146755237Y-140173085D01*
X146183809Y-140096895D02*
X146183809Y-140668323D01*
X146183809Y-140668323D02*
X146221904Y-140782609D01*
X146221904Y-140782609D02*
X146298095Y-140858800D01*
X146298095Y-140858800D02*
X146412380Y-140896895D01*
X146412380Y-140896895D02*
X146488571Y-140896895D01*
X145421904Y-140896895D02*
X145802856Y-140896895D01*
X145802856Y-140896895D02*
X145802856Y-140096895D01*
X144698094Y-140820704D02*
X144736190Y-140858800D01*
X144736190Y-140858800D02*
X144850475Y-140896895D01*
X144850475Y-140896895D02*
X144926666Y-140896895D01*
X144926666Y-140896895D02*
X145040952Y-140858800D01*
X145040952Y-140858800D02*
X145117142Y-140782609D01*
X145117142Y-140782609D02*
X145155237Y-140706419D01*
X145155237Y-140706419D02*
X145193333Y-140554038D01*
X145193333Y-140554038D02*
X145193333Y-140439752D01*
X145193333Y-140439752D02*
X145155237Y-140287371D01*
X145155237Y-140287371D02*
X145117142Y-140211180D01*
X145117142Y-140211180D02*
X145040952Y-140134990D01*
X145040952Y-140134990D02*
X144926666Y-140096895D01*
X144926666Y-140096895D02*
X144850475Y-140096895D01*
X144850475Y-140096895D02*
X144736190Y-140134990D01*
X144736190Y-140134990D02*
X144698094Y-140173085D01*
%LPC*%
D11*
X136267643Y-104356038D03*
X131517643Y-126356040D03*
X160267640Y-104356042D03*
X165017642Y-126356034D03*
%LPD*%
M02*
