%TF.GenerationSoftware,KiCad,Pcbnew,8.0.4*%
%TF.CreationDate,2024-08-16T14:16:27+09:00*%
%TF.ProjectId,TrueStrike42-bottom-plate,54727565-5374-4726-996b-6534322d626f,rev?*%
%TF.SameCoordinates,Original*%
%TF.FileFunction,Drillmap*%
%TF.FilePolarity,Positive*%
%FSLAX45Y45*%
G04 Gerber Fmt 4.5, Leading zero omitted, Abs format (unit mm)*
G04 Created by KiCad (PCBNEW 8.0.4) date 2024-08-16 14:16:27*
%MOMM*%
%LPD*%
G01*
G04 APERTURE LIST*
%ADD10C,0.050000*%
%ADD11C,0.200000*%
%ADD12C,0.220000*%
%ADD13C,0.320000*%
G04 APERTURE END LIST*
D10*
X6661981Y-4845253D02*
X2752991Y-5220253D01*
X13476982Y-15740253D02*
X16251981Y-15740252D01*
X16251981Y-15740252D02*
X19561980Y-13835252D01*
X26986980Y-5220253D02*
G75*
G02*
X27170583Y-5395484I-24990J-209987D01*
G01*
X2569387Y-5395484D02*
X1181819Y-10567614D01*
X6401981Y-13335253D02*
X8316980Y-13335252D01*
X19276980Y-5370253D02*
X15761979Y-6953000D01*
X21116981Y-4875252D02*
X19276980Y-5370253D01*
X13981982Y-6953000D02*
X10461980Y-5370253D01*
X10461980Y-5370253D02*
X8621980Y-4875253D01*
X1291980Y-10835252D02*
X6401981Y-13335253D01*
X8621980Y-4875253D02*
X6661981Y-4845253D01*
X1291980Y-10835252D02*
G75*
G02*
X1181820Y-10567614I130006J210001D01*
G01*
X23331981Y-13340252D02*
X28446982Y-10835253D01*
X28557142Y-10567613D02*
X27170585Y-5395484D01*
X26986980Y-5220253D02*
X23081981Y-4840253D01*
X2569387Y-5395484D02*
G75*
G02*
X2752991Y-5220253I208600J-34764D01*
G01*
X15761979Y-6953000D02*
X13981982Y-6953000D01*
X19561980Y-13835252D02*
X21421981Y-13340253D01*
X23081981Y-4840253D02*
X21116981Y-4875252D01*
X21421981Y-13340253D02*
X23331981Y-13340252D01*
X10171981Y-13835254D02*
X13476982Y-15740253D01*
X28557142Y-10567613D02*
G75*
G02*
X28446980Y-10835250I-240162J-57637D01*
G01*
X8316980Y-13335252D02*
X10171981Y-13835254D01*
D11*
D12*
X3255106Y-11185251D02*
X3475106Y-11405251D01*
X3475106Y-11185251D02*
X3255106Y-11405251D01*
X4185106Y-5355252D02*
X4405106Y-5575252D01*
X4405106Y-5355252D02*
X4185106Y-5575252D01*
X10455106Y-5715251D02*
X10675106Y-5935251D01*
X10675106Y-5715251D02*
X10455106Y-5935251D01*
X10504106Y-12643251D02*
X10724106Y-12863251D01*
X10724106Y-12643251D02*
X10504106Y-12863251D01*
X19006106Y-12643251D02*
X19226106Y-12863251D01*
X19226106Y-12643251D02*
X19006106Y-12863251D01*
X19055106Y-5715251D02*
X19275106Y-5935251D01*
X19275106Y-5715251D02*
X19055106Y-5935251D01*
X25325106Y-5355251D02*
X25545106Y-5575251D01*
X25545106Y-5355251D02*
X25325106Y-5575251D01*
X26255106Y-11185252D02*
X26475106Y-11405252D01*
X26475106Y-11185252D02*
X26255106Y-11405252D01*
D13*
X15029000Y-11954000D02*
G75*
G02*
X14709000Y-11954000I-160000J0D01*
G01*
X14709000Y-11954000D02*
G75*
G02*
X15029000Y-11954000I160000J0D01*
G01*
D11*
X1433277Y-16054237D02*
X1433277Y-15854237D01*
X1433277Y-15854237D02*
X1480896Y-15854237D01*
X1480896Y-15854237D02*
X1509467Y-15863760D01*
X1509467Y-15863760D02*
X1528515Y-15882808D01*
X1528515Y-15882808D02*
X1538039Y-15901856D01*
X1538039Y-15901856D02*
X1547563Y-15939951D01*
X1547563Y-15939951D02*
X1547563Y-15968522D01*
X1547563Y-15968522D02*
X1538039Y-16006618D01*
X1538039Y-16006618D02*
X1528515Y-16025665D01*
X1528515Y-16025665D02*
X1509467Y-16044713D01*
X1509467Y-16044713D02*
X1480896Y-16054237D01*
X1480896Y-16054237D02*
X1433277Y-16054237D01*
X1633277Y-16054237D02*
X1633277Y-15920903D01*
X1633277Y-15958999D02*
X1642801Y-15939951D01*
X1642801Y-15939951D02*
X1652324Y-15930427D01*
X1652324Y-15930427D02*
X1671372Y-15920903D01*
X1671372Y-15920903D02*
X1690420Y-15920903D01*
X1757086Y-16054237D02*
X1757086Y-15920903D01*
X1757086Y-15854237D02*
X1747563Y-15863760D01*
X1747563Y-15863760D02*
X1757086Y-15873284D01*
X1757086Y-15873284D02*
X1766610Y-15863760D01*
X1766610Y-15863760D02*
X1757086Y-15854237D01*
X1757086Y-15854237D02*
X1757086Y-15873284D01*
X1880896Y-16054237D02*
X1861848Y-16044713D01*
X1861848Y-16044713D02*
X1852324Y-16025665D01*
X1852324Y-16025665D02*
X1852324Y-15854237D01*
X1985658Y-16054237D02*
X1966610Y-16044713D01*
X1966610Y-16044713D02*
X1957086Y-16025665D01*
X1957086Y-16025665D02*
X1957086Y-15854237D01*
X2214229Y-16054237D02*
X2214229Y-15854237D01*
X2214229Y-15854237D02*
X2280896Y-15997094D01*
X2280896Y-15997094D02*
X2347563Y-15854237D01*
X2347563Y-15854237D02*
X2347563Y-16054237D01*
X2528515Y-16054237D02*
X2528515Y-15949475D01*
X2528515Y-15949475D02*
X2518991Y-15930427D01*
X2518991Y-15930427D02*
X2499944Y-15920903D01*
X2499944Y-15920903D02*
X2461848Y-15920903D01*
X2461848Y-15920903D02*
X2442801Y-15930427D01*
X2528515Y-16044713D02*
X2509467Y-16054237D01*
X2509467Y-16054237D02*
X2461848Y-16054237D01*
X2461848Y-16054237D02*
X2442801Y-16044713D01*
X2442801Y-16044713D02*
X2433277Y-16025665D01*
X2433277Y-16025665D02*
X2433277Y-16006618D01*
X2433277Y-16006618D02*
X2442801Y-15987570D01*
X2442801Y-15987570D02*
X2461848Y-15978046D01*
X2461848Y-15978046D02*
X2509467Y-15978046D01*
X2509467Y-15978046D02*
X2528515Y-15968522D01*
X2623753Y-15920903D02*
X2623753Y-16120903D01*
X2623753Y-15930427D02*
X2642801Y-15920903D01*
X2642801Y-15920903D02*
X2680896Y-15920903D01*
X2680896Y-15920903D02*
X2699944Y-15930427D01*
X2699944Y-15930427D02*
X2709467Y-15939951D01*
X2709467Y-15939951D02*
X2718991Y-15958999D01*
X2718991Y-15958999D02*
X2718991Y-16016141D01*
X2718991Y-16016141D02*
X2709467Y-16035189D01*
X2709467Y-16035189D02*
X2699944Y-16044713D01*
X2699944Y-16044713D02*
X2680896Y-16054237D01*
X2680896Y-16054237D02*
X2642801Y-16054237D01*
X2642801Y-16054237D02*
X2623753Y-16044713D01*
X2804705Y-16035189D02*
X2814229Y-16044713D01*
X2814229Y-16044713D02*
X2804705Y-16054237D01*
X2804705Y-16054237D02*
X2795182Y-16044713D01*
X2795182Y-16044713D02*
X2804705Y-16035189D01*
X2804705Y-16035189D02*
X2804705Y-16054237D01*
X2804705Y-15930427D02*
X2814229Y-15939951D01*
X2814229Y-15939951D02*
X2804705Y-15949475D01*
X2804705Y-15949475D02*
X2795182Y-15939951D01*
X2795182Y-15939951D02*
X2804705Y-15930427D01*
X2804705Y-15930427D02*
X2804705Y-15949475D01*
X972500Y-16282753D02*
X1172500Y-16482753D01*
X1172500Y-16282753D02*
X972500Y-16482753D01*
X1423753Y-16293284D02*
X1433277Y-16283760D01*
X1433277Y-16283760D02*
X1452324Y-16274237D01*
X1452324Y-16274237D02*
X1499944Y-16274237D01*
X1499944Y-16274237D02*
X1518991Y-16283760D01*
X1518991Y-16283760D02*
X1528515Y-16293284D01*
X1528515Y-16293284D02*
X1538039Y-16312332D01*
X1538039Y-16312332D02*
X1538039Y-16331379D01*
X1538039Y-16331379D02*
X1528515Y-16359951D01*
X1528515Y-16359951D02*
X1414229Y-16474237D01*
X1414229Y-16474237D02*
X1538039Y-16474237D01*
X1623753Y-16455189D02*
X1633277Y-16464713D01*
X1633277Y-16464713D02*
X1623753Y-16474237D01*
X1623753Y-16474237D02*
X1614229Y-16464713D01*
X1614229Y-16464713D02*
X1623753Y-16455189D01*
X1623753Y-16455189D02*
X1623753Y-16474237D01*
X1709467Y-16293284D02*
X1718991Y-16283760D01*
X1718991Y-16283760D02*
X1738039Y-16274237D01*
X1738039Y-16274237D02*
X1785658Y-16274237D01*
X1785658Y-16274237D02*
X1804705Y-16283760D01*
X1804705Y-16283760D02*
X1814229Y-16293284D01*
X1814229Y-16293284D02*
X1823753Y-16312332D01*
X1823753Y-16312332D02*
X1823753Y-16331379D01*
X1823753Y-16331379D02*
X1814229Y-16359951D01*
X1814229Y-16359951D02*
X1699944Y-16474237D01*
X1699944Y-16474237D02*
X1823753Y-16474237D01*
X1947563Y-16274237D02*
X1966610Y-16274237D01*
X1966610Y-16274237D02*
X1985658Y-16283760D01*
X1985658Y-16283760D02*
X1995182Y-16293284D01*
X1995182Y-16293284D02*
X2004705Y-16312332D01*
X2004705Y-16312332D02*
X2014229Y-16350427D01*
X2014229Y-16350427D02*
X2014229Y-16398046D01*
X2014229Y-16398046D02*
X2004705Y-16436141D01*
X2004705Y-16436141D02*
X1995182Y-16455189D01*
X1995182Y-16455189D02*
X1985658Y-16464713D01*
X1985658Y-16464713D02*
X1966610Y-16474237D01*
X1966610Y-16474237D02*
X1947563Y-16474237D01*
X1947563Y-16474237D02*
X1928515Y-16464713D01*
X1928515Y-16464713D02*
X1918991Y-16455189D01*
X1918991Y-16455189D02*
X1909467Y-16436141D01*
X1909467Y-16436141D02*
X1899944Y-16398046D01*
X1899944Y-16398046D02*
X1899944Y-16350427D01*
X1899944Y-16350427D02*
X1909467Y-16312332D01*
X1909467Y-16312332D02*
X1918991Y-16293284D01*
X1918991Y-16293284D02*
X1928515Y-16283760D01*
X1928515Y-16283760D02*
X1947563Y-16274237D01*
X2138039Y-16274237D02*
X2157087Y-16274237D01*
X2157087Y-16274237D02*
X2176134Y-16283760D01*
X2176134Y-16283760D02*
X2185658Y-16293284D01*
X2185658Y-16293284D02*
X2195182Y-16312332D01*
X2195182Y-16312332D02*
X2204706Y-16350427D01*
X2204706Y-16350427D02*
X2204706Y-16398046D01*
X2204706Y-16398046D02*
X2195182Y-16436141D01*
X2195182Y-16436141D02*
X2185658Y-16455189D01*
X2185658Y-16455189D02*
X2176134Y-16464713D01*
X2176134Y-16464713D02*
X2157087Y-16474237D01*
X2157087Y-16474237D02*
X2138039Y-16474237D01*
X2138039Y-16474237D02*
X2118991Y-16464713D01*
X2118991Y-16464713D02*
X2109467Y-16455189D01*
X2109467Y-16455189D02*
X2099944Y-16436141D01*
X2099944Y-16436141D02*
X2090420Y-16398046D01*
X2090420Y-16398046D02*
X2090420Y-16350427D01*
X2090420Y-16350427D02*
X2099944Y-16312332D01*
X2099944Y-16312332D02*
X2109467Y-16293284D01*
X2109467Y-16293284D02*
X2118991Y-16283760D01*
X2118991Y-16283760D02*
X2138039Y-16274237D01*
X2290420Y-16474237D02*
X2290420Y-16340903D01*
X2290420Y-16359951D02*
X2299944Y-16350427D01*
X2299944Y-16350427D02*
X2318991Y-16340903D01*
X2318991Y-16340903D02*
X2347563Y-16340903D01*
X2347563Y-16340903D02*
X2366610Y-16350427D01*
X2366610Y-16350427D02*
X2376134Y-16369475D01*
X2376134Y-16369475D02*
X2376134Y-16474237D01*
X2376134Y-16369475D02*
X2385658Y-16350427D01*
X2385658Y-16350427D02*
X2404706Y-16340903D01*
X2404706Y-16340903D02*
X2433277Y-16340903D01*
X2433277Y-16340903D02*
X2452325Y-16350427D01*
X2452325Y-16350427D02*
X2461848Y-16369475D01*
X2461848Y-16369475D02*
X2461848Y-16474237D01*
X2557087Y-16474237D02*
X2557087Y-16340903D01*
X2557087Y-16359951D02*
X2566610Y-16350427D01*
X2566610Y-16350427D02*
X2585658Y-16340903D01*
X2585658Y-16340903D02*
X2614229Y-16340903D01*
X2614229Y-16340903D02*
X2633277Y-16350427D01*
X2633277Y-16350427D02*
X2642801Y-16369475D01*
X2642801Y-16369475D02*
X2642801Y-16474237D01*
X2642801Y-16369475D02*
X2652325Y-16350427D01*
X2652325Y-16350427D02*
X2671372Y-16340903D01*
X2671372Y-16340903D02*
X2699944Y-16340903D01*
X2699944Y-16340903D02*
X2718991Y-16350427D01*
X2718991Y-16350427D02*
X2728515Y-16369475D01*
X2728515Y-16369475D02*
X2728515Y-16474237D01*
X3118991Y-16264713D02*
X2947563Y-16521856D01*
X3376134Y-16274237D02*
X3395182Y-16274237D01*
X3395182Y-16274237D02*
X3414229Y-16283760D01*
X3414229Y-16283760D02*
X3423753Y-16293284D01*
X3423753Y-16293284D02*
X3433277Y-16312332D01*
X3433277Y-16312332D02*
X3442801Y-16350427D01*
X3442801Y-16350427D02*
X3442801Y-16398046D01*
X3442801Y-16398046D02*
X3433277Y-16436141D01*
X3433277Y-16436141D02*
X3423753Y-16455189D01*
X3423753Y-16455189D02*
X3414229Y-16464713D01*
X3414229Y-16464713D02*
X3395182Y-16474237D01*
X3395182Y-16474237D02*
X3376134Y-16474237D01*
X3376134Y-16474237D02*
X3357087Y-16464713D01*
X3357087Y-16464713D02*
X3347563Y-16455189D01*
X3347563Y-16455189D02*
X3338039Y-16436141D01*
X3338039Y-16436141D02*
X3328515Y-16398046D01*
X3328515Y-16398046D02*
X3328515Y-16350427D01*
X3328515Y-16350427D02*
X3338039Y-16312332D01*
X3338039Y-16312332D02*
X3347563Y-16293284D01*
X3347563Y-16293284D02*
X3357087Y-16283760D01*
X3357087Y-16283760D02*
X3376134Y-16274237D01*
X3528515Y-16455189D02*
X3538039Y-16464713D01*
X3538039Y-16464713D02*
X3528515Y-16474237D01*
X3528515Y-16474237D02*
X3518991Y-16464713D01*
X3518991Y-16464713D02*
X3528515Y-16455189D01*
X3528515Y-16455189D02*
X3528515Y-16474237D01*
X3661848Y-16274237D02*
X3680896Y-16274237D01*
X3680896Y-16274237D02*
X3699944Y-16283760D01*
X3699944Y-16283760D02*
X3709468Y-16293284D01*
X3709468Y-16293284D02*
X3718991Y-16312332D01*
X3718991Y-16312332D02*
X3728515Y-16350427D01*
X3728515Y-16350427D02*
X3728515Y-16398046D01*
X3728515Y-16398046D02*
X3718991Y-16436141D01*
X3718991Y-16436141D02*
X3709468Y-16455189D01*
X3709468Y-16455189D02*
X3699944Y-16464713D01*
X3699944Y-16464713D02*
X3680896Y-16474237D01*
X3680896Y-16474237D02*
X3661848Y-16474237D01*
X3661848Y-16474237D02*
X3642801Y-16464713D01*
X3642801Y-16464713D02*
X3633277Y-16455189D01*
X3633277Y-16455189D02*
X3623753Y-16436141D01*
X3623753Y-16436141D02*
X3614229Y-16398046D01*
X3614229Y-16398046D02*
X3614229Y-16350427D01*
X3614229Y-16350427D02*
X3623753Y-16312332D01*
X3623753Y-16312332D02*
X3633277Y-16293284D01*
X3633277Y-16293284D02*
X3642801Y-16283760D01*
X3642801Y-16283760D02*
X3661848Y-16274237D01*
X3842801Y-16359951D02*
X3823753Y-16350427D01*
X3823753Y-16350427D02*
X3814229Y-16340903D01*
X3814229Y-16340903D02*
X3804706Y-16321856D01*
X3804706Y-16321856D02*
X3804706Y-16312332D01*
X3804706Y-16312332D02*
X3814229Y-16293284D01*
X3814229Y-16293284D02*
X3823753Y-16283760D01*
X3823753Y-16283760D02*
X3842801Y-16274237D01*
X3842801Y-16274237D02*
X3880896Y-16274237D01*
X3880896Y-16274237D02*
X3899944Y-16283760D01*
X3899944Y-16283760D02*
X3909468Y-16293284D01*
X3909468Y-16293284D02*
X3918991Y-16312332D01*
X3918991Y-16312332D02*
X3918991Y-16321856D01*
X3918991Y-16321856D02*
X3909468Y-16340903D01*
X3909468Y-16340903D02*
X3899944Y-16350427D01*
X3899944Y-16350427D02*
X3880896Y-16359951D01*
X3880896Y-16359951D02*
X3842801Y-16359951D01*
X3842801Y-16359951D02*
X3823753Y-16369475D01*
X3823753Y-16369475D02*
X3814229Y-16378999D01*
X3814229Y-16378999D02*
X3804706Y-16398046D01*
X3804706Y-16398046D02*
X3804706Y-16436141D01*
X3804706Y-16436141D02*
X3814229Y-16455189D01*
X3814229Y-16455189D02*
X3823753Y-16464713D01*
X3823753Y-16464713D02*
X3842801Y-16474237D01*
X3842801Y-16474237D02*
X3880896Y-16474237D01*
X3880896Y-16474237D02*
X3899944Y-16464713D01*
X3899944Y-16464713D02*
X3909468Y-16455189D01*
X3909468Y-16455189D02*
X3918991Y-16436141D01*
X3918991Y-16436141D02*
X3918991Y-16398046D01*
X3918991Y-16398046D02*
X3909468Y-16378999D01*
X3909468Y-16378999D02*
X3899944Y-16369475D01*
X3899944Y-16369475D02*
X3880896Y-16359951D01*
X4090420Y-16274237D02*
X4052325Y-16274237D01*
X4052325Y-16274237D02*
X4033277Y-16283760D01*
X4033277Y-16283760D02*
X4023753Y-16293284D01*
X4023753Y-16293284D02*
X4004706Y-16321856D01*
X4004706Y-16321856D02*
X3995182Y-16359951D01*
X3995182Y-16359951D02*
X3995182Y-16436141D01*
X3995182Y-16436141D02*
X4004706Y-16455189D01*
X4004706Y-16455189D02*
X4014229Y-16464713D01*
X4014229Y-16464713D02*
X4033277Y-16474237D01*
X4033277Y-16474237D02*
X4071372Y-16474237D01*
X4071372Y-16474237D02*
X4090420Y-16464713D01*
X4090420Y-16464713D02*
X4099944Y-16455189D01*
X4099944Y-16455189D02*
X4109468Y-16436141D01*
X4109468Y-16436141D02*
X4109468Y-16388522D01*
X4109468Y-16388522D02*
X4099944Y-16369475D01*
X4099944Y-16369475D02*
X4090420Y-16359951D01*
X4090420Y-16359951D02*
X4071372Y-16350427D01*
X4071372Y-16350427D02*
X4033277Y-16350427D01*
X4033277Y-16350427D02*
X4014229Y-16359951D01*
X4014229Y-16359951D02*
X4004706Y-16369475D01*
X4004706Y-16369475D02*
X3995182Y-16388522D01*
X4280896Y-16274237D02*
X4242801Y-16274237D01*
X4242801Y-16274237D02*
X4223753Y-16283760D01*
X4223753Y-16283760D02*
X4214230Y-16293284D01*
X4214230Y-16293284D02*
X4195182Y-16321856D01*
X4195182Y-16321856D02*
X4185658Y-16359951D01*
X4185658Y-16359951D02*
X4185658Y-16436141D01*
X4185658Y-16436141D02*
X4195182Y-16455189D01*
X4195182Y-16455189D02*
X4204706Y-16464713D01*
X4204706Y-16464713D02*
X4223753Y-16474237D01*
X4223753Y-16474237D02*
X4261849Y-16474237D01*
X4261849Y-16474237D02*
X4280896Y-16464713D01*
X4280896Y-16464713D02*
X4290420Y-16455189D01*
X4290420Y-16455189D02*
X4299944Y-16436141D01*
X4299944Y-16436141D02*
X4299944Y-16388522D01*
X4299944Y-16388522D02*
X4290420Y-16369475D01*
X4290420Y-16369475D02*
X4280896Y-16359951D01*
X4280896Y-16359951D02*
X4261849Y-16350427D01*
X4261849Y-16350427D02*
X4223753Y-16350427D01*
X4223753Y-16350427D02*
X4204706Y-16359951D01*
X4204706Y-16359951D02*
X4195182Y-16369475D01*
X4195182Y-16369475D02*
X4185658Y-16388522D01*
X4376134Y-16274237D02*
X4376134Y-16312332D01*
X4452325Y-16274237D02*
X4452325Y-16312332D01*
X4747563Y-16550427D02*
X4738039Y-16540903D01*
X4738039Y-16540903D02*
X4718992Y-16512332D01*
X4718992Y-16512332D02*
X4709468Y-16493284D01*
X4709468Y-16493284D02*
X4699944Y-16464713D01*
X4699944Y-16464713D02*
X4690420Y-16417094D01*
X4690420Y-16417094D02*
X4690420Y-16378999D01*
X4690420Y-16378999D02*
X4699944Y-16331379D01*
X4699944Y-16331379D02*
X4709468Y-16302808D01*
X4709468Y-16302808D02*
X4718992Y-16283760D01*
X4718992Y-16283760D02*
X4738039Y-16255189D01*
X4738039Y-16255189D02*
X4747563Y-16245665D01*
X4852325Y-16359951D02*
X4833277Y-16350427D01*
X4833277Y-16350427D02*
X4823753Y-16340903D01*
X4823753Y-16340903D02*
X4814230Y-16321856D01*
X4814230Y-16321856D02*
X4814230Y-16312332D01*
X4814230Y-16312332D02*
X4823753Y-16293284D01*
X4823753Y-16293284D02*
X4833277Y-16283760D01*
X4833277Y-16283760D02*
X4852325Y-16274237D01*
X4852325Y-16274237D02*
X4890420Y-16274237D01*
X4890420Y-16274237D02*
X4909468Y-16283760D01*
X4909468Y-16283760D02*
X4918992Y-16293284D01*
X4918992Y-16293284D02*
X4928515Y-16312332D01*
X4928515Y-16312332D02*
X4928515Y-16321856D01*
X4928515Y-16321856D02*
X4918992Y-16340903D01*
X4918992Y-16340903D02*
X4909468Y-16350427D01*
X4909468Y-16350427D02*
X4890420Y-16359951D01*
X4890420Y-16359951D02*
X4852325Y-16359951D01*
X4852325Y-16359951D02*
X4833277Y-16369475D01*
X4833277Y-16369475D02*
X4823753Y-16378999D01*
X4823753Y-16378999D02*
X4814230Y-16398046D01*
X4814230Y-16398046D02*
X4814230Y-16436141D01*
X4814230Y-16436141D02*
X4823753Y-16455189D01*
X4823753Y-16455189D02*
X4833277Y-16464713D01*
X4833277Y-16464713D02*
X4852325Y-16474237D01*
X4852325Y-16474237D02*
X4890420Y-16474237D01*
X4890420Y-16474237D02*
X4909468Y-16464713D01*
X4909468Y-16464713D02*
X4918992Y-16455189D01*
X4918992Y-16455189D02*
X4928515Y-16436141D01*
X4928515Y-16436141D02*
X4928515Y-16398046D01*
X4928515Y-16398046D02*
X4918992Y-16378999D01*
X4918992Y-16378999D02*
X4909468Y-16369475D01*
X4909468Y-16369475D02*
X4890420Y-16359951D01*
X5166611Y-16474237D02*
X5166611Y-16274237D01*
X5252325Y-16474237D02*
X5252325Y-16369475D01*
X5252325Y-16369475D02*
X5242801Y-16350427D01*
X5242801Y-16350427D02*
X5223754Y-16340903D01*
X5223754Y-16340903D02*
X5195182Y-16340903D01*
X5195182Y-16340903D02*
X5176134Y-16350427D01*
X5176134Y-16350427D02*
X5166611Y-16359951D01*
X5376134Y-16474237D02*
X5357087Y-16464713D01*
X5357087Y-16464713D02*
X5347563Y-16455189D01*
X5347563Y-16455189D02*
X5338039Y-16436141D01*
X5338039Y-16436141D02*
X5338039Y-16378999D01*
X5338039Y-16378999D02*
X5347563Y-16359951D01*
X5347563Y-16359951D02*
X5357087Y-16350427D01*
X5357087Y-16350427D02*
X5376134Y-16340903D01*
X5376134Y-16340903D02*
X5404706Y-16340903D01*
X5404706Y-16340903D02*
X5423754Y-16350427D01*
X5423754Y-16350427D02*
X5433277Y-16359951D01*
X5433277Y-16359951D02*
X5442801Y-16378999D01*
X5442801Y-16378999D02*
X5442801Y-16436141D01*
X5442801Y-16436141D02*
X5433277Y-16455189D01*
X5433277Y-16455189D02*
X5423754Y-16464713D01*
X5423754Y-16464713D02*
X5404706Y-16474237D01*
X5404706Y-16474237D02*
X5376134Y-16474237D01*
X5557087Y-16474237D02*
X5538039Y-16464713D01*
X5538039Y-16464713D02*
X5528515Y-16445665D01*
X5528515Y-16445665D02*
X5528515Y-16274237D01*
X5709468Y-16464713D02*
X5690420Y-16474237D01*
X5690420Y-16474237D02*
X5652325Y-16474237D01*
X5652325Y-16474237D02*
X5633277Y-16464713D01*
X5633277Y-16464713D02*
X5623753Y-16445665D01*
X5623753Y-16445665D02*
X5623753Y-16369475D01*
X5623753Y-16369475D02*
X5633277Y-16350427D01*
X5633277Y-16350427D02*
X5652325Y-16340903D01*
X5652325Y-16340903D02*
X5690420Y-16340903D01*
X5690420Y-16340903D02*
X5709468Y-16350427D01*
X5709468Y-16350427D02*
X5718992Y-16369475D01*
X5718992Y-16369475D02*
X5718992Y-16388522D01*
X5718992Y-16388522D02*
X5623753Y-16407570D01*
X5795182Y-16464713D02*
X5814230Y-16474237D01*
X5814230Y-16474237D02*
X5852325Y-16474237D01*
X5852325Y-16474237D02*
X5871373Y-16464713D01*
X5871373Y-16464713D02*
X5880896Y-16445665D01*
X5880896Y-16445665D02*
X5880896Y-16436141D01*
X5880896Y-16436141D02*
X5871373Y-16417094D01*
X5871373Y-16417094D02*
X5852325Y-16407570D01*
X5852325Y-16407570D02*
X5823753Y-16407570D01*
X5823753Y-16407570D02*
X5804706Y-16398046D01*
X5804706Y-16398046D02*
X5795182Y-16378999D01*
X5795182Y-16378999D02*
X5795182Y-16369475D01*
X5795182Y-16369475D02*
X5804706Y-16350427D01*
X5804706Y-16350427D02*
X5823753Y-16340903D01*
X5823753Y-16340903D02*
X5852325Y-16340903D01*
X5852325Y-16340903D02*
X5871373Y-16350427D01*
X5947563Y-16550427D02*
X5957087Y-16540903D01*
X5957087Y-16540903D02*
X5976134Y-16512332D01*
X5976134Y-16512332D02*
X5985658Y-16493284D01*
X5985658Y-16493284D02*
X5995182Y-16464713D01*
X5995182Y-16464713D02*
X6004706Y-16417094D01*
X6004706Y-16417094D02*
X6004706Y-16378999D01*
X6004706Y-16378999D02*
X5995182Y-16331379D01*
X5995182Y-16331379D02*
X5985658Y-16302808D01*
X5985658Y-16302808D02*
X5976134Y-16283760D01*
X5976134Y-16283760D02*
X5957087Y-16255189D01*
X5957087Y-16255189D02*
X5947563Y-16245665D01*
X6309468Y-16550427D02*
X6299944Y-16540903D01*
X6299944Y-16540903D02*
X6280896Y-16512332D01*
X6280896Y-16512332D02*
X6271373Y-16493284D01*
X6271373Y-16493284D02*
X6261849Y-16464713D01*
X6261849Y-16464713D02*
X6252325Y-16417094D01*
X6252325Y-16417094D02*
X6252325Y-16378999D01*
X6252325Y-16378999D02*
X6261849Y-16331379D01*
X6261849Y-16331379D02*
X6271373Y-16302808D01*
X6271373Y-16302808D02*
X6280896Y-16283760D01*
X6280896Y-16283760D02*
X6299944Y-16255189D01*
X6299944Y-16255189D02*
X6309468Y-16245665D01*
X6385658Y-16340903D02*
X6385658Y-16474237D01*
X6385658Y-16359951D02*
X6395182Y-16350427D01*
X6395182Y-16350427D02*
X6414230Y-16340903D01*
X6414230Y-16340903D02*
X6442801Y-16340903D01*
X6442801Y-16340903D02*
X6461849Y-16350427D01*
X6461849Y-16350427D02*
X6471373Y-16369475D01*
X6471373Y-16369475D02*
X6471373Y-16474237D01*
X6595182Y-16474237D02*
X6576134Y-16464713D01*
X6576134Y-16464713D02*
X6566611Y-16455189D01*
X6566611Y-16455189D02*
X6557087Y-16436141D01*
X6557087Y-16436141D02*
X6557087Y-16378999D01*
X6557087Y-16378999D02*
X6566611Y-16359951D01*
X6566611Y-16359951D02*
X6576134Y-16350427D01*
X6576134Y-16350427D02*
X6595182Y-16340903D01*
X6595182Y-16340903D02*
X6623754Y-16340903D01*
X6623754Y-16340903D02*
X6642801Y-16350427D01*
X6642801Y-16350427D02*
X6652325Y-16359951D01*
X6652325Y-16359951D02*
X6661849Y-16378999D01*
X6661849Y-16378999D02*
X6661849Y-16436141D01*
X6661849Y-16436141D02*
X6652325Y-16455189D01*
X6652325Y-16455189D02*
X6642801Y-16464713D01*
X6642801Y-16464713D02*
X6623754Y-16474237D01*
X6623754Y-16474237D02*
X6595182Y-16474237D01*
X6718992Y-16340903D02*
X6795182Y-16340903D01*
X6747563Y-16274237D02*
X6747563Y-16445665D01*
X6747563Y-16445665D02*
X6757087Y-16464713D01*
X6757087Y-16464713D02*
X6776134Y-16474237D01*
X6776134Y-16474237D02*
X6795182Y-16474237D01*
X7014230Y-16340903D02*
X7014230Y-16540903D01*
X7014230Y-16350427D02*
X7033277Y-16340903D01*
X7033277Y-16340903D02*
X7071373Y-16340903D01*
X7071373Y-16340903D02*
X7090420Y-16350427D01*
X7090420Y-16350427D02*
X7099944Y-16359951D01*
X7099944Y-16359951D02*
X7109468Y-16378999D01*
X7109468Y-16378999D02*
X7109468Y-16436141D01*
X7109468Y-16436141D02*
X7099944Y-16455189D01*
X7099944Y-16455189D02*
X7090420Y-16464713D01*
X7090420Y-16464713D02*
X7071373Y-16474237D01*
X7071373Y-16474237D02*
X7033277Y-16474237D01*
X7033277Y-16474237D02*
X7014230Y-16464713D01*
X7223754Y-16474237D02*
X7204706Y-16464713D01*
X7204706Y-16464713D02*
X7195182Y-16445665D01*
X7195182Y-16445665D02*
X7195182Y-16274237D01*
X7385658Y-16474237D02*
X7385658Y-16369475D01*
X7385658Y-16369475D02*
X7376135Y-16350427D01*
X7376135Y-16350427D02*
X7357087Y-16340903D01*
X7357087Y-16340903D02*
X7318992Y-16340903D01*
X7318992Y-16340903D02*
X7299944Y-16350427D01*
X7385658Y-16464713D02*
X7366611Y-16474237D01*
X7366611Y-16474237D02*
X7318992Y-16474237D01*
X7318992Y-16474237D02*
X7299944Y-16464713D01*
X7299944Y-16464713D02*
X7290420Y-16445665D01*
X7290420Y-16445665D02*
X7290420Y-16426618D01*
X7290420Y-16426618D02*
X7299944Y-16407570D01*
X7299944Y-16407570D02*
X7318992Y-16398046D01*
X7318992Y-16398046D02*
X7366611Y-16398046D01*
X7366611Y-16398046D02*
X7385658Y-16388522D01*
X7452325Y-16340903D02*
X7528515Y-16340903D01*
X7480896Y-16274237D02*
X7480896Y-16445665D01*
X7480896Y-16445665D02*
X7490420Y-16464713D01*
X7490420Y-16464713D02*
X7509468Y-16474237D01*
X7509468Y-16474237D02*
X7528515Y-16474237D01*
X7671373Y-16464713D02*
X7652325Y-16474237D01*
X7652325Y-16474237D02*
X7614230Y-16474237D01*
X7614230Y-16474237D02*
X7595182Y-16464713D01*
X7595182Y-16464713D02*
X7585658Y-16445665D01*
X7585658Y-16445665D02*
X7585658Y-16369475D01*
X7585658Y-16369475D02*
X7595182Y-16350427D01*
X7595182Y-16350427D02*
X7614230Y-16340903D01*
X7614230Y-16340903D02*
X7652325Y-16340903D01*
X7652325Y-16340903D02*
X7671373Y-16350427D01*
X7671373Y-16350427D02*
X7680896Y-16369475D01*
X7680896Y-16369475D02*
X7680896Y-16388522D01*
X7680896Y-16388522D02*
X7585658Y-16407570D01*
X7852325Y-16474237D02*
X7852325Y-16274237D01*
X7852325Y-16464713D02*
X7833277Y-16474237D01*
X7833277Y-16474237D02*
X7795182Y-16474237D01*
X7795182Y-16474237D02*
X7776135Y-16464713D01*
X7776135Y-16464713D02*
X7766611Y-16455189D01*
X7766611Y-16455189D02*
X7757087Y-16436141D01*
X7757087Y-16436141D02*
X7757087Y-16378999D01*
X7757087Y-16378999D02*
X7766611Y-16359951D01*
X7766611Y-16359951D02*
X7776135Y-16350427D01*
X7776135Y-16350427D02*
X7795182Y-16340903D01*
X7795182Y-16340903D02*
X7833277Y-16340903D01*
X7833277Y-16340903D02*
X7852325Y-16350427D01*
X7928516Y-16550427D02*
X7938039Y-16540903D01*
X7938039Y-16540903D02*
X7957087Y-16512332D01*
X7957087Y-16512332D02*
X7966611Y-16493284D01*
X7966611Y-16493284D02*
X7976135Y-16464713D01*
X7976135Y-16464713D02*
X7985658Y-16417094D01*
X7985658Y-16417094D02*
X7985658Y-16378999D01*
X7985658Y-16378999D02*
X7976135Y-16331379D01*
X7976135Y-16331379D02*
X7966611Y-16302808D01*
X7966611Y-16302808D02*
X7957087Y-16283760D01*
X7957087Y-16283760D02*
X7938039Y-16255189D01*
X7938039Y-16255189D02*
X7928516Y-16245665D01*
X1172500Y-16702753D02*
G75*
G02*
X972500Y-16702753I-100000J0D01*
G01*
X972500Y-16702753D02*
G75*
G02*
X1172500Y-16702753I100000J0D01*
G01*
X1414229Y-16594237D02*
X1538039Y-16594237D01*
X1538039Y-16594237D02*
X1471372Y-16670427D01*
X1471372Y-16670427D02*
X1499944Y-16670427D01*
X1499944Y-16670427D02*
X1518991Y-16679951D01*
X1518991Y-16679951D02*
X1528515Y-16689475D01*
X1528515Y-16689475D02*
X1538039Y-16708522D01*
X1538039Y-16708522D02*
X1538039Y-16756141D01*
X1538039Y-16756141D02*
X1528515Y-16775189D01*
X1528515Y-16775189D02*
X1518991Y-16784713D01*
X1518991Y-16784713D02*
X1499944Y-16794237D01*
X1499944Y-16794237D02*
X1442801Y-16794237D01*
X1442801Y-16794237D02*
X1423753Y-16784713D01*
X1423753Y-16784713D02*
X1414229Y-16775189D01*
X1623753Y-16775189D02*
X1633277Y-16784713D01*
X1633277Y-16784713D02*
X1623753Y-16794237D01*
X1623753Y-16794237D02*
X1614229Y-16784713D01*
X1614229Y-16784713D02*
X1623753Y-16775189D01*
X1623753Y-16775189D02*
X1623753Y-16794237D01*
X1709467Y-16613284D02*
X1718991Y-16603760D01*
X1718991Y-16603760D02*
X1738039Y-16594237D01*
X1738039Y-16594237D02*
X1785658Y-16594237D01*
X1785658Y-16594237D02*
X1804705Y-16603760D01*
X1804705Y-16603760D02*
X1814229Y-16613284D01*
X1814229Y-16613284D02*
X1823753Y-16632332D01*
X1823753Y-16632332D02*
X1823753Y-16651379D01*
X1823753Y-16651379D02*
X1814229Y-16679951D01*
X1814229Y-16679951D02*
X1699944Y-16794237D01*
X1699944Y-16794237D02*
X1823753Y-16794237D01*
X1947563Y-16594237D02*
X1966610Y-16594237D01*
X1966610Y-16594237D02*
X1985658Y-16603760D01*
X1985658Y-16603760D02*
X1995182Y-16613284D01*
X1995182Y-16613284D02*
X2004705Y-16632332D01*
X2004705Y-16632332D02*
X2014229Y-16670427D01*
X2014229Y-16670427D02*
X2014229Y-16718046D01*
X2014229Y-16718046D02*
X2004705Y-16756141D01*
X2004705Y-16756141D02*
X1995182Y-16775189D01*
X1995182Y-16775189D02*
X1985658Y-16784713D01*
X1985658Y-16784713D02*
X1966610Y-16794237D01*
X1966610Y-16794237D02*
X1947563Y-16794237D01*
X1947563Y-16794237D02*
X1928515Y-16784713D01*
X1928515Y-16784713D02*
X1918991Y-16775189D01*
X1918991Y-16775189D02*
X1909467Y-16756141D01*
X1909467Y-16756141D02*
X1899944Y-16718046D01*
X1899944Y-16718046D02*
X1899944Y-16670427D01*
X1899944Y-16670427D02*
X1909467Y-16632332D01*
X1909467Y-16632332D02*
X1918991Y-16613284D01*
X1918991Y-16613284D02*
X1928515Y-16603760D01*
X1928515Y-16603760D02*
X1947563Y-16594237D01*
X2138039Y-16594237D02*
X2157087Y-16594237D01*
X2157087Y-16594237D02*
X2176134Y-16603760D01*
X2176134Y-16603760D02*
X2185658Y-16613284D01*
X2185658Y-16613284D02*
X2195182Y-16632332D01*
X2195182Y-16632332D02*
X2204706Y-16670427D01*
X2204706Y-16670427D02*
X2204706Y-16718046D01*
X2204706Y-16718046D02*
X2195182Y-16756141D01*
X2195182Y-16756141D02*
X2185658Y-16775189D01*
X2185658Y-16775189D02*
X2176134Y-16784713D01*
X2176134Y-16784713D02*
X2157087Y-16794237D01*
X2157087Y-16794237D02*
X2138039Y-16794237D01*
X2138039Y-16794237D02*
X2118991Y-16784713D01*
X2118991Y-16784713D02*
X2109467Y-16775189D01*
X2109467Y-16775189D02*
X2099944Y-16756141D01*
X2099944Y-16756141D02*
X2090420Y-16718046D01*
X2090420Y-16718046D02*
X2090420Y-16670427D01*
X2090420Y-16670427D02*
X2099944Y-16632332D01*
X2099944Y-16632332D02*
X2109467Y-16613284D01*
X2109467Y-16613284D02*
X2118991Y-16603760D01*
X2118991Y-16603760D02*
X2138039Y-16594237D01*
X2290420Y-16794237D02*
X2290420Y-16660903D01*
X2290420Y-16679951D02*
X2299944Y-16670427D01*
X2299944Y-16670427D02*
X2318991Y-16660903D01*
X2318991Y-16660903D02*
X2347563Y-16660903D01*
X2347563Y-16660903D02*
X2366610Y-16670427D01*
X2366610Y-16670427D02*
X2376134Y-16689475D01*
X2376134Y-16689475D02*
X2376134Y-16794237D01*
X2376134Y-16689475D02*
X2385658Y-16670427D01*
X2385658Y-16670427D02*
X2404706Y-16660903D01*
X2404706Y-16660903D02*
X2433277Y-16660903D01*
X2433277Y-16660903D02*
X2452325Y-16670427D01*
X2452325Y-16670427D02*
X2461848Y-16689475D01*
X2461848Y-16689475D02*
X2461848Y-16794237D01*
X2557087Y-16794237D02*
X2557087Y-16660903D01*
X2557087Y-16679951D02*
X2566610Y-16670427D01*
X2566610Y-16670427D02*
X2585658Y-16660903D01*
X2585658Y-16660903D02*
X2614229Y-16660903D01*
X2614229Y-16660903D02*
X2633277Y-16670427D01*
X2633277Y-16670427D02*
X2642801Y-16689475D01*
X2642801Y-16689475D02*
X2642801Y-16794237D01*
X2642801Y-16689475D02*
X2652325Y-16670427D01*
X2652325Y-16670427D02*
X2671372Y-16660903D01*
X2671372Y-16660903D02*
X2699944Y-16660903D01*
X2699944Y-16660903D02*
X2718991Y-16670427D01*
X2718991Y-16670427D02*
X2728515Y-16689475D01*
X2728515Y-16689475D02*
X2728515Y-16794237D01*
X3118991Y-16584713D02*
X2947563Y-16841856D01*
X3376134Y-16594237D02*
X3395182Y-16594237D01*
X3395182Y-16594237D02*
X3414229Y-16603760D01*
X3414229Y-16603760D02*
X3423753Y-16613284D01*
X3423753Y-16613284D02*
X3433277Y-16632332D01*
X3433277Y-16632332D02*
X3442801Y-16670427D01*
X3442801Y-16670427D02*
X3442801Y-16718046D01*
X3442801Y-16718046D02*
X3433277Y-16756141D01*
X3433277Y-16756141D02*
X3423753Y-16775189D01*
X3423753Y-16775189D02*
X3414229Y-16784713D01*
X3414229Y-16784713D02*
X3395182Y-16794237D01*
X3395182Y-16794237D02*
X3376134Y-16794237D01*
X3376134Y-16794237D02*
X3357087Y-16784713D01*
X3357087Y-16784713D02*
X3347563Y-16775189D01*
X3347563Y-16775189D02*
X3338039Y-16756141D01*
X3338039Y-16756141D02*
X3328515Y-16718046D01*
X3328515Y-16718046D02*
X3328515Y-16670427D01*
X3328515Y-16670427D02*
X3338039Y-16632332D01*
X3338039Y-16632332D02*
X3347563Y-16613284D01*
X3347563Y-16613284D02*
X3357087Y-16603760D01*
X3357087Y-16603760D02*
X3376134Y-16594237D01*
X3528515Y-16775189D02*
X3538039Y-16784713D01*
X3538039Y-16784713D02*
X3528515Y-16794237D01*
X3528515Y-16794237D02*
X3518991Y-16784713D01*
X3518991Y-16784713D02*
X3528515Y-16775189D01*
X3528515Y-16775189D02*
X3528515Y-16794237D01*
X3728515Y-16794237D02*
X3614229Y-16794237D01*
X3671372Y-16794237D02*
X3671372Y-16594237D01*
X3671372Y-16594237D02*
X3652325Y-16622808D01*
X3652325Y-16622808D02*
X3633277Y-16641856D01*
X3633277Y-16641856D02*
X3614229Y-16651379D01*
X3804706Y-16613284D02*
X3814229Y-16603760D01*
X3814229Y-16603760D02*
X3833277Y-16594237D01*
X3833277Y-16594237D02*
X3880896Y-16594237D01*
X3880896Y-16594237D02*
X3899944Y-16603760D01*
X3899944Y-16603760D02*
X3909468Y-16613284D01*
X3909468Y-16613284D02*
X3918991Y-16632332D01*
X3918991Y-16632332D02*
X3918991Y-16651379D01*
X3918991Y-16651379D02*
X3909468Y-16679951D01*
X3909468Y-16679951D02*
X3795182Y-16794237D01*
X3795182Y-16794237D02*
X3918991Y-16794237D01*
X4090420Y-16594237D02*
X4052325Y-16594237D01*
X4052325Y-16594237D02*
X4033277Y-16603760D01*
X4033277Y-16603760D02*
X4023753Y-16613284D01*
X4023753Y-16613284D02*
X4004706Y-16641856D01*
X4004706Y-16641856D02*
X3995182Y-16679951D01*
X3995182Y-16679951D02*
X3995182Y-16756141D01*
X3995182Y-16756141D02*
X4004706Y-16775189D01*
X4004706Y-16775189D02*
X4014229Y-16784713D01*
X4014229Y-16784713D02*
X4033277Y-16794237D01*
X4033277Y-16794237D02*
X4071372Y-16794237D01*
X4071372Y-16794237D02*
X4090420Y-16784713D01*
X4090420Y-16784713D02*
X4099944Y-16775189D01*
X4099944Y-16775189D02*
X4109468Y-16756141D01*
X4109468Y-16756141D02*
X4109468Y-16708522D01*
X4109468Y-16708522D02*
X4099944Y-16689475D01*
X4099944Y-16689475D02*
X4090420Y-16679951D01*
X4090420Y-16679951D02*
X4071372Y-16670427D01*
X4071372Y-16670427D02*
X4033277Y-16670427D01*
X4033277Y-16670427D02*
X4014229Y-16679951D01*
X4014229Y-16679951D02*
X4004706Y-16689475D01*
X4004706Y-16689475D02*
X3995182Y-16708522D01*
X4233277Y-16594237D02*
X4252325Y-16594237D01*
X4252325Y-16594237D02*
X4271372Y-16603760D01*
X4271372Y-16603760D02*
X4280896Y-16613284D01*
X4280896Y-16613284D02*
X4290420Y-16632332D01*
X4290420Y-16632332D02*
X4299944Y-16670427D01*
X4299944Y-16670427D02*
X4299944Y-16718046D01*
X4299944Y-16718046D02*
X4290420Y-16756141D01*
X4290420Y-16756141D02*
X4280896Y-16775189D01*
X4280896Y-16775189D02*
X4271372Y-16784713D01*
X4271372Y-16784713D02*
X4252325Y-16794237D01*
X4252325Y-16794237D02*
X4233277Y-16794237D01*
X4233277Y-16794237D02*
X4214230Y-16784713D01*
X4214230Y-16784713D02*
X4204706Y-16775189D01*
X4204706Y-16775189D02*
X4195182Y-16756141D01*
X4195182Y-16756141D02*
X4185658Y-16718046D01*
X4185658Y-16718046D02*
X4185658Y-16670427D01*
X4185658Y-16670427D02*
X4195182Y-16632332D01*
X4195182Y-16632332D02*
X4204706Y-16613284D01*
X4204706Y-16613284D02*
X4214230Y-16603760D01*
X4214230Y-16603760D02*
X4233277Y-16594237D01*
X4376134Y-16594237D02*
X4376134Y-16632332D01*
X4452325Y-16594237D02*
X4452325Y-16632332D01*
X4747563Y-16870427D02*
X4738039Y-16860903D01*
X4738039Y-16860903D02*
X4718992Y-16832332D01*
X4718992Y-16832332D02*
X4709468Y-16813284D01*
X4709468Y-16813284D02*
X4699944Y-16784713D01*
X4699944Y-16784713D02*
X4690420Y-16737094D01*
X4690420Y-16737094D02*
X4690420Y-16698999D01*
X4690420Y-16698999D02*
X4699944Y-16651379D01*
X4699944Y-16651379D02*
X4709468Y-16622808D01*
X4709468Y-16622808D02*
X4718992Y-16603760D01*
X4718992Y-16603760D02*
X4738039Y-16575189D01*
X4738039Y-16575189D02*
X4747563Y-16565665D01*
X4928515Y-16794237D02*
X4814230Y-16794237D01*
X4871372Y-16794237D02*
X4871372Y-16594237D01*
X4871372Y-16594237D02*
X4852325Y-16622808D01*
X4852325Y-16622808D02*
X4833277Y-16641856D01*
X4833277Y-16641856D02*
X4814230Y-16651379D01*
X5166611Y-16794237D02*
X5166611Y-16594237D01*
X5252325Y-16794237D02*
X5252325Y-16689475D01*
X5252325Y-16689475D02*
X5242801Y-16670427D01*
X5242801Y-16670427D02*
X5223754Y-16660903D01*
X5223754Y-16660903D02*
X5195182Y-16660903D01*
X5195182Y-16660903D02*
X5176134Y-16670427D01*
X5176134Y-16670427D02*
X5166611Y-16679951D01*
X5376134Y-16794237D02*
X5357087Y-16784713D01*
X5357087Y-16784713D02*
X5347563Y-16775189D01*
X5347563Y-16775189D02*
X5338039Y-16756141D01*
X5338039Y-16756141D02*
X5338039Y-16698999D01*
X5338039Y-16698999D02*
X5347563Y-16679951D01*
X5347563Y-16679951D02*
X5357087Y-16670427D01*
X5357087Y-16670427D02*
X5376134Y-16660903D01*
X5376134Y-16660903D02*
X5404706Y-16660903D01*
X5404706Y-16660903D02*
X5423754Y-16670427D01*
X5423754Y-16670427D02*
X5433277Y-16679951D01*
X5433277Y-16679951D02*
X5442801Y-16698999D01*
X5442801Y-16698999D02*
X5442801Y-16756141D01*
X5442801Y-16756141D02*
X5433277Y-16775189D01*
X5433277Y-16775189D02*
X5423754Y-16784713D01*
X5423754Y-16784713D02*
X5404706Y-16794237D01*
X5404706Y-16794237D02*
X5376134Y-16794237D01*
X5557087Y-16794237D02*
X5538039Y-16784713D01*
X5538039Y-16784713D02*
X5528515Y-16765665D01*
X5528515Y-16765665D02*
X5528515Y-16594237D01*
X5709468Y-16784713D02*
X5690420Y-16794237D01*
X5690420Y-16794237D02*
X5652325Y-16794237D01*
X5652325Y-16794237D02*
X5633277Y-16784713D01*
X5633277Y-16784713D02*
X5623753Y-16765665D01*
X5623753Y-16765665D02*
X5623753Y-16689475D01*
X5623753Y-16689475D02*
X5633277Y-16670427D01*
X5633277Y-16670427D02*
X5652325Y-16660903D01*
X5652325Y-16660903D02*
X5690420Y-16660903D01*
X5690420Y-16660903D02*
X5709468Y-16670427D01*
X5709468Y-16670427D02*
X5718992Y-16689475D01*
X5718992Y-16689475D02*
X5718992Y-16708522D01*
X5718992Y-16708522D02*
X5623753Y-16727570D01*
X5785658Y-16870427D02*
X5795182Y-16860903D01*
X5795182Y-16860903D02*
X5814230Y-16832332D01*
X5814230Y-16832332D02*
X5823753Y-16813284D01*
X5823753Y-16813284D02*
X5833277Y-16784713D01*
X5833277Y-16784713D02*
X5842801Y-16737094D01*
X5842801Y-16737094D02*
X5842801Y-16698999D01*
X5842801Y-16698999D02*
X5833277Y-16651379D01*
X5833277Y-16651379D02*
X5823753Y-16622808D01*
X5823753Y-16622808D02*
X5814230Y-16603760D01*
X5814230Y-16603760D02*
X5795182Y-16575189D01*
X5795182Y-16575189D02*
X5785658Y-16565665D01*
X6147563Y-16870427D02*
X6138039Y-16860903D01*
X6138039Y-16860903D02*
X6118992Y-16832332D01*
X6118992Y-16832332D02*
X6109468Y-16813284D01*
X6109468Y-16813284D02*
X6099944Y-16784713D01*
X6099944Y-16784713D02*
X6090420Y-16737094D01*
X6090420Y-16737094D02*
X6090420Y-16698999D01*
X6090420Y-16698999D02*
X6099944Y-16651379D01*
X6099944Y-16651379D02*
X6109468Y-16622808D01*
X6109468Y-16622808D02*
X6118992Y-16603760D01*
X6118992Y-16603760D02*
X6138039Y-16575189D01*
X6138039Y-16575189D02*
X6147563Y-16565665D01*
X6223753Y-16660903D02*
X6223753Y-16794237D01*
X6223753Y-16679951D02*
X6233277Y-16670427D01*
X6233277Y-16670427D02*
X6252325Y-16660903D01*
X6252325Y-16660903D02*
X6280896Y-16660903D01*
X6280896Y-16660903D02*
X6299944Y-16670427D01*
X6299944Y-16670427D02*
X6309468Y-16689475D01*
X6309468Y-16689475D02*
X6309468Y-16794237D01*
X6433277Y-16794237D02*
X6414230Y-16784713D01*
X6414230Y-16784713D02*
X6404706Y-16775189D01*
X6404706Y-16775189D02*
X6395182Y-16756141D01*
X6395182Y-16756141D02*
X6395182Y-16698999D01*
X6395182Y-16698999D02*
X6404706Y-16679951D01*
X6404706Y-16679951D02*
X6414230Y-16670427D01*
X6414230Y-16670427D02*
X6433277Y-16660903D01*
X6433277Y-16660903D02*
X6461849Y-16660903D01*
X6461849Y-16660903D02*
X6480896Y-16670427D01*
X6480896Y-16670427D02*
X6490420Y-16679951D01*
X6490420Y-16679951D02*
X6499944Y-16698999D01*
X6499944Y-16698999D02*
X6499944Y-16756141D01*
X6499944Y-16756141D02*
X6490420Y-16775189D01*
X6490420Y-16775189D02*
X6480896Y-16784713D01*
X6480896Y-16784713D02*
X6461849Y-16794237D01*
X6461849Y-16794237D02*
X6433277Y-16794237D01*
X6557087Y-16660903D02*
X6633277Y-16660903D01*
X6585658Y-16594237D02*
X6585658Y-16765665D01*
X6585658Y-16765665D02*
X6595182Y-16784713D01*
X6595182Y-16784713D02*
X6614230Y-16794237D01*
X6614230Y-16794237D02*
X6633277Y-16794237D01*
X6852325Y-16660903D02*
X6852325Y-16860903D01*
X6852325Y-16670427D02*
X6871373Y-16660903D01*
X6871373Y-16660903D02*
X6909468Y-16660903D01*
X6909468Y-16660903D02*
X6928515Y-16670427D01*
X6928515Y-16670427D02*
X6938039Y-16679951D01*
X6938039Y-16679951D02*
X6947563Y-16698999D01*
X6947563Y-16698999D02*
X6947563Y-16756141D01*
X6947563Y-16756141D02*
X6938039Y-16775189D01*
X6938039Y-16775189D02*
X6928515Y-16784713D01*
X6928515Y-16784713D02*
X6909468Y-16794237D01*
X6909468Y-16794237D02*
X6871373Y-16794237D01*
X6871373Y-16794237D02*
X6852325Y-16784713D01*
X7061849Y-16794237D02*
X7042801Y-16784713D01*
X7042801Y-16784713D02*
X7033277Y-16765665D01*
X7033277Y-16765665D02*
X7033277Y-16594237D01*
X7223754Y-16794237D02*
X7223754Y-16689475D01*
X7223754Y-16689475D02*
X7214230Y-16670427D01*
X7214230Y-16670427D02*
X7195182Y-16660903D01*
X7195182Y-16660903D02*
X7157087Y-16660903D01*
X7157087Y-16660903D02*
X7138039Y-16670427D01*
X7223754Y-16784713D02*
X7204706Y-16794237D01*
X7204706Y-16794237D02*
X7157087Y-16794237D01*
X7157087Y-16794237D02*
X7138039Y-16784713D01*
X7138039Y-16784713D02*
X7128515Y-16765665D01*
X7128515Y-16765665D02*
X7128515Y-16746618D01*
X7128515Y-16746618D02*
X7138039Y-16727570D01*
X7138039Y-16727570D02*
X7157087Y-16718046D01*
X7157087Y-16718046D02*
X7204706Y-16718046D01*
X7204706Y-16718046D02*
X7223754Y-16708522D01*
X7290420Y-16660903D02*
X7366611Y-16660903D01*
X7318992Y-16594237D02*
X7318992Y-16765665D01*
X7318992Y-16765665D02*
X7328515Y-16784713D01*
X7328515Y-16784713D02*
X7347563Y-16794237D01*
X7347563Y-16794237D02*
X7366611Y-16794237D01*
X7509468Y-16784713D02*
X7490420Y-16794237D01*
X7490420Y-16794237D02*
X7452325Y-16794237D01*
X7452325Y-16794237D02*
X7433277Y-16784713D01*
X7433277Y-16784713D02*
X7423754Y-16765665D01*
X7423754Y-16765665D02*
X7423754Y-16689475D01*
X7423754Y-16689475D02*
X7433277Y-16670427D01*
X7433277Y-16670427D02*
X7452325Y-16660903D01*
X7452325Y-16660903D02*
X7490420Y-16660903D01*
X7490420Y-16660903D02*
X7509468Y-16670427D01*
X7509468Y-16670427D02*
X7518992Y-16689475D01*
X7518992Y-16689475D02*
X7518992Y-16708522D01*
X7518992Y-16708522D02*
X7423754Y-16727570D01*
X7690420Y-16794237D02*
X7690420Y-16594237D01*
X7690420Y-16784713D02*
X7671373Y-16794237D01*
X7671373Y-16794237D02*
X7633277Y-16794237D01*
X7633277Y-16794237D02*
X7614230Y-16784713D01*
X7614230Y-16784713D02*
X7604706Y-16775189D01*
X7604706Y-16775189D02*
X7595182Y-16756141D01*
X7595182Y-16756141D02*
X7595182Y-16698999D01*
X7595182Y-16698999D02*
X7604706Y-16679951D01*
X7604706Y-16679951D02*
X7614230Y-16670427D01*
X7614230Y-16670427D02*
X7633277Y-16660903D01*
X7633277Y-16660903D02*
X7671373Y-16660903D01*
X7671373Y-16660903D02*
X7690420Y-16670427D01*
X7766611Y-16870427D02*
X7776135Y-16860903D01*
X7776135Y-16860903D02*
X7795182Y-16832332D01*
X7795182Y-16832332D02*
X7804706Y-16813284D01*
X7804706Y-16813284D02*
X7814230Y-16784713D01*
X7814230Y-16784713D02*
X7823754Y-16737094D01*
X7823754Y-16737094D02*
X7823754Y-16698999D01*
X7823754Y-16698999D02*
X7814230Y-16651379D01*
X7814230Y-16651379D02*
X7804706Y-16622808D01*
X7804706Y-16622808D02*
X7795182Y-16603760D01*
X7795182Y-16603760D02*
X7776135Y-16575189D01*
X7776135Y-16575189D02*
X7766611Y-16565665D01*
M02*
