%TF.GenerationSoftware,KiCad,Pcbnew,8.0.4*%
%TF.CreationDate,2024-08-16T14:16:27+09:00*%
%TF.ProjectId,TrueStrike42-bottom-plate,54727565-5374-4726-996b-6534322d626f,rev?*%
%TF.SameCoordinates,Original*%
%TF.FileFunction,Drillmap*%
%TF.FilePolarity,Positive*%
%FSLAX45Y45*%
G04 Gerber Fmt 4.5, Leading zero omitted, Abs format (unit mm)*
G04 Created by KiCad (PCBNEW 8.0.4) date 2024-08-16 14:16:27*
%MOMM*%
%LPD*%
G01*
G04 APERTURE LIST*
%ADD10C,0.050000*%
%ADD11C,0.200000*%
G04 APERTURE END LIST*
D10*
X6661981Y-4845253D02*
X2752991Y-5220253D01*
X13476982Y-15740253D02*
X16251981Y-15740252D01*
X16251981Y-15740252D02*
X19561980Y-13835252D01*
X26986980Y-5220253D02*
G75*
G02*
X27170583Y-5395484I-24990J-209987D01*
G01*
X2569387Y-5395484D02*
X1181819Y-10567614D01*
X6401981Y-13335253D02*
X8316980Y-13335252D01*
X19276980Y-5370253D02*
X15761979Y-6953000D01*
X21116981Y-4875252D02*
X19276980Y-5370253D01*
X13981982Y-6953000D02*
X10461980Y-5370253D01*
X10461980Y-5370253D02*
X8621980Y-4875253D01*
X1291980Y-10835252D02*
X6401981Y-13335253D01*
X8621980Y-4875253D02*
X6661981Y-4845253D01*
X1291980Y-10835252D02*
G75*
G02*
X1181820Y-10567614I130006J210001D01*
G01*
X23331981Y-13340252D02*
X28446982Y-10835253D01*
X28557142Y-10567613D02*
X27170585Y-5395484D01*
X26986980Y-5220253D02*
X23081981Y-4840253D01*
X2569387Y-5395484D02*
G75*
G02*
X2752991Y-5220253I208600J-34764D01*
G01*
X15761979Y-6953000D02*
X13981982Y-6953000D01*
X19561980Y-13835252D02*
X21421981Y-13340253D01*
X23081981Y-4840253D02*
X21116981Y-4875252D01*
X21421981Y-13340253D02*
X23331981Y-13340252D01*
X10171981Y-13835254D02*
X13476982Y-15740253D01*
X28557142Y-10567613D02*
G75*
G02*
X28446980Y-10835250I-240162J-57637D01*
G01*
X8316980Y-13335252D02*
X10171981Y-13835254D01*
D11*
X1433277Y-16054237D02*
X1433277Y-15854237D01*
X1433277Y-15854237D02*
X1480896Y-15854237D01*
X1480896Y-15854237D02*
X1509467Y-15863760D01*
X1509467Y-15863760D02*
X1528515Y-15882808D01*
X1528515Y-15882808D02*
X1538039Y-15901856D01*
X1538039Y-15901856D02*
X1547563Y-15939951D01*
X1547563Y-15939951D02*
X1547563Y-15968522D01*
X1547563Y-15968522D02*
X1538039Y-16006618D01*
X1538039Y-16006618D02*
X1528515Y-16025665D01*
X1528515Y-16025665D02*
X1509467Y-16044713D01*
X1509467Y-16044713D02*
X1480896Y-16054237D01*
X1480896Y-16054237D02*
X1433277Y-16054237D01*
X1633277Y-16054237D02*
X1633277Y-15920903D01*
X1633277Y-15958999D02*
X1642801Y-15939951D01*
X1642801Y-15939951D02*
X1652324Y-15930427D01*
X1652324Y-15930427D02*
X1671372Y-15920903D01*
X1671372Y-15920903D02*
X1690420Y-15920903D01*
X1757086Y-16054237D02*
X1757086Y-15920903D01*
X1757086Y-15854237D02*
X1747563Y-15863760D01*
X1747563Y-15863760D02*
X1757086Y-15873284D01*
X1757086Y-15873284D02*
X1766610Y-15863760D01*
X1766610Y-15863760D02*
X1757086Y-15854237D01*
X1757086Y-15854237D02*
X1757086Y-15873284D01*
X1880896Y-16054237D02*
X1861848Y-16044713D01*
X1861848Y-16044713D02*
X1852324Y-16025665D01*
X1852324Y-16025665D02*
X1852324Y-15854237D01*
X1985658Y-16054237D02*
X1966610Y-16044713D01*
X1966610Y-16044713D02*
X1957086Y-16025665D01*
X1957086Y-16025665D02*
X1957086Y-15854237D01*
X2214229Y-16054237D02*
X2214229Y-15854237D01*
X2214229Y-15854237D02*
X2280896Y-15997094D01*
X2280896Y-15997094D02*
X2347563Y-15854237D01*
X2347563Y-15854237D02*
X2347563Y-16054237D01*
X2528515Y-16054237D02*
X2528515Y-15949475D01*
X2528515Y-15949475D02*
X2518991Y-15930427D01*
X2518991Y-15930427D02*
X2499944Y-15920903D01*
X2499944Y-15920903D02*
X2461848Y-15920903D01*
X2461848Y-15920903D02*
X2442801Y-15930427D01*
X2528515Y-16044713D02*
X2509467Y-16054237D01*
X2509467Y-16054237D02*
X2461848Y-16054237D01*
X2461848Y-16054237D02*
X2442801Y-16044713D01*
X2442801Y-16044713D02*
X2433277Y-16025665D01*
X2433277Y-16025665D02*
X2433277Y-16006618D01*
X2433277Y-16006618D02*
X2442801Y-15987570D01*
X2442801Y-15987570D02*
X2461848Y-15978046D01*
X2461848Y-15978046D02*
X2509467Y-15978046D01*
X2509467Y-15978046D02*
X2528515Y-15968522D01*
X2623753Y-15920903D02*
X2623753Y-16120903D01*
X2623753Y-15930427D02*
X2642801Y-15920903D01*
X2642801Y-15920903D02*
X2680896Y-15920903D01*
X2680896Y-15920903D02*
X2699944Y-15930427D01*
X2699944Y-15930427D02*
X2709467Y-15939951D01*
X2709467Y-15939951D02*
X2718991Y-15958999D01*
X2718991Y-15958999D02*
X2718991Y-16016141D01*
X2718991Y-16016141D02*
X2709467Y-16035189D01*
X2709467Y-16035189D02*
X2699944Y-16044713D01*
X2699944Y-16044713D02*
X2680896Y-16054237D01*
X2680896Y-16054237D02*
X2642801Y-16054237D01*
X2642801Y-16054237D02*
X2623753Y-16044713D01*
X2804705Y-16035189D02*
X2814229Y-16044713D01*
X2814229Y-16044713D02*
X2804705Y-16054237D01*
X2804705Y-16054237D02*
X2795182Y-16044713D01*
X2795182Y-16044713D02*
X2804705Y-16035189D01*
X2804705Y-16035189D02*
X2804705Y-16054237D01*
X2804705Y-15930427D02*
X2814229Y-15939951D01*
X2814229Y-15939951D02*
X2804705Y-15949475D01*
X2804705Y-15949475D02*
X2795182Y-15939951D01*
X2795182Y-15939951D02*
X2804705Y-15930427D01*
X2804705Y-15930427D02*
X2804705Y-15949475D01*
M02*
